<svg version="1.2" baseProfile="tiny" viewBox="0 0 200.995 135.567" xmlns:xlink="http://www.w3.org/1999/xlink" xmlns="http://www.w3.org/2000/svg">
<path style="fill:#ffffff;" d="M164.8521,63.7192L164.8521,90.4625C164.8521,91.0848,164.3436,91.5931,163.7225,91.5931L162.5909,95.0772L157.3188,95.0772L157.3188,109.9855C157.3188,111.2287,156.7701,113.1035,156.1008,114.1515L151.7552,120.9515C151.0859,121.9995,149.5202,122.8576,148.278,122.8576L137.4484,122.8576L137.4484,126.4325L136.2243,126.4325L136.2243,126.6833L136.2243,134.5665L43.1496,134.5665L43.1496,130.3883L43.1496,130.3883L39.3287,130.3883L39.3287,130.3883L35.15,130.3883L35.15,130.3883L31.1301,129.6359L31.1301,129.6359L4.3897,128.5067C2.5245,128.5067,1.001,126.9815,1.001,125.1161L1.001,29.0656C1.001,27.2015,2.5245,25.6764,4.3897,25.6764L31.1321,24.5444L31.1321,23.7907L35.152,23.7907L35.152,22.3482L39.3287,22.3482L39.3287,23.7907L43.1516,23.7907L43.1516,25.2358L85.5033,25.2358L86.659,19.424C86.8057,18.8194,87.4368,18.3259,88.0579,18.3259L92.932,18.3259L97.8062,18.3259C98.4272,18.3259,99.0564,18.8194,99.2051,19.424L100.3608,25.2358L135.0907,25.2358L136.2243,27.4971L136.2243,27.3954L137.4484,27.3954L137.4484,31.3241L148.278,31.3241C149.5202,31.3241,151.0859,32.1809,151.7552,33.2275L156.1008,40.0289C156.7701,41.0754,157.3188,42.9503,157.3188,44.1935L157.3188,59.1031L162.5909,59.1031L163.7225,62.5872C164.3436,62.5886,164.8521,63.0969,164.8521,63.7192M92.9381,18.3273C92.9361,18.3273,92.9341,18.3287,92.932,18.3287C92.928,18.3287,92.926,18.3273,92.924,18.3273L89.1875,18.3273L89.1875,16.6829C86.4922,15.3136,84.641,12.5223,84.641,9.2904C84.641,4.7123,88.3514,1.0005,92.932,1.0005C97.5107,1.0005,101.2231,4.7123,101.2231,9.2918C101.2231,12.4884,99.4101,15.2594,96.759,16.6436L96.759,18.3287L92.9381,18.3287L92.9381,18.3287M89.493,13.76C90.1101,12.6904,91.4125,11.9475,92.93,11.9475C94.4516,11.9475,95.746,12.6945,96.357,13.7682C97.7037,12.7365,98.576,11.1179,98.576,9.2904C98.576,6.1737,96.0475,3.6468,92.93,3.6468C89.8146,3.6468,87.2861,6.1724,87.2861,9.2904C87.2881,11.1124,88.1544,12.7284,89.493,13.76M17.0705,24.173L16.7268,24.173L16.7268,23.895L12.5783,23.895L12.5783,24.173L12.2346,24.173L12.2346,25.3456L17.0705,25.1395L17.0705,24.173Z"/>
</svg>