<svg version="1.2" baseProfile="tiny" id="EdgeSVG_upOVI" x="0px" y="0px" width="200.995px" height="135.567px" viewBox="0 0 200.995 135.567" xmlns:xlink="http://www.w3.org/1999/xlink" xmlns="http://www.w3.org/2000/svg">
  <linearGradient id="SVGID_1_" gradientUnits="userSpaceOnUse" x1="0" y1="67.7832" x2="200.9951" y2="67.7832">
    <stop offset="0" style="stop-color:#000000;stop-opacity:0.5"/>
    <stop offset="1" style="stop-color:#000000;stop-opacity:0.5"/>
  </linearGradient>
  <path fill="url(#SVGID_1_)" d="M199.475,71.787h-1.435h-31.373v-5.379h-0.815v-2.689c0-0.901-0.563-1.674-1.355-1.984l-1.179-3.63&#xD;&#xA;&#x9;&#x9;h-4.999V44.195c0-1.433-0.604-3.499-1.375-4.703l-4.346-6.801c-0.848-1.327-2.745-2.366-4.319-2.366h-9.829v-3.929h-1.657&#xD;&#xA;&#x9;&#x9;l-1.083-2.159h-34.527l-1.005-5.052c-0.258-1.042-1.3-1.857-2.371-1.857h-0.047v-0.101c2.77-1.684,4.465-4.67,4.465-7.935&#xD;&#xA;&#x9;&#x9;c0-5.124-4.168-9.292-9.292-9.292S83.64,4.168,83.64,9.292c0,3.305,1.728,6.31,4.548,7.982v0.054h-0.13&#xD;&#xA;&#x9;&#x9;c-1.073,0-2.115,0.816-2.381,1.903l-0.995,5.006h-40.53v-1.445h-3.823v-1.443h-6.177v1.443h-4.02v0.794l-12.061,0.511v-0.924&#xD;&#xA;&#x9;&#x9;h-0.345v-0.278h-6.147v0.278h-0.345v1.214l-6.845,0.29c-2.42,0-4.39,1.969-4.39,4.39v96.05c0,2.42,1.968,4.389,4.346,4.389&#xD;&#xA;&#x9;&#x9;l25.786,1.091v0.794h4.02v1.546l6.177-0.001v-1.545h1.821v4.178h95.076v-8.135h1.224v-3.575h9.829c1.575,0,3.472-1.04,4.319-2.367&#xD;&#xA;&#x9;&#x9;l4.346-6.8c0.771-1.205,1.375-3.271,1.375-4.704V96.077h4.999l1.179-3.63c0.793-0.311,1.355-1.083,1.355-1.984v-2.537h0.815v-5.379&#xD;&#xA;&#x9;&#x9;h31.373h1.435h1.521v-10.76H199.475z M96.464,12.3c-0.894-0.854-2.161-1.353-3.532-1.353s-2.641,0.498-3.538,1.347&#xD;&#xA;&#x9;&#x9;c-0.711-0.831-1.105-1.885-1.105-3.002c0-2.561,2.083-4.644,4.644-4.644s4.644,2.083,4.644,4.644&#xD;&#xA;&#x9;&#x9;C97.575,10.413,97.179,11.468,96.464,12.3z"/>
</svg>