<svg version="1.2" baseProfile="tiny" id="EdgeSVG_wFzGT" x="0px" y="0px" width="200px" height="121.579px" viewBox="0 0 200 121.579" xmlns:xlink="http://www.w3.org/1999/xlink" xmlns="http://www.w3.org/2000/svg">
  <linearGradient id="SVGID_3_" gradientUnits="userSpaceOnUse" x1="34.8774" y1="93.2974" x2="50.3706" y2="93.2974">
    <stop offset="0" style="stop-color:#FFFFFF;stop-opacity:0.2"/>
    <stop offset="0.0245" style="stop-color:#000000;stop-opacity:0.5"/>
    <stop offset="0.0482" style="stop-color:#1A1A1A;stop-opacity:0.4841"/>
    <stop offset="0.097" style="stop-color:#4B4B4B;stop-opacity:0.4514"/>
    <stop offset="0.1485" style="stop-color:#767676;stop-opacity:0.4168"/>
    <stop offset="0.2018" style="stop-color:#9A9A9A;stop-opacity:0.381"/>
    <stop offset="0.2575" style="stop-color:#B7B7B7;stop-opacity:0.3436"/>
    <stop offset="0.3163" style="stop-color:#CECECE;stop-opacity:0.3042"/>
    <stop offset="0.3797" style="stop-color:#DEDEDE;stop-opacity:0.2616"/>
    <stop offset="0.4509" style="stop-color:#E8E8E8;stop-opacity:0.2139"/>
    <stop offset="0.546" style="stop-color:#EBEBEB;stop-opacity:0.15"/>
    <stop offset="0.9448" style="stop-color:#000000;stop-opacity:0.25"/>
  </linearGradient>
  <rect x="34.877" y="65.771" fill="url(#SVGID_3_)" width="15.493" height="55.052"/>
  <linearGradient id="SVGID_4_" gradientUnits="userSpaceOnUse" x1="151.0845" y1="93.2974" x2="166.5776" y2="93.2974">
    <stop offset="0.0245" style="stop-color:#000000;stop-opacity:0.5"/>
    <stop offset="0.0482" style="stop-color:#1A1A1A;stop-opacity:0.4841"/>
    <stop offset="0.097" style="stop-color:#4B4B4B;stop-opacity:0.4514"/>
    <stop offset="0.1485" style="stop-color:#767676;stop-opacity:0.4168"/>
    <stop offset="0.2018" style="stop-color:#9A9A9A;stop-opacity:0.381"/>
    <stop offset="0.2575" style="stop-color:#B7B7B7;stop-opacity:0.3436"/>
    <stop offset="0.3163" style="stop-color:#CECECE;stop-opacity:0.3042"/>
    <stop offset="0.3797" style="stop-color:#DEDEDE;stop-opacity:0.2616"/>
    <stop offset="0.4509" style="stop-color:#E8E8E8;stop-opacity:0.2139"/>
    <stop offset="0.546" style="stop-color:#EBEBEB;stop-opacity:0.15"/>
    <stop offset="0.9693" style="stop-color:#000000;stop-opacity:0.25"/>
    <stop offset="0.9939" style="stop-color:#FFFFFF;stop-opacity:0.2"/>
  </linearGradient>
  <rect x="151.084" y="65.771" fill="url(#SVGID_4_)" width="15.493" height="55.052"/>
  <linearGradient id="SVGID_5_" gradientUnits="userSpaceOnUse" x1="191.0776" y1="100.5142" x2="191.0776" y2="1.5313">
    <stop offset="0" style="stop-color:#FFFFFF;stop-opacity:0.2"/>
    <stop offset="0.2883" style="stop-color:#000000;stop-opacity:0.3"/>
    <stop offset="0.8098" style="stop-color:#FFFFFF;stop-opacity:0.5"/>
  </linearGradient>
  <path fill="url(#SVGID_5_)" d="M199.235,51.022c0,48.177-16.315,49.492-16.315,49.492V51.022V1.531&#xD;&#xA;&#x9;&#x9;C182.92,1.531,199.235,2.846,199.235,51.022z"/>
  <linearGradient id="SVGID_6_" gradientUnits="userSpaceOnUse" x1="17.3921" y1="51.0225" x2="1.0767" y2="51.0225">
    <stop offset="0.135" style="stop-color:#0A0A0A;stop-opacity:0.4"/>
    <stop offset="0.3129" style="stop-color:#000000;stop-opacity:0.2476"/>
    <stop offset="0.3285" style="stop-color:#0D0D0D;stop-opacity:0.2538"/>
    <stop offset="0.4016" style="stop-color:#454545;stop-opacity:0.2824"/>
    <stop offset="0.477" style="stop-color:#777777;stop-opacity:0.3119"/>
    <stop offset="0.553" style="stop-color:#A1A1A1;stop-opacity:0.3417"/>
    <stop offset="0.6298" style="stop-color:#C3C3C3;stop-opacity:0.3718"/>
    <stop offset="0.7077" style="stop-color:#DDDDDD;stop-opacity:0.4023"/>
    <stop offset="0.7871" style="stop-color:#F0F0F0;stop-opacity:0.4334"/>
    <stop offset="0.8689" style="stop-color:#FBFBFB;stop-opacity:0.4655"/>
    <stop offset="0.9571" style="stop-color:#FFFFFF;stop-opacity:0.5"/>
  </linearGradient>
  <path fill="url(#SVGID_6_)" d="M1.077,51.023c0-48.177,16.315-49.492,16.315-49.492v49.492v49.491&#xD;&#xA;&#x9;&#x9;C17.392,100.514,1.077,99.199,1.077,51.023z"/>
  <linearGradient id="SVGID_7_" gradientUnits="userSpaceOnUse" x1="182.9199" y1="51.0225" x2="199.2354" y2="51.0225">
    <stop offset="0.135" style="stop-color:#0A0A0A;stop-opacity:0.4"/>
    <stop offset="0.3006" style="stop-color:#000000;stop-opacity:0.2693"/>
    <stop offset="0.9571" style="stop-color:#FFFFFF;stop-opacity:0.5"/>
  </linearGradient>
  <path fill="url(#SVGID_7_)" d="M199.235,51.022c0,48.177-16.315,49.492-16.315,49.492V51.022V1.531&#xD;&#xA;&#x9;&#x9;C182.92,1.531,199.235,2.846,199.235,51.022z"/>
  <linearGradient id="SVGID_8_" gradientUnits="userSpaceOnUse" x1="182.9199" y1="100.6025" x2="182.9199" y2="1.5313">
    <stop offset="0" style="stop-color:#0A0A0A;stop-opacity:0"/>
    <stop offset="0.5153" style="stop-color:#FFFFFF;stop-opacity:0.5"/>
    <stop offset="0.5619" style="stop-color:#F9F9F9;stop-opacity:0.4507"/>
    <stop offset="0.6249" style="stop-color:#E8E8E8;stop-opacity:0.384"/>
    <stop offset="0.6973" style="stop-color:#CBCBCB;stop-opacity:0.3074"/>
    <stop offset="0.7768" style="stop-color:#A4A4A4;stop-opacity:0.2233"/>
    <stop offset="0.8619" style="stop-color:#717171;stop-opacity:0.1332"/>
    <stop offset="0.9505" style="stop-color:#343434;stop-opacity:0.0394"/>
    <stop offset="0.9877" style="stop-color:#181818;stop-opacity:0"/>
  </linearGradient>
  <rect x="182.333" y="1.531" fill="url(#SVGID_8_)" width="1.174" height="99.071"/>
  <linearGradient id="SVGID_9_" gradientUnits="userSpaceOnUse" x1="18.5347" y1="100.6025" x2="18.5347" y2="1.5308">
    <stop offset="0" style="stop-color:#0A0A0A;stop-opacity:0"/>
    <stop offset="0.5153" style="stop-color:#FFFFFF;stop-opacity:0.5"/>
    <stop offset="0.5619" style="stop-color:#F9F9F9;stop-opacity:0.4507"/>
    <stop offset="0.6249" style="stop-color:#E8E8E8;stop-opacity:0.384"/>
    <stop offset="0.6973" style="stop-color:#CBCBCB;stop-opacity:0.3074"/>
    <stop offset="0.7768" style="stop-color:#A4A4A4;stop-opacity:0.2233"/>
    <stop offset="0.8619" style="stop-color:#717171;stop-opacity:0.1332"/>
    <stop offset="0.9505" style="stop-color:#343434;stop-opacity:0.0394"/>
    <stop offset="0.9877" style="stop-color:#181818;stop-opacity:0"/>
  </linearGradient>
  <rect x="17.948" y="1.531" fill="url(#SVGID_9_)" width="1.174" height="99.072"/>
  <linearGradient id="SVGID_10_" gradientUnits="userSpaceOnUse" x1="99.8105" y1="35.0186" x2="99.8105" y2="1.5713">
    <stop offset="0.0859" style="stop-color:#000000;stop-opacity:0"/>
    <stop offset="0.362" style="stop-color:#EEEEEF;stop-opacity:0.2"/>
  </linearGradient>
  <path fill="url(#SVGID_10_)" d="M180.989,1.571h-32.528h-8.32h-40.094h-0.473H59.48h-8.32H18.632c0,0-15.885,4.486-15.885,33.447&#xD;&#xA;&#x9;&#x9;c0,0,3.805-14.484,15.885-14.484H51.16h4.739c0.798,0.425,1.958,0.472,3.581,0h40.094h0.473h40.094&#xD;&#xA;&#x9;&#x9;c1.623,0.472,2.783,0.425,3.582,0h4.739h32.528c12.081,0,15.886,14.484,15.886,14.484C196.875,6.058,180.989,1.571,180.989,1.571z"/>
  <linearGradient id="SVGID_11_" gradientUnits="userSpaceOnUse" x1="182.9751" y1="74.8511" x2="198.6172" y2="74.8511">
    <stop offset="0" style="stop-color:#FFFFFF;stop-opacity:0.1"/>
    <stop offset="1" style="stop-color:#E6E7E8;stop-opacity:0.2"/>
  </linearGradient>
  <path fill="url(#SVGID_11_)" d="M182.975,88.268c0,0,15.642-2.598,15.642-26.833c0,0-7.821,4.814-15.642,4.814V88.268"/>
  <linearGradient id="SVGID_12_" gradientUnits="userSpaceOnUse" x1="2.0884" y1="76.542" x2="18.2935" y2="76.542">
    <stop offset="0" style="stop-color:#FFFFFF;stop-opacity:0.1"/>
    <stop offset="1" style="stop-color:#E6E7E8;stop-opacity:0.2"/>
  </linearGradient>
  <path fill="url(#SVGID_12_)" d="M18.293,89.958c0,0-16.205-2.598-16.205-26.833c0,0,8.103,4.814,16.205,4.814V89.958"/>
  <linearGradient id="SVGID_13_" gradientUnits="userSpaceOnUse" x1="42.624" y1="120.8232" x2="42.624" y2="65.7715">
    <stop offset="0.9264" style="stop-color:#000000;stop-opacity:0"/>
    <stop offset="0.9354" style="stop-color:#040404;stop-opacity:0.0734"/>
    <stop offset="0.9446" style="stop-color:#101010;stop-opacity:0.1484"/>
    <stop offset="0.9539" style="stop-color:#252525;stop-opacity:0.2243"/>
    <stop offset="0.9633" style="stop-color:#424242;stop-opacity:0.3008"/>
    <stop offset="0.9727" style="stop-color:#676767;stop-opacity:0.3777"/>
    <stop offset="0.9822" style="stop-color:#949494;stop-opacity:0.4551"/>
    <stop offset="0.9916" style="stop-color:#C9C9C9;stop-opacity:0.5312"/>
    <stop offset="1" style="stop-color:#FFFFFF;stop-opacity:0.6"/>
  </linearGradient>
  <rect x="34.877" y="65.771" fill="url(#SVGID_13_)" width="15.493" height="55.052"/>
  <linearGradient id="SVGID_14_" gradientUnits="userSpaceOnUse" x1="158.8311" y1="120.8232" x2="158.8311" y2="65.7715">
    <stop offset="0.9264" style="stop-color:#000000;stop-opacity:0"/>
    <stop offset="0.9354" style="stop-color:#040404;stop-opacity:0.0734"/>
    <stop offset="0.9446" style="stop-color:#101010;stop-opacity:0.1484"/>
    <stop offset="0.9539" style="stop-color:#252525;stop-opacity:0.2243"/>
    <stop offset="0.9633" style="stop-color:#424242;stop-opacity:0.3008"/>
    <stop offset="0.9727" style="stop-color:#676767;stop-opacity:0.3777"/>
    <stop offset="0.9822" style="stop-color:#949494;stop-opacity:0.4551"/>
    <stop offset="0.9916" style="stop-color:#C9C9C9;stop-opacity:0.5312"/>
    <stop offset="1" style="stop-color:#FFFFFF;stop-opacity:0.6"/>
  </linearGradient>
  <rect x="151.084" y="65.771" fill="url(#SVGID_14_)" width="15.493" height="55.052"/>
  <linearGradient id="SVGID_15_" gradientUnits="userSpaceOnUse" x1="158.8311" y1="120.8232" x2="158.8311" y2="65.7715">
    <stop offset="0" style="stop-color:#000000;stop-opacity:0.5"/>
    <stop offset="0.0173" style="stop-color:#000000;stop-opacity:0.4293"/>
    <stop offset="0.1227" style="stop-color:#000000;stop-opacity:0"/>
  </linearGradient>
  <rect x="151.084" y="65.771" fill="url(#SVGID_15_)" width="15.493" height="55.052"/>
  <linearGradient id="SVGID_16_" gradientUnits="userSpaceOnUse" x1="42.624" y1="120.8232" x2="42.624" y2="65.7715">
    <stop offset="0" style="stop-color:#000000;stop-opacity:0.5"/>
    <stop offset="0.0173" style="stop-color:#000000;stop-opacity:0.4293"/>
    <stop offset="0.1227" style="stop-color:#000000;stop-opacity:0"/>
  </linearGradient>
  <rect x="34.877" y="65.771" fill="url(#SVGID_16_)" width="15.493" height="55.052"/>
  <linearGradient id="SVGID_17_" gradientUnits="userSpaceOnUse" x1="100.7754" y1="1.3555" x2="100.7754" y2="100.6025">
    <stop offset="0" style="stop-color:#000000;stop-opacity:0.05"/>
    <stop offset="0.1779" style="stop-color:#FFFFFF;stop-opacity:0.6"/>
    <stop offset="0.2309" style="stop-color:#FCFCFC;stop-opacity:0.5166"/>
    <stop offset="0.2773" style="stop-color:#F1F1F1;stop-opacity:0.4435"/>
    <stop offset="0.3213" style="stop-color:#DFDFDF;stop-opacity:0.3741"/>
    <stop offset="0.3639" style="stop-color:#C5C5C5;stop-opacity:0.3071"/>
    <stop offset="0.4054" style="stop-color:#A5A5A5;stop-opacity:0.2418"/>
    <stop offset="0.4461" style="stop-color:#7D7D7D;stop-opacity:0.1777"/>
    <stop offset="0.4862" style="stop-color:#4D4D4D;stop-opacity:0.1146"/>
    <stop offset="0.5247" style="stop-color:#171717;stop-opacity:0.0539"/>
    <stop offset="0.5399" style="stop-color:#000000;stop-opacity:0.03"/>
    <stop offset="0.6933" style="stop-color:#000000;stop-opacity:0.05"/>
    <stop offset="0.9755" style="stop-color:#0A0A0A;stop-opacity:0.4"/>
    <stop offset="0.9823" style="stop-color:#060606;stop-opacity:0.2878"/>
    <stop offset="1" style="stop-color:#000000;stop-opacity:0"/>
  </linearGradient>
  <polygon fill="url(#SVGID_17_)" points="18.044,1.531 18.044,100.603 34.877,100.603 34.877,71.548 50.371,71.548 50.371,100.603 &#xD;&#xA;&#x9;&#x9;151.084,100.603 151.084,71.548 166.578,71.548 166.578,100.603 183.507,100.603 183.507,1.355 &#x9;"/>
  <linearGradient id="SVGID_18_" gradientUnits="userSpaceOnUse" x1="100.7754" y1="1.5308" x2="100.7754" y2="100.6025">
    <stop offset="0.7055" style="stop-color:#000000;stop-opacity:0"/>
    <stop offset="0.9448" style="stop-color:#0A0A0A;stop-opacity:0.4"/>
    <stop offset="0.9603" style="stop-color:#060606;stop-opacity:0.2878"/>
    <stop offset="1" style="stop-color:#000000;stop-opacity:0"/>
  </linearGradient>
  <polygon fill="url(#SVGID_18_)" points="18.044,1.531 18.044,100.603 34.877,100.603 34.877,65.771 50.371,65.771 50.371,100.603 &#xD;&#xA;&#x9;&#x9;151.084,100.603 151.084,65.771 166.578,65.771 166.578,100.603 182.92,100.514 183.507,1.531 &#x9;"/>
  <g>
    <linearGradient id="SVGID_19_" gradientUnits="userSpaceOnUse" x1="19.1748" y1="100.6025" x2="19.1748" y2="71.5483">
      <stop offset="0.1656" style="stop-color:#0A0A0A;stop-opacity:0.1"/>
      <stop offset="0.3597" style="stop-color:#585858;stop-opacity:0.0856"/>
      <stop offset="0.595" style="stop-color:#B1B1B1;stop-opacity:0.0682"/>
      <stop offset="0.7608" style="stop-color:#E9E9E9;stop-opacity:0.0559"/>
      <stop offset="0.8405" style="stop-color:#FFFFFF;stop-opacity:0.05"/>
    </linearGradient>
    <path fill="url(#SVGID_19_)" d="M34.877,81.811c-8.503,0-14.386,0-16.059,0c-9.222,0-15.346-10.263-15.346-10.263&#xD;&#xA;&#x9;&#x9;&#x9;c0,21.88,14.562,29.054,14.562,29.054h16.843V81.811z"/>
    <linearGradient id="SVGID_20_" gradientUnits="userSpaceOnUse" x1="100.7275" y1="100.6025" x2="100.7275" y2="81.811">
      <stop offset="0.1656" style="stop-color:#0A0A0A;stop-opacity:0.1"/>
      <stop offset="0.3597" style="stop-color:#585858;stop-opacity:0.0856"/>
      <stop offset="0.595" style="stop-color:#B1B1B1;stop-opacity:0.0682"/>
      <stop offset="0.7608" style="stop-color:#E9E9E9;stop-opacity:0.0559"/>
      <stop offset="0.8405" style="stop-color:#FFFFFF;stop-opacity:0.05"/>
    </linearGradient>
    <path fill="url(#SVGID_20_)" d="M61.585,81.811c-3.895,0-7.649,0-11.214,0v18.792h9.902h79.801h11.011V81.811&#xD;&#xA;&#x9;&#x9;&#x9;c-3.892,0-8.021,0-12.322,0C95.494,81.811,61.585,81.811,61.585,81.811z"/>
  </g>
  <linearGradient id="SVGID_21_" gradientUnits="userSpaceOnUse" x1="60.2729" y1="85.0249" x2="50.3706" y2="85.0249">
    <stop offset="0.0245" style="stop-color:#000000;stop-opacity:0.5"/>
    <stop offset="0.098" style="stop-color:#000000;stop-opacity:0.4519"/>
    <stop offset="0.7117" style="stop-color:#000000;stop-opacity:0.05"/>
  </linearGradient>
  <path fill="url(#SVGID_21_)" d="M50.371,71.548v26.953h9.902C60.273,98.501,50.371,87.714,50.371,71.548z"/>
  <linearGradient id="SVGID_22_" gradientUnits="userSpaceOnUse" x1="176.48" y1="85.0249" x2="166.5776" y2="85.0249">
    <stop offset="0.0245" style="stop-color:#000000;stop-opacity:0.5"/>
    <stop offset="0.098" style="stop-color:#000000;stop-opacity:0.4519"/>
    <stop offset="0.7117" style="stop-color:#000000;stop-opacity:0.05"/>
  </linearGradient>
  <path fill="url(#SVGID_22_)" d="M166.578,71.548v26.953h9.902C176.48,98.501,166.578,87.714,166.578,71.548z"/>
  <linearGradient id="SVGID_23_" gradientUnits="userSpaceOnUse" x1="34.8774" y1="85.0249" x2="24.9746" y2="85.0249">
    <stop offset="0.0245" style="stop-color:#000000;stop-opacity:0.5"/>
    <stop offset="0.098" style="stop-color:#000000;stop-opacity:0.4519"/>
    <stop offset="0.7117" style="stop-color:#000000;stop-opacity:0.05"/>
  </linearGradient>
  <path fill="url(#SVGID_23_)" d="M34.877,71.548v26.953h-9.903C24.975,98.501,34.877,87.714,34.877,71.548z"/>
  <linearGradient id="SVGID_24_" gradientUnits="userSpaceOnUse" x1="151.0845" y1="85.0249" x2="141.1816" y2="85.0249">
    <stop offset="0.0245" style="stop-color:#000000;stop-opacity:0.5"/>
    <stop offset="0.098" style="stop-color:#000000;stop-opacity:0.4519"/>
    <stop offset="0.7117" style="stop-color:#000000;stop-opacity:0.05"/>
  </linearGradient>
  <path fill="url(#SVGID_24_)" d="M151.084,71.548v26.953h-9.903C141.182,98.501,151.084,87.714,151.084,71.548z"/>
</svg>