<svg version="1.2" baseProfile="tiny" id="EdgeSVG_pFPGh" x="0px" y="0px" width="317.107px" height="132.862px" viewBox="0 0 317.107 132.862" xmlns:xlink="http://www.w3.org/1999/xlink" xmlns="http://www.w3.org/2000/svg">
  <linearGradient id="SVGID_2_" gradientUnits="userSpaceOnUse" x1="280.5747" y1="81.8643" x2="283.1079" y2="81.8643">
    <stop offset="0" style="stop-color:#000000;stop-opacity:0.3"/>
    <stop offset="0.3988" style="stop-color:#000000;stop-opacity:0"/>
    <stop offset="1" style="stop-color:#000000;stop-opacity:0"/>
  </linearGradient>
  <polygon fill="url(#SVGID_2_)" points="283.108,120.847 280.575,124.506 280.575,39.222 283.108,42.881 &#x9;"/>
  <linearGradient id="SVGID_3_" gradientUnits="userSpaceOnUse" x1="277.0571" y1="35.6094" x2="277.0571" y2="131.8608">
    <stop offset="0" style="stop-color:#FFFFFF;stop-opacity:0.05"/>
    <stop offset="0.0088" style="stop-color:#FFFFFF;stop-opacity:0.25"/>
    <stop offset="0.0184" style="stop-color:#FFFFFF;stop-opacity:0.1"/>
    <stop offset="0.0368" style="stop-color:#FFFFFF;stop-opacity:0.45"/>
    <stop offset="0.1685" style="stop-color:#FFFFFF;stop-opacity:0.1381"/>
    <stop offset="0.1846" style="stop-color:#FFFFFF;stop-opacity:0.1"/>
    <stop offset="0.1978" style="stop-color:#999999;stop-opacity:0.25"/>
    <stop offset="0.822" style="stop-color:#3F3F3F;stop-opacity:0.25"/>
    <stop offset="0.8396" style="stop-color:#000000;stop-opacity:0.25"/>
    <stop offset="0.9755" style="stop-color:#000000;stop-opacity:0.55"/>
    <stop offset="0.9816" style="stop-color:#000000;stop-opacity:0.45"/>
    <stop offset="1" style="stop-color:#000000;stop-opacity:0.75"/>
  </linearGradient>
  <path fill="url(#SVGID_3_)" d="M280.575,130.737c0,0.618-0.505,1.123-1.123,1.123h-4.79c-0.618,0-1.123-0.505-1.123-1.123V36.732&#xD;&#xA;&#x9;&#x9;c0-0.618,0.505-1.123,1.123-1.123h4.79c0.617,0,1.123,0.505,1.123,1.123V130.737z"/>
  <linearGradient id="SVGID_4_" gradientUnits="userSpaceOnUse" x1="273.5391" y1="83.7349" x2="280.5747" y2="83.7349">
    <stop offset="0" style="stop-color:#000000;stop-opacity:0.25"/>
    <stop offset="0.1" style="stop-color:#000000;stop-opacity:0"/>
    <stop offset="0.9" style="stop-color:#000000;stop-opacity:0"/>
    <stop offset="1" style="stop-color:#000000;stop-opacity:0.25"/>
  </linearGradient>
  <path fill="url(#SVGID_4_)" d="M280.575,130.737c0,0.618-0.505,1.123-1.123,1.123h-4.79c-0.618,0-1.123-0.505-1.123-1.123V36.732&#xD;&#xA;&#x9;&#x9;c0-0.618,0.505-1.123,1.123-1.123h4.79c0.617,0,1.123,0.505,1.123,1.123V130.737z"/>
  <linearGradient id="SVGID_5_" gradientUnits="userSpaceOnUse" x1="281.8413" y1="39.2222" x2="281.8413" y2="124.5063">
    <stop offset="0.0123" style="stop-color:#000000;stop-opacity:0.2"/>
    <stop offset="0.0462" style="stop-color:#FFFFFF;stop-opacity:0.2"/>
    <stop offset="0.0967" style="stop-color:#000000;stop-opacity:0.2"/>
    <stop offset="0.1098" style="stop-color:#393939;stop-opacity:0.2255"/>
    <stop offset="0.1272" style="stop-color:#7F7F7F;stop-opacity:0.2595"/>
    <stop offset="0.143" style="stop-color:#B6B6B6;stop-opacity:0.2902"/>
    <stop offset="0.1564" style="stop-color:#DEDEDE;stop-opacity:0.3165"/>
    <stop offset="0.1671" style="stop-color:#F6F6F6;stop-opacity:0.3373"/>
    <stop offset="0.1736" style="stop-color:#FFFFFF;stop-opacity:0.35"/>
    <stop offset="0.2989" style="stop-color:#FFFFFF;stop-opacity:0.2"/>
    <stop offset="0.8589" style="stop-color:#000000;stop-opacity:0.75"/>
    <stop offset="0.9325" style="stop-color:#000000;stop-opacity:0.45"/>
    <stop offset="0.9755" style="stop-color:#000000;stop-opacity:0.75"/>
  </linearGradient>
  <polygon fill="url(#SVGID_5_)" points="283.108,120.847 280.575,124.506 280.575,39.222 283.108,42.881 &#x9;"/>
  <path fill="#CCCCCC" d="M316.107,76.924v9.879c0,0.805-0.674,1.464-1.497,1.464h-31.502c0-2.474,0-10.146,0-12.807h31.502&#xD;&#xA;&#x9;&#x9;C315.434,75.461,316.107,76.119,316.107,76.924z"/>
  <linearGradient id="SVGID_6_" gradientUnits="userSpaceOnUse" x1="299.6079" y1="75.4609" x2="299.6079" y2="88.2676">
    <stop offset="0.0123" style="stop-color:#000000;stop-opacity:0.2"/>
    <stop offset="0.0736" style="stop-color:#000000;stop-opacity:0"/>
    <stop offset="0.1227" style="stop-color:#000000;stop-opacity:0.4"/>
    <stop offset="0.1634" style="stop-color:#393939;stop-opacity:0.4596"/>
    <stop offset="0.2177" style="stop-color:#7F7F7F;stop-opacity:0.5389"/>
    <stop offset="0.2666" style="stop-color:#B6B6B6;stop-opacity:0.6105"/>
    <stop offset="0.3085" style="stop-color:#DEDEDE;stop-opacity:0.6718"/>
    <stop offset="0.3417" style="stop-color:#F6F6F6;stop-opacity:0.7203"/>
    <stop offset="0.362" style="stop-color:#FFFFFF;stop-opacity:0.75"/>
    <stop offset="0.4042" style="stop-color:#F6F6F6;stop-opacity:0.75"/>
    <stop offset="0.473" style="stop-color:#DEDEDE;stop-opacity:0.75"/>
    <stop offset="0.56" style="stop-color:#B6B6B6;stop-opacity:0.75"/>
    <stop offset="0.6617" style="stop-color:#7F7F7F;stop-opacity:0.75"/>
    <stop offset="0.7743" style="stop-color:#393939;stop-opacity:0.75"/>
    <stop offset="0.8589" style="stop-color:#000000;stop-opacity:0.75"/>
    <stop offset="0.9325" style="stop-color:#000000;stop-opacity:0.45"/>
    <stop offset="0.9755" style="stop-color:#000000;stop-opacity:0.75"/>
  </linearGradient>
  <path fill="url(#SVGID_6_)" d="M316.107,76.924v9.879c0,0.805-0.674,1.464-1.497,1.464h-31.502c0-2.474,0-10.146,0-12.807h31.502&#xD;&#xA;&#x9;&#x9;C315.434,75.461,316.107,76.119,316.107,76.924z"/>
  <linearGradient id="SVGID_7_" gradientUnits="userSpaceOnUse" x1="283.1079" y1="81.8643" x2="316.1074" y2="81.8643">
    <stop offset="0" style="stop-color:#000000;stop-opacity:0.2"/>
    <stop offset="0.1227" style="stop-color:#000000;stop-opacity:0.1"/>
    <stop offset="0.1683" style="stop-color:#000000;stop-opacity:0.0941"/>
    <stop offset="0.8957" style="stop-color:#000000;stop-opacity:0"/>
    <stop offset="0.9962" style="stop-color:#000000;stop-opacity:0.2891"/>
    <stop offset="1" style="stop-color:#000000;stop-opacity:0.3"/>
  </linearGradient>
  <path fill="url(#SVGID_7_)" d="M316.107,76.924v9.879c0,0.805-0.674,1.464-1.497,1.464h-31.502c0-2.474,0-10.146,0-12.807h31.502&#xD;&#xA;&#x9;&#x9;C315.434,75.461,316.107,76.119,316.107,76.924z"/>
  <linearGradient id="SVGID_8_" gradientUnits="userSpaceOnUse" x1="247.7661" y1="35.6084" x2="247.7661" y2="128.1196">
    <stop offset="0" style="stop-color:#FFFFFF;stop-opacity:0.05"/>
    <stop offset="0.0088" style="stop-color:#FFFFFF;stop-opacity:0.25"/>
    <stop offset="0.0184" style="stop-color:#FFFFFF;stop-opacity:0.1"/>
    <stop offset="0.0368" style="stop-color:#FFFFFF;stop-opacity:0.45"/>
    <stop offset="0.2547" style="stop-color:#FFFFFF;stop-opacity:0.1826"/>
    <stop offset="0.2813" style="stop-color:#FFFFFF;stop-opacity:0.15"/>
    <stop offset="0.2813" style="stop-color:#999999;stop-opacity:0.25"/>
    <stop offset="0.7385" style="stop-color:#3F3F3F;stop-opacity:0.25"/>
    <stop offset="0.7429" style="stop-color:#000000;stop-opacity:0.25"/>
    <stop offset="0.9755" style="stop-color:#000000;stop-opacity:0.55"/>
    <stop offset="0.9816" style="stop-color:#000000;stop-opacity:0.45"/>
    <stop offset="1" style="stop-color:#000000;stop-opacity:0.75"/>
  </linearGradient>
  <path fill="url(#SVGID_8_)" d="M274.66,35.608c-0.617,0-1.123,0.506-1.123,1.123v91.388h-33.029&#xD;&#xA;&#x9;&#x9;c-7.917-1.021-16.926-2.187-17.42-2.249c-0.887-0.116-1.093-0.506-1.093-1.254c0-0.749,0-87.885,0-87.885&#xD;&#xA;&#x9;&#x9;c0-0.617-0.505-1.123-1.123-1.123H274.66z"/>
  <linearGradient id="SVGID_9_" gradientUnits="userSpaceOnUse" x1="81.9336" y1="35.6084" x2="81.9336" y2="131.8628">
    <stop offset="0" style="stop-color:#FFFFFF;stop-opacity:0.05"/>
    <stop offset="0.0088" style="stop-color:#FFFFFF;stop-opacity:0.25"/>
    <stop offset="0.0184" style="stop-color:#FFFFFF;stop-opacity:0.1"/>
    <stop offset="0.0286" style="stop-color:#FFFFFF;stop-opacity:0.45"/>
    <stop offset="0.0462" style="stop-color:#FFFFFF;stop-opacity:0.1381"/>
    <stop offset="0.0484" style="stop-color:#FFFFFF;stop-opacity:0.1"/>
    <stop offset="0.9582" style="stop-color:#000000;stop-opacity:0.25"/>
    <stop offset="0.9755" style="stop-color:#000000;stop-opacity:0.55"/>
    <stop offset="0.9816" style="stop-color:#000000;stop-opacity:0.45"/>
    <stop offset="1" style="stop-color:#000000;stop-opacity:0.75"/>
  </linearGradient>
  <path fill="url(#SVGID_9_)" d="M106.681,36.731v94.008c0,0.617-0.505,1.123-1.123,1.123H57.935c-0.412,0-0.749-0.337-0.749-0.748&#xD;&#xA;&#x9;&#x9;v-0.604c0-0.411,0.333-0.793,0.741-0.846c0,0,7.857-0.729,16.661-1.546c10.993-1.021,23.469-2.187,23.963-2.249&#xD;&#xA;&#x9;&#x9;c0.888-0.116,1.093-0.506,1.093-1.254v-18.499c0-1.123-0.573-1.605-1.572-1.605c-1,0-36.683,0-36.683,0&#xD;&#xA;&#x9;&#x9;c-0.412,0-0.749-0.341-0.749-0.749V63.712c0-0.412,0.337-0.749,0.749-0.749c0,0,35.436,0,36.683,0c1.246,0,1.572-0.64,1.572-1.763&#xD;&#xA;&#x9;&#x9;V36.731c0-0.617,0.505-1.123,1.123-1.123h4.791C106.176,35.608,106.681,36.114,106.681,36.731z"/>
  <linearGradient id="SVGID_10_" gradientUnits="userSpaceOnUse" x1="57.186" y1="83.7354" x2="106.6812" y2="83.7354">
    <stop offset="0" style="stop-color:#000000;stop-opacity:0.1"/>
    <stop offset="0.4022" style="stop-color:#000000;stop-opacity:0.05"/>
    <stop offset="0.9912" style="stop-color:#000000;stop-opacity:0.1"/>
    <stop offset="0.9934" style="stop-color:#000000;stop-opacity:0.25"/>
  </linearGradient>
  <path fill="url(#SVGID_10_)" d="M106.681,36.731v94.008c0,0.617-0.505,1.123-1.123,1.123H57.935c-0.412,0-0.749-0.337-0.749-0.748&#xD;&#xA;&#x9;&#x9;v-0.604c0-0.411,0.333-0.793,0.741-0.846c0,0,7.857-0.729,16.661-1.546c10.993-1.021,23.469-2.187,23.963-2.249&#xD;&#xA;&#x9;&#x9;c0.888-0.116,1.093-0.506,1.093-1.254v-18.499c0-1.123-0.573-1.605-1.572-1.605c-1,0-36.683,0-36.683,0&#xD;&#xA;&#x9;&#x9;c-0.412,0-0.749-0.341-0.749-0.749V63.712c0-0.412,0.337-0.749,0.749-0.749c0,0,35.436,0,36.683,0c1.246,0,1.572-0.64,1.572-1.763&#xD;&#xA;&#x9;&#x9;V36.731c0-0.617,0.505-1.123,1.123-1.123h4.791C106.176,35.608,106.681,36.114,106.681,36.731z"/>
  <linearGradient id="SVGID_11_" gradientUnits="userSpaceOnUse" x1="234.0908" y1="35.6084" x2="234.0908" y2="131.8628">
    <stop offset="0" style="stop-color:#FFFFFF;stop-opacity:0.05"/>
    <stop offset="0.0088" style="stop-color:#FFFFFF;stop-opacity:0.25"/>
    <stop offset="0.0184" style="stop-color:#FFFFFF;stop-opacity:0.1"/>
    <stop offset="0.0286" style="stop-color:#FFFFFF;stop-opacity:0.45"/>
    <stop offset="0.0462" style="stop-color:#FFFFFF;stop-opacity:0.1381"/>
    <stop offset="0.0484" style="stop-color:#FFFFFF;stop-opacity:0.1"/>
    <stop offset="0.9582" style="stop-color:#000000;stop-opacity:0.25"/>
    <stop offset="0.9755" style="stop-color:#000000;stop-opacity:0.55"/>
    <stop offset="0.9816" style="stop-color:#000000;stop-opacity:0.45"/>
    <stop offset="1" style="stop-color:#000000;stop-opacity:0.75"/>
  </linearGradient>
  <path fill="url(#SVGID_11_)" d="M253.224,130.511v0.604c0,0.411-0.337,0.748-0.749,0.748h-36.394c-0.618,0-1.123-0.506-1.123-1.123&#xD;&#xA;&#x9;&#x9;V36.731c0-0.617,0.505-1.123,1.123-1.123h4.791c0.617,0,1.123,0.506,1.123,1.123c0,0,0,87.136,0,87.885&#xD;&#xA;&#x9;&#x9;c0,0.748,0.206,1.138,1.093,1.254c0.887,0.112,29.395,3.795,29.395,3.795C252.891,129.718,253.224,130.1,253.224,130.511z"/>
  <linearGradient id="SVGID_12_" gradientUnits="userSpaceOnUse" x1="160.8198" y1="35.6084" x2="160.8198" y2="128.1196">
    <stop offset="0" style="stop-color:#FFFFFF;stop-opacity:0.05"/>
    <stop offset="0.0088" style="stop-color:#FFFFFF;stop-opacity:0.25"/>
    <stop offset="0.0184" style="stop-color:#FFFFFF;stop-opacity:0.1"/>
    <stop offset="0.0368" style="stop-color:#FFFFFF;stop-opacity:0.45"/>
    <stop offset="0.1685" style="stop-color:#FFFFFF;stop-opacity:0.1381"/>
    <stop offset="0.1846" style="stop-color:#FFFFFF;stop-opacity:0.1"/>
    <stop offset="0.1978" style="stop-color:#999999;stop-opacity:0.25"/>
    <stop offset="0.822" style="stop-color:#3F3F3F;stop-opacity:0.25"/>
    <stop offset="0.8396" style="stop-color:#000000;stop-opacity:0.25"/>
    <stop offset="0.9755" style="stop-color:#000000;stop-opacity:0.55"/>
    <stop offset="0.9816" style="stop-color:#000000;stop-opacity:0.45"/>
    <stop offset="1" style="stop-color:#000000;stop-opacity:0.75"/>
  </linearGradient>
  <path fill="url(#SVGID_12_)" d="M216.081,35.608c-0.618,0-1.123,0.506-1.123,1.123v91.388H106.681V36.731&#xD;&#xA;&#x9;&#x9;c0-0.617-0.505-1.123-1.123-1.123H216.081z"/>
  <linearGradient id="SVGID_13_" gradientUnits="userSpaceOnUse" x1="68.6626" y1="35.6084" x2="68.6626" y2="128.1196">
    <stop offset="0" style="stop-color:#FFFFFF;stop-opacity:0.05"/>
    <stop offset="0.0088" style="stop-color:#FFFFFF;stop-opacity:0.25"/>
    <stop offset="0.0184" style="stop-color:#FFFFFF;stop-opacity:0.1"/>
    <stop offset="0.0368" style="stop-color:#FFFFFF;stop-opacity:0.45"/>
    <stop offset="0.1685" style="stop-color:#FFFFFF;stop-opacity:0.1381"/>
    <stop offset="0.1846" style="stop-color:#FFFFFF;stop-opacity:0.1"/>
    <stop offset="0.1978" style="stop-color:#999999;stop-opacity:0.25"/>
    <stop offset="0.822" style="stop-color:#3F3F3F;stop-opacity:0.25"/>
    <stop offset="0.8396" style="stop-color:#000000;stop-opacity:0.25"/>
    <stop offset="0.9755" style="stop-color:#000000;stop-opacity:0.55"/>
    <stop offset="0.9816" style="stop-color:#000000;stop-opacity:0.45"/>
    <stop offset="1" style="stop-color:#000000;stop-opacity:0.75"/>
  </linearGradient>
  <path fill="url(#SVGID_13_)" d="M60.641,63.712v40.051c0,0.408,0.337,0.749,0.749,0.749c0,0,35.683,0,36.683,0&#xD;&#xA;&#x9;&#x9;c0.999,0,1.572,0.482,1.572,1.605v18.499c0,0.748-0.206,1.138-1.093,1.254c-0.494,0.063-12.97,1.228-23.963,2.249H38.804&#xD;&#xA;&#x9;&#x9;c-0.618,0-1.123-0.505-1.123-1.122V36.731c0-0.617,0.505-1.123,1.123-1.123h59.718c0.617,0,1.123,0.506,1.123,1.123V61.2&#xD;&#xA;&#x9;&#x9;c0,1.123-0.326,1.763-1.572,1.763c-1.247,0-36.683,0-36.683,0C60.978,62.963,60.641,63.3,60.641,63.712z"/>
  <linearGradient id="SVGID_14_" gradientUnits="userSpaceOnUse" x1="21.7119" y1="35.6084" x2="21.7119" y2="128.1196">
    <stop offset="0" style="stop-color:#FFFFFF;stop-opacity:0.05"/>
    <stop offset="0.0088" style="stop-color:#FFFFFF;stop-opacity:0.25"/>
    <stop offset="0.0184" style="stop-color:#FFFFFF;stop-opacity:0.1"/>
    <stop offset="0.0368" style="stop-color:#FFFFFF;stop-opacity:0.45"/>
    <stop offset="0.1685" style="stop-color:#FFFFFF;stop-opacity:0.1381"/>
    <stop offset="0.1846" style="stop-color:#FFFFFF;stop-opacity:0.1"/>
    <stop offset="0.1978" style="stop-color:#999999;stop-opacity:0.25"/>
    <stop offset="0.822" style="stop-color:#3F3F3F;stop-opacity:0.25"/>
    <stop offset="0.8396" style="stop-color:#000000;stop-opacity:0.25"/>
    <stop offset="0.9755" style="stop-color:#000000;stop-opacity:0.55"/>
    <stop offset="0.9816" style="stop-color:#000000;stop-opacity:0.45"/>
    <stop offset="1" style="stop-color:#000000;stop-opacity:0.75"/>
  </linearGradient>
  <path fill="url(#SVGID_14_)" d="M5.741,126.997c0,0.617,0.505,1.122,1.123,1.122H36.56c0.618,0,1.123-0.505,1.123-1.122V36.731&#xD;&#xA;&#x9;&#x9;c0-0.617-0.505-1.123-1.123-1.123H6.864c-0.618,0-1.123,0.506-1.123,1.123V126.997z"/>
  <linearGradient id="SVGID_15_" gradientUnits="userSpaceOnUse" x1="3.3706" y1="35.6084" x2="3.3706" y2="128.1196">
    <stop offset="0" style="stop-color:#FFFFFF;stop-opacity:0.05"/>
    <stop offset="0.0088" style="stop-color:#FFFFFF;stop-opacity:0.25"/>
    <stop offset="0.0184" style="stop-color:#FFFFFF;stop-opacity:0.1"/>
    <stop offset="0.0368" style="stop-color:#FFFFFF;stop-opacity:0.45"/>
    <stop offset="0.1685" style="stop-color:#FFFFFF;stop-opacity:0.1381"/>
    <stop offset="0.1846" style="stop-color:#FFFFFF;stop-opacity:0.1"/>
    <stop offset="0.1978" style="stop-color:#999999;stop-opacity:0.25"/>
    <stop offset="0.822" style="stop-color:#3F3F3F;stop-opacity:0.25"/>
    <stop offset="0.8396" style="stop-color:#000000;stop-opacity:0.25"/>
    <stop offset="0.9755" style="stop-color:#000000;stop-opacity:0.55"/>
    <stop offset="0.9816" style="stop-color:#000000;stop-opacity:0.45"/>
    <stop offset="1" style="stop-color:#000000;stop-opacity:0.75"/>
  </linearGradient>
  <path fill="url(#SVGID_15_)" d="M1,36.731c0-0.617,0.505-1.123,1.123-1.123h2.495c0.618,0,1.123,0.506,1.123,1.123v90.266&#xD;&#xA;&#x9;&#x9;c0,0.617-0.505,1.122-1.123,1.122H2.123c-0.618,0-1.123-0.505-1.123-1.122V36.731z"/>
  <linearGradient id="SVGID_16_" gradientUnits="userSpaceOnUse" x1="220.8721" y1="81.8638" x2="274.6602" y2="81.8638">
    <stop offset="0" style="stop-color:#000000;stop-opacity:0.25"/>
    <stop offset="0.0527" style="stop-color:#000000;stop-opacity:0"/>
    <stop offset="0.9473" style="stop-color:#000000;stop-opacity:0"/>
    <stop offset="1" style="stop-color:#000000;stop-opacity:0.25"/>
  </linearGradient>
  <path fill="url(#SVGID_16_)" d="M274.66,35.608c-0.617,0-1.123,0.506-1.123,1.123v91.388h-33.029&#xD;&#xA;&#x9;&#x9;c-7.917-1.021-16.926-2.187-17.42-2.249c-0.887-0.116-1.093-0.506-1.093-1.254c0-0.749,0-87.885,0-87.885&#xD;&#xA;&#x9;&#x9;c0-0.617-0.505-1.123-1.123-1.123H274.66z"/>
  <linearGradient id="SVGID_17_" gradientUnits="userSpaceOnUse" x1="105.5581" y1="81.8638" x2="216.0811" y2="81.8638">
    <stop offset="0" style="stop-color:#000000;stop-opacity:0.25"/>
    <stop offset="0.0352" style="stop-color:#000000;stop-opacity:0"/>
    <stop offset="0.967" style="stop-color:#000000;stop-opacity:0"/>
    <stop offset="1" style="stop-color:#000000;stop-opacity:0.25"/>
  </linearGradient>
  <path fill="url(#SVGID_17_)" d="M216.081,35.608c-0.618,0-1.123,0.506-1.123,1.123v91.388H106.681V36.731&#xD;&#xA;&#x9;&#x9;c0-0.617-0.505-1.123-1.123-1.123H216.081z"/>
  <linearGradient id="SVGID_18_" gradientUnits="userSpaceOnUse" x1="37.6807" y1="81.8638" x2="99.644" y2="81.8638">
    <stop offset="0" style="stop-color:#000000;stop-opacity:0.25"/>
    <stop offset="0.0374" style="stop-color:#000000;stop-opacity:0"/>
    <stop offset="0.9582" style="stop-color:#000000;stop-opacity:0"/>
    <stop offset="1" style="stop-color:#000000;stop-opacity:0.25"/>
  </linearGradient>
  <path fill="url(#SVGID_18_)" d="M60.641,63.712v40.051c0,0.408,0.337,0.749,0.749,0.749c0,0,35.683,0,36.683,0&#xD;&#xA;&#x9;&#x9;c0.999,0,1.572,0.482,1.572,1.605v18.499c0,0.748-0.206,1.138-1.093,1.254c-0.494,0.063-12.97,1.228-23.963,2.249H38.804&#xD;&#xA;&#x9;&#x9;c-0.618,0-1.123-0.505-1.123-1.122V36.731c0-0.617,0.505-1.123,1.123-1.123h59.718c0.617,0,1.123,0.506,1.123,1.123V61.2&#xD;&#xA;&#x9;&#x9;c0,1.123-0.326,1.763-1.572,1.763c-1.247,0-36.683,0-36.683,0C60.978,62.963,60.641,63.3,60.641,63.712z"/>
  <linearGradient id="SVGID_19_" gradientUnits="userSpaceOnUse" x1="5.7412" y1="81.8638" x2="37.6826" y2="81.8638">
    <stop offset="0" style="stop-color:#000000;stop-opacity:0.25"/>
    <stop offset="0.0659" style="stop-color:#000000;stop-opacity:0"/>
    <stop offset="0.9297" style="stop-color:#000000;stop-opacity:0"/>
    <stop offset="1" style="stop-color:#000000;stop-opacity:0.25"/>
  </linearGradient>
  <path fill="url(#SVGID_19_)" d="M5.741,126.997c0,0.617,0.505,1.122,1.123,1.122H36.56c0.618,0,1.123-0.505,1.123-1.122V36.731&#xD;&#xA;&#x9;&#x9;c0-0.617-0.505-1.123-1.123-1.123H6.864c-0.618,0-1.123,0.506-1.123,1.123V126.997z"/>
  <linearGradient id="SVGID_20_" gradientUnits="userSpaceOnUse" x1="1" y1="81.8638" x2="5.7412" y2="81.8638">
    <stop offset="0" style="stop-color:#000000;stop-opacity:0.25"/>
    <stop offset="0.244" style="stop-color:#000000;stop-opacity:0"/>
    <stop offset="0.7758" style="stop-color:#000000;stop-opacity:0"/>
    <stop offset="1" style="stop-color:#000000;stop-opacity:0.25"/>
  </linearGradient>
  <path fill="url(#SVGID_20_)" d="M1,36.731c0-0.617,0.505-1.123,1.123-1.123h2.495c0.618,0,1.123,0.506,1.123,1.123v90.266&#xD;&#xA;&#x9;&#x9;c0,0.617-0.505,1.122-1.123,1.122H2.123c-0.618,0-1.123-0.505-1.123-1.122V36.731z"/>
  <linearGradient id="SVGID_21_" gradientUnits="userSpaceOnUse" x1="103.1626" y1="31.0068" x2="103.1626" y2="35.6084">
    <stop offset="0" style="stop-color:#FFFFFF;stop-opacity:0.25"/>
    <stop offset="0.2462" style="stop-color:#FFFFFF;stop-opacity:0.05"/>
    <stop offset="0.7011" style="stop-color:#000000;stop-opacity:0.05"/>
    <stop offset="1" style="stop-color:#000000;stop-opacity:0.35"/>
  </linearGradient>
  <rect x="99.644" y="31.007" fill="url(#SVGID_21_)" width="7.037" height="4.602"/>
  <linearGradient id="SVGID_22_" gradientUnits="userSpaceOnUse" x1="68.6626" y1="16.0039" x2="137.749" y2="16.0039">
    <stop offset="0" style="stop-color:#000000;stop-opacity:0.25"/>
    <stop offset="0.0352" style="stop-color:#000000;stop-opacity:0"/>
    <stop offset="0.967" style="stop-color:#000000;stop-opacity:0"/>
    <stop offset="1" style="stop-color:#000000;stop-opacity:0.25"/>
  </linearGradient>
  <path fill="url(#SVGID_22_)" d="M136.252,1H70.16c-0.824,0-1.497,0.674-1.497,1.497v27.014c0,0.824,0.673,1.498,1.497,1.498h66.092&#xD;&#xA;&#x9;&#x9;c0.823,0,1.497-0.673,1.497-1.498V2.497C137.749,1.674,137.075,1,136.252,1z M81.329,27.763c-5.102,0-9.234-4.132-9.234-9.234&#xD;&#xA;&#x9;&#x9;c0-5.098,4.133-9.23,9.234-9.23c5.098,0,9.23,4.132,9.23,9.23C90.56,23.631,86.427,27.763,81.329,27.763z M103.163,27.763&#xD;&#xA;&#x9;&#x9;c-5.098,0-9.234-4.132-9.234-9.234c0-5.098,4.136-9.23,9.234-9.23s9.234,4.132,9.234,9.23&#xD;&#xA;&#x9;&#x9;C112.396,23.631,108.261,27.763,103.163,27.763z M125.123,27.763c-5.102,0-9.234-4.132-9.234-9.234c0-5.098,4.132-9.23,9.234-9.23&#xD;&#xA;&#x9;&#x9;c5.099,0,9.231,4.132,9.231,9.23C134.354,23.631,130.222,27.763,125.123,27.763z"/>
  <linearGradient id="SVGID_23_" gradientUnits="userSpaceOnUse" x1="103.2056" y1="1" x2="103.2056" y2="31.0083">
    <stop offset="0" style="stop-color:#FFFFFF;stop-opacity:0.3"/>
    <stop offset="0.0527" style="stop-color:#FFFFFF;stop-opacity:0.05"/>
    <stop offset="0.9385" style="stop-color:#000000;stop-opacity:0.05"/>
    <stop offset="1" style="stop-color:#000000;stop-opacity:0.35"/>
  </linearGradient>
  <path fill="url(#SVGID_23_)" d="M136.252,1H70.16c-0.824,0-1.497,0.674-1.497,1.497v27.014c0,0.824,0.673,1.498,1.497,1.498h66.092&#xD;&#xA;&#x9;&#x9;c0.823,0,1.497-0.673,1.497-1.498V2.497C137.749,1.674,137.075,1,136.252,1z M81.329,27.763c-5.102,0-9.234-4.132-9.234-9.234&#xD;&#xA;&#x9;&#x9;c0-5.098,4.133-9.23,9.234-9.23c5.098,0,9.23,4.132,9.23,9.23C90.56,23.631,86.427,27.763,81.329,27.763z M103.163,27.763&#xD;&#xA;&#x9;&#x9;c-5.098,0-9.234-4.132-9.234-9.234c0-5.098,4.136-9.23,9.234-9.23s9.234,4.132,9.234,9.23&#xD;&#xA;&#x9;&#x9;C112.396,23.631,108.261,27.763,103.163,27.763z M125.123,27.763c-5.102,0-9.234-4.132-9.234-9.234c0-5.098,4.132-9.23,9.234-9.23&#xD;&#xA;&#x9;&#x9;c5.099,0,9.231,4.132,9.231,9.23C134.354,23.631,130.222,27.763,125.123,27.763z"/>
  <linearGradient id="SVGID_24_" gradientUnits="userSpaceOnUse" x1="60.7529" y1="104.3374" x2="99.9399" y2="104.3374">
    <stop offset="0" style="stop-color:#000000;stop-opacity:0.35"/>
    <stop offset="1" style="stop-color:#000000;stop-opacity:0.35"/>
  </linearGradient>
  <path fill="url(#SVGID_24_)" d="M99.94,104.561l-0.667,0.378c-0.266-0.292-0.674-0.427-1.201-0.427c-1,0-36.683,0-36.683,0&#xD;&#xA;&#x9;&#x9;c-0.27,0-0.505-0.146-0.637-0.359l0.637-0.416v0.026h36.683C98.914,103.763,99.551,104.044,99.94,104.561z"/>
  <g>
    <linearGradient id="SVGID_25_" gradientUnits="userSpaceOnUse" x1="234.3491" y1="125.4912" x2="234.3491" y2="131.8623">
      <stop offset="0.7099" style="stop-color:#FFFFFF;stop-opacity:0.35"/>
      <stop offset="0.8681" style="stop-color:#000000;stop-opacity:0.35"/>
    </linearGradient>
    <path fill="url(#SVGID_25_)" d="M253.224,130.511v0.604c0,0.411-0.337,0.748-0.749,0.748h-36.394c-0.225,0-0.431-0.067-0.606-0.18&#xD;&#xA;&#x9;&#x9;&#x9;l0.539-0.576c0.022,0.004,0.045,0.008,0.068,0.008h36.394v-0.604c0-0.037-0.056-0.101-0.09-0.104&#xD;&#xA;&#x9;&#x9;&#x9;c-0.284-0.037-28.515-3.683-29.395-3.796c-0.67-0.086-1.082-0.325-1.34-0.628l0.565-0.491c0.168,0.199,0.434,0.318,0.872,0.379&#xD;&#xA;&#x9;&#x9;&#x9;c0.887,0.112,29.395,3.795,29.395,3.795C252.891,129.718,253.224,130.1,253.224,130.511z"/>
    <linearGradient id="SVGID_26_" gradientUnits="userSpaceOnUse" x1="81.709" y1="125.7051" x2="81.709" y2="131.8623">
      <stop offset="0.7099" style="stop-color:#FFFFFF;stop-opacity:0.35"/>
      <stop offset="0.8681" style="stop-color:#000000;stop-opacity:0.35"/>
    </linearGradient>
    <path fill="url(#SVGID_26_)" d="M106.232,131.634c-0.187,0.143-0.423,0.229-0.674,0.229H57.935c-0.412,0-0.749-0.337-0.749-0.748&#xD;&#xA;&#x9;&#x9;&#x9;v-0.604c0-0.411,0.333-0.793,0.741-0.846c0,0,7.857-0.729,16.661-1.546c10.993-1.021,23.469-2.187,23.963-2.249&#xD;&#xA;&#x9;&#x9;&#x9;c0.247-0.034,0.442-0.086,0.596-0.165l0.603,0.505c-0.258,0.191-0.61,0.338-1.101,0.4c-0.524,0.068-13.337,1.266-23.993,2.254&#xD;&#xA;&#x9;&#x9;&#x9;c-8.785,0.816-16.635,1.542-16.635,1.542c-0.03,0.004-0.086,0.067-0.086,0.104v0.604h47.624c0.015,0,0.03,0,0.045-0.004&#xD;&#xA;&#x9;&#x9;&#x9;L106.232,131.634z"/>
  </g>
  <linearGradient id="SVGID_27_" gradientUnits="userSpaceOnUse" x1="60.7012" y1="63.2305" x2="99.7529" y2="63.2305">
    <stop offset="0" style="stop-color:#FFFFFF;stop-opacity:0.35"/>
    <stop offset="1" style="stop-color:#FFFFFF;stop-opacity:0.35"/>
  </linearGradient>
  <path fill="url(#SVGID_27_)" d="M99.753,63.132c-0.386,0.389-0.943,0.58-1.681,0.58H61.39v0.172l-0.688-0.46&#xD;&#xA;&#x9;&#x9;c0.112-0.27,0.378-0.461,0.688-0.461c0,0,35.436,0,36.683,0c0.568,0,0.946-0.135,1.183-0.385L99.753,63.132z"/>
  <linearGradient id="SVGID_28_" gradientUnits="userSpaceOnUse" x1="141.4282" y1="35.8633" x2="141.4282" y2="131.6831">
    <stop offset="0" style="stop-color:#000000;stop-opacity:0"/>
    <stop offset="0.0264" style="stop-color:#000000;stop-opacity:0.15"/>
    <stop offset="1" style="stop-color:#000000;stop-opacity:0.2"/>
  </linearGradient>
  <path fill="url(#SVGID_28_)" d="M216.013,131.106l-0.539,0.576c-0.311-0.202-0.517-0.55-0.517-0.943V36.731&#xD;&#xA;&#x9;&#x9;c0-0.139,0.026-0.273,0.075-0.396l0.673,0.745v93.66C215.706,130.919,215.841,131.076,216.013,131.106z M221.995,124.616&#xD;&#xA;&#x9;&#x9;c0-0.749,0-87.885,0-87.885c0-0.19-0.048-0.374-0.134-0.535l-0.659,0.367c0.03,0.052,0.045,0.109,0.045,0.168v87.885&#xD;&#xA;&#x9;&#x9;c0,0.434,0.06,0.962,0.404,1.366l0.565-0.491C222.047,125.286,221.995,124.997,221.995,124.616z M106.472,36.076l-0.595,0.465&#xD;&#xA;&#x9;&#x9;c0.038,0.056,0.056,0.123,0.056,0.19v94.008c0,0.188-0.146,0.349-0.33,0.371l0.629,0.523c0.273-0.202,0.449-0.527,0.449-0.895&#xD;&#xA;&#x9;&#x9;V36.731C106.681,36.488,106.603,36.26,106.472,36.076z M100.056,35.863c-0.251,0.206-0.412,0.52-0.412,0.868V61.2&#xD;&#xA;&#x9;&#x9;c0,0.61-0.097,1.078-0.389,1.377l0.498,0.554c0.426-0.416,0.64-1.06,0.64-1.932V36.731c0-0.161,0.108-0.299,0.255-0.352&#xD;&#xA;&#x9;&#x9;L100.056,35.863z M60.701,63.424c-0.042,0.089-0.061,0.187-0.061,0.288v40.051c0,0.143,0.042,0.273,0.112,0.39l0.637-0.416V63.884&#xD;&#xA;&#x9;&#x9;L60.701,63.424z M99.94,104.561l-0.667,0.378c0.243,0.262,0.371,0.647,0.371,1.179v18.499c0,0.539-0.108,0.891-0.498,1.089&#xD;&#xA;&#x9;&#x9;l0.603,0.505c0.558-0.419,0.644-1.07,0.644-1.594v-18.499C100.393,105.474,100.239,104.949,99.94,104.561z"/>
  <linearGradient id="SVGID_29_" gradientUnits="userSpaceOnUse" x1="103.1626" y1="27.7627" x2="103.1626" y2="9.2983">
    <stop offset="0" style="stop-color:#FFFFFF;stop-opacity:0.4"/>
    <stop offset="1" style="stop-color:#000000;stop-opacity:0.4"/>
  </linearGradient>
  <path fill="url(#SVGID_29_)" d="M103.163,9.298c-5.098,0-9.234,4.132-9.234,9.23c0,5.102,4.136,9.234,9.234,9.234&#xD;&#xA;&#x9;&#x9;s9.234-4.132,9.234-9.234C112.396,13.431,108.261,9.298,103.163,9.298z M103.163,27.344c-4.866,0-8.811-3.949-8.811-8.815&#xD;&#xA;&#x9;&#x9;s3.945-8.811,8.811-8.811s8.811,3.945,8.811,8.811S108.028,27.344,103.163,27.344z"/>
  <g>
    <linearGradient id="SVGID_30_" gradientUnits="userSpaceOnUse" x1="103.1626" y1="9.7178" x2="103.1626" y2="27.3438">
      <stop offset="0" style="stop-color:#FFFFFF;stop-opacity:0.25"/>
      <stop offset="1" style="stop-color:#000000;stop-opacity:0.25"/>
    </linearGradient>
    <circle fill="url(#SVGID_30_)" cx="103.163" cy="18.529" r="8.811"/>
    <linearGradient id="SVGID_31_" gradientUnits="userSpaceOnUse" x1="81.3291" y1="9.7178" x2="81.3291" y2="27.3438">
      <stop offset="0" style="stop-color:#FFFFFF;stop-opacity:0.25"/>
      <stop offset="1" style="stop-color:#000000;stop-opacity:0.25"/>
    </linearGradient>
    <circle fill="url(#SVGID_31_)" cx="81.329" cy="18.529" r="8.812"/>
    <linearGradient id="SVGID_32_" gradientUnits="userSpaceOnUse" x1="125.1235" y1="9.7178" x2="125.1235" y2="27.3438">
      <stop offset="0" style="stop-color:#FFFFFF;stop-opacity:0.25"/>
      <stop offset="1" style="stop-color:#000000;stop-opacity:0.25"/>
    </linearGradient>
    <circle fill="url(#SVGID_32_)" cx="125.123" cy="18.529" r="8.811"/>
  </g>
  <g>
    <radialGradient id="SVGID_33_" cx="103.1626" cy="18.5308" r="8.812" gradientUnits="userSpaceOnUse">
      <stop offset="0.4154" style="stop-color:#000000;stop-opacity:0.05"/>
      <stop offset="0.8022" style="stop-color:#000000;stop-opacity:0.2"/>
      <stop offset="0.8571" style="stop-color:#000000;stop-opacity:0.15"/>
      <stop offset="1" style="stop-color:#000000;stop-opacity:0.4"/>
    </radialGradient>
    <circle fill="url(#SVGID_33_)" cx="103.163" cy="18.529" r="8.811"/>
    <radialGradient id="SVGID_34_" cx="81.3291" cy="18.5308" r="8.8123" gradientUnits="userSpaceOnUse">
      <stop offset="0.4154" style="stop-color:#000000;stop-opacity:0.05"/>
      <stop offset="0.8022" style="stop-color:#000000;stop-opacity:0.2"/>
      <stop offset="0.8571" style="stop-color:#000000;stop-opacity:0.15"/>
      <stop offset="1" style="stop-color:#000000;stop-opacity:0.4"/>
    </radialGradient>
    <circle fill="url(#SVGID_34_)" cx="81.329" cy="18.529" r="8.812"/>
    <radialGradient id="SVGID_35_" cx="125.123" cy="18.5308" r="8.8123" gradientUnits="userSpaceOnUse">
      <stop offset="0.4154" style="stop-color:#000000;stop-opacity:0.05"/>
      <stop offset="0.8022" style="stop-color:#000000;stop-opacity:0.2"/>
      <stop offset="0.8571" style="stop-color:#000000;stop-opacity:0.15"/>
      <stop offset="1" style="stop-color:#000000;stop-opacity:0.4"/>
    </radialGradient>
    <circle fill="url(#SVGID_35_)" cx="125.123" cy="18.529" r="8.811"/>
  </g>
  <linearGradient id="SVGID_36_" gradientUnits="userSpaceOnUse" x1="81.3271" y1="27.7627" x2="81.3271" y2="9.2983">
    <stop offset="0" style="stop-color:#FFFFFF;stop-opacity:0.4"/>
    <stop offset="1" style="stop-color:#000000;stop-opacity:0.4"/>
  </linearGradient>
  <path fill="url(#SVGID_36_)" d="M81.329,9.298c-5.102,0-9.234,4.132-9.234,9.23c0,5.102,4.133,9.234,9.234,9.234&#xD;&#xA;&#x9;&#x9;c5.098,0,9.23-4.132,9.23-9.234C90.56,13.431,86.427,9.298,81.329,9.298z M81.329,27.344c-4.866,0-8.812-3.949-8.812-8.815&#xD;&#xA;&#x9;&#x9;s3.945-8.811,8.812-8.811s8.812,3.945,8.812,8.811S86.195,27.344,81.329,27.344z"/>
  <linearGradient id="SVGID_37_" gradientUnits="userSpaceOnUse" x1="125.1216" y1="27.7627" x2="125.1216" y2="9.2983">
    <stop offset="0" style="stop-color:#FFFFFF;stop-opacity:0.4"/>
    <stop offset="1" style="stop-color:#000000;stop-opacity:0.4"/>
  </linearGradient>
  <path fill="url(#SVGID_37_)" d="M125.123,9.298c-5.102,0-9.234,4.132-9.234,9.23c0,5.102,4.132,9.234,9.234,9.234&#xD;&#xA;&#x9;&#x9;c5.099,0,9.231-4.132,9.231-9.234C134.354,13.431,130.222,9.298,125.123,9.298z M125.123,27.344c-4.866,0-8.811-3.949-8.811-8.815&#xD;&#xA;&#x9;&#x9;s3.945-8.811,8.811-8.811c4.866,0,8.812,3.945,8.812,8.811S129.989,27.344,125.123,27.344z"/>
  <g>
    <linearGradient id="SVGID_38_" gradientUnits="userSpaceOnUse" x1="103.1626" y1="9.7178" x2="103.1626" y2="21.8154">
      <stop offset="0" style="stop-color:#FFFFFF;stop-opacity:0.03"/>
      <stop offset="1" style="stop-color:#FFFFFF;stop-opacity:0.04"/>
    </linearGradient>
    <path fill="url(#SVGID_38_)" d="M111.974,18.529c0,1.161-0.225,2.268-0.636,3.287c-3.23-3.145-11.076-3.571-16.975-2.856&#xD;&#xA;&#x9;&#x9;&#x9;c-0.007-0.142-0.011-0.284-0.011-0.43c0-4.866,3.945-8.811,8.811-8.811S111.974,13.663,111.974,18.529z"/>
    <linearGradient id="SVGID_39_" gradientUnits="userSpaceOnUse" x1="81.3276" y1="9.7178" x2="81.3276" y2="21.8154">
      <stop offset="0" style="stop-color:#FFFFFF;stop-opacity:0.03"/>
      <stop offset="1" style="stop-color:#FFFFFF;stop-opacity:0.04"/>
    </linearGradient>
    <path fill="url(#SVGID_39_)" d="M90.139,18.529c0,1.161-0.225,2.268-0.637,3.287c-3.23-3.145-11.076-3.571-16.975-2.856&#xD;&#xA;&#x9;&#x9;&#x9;c-0.008-0.142-0.011-0.284-0.011-0.43c0-4.866,3.945-8.811,8.811-8.811S90.139,13.663,90.139,18.529z"/>
    <linearGradient id="SVGID_40_" gradientUnits="userSpaceOnUse" x1="125.1216" y1="9.7178" x2="125.1216" y2="21.8154">
      <stop offset="0" style="stop-color:#FFFFFF;stop-opacity:0.03"/>
      <stop offset="1" style="stop-color:#FFFFFF;stop-opacity:0.04"/>
    </linearGradient>
    <path fill="url(#SVGID_40_)" d="M133.933,18.529c0,1.161-0.225,2.268-0.636,3.287c-3.23-3.145-11.076-3.571-16.975-2.856&#xD;&#xA;&#x9;&#x9;&#x9;c-0.007-0.142-0.011-0.284-0.011-0.43c0-4.866,3.945-8.811,8.811-8.811S133.933,13.663,133.933,18.529z"/>
  </g>
  <g>
    <linearGradient id="SVGID_41_" gradientUnits="userSpaceOnUse" x1="99.644" y1="32.5674" x2="106.6812" y2="32.5674">
      <stop offset="0" style="stop-color:#000000;stop-opacity:0.45"/>
      <stop offset="1" style="stop-color:#000000;stop-opacity:0.45"/>
    </linearGradient>
    <rect x="99.644" y="31.008" fill="url(#SVGID_41_)" width="7.037" height="3.118"/>
    <linearGradient id="SVGID_42_" gradientUnits="userSpaceOnUse" x1="60.6406" y1="64.584" x2="99.4082" y2="64.584">
      <stop offset="0" style="stop-color:#000000;stop-opacity:0.45"/>
      <stop offset="1" style="stop-color:#000000;stop-opacity:0.45"/>
    </linearGradient>
    <path fill="url(#SVGID_42_)" d="M99.408,62.383c-0.229,1.16-0.562,2.796-0.681,3.092c-0.187,0.468-0.749,0.562-2.059,0.562&#xD;&#xA;&#x9;&#x9;&#x9;c-1.31,0-35.278,0-35.278,0l-0.749,0.749v-3.073c0-0.412,0.337-0.749,0.749-0.749c0,0,35.436,0,36.683,0&#xD;&#xA;&#x9;&#x9;&#x9;C98.772,62.963,99.184,62.761,99.408,62.383z"/>
  </g>
</svg>