<svg version="1.2" baseProfile="tiny" viewBox="0 0 317.0 133.0" xmlns:xlink="http://www.w3.org/1999/xlink" xmlns="http://www.w3.org/2000/svg">
<path style="fill:#ffffff;" d="M280.4784,36.7692L280.4784,130.8747C280.4784,131.4918,279.9744,131.9985,279.3563,131.9985L274.5664,131.9985C273.9514,131.9985,273.4442,131.4918,273.4442,130.8747L273.4442,128.2519L240.4318,128.2519C246.7655,129.0712,252.3986,129.8,252.3986,129.8C252.8043,129.8532,253.1372,130.2349,253.1372,130.6459L253.1372,131.2511C253.1372,131.662,252.8012,131.9998,252.3891,131.9998L216.007,131.9998C215.3888,131.9998,214.8848,131.4931,214.8848,130.876L214.8848,128.2532L106.6451,128.2532L106.6451,130.876L106.6451,130.876C106.6451,131.4931,106.1411,131.9998,105.523,131.9998L57.9159,131.9998L57.9159,131.9998C57.5038,131.9998,57.1678,131.662,57.1678,131.2511L57.1678,130.6459C57.1678,130.2349,57.5006,129.8532,57.9064,129.8C57.9064,129.8,65.7617,129.0699,74.5616,128.2519L38.7913,128.2519L38.7913,128.2519C38.1763,128.2519,37.6723,127.7492,37.6691,127.1334C37.6659,127.7492,37.1619,128.2519,36.5469,128.2519L6.863,128.2519L6.863,128.2519C6.2449,128.2519,5.7377,127.7465,5.7377,127.1294C5.7377,127.7465,5.2337,128.2519,4.6155,128.2519L2.1207,128.2519L2.1207,128.2519C1.5057,128.2519,0.9985,127.7465,0.9985,127.1294L0.9985,36.7692C0.9985,36.1521,1.5057,35.6453,2.1207,35.6453L4.6155,35.6453C5.2337,35.6453,5.7377,36.1521,5.7377,36.7692C5.7377,36.1521,6.2449,35.6453,6.863,35.6453L36.5469,35.6453L36.5469,35.6453C37.1619,35.6453,37.6659,36.1481,37.6691,36.7639C37.6723,36.1481,38.1763,35.6453,38.7913,35.6453L98.4887,35.6453C99.1069,35.6453,99.6109,36.1521,99.6109,36.7692C99.6109,36.1521,100.1149,35.6453,100.7331,35.6453L99.6109,35.6453L99.6109,31.0382L70.1362,31.0382L70.1362,31.0382C69.312,31.0382,68.64,30.3639,68.64,29.5393L68.64,2.4991C68.64,1.6758,69.312,1.0015,70.1362,1.0015L136.2054,1.0015C137.0296,1.0015,137.7016,1.6758,137.7016,2.4991L137.7016,29.5406C137.7016,30.3639,137.0296,31.0395,136.2054,31.0395L106.6451,31.0395L106.6451,35.6453L216.007,35.6453L220.7968,35.6453L274.5664,35.6453L279.3563,35.6453C279.9744,35.6453,280.4784,36.1521,280.4784,36.7692M314.5052,75.54L283.0113,75.54L283.0113,42.9258L280.4816,39.2629L280.4816,124.6356L283.0113,120.9728L283.0113,88.3599L314.5052,88.3599C315.3262,88.3599,316.0015,87.7002,316.0015,86.8942L316.0015,77.0043C316.0015,76.1984,315.3262,75.54,314.5052,75.54Z"/>
</svg>