<svg version="1.2" baseProfile="tiny" id="EdgeSVG_pFPGh" x="0px" y="0px" width="317.107px" height="132.862px" viewBox="0 0 317.107 132.862" xmlns:xlink="http://www.w3.org/1999/xlink" xmlns="http://www.w3.org/2000/svg">
  <linearGradient id="SVGID_1_" gradientUnits="userSpaceOnUse" x1="0" y1="66.4312" x2="317.1074" y2="66.4312">
    <stop offset="0" style="stop-color:#000000;stop-opacity:0.5"/>
    <stop offset="1" style="stop-color:#000000;stop-opacity:0.5"/>
  </linearGradient>
  <path fill="url(#SVGID_1_)" d="M274.66,132.862c-1.17,0-2.123-0.952-2.123-2.123v-1.62h-18.955c0.392,0.345,0.641,0.85,0.641,1.392&#xD;&#xA;&#x9;&#x9;v0.604c0,0.964-0.785,1.748-1.749,1.748h-36.394c-1.171,0-2.123-0.952-2.123-2.123v-1.62H107.681v1.62&#xD;&#xA;&#x9;&#x9;c0,1.171-0.953,2.123-2.123,2.123H57.935c-0.964,0-1.749-0.784-1.749-1.748v-0.604c0-0.542,0.25-1.047,0.641-1.392H38.804&#xD;&#xA;&#x9;&#x9;c-0.411,0-0.796-0.118-1.122-0.322c-0.326,0.204-0.711,0.322-1.122,0.322H6.864c-0.412,0-0.797-0.118-1.123-0.322&#xD;&#xA;&#x9;&#x9;c-0.326,0.204-0.711,0.322-1.123,0.322H2.123c-1.171,0-2.123-0.952-2.123-2.122V36.731c0-1.171,0.952-2.123,2.123-2.123h2.495&#xD;&#xA;&#x9;&#x9;c0.412,0,0.797,0.118,1.123,0.322c0.326-0.204,0.711-0.322,1.123-0.322H36.56c0.411,0,0.796,0.118,1.122,0.323&#xD;&#xA;&#x9;&#x9;c0.326-0.205,0.711-0.323,1.122-0.323h59.718c0.041,0,0.082,0.001,0.123,0.003v-2.605H70.16c-1.377,0-2.497-1.12-2.497-2.497V2.497&#xD;&#xA;&#x9;&#x9;C67.663,1.12,68.783,0,70.16,0h66.092c1.377,0,2.497,1.12,2.497,2.497V29.51c0,1.377-1.12,2.497-2.497,2.497h-28.571v2.602h171.77&#xD;&#xA;&#x9;&#x9;c1.171,0,2.123,0.952,2.123,2.123v2.178l2.534,3.659v31.893h30.502c1.377,0,2.497,1.105,2.497,2.463v9.879&#xD;&#xA;&#x9;&#x9;c0,1.358-1.12,2.464-2.497,2.464h-30.502v31.892l-2.534,3.66v5.92c0,1.171-0.952,2.123-2.123,2.123H274.66z"/>
</svg>