<svg version="1.2" baseProfile="tiny" viewBox="0 0 105.227 410.267" xmlns:xlink="http://www.w3.org/1999/xlink" xmlns="http://www.w3.org/2000/svg">
<path style="fill:#ffffff;" d="M91.2865,36.4809L91.2865,337.7523C91.2865,337.7523,67.3884,337.7523,66.0815,337.7523C64.7714,337.7523,63.977,336.7718,63.977,335.4138C63.977,334.105,63.977,325.5017,63.977,325.5017C63.977,319.1877,58.8798,314.0922,52.564,314.0922C46.2967,314.0922,41.2006,319.1877,41.2006,325.5017C41.2006,325.5017,41.2006,334.105,41.2006,335.4138C41.2006,336.7718,40.2188,337.7523,38.9087,337.7523C37.6008,337.7523,13.8889,337.7523,13.8889,337.7523L13.8889,36.4809C13.8889,37.7405,14.9612,38.8154,16.2271,38.8154L88.9505,38.8154C90.2143,38.8195,91.2865,37.7446,91.2865,36.4809Z"/>
</svg>