<svg version="1.2" baseProfile="tiny" id="EdgeSVG_Z6TkB" x="0px" y="0px" width="105.227px" height="410.267px" viewBox="0 0 105.227 410.267" xmlns:xlink="http://www.w3.org/1999/xlink" xmlns="http://www.w3.org/2000/svg">
  <g>
    <g>
      <g>
        <line fill="#1A1A1A" x1="35.327" y1="70.731" x2="42.183" y2="70.731"/>
        <path fill="#1A1A1A" d="M42.183,71.316h-6.855c-0.324,0-0.585-0.263-0.585-0.585s0.261-0.584,0.585-0.584h6.855&#xD;&#xA;&#x9;&#x9;&#x9;&#x9;&#x9;c0.323,0,0.585,0.262,0.585,0.584S42.506,71.316,42.183,71.316z"/>
      </g>
      <g>
        <line fill="#1A1A1A" x1="35.327" y1="95.51" x2="42.183" y2="95.51"/>
        <path fill="#1A1A1A" d="M42.183,96.095h-6.855c-0.324,0-0.585-0.263-0.585-0.584c0-0.322,0.261-0.585,0.585-0.585h6.855&#xD;&#xA;&#x9;&#x9;&#x9;&#x9;&#x9;c0.323,0,0.585,0.263,0.585,0.585C42.768,95.832,42.506,96.095,42.183,96.095z"/>
      </g>
      <g>
        <line fill="#1A1A1A" x1="35.327" y1="120.289" x2="42.183" y2="120.289"/>
        <path fill="#1A1A1A" d="M42.183,120.874h-6.855c-0.324,0-0.585-0.263-0.585-0.584c0-0.322,0.261-0.585,0.585-0.585h6.855&#xD;&#xA;&#x9;&#x9;&#x9;&#x9;&#x9;c0.323,0,0.585,0.263,0.585,0.585C42.768,120.611,42.506,120.874,42.183,120.874z"/>
      </g>
      <g>
        <line fill="#1A1A1A" x1="35.327" y1="145.068" x2="42.183" y2="145.068"/>
        <path fill="#1A1A1A" d="M42.183,145.653h-6.855c-0.324,0-0.585-0.263-0.585-0.585s0.261-0.585,0.585-0.585h6.855&#xD;&#xA;&#x9;&#x9;&#x9;&#x9;&#x9;c0.323,0,0.585,0.263,0.585,0.585S42.506,145.653,42.183,145.653z"/>
      </g>
      <g>
        <line fill="#1A1A1A" x1="35.327" y1="169.844" x2="42.183" y2="169.844"/>
        <path fill="#1A1A1A" d="M42.183,170.429h-6.855c-0.324,0-0.585-0.262-0.585-0.585c0-0.322,0.261-0.584,0.585-0.584h6.855&#xD;&#xA;&#x9;&#x9;&#x9;&#x9;&#x9;c0.323,0,0.585,0.262,0.585,0.584C42.768,170.167,42.506,170.429,42.183,170.429z"/>
      </g>
      <g>
        <line fill="#1A1A1A" x1="35.327" y1="194.624" x2="42.183" y2="194.624"/>
        <path fill="#1A1A1A" d="M42.183,195.208h-6.855c-0.324,0-0.585-0.262-0.585-0.584s0.261-0.585,0.585-0.585h6.855&#xD;&#xA;&#x9;&#x9;&#x9;&#x9;&#x9;c0.323,0,0.585,0.263,0.585,0.585S42.506,195.208,42.183,195.208z"/>
      </g>
      <g>
        <line fill="#1A1A1A" x1="35.327" y1="219.403" x2="42.183" y2="219.403"/>
        <path fill="#1A1A1A" d="M42.183,219.987h-6.855c-0.324,0-0.585-0.263-0.585-0.584c0-0.323,0.261-0.585,0.585-0.585h6.855&#xD;&#xA;&#x9;&#x9;&#x9;&#x9;&#x9;c0.323,0,0.585,0.262,0.585,0.585C42.768,219.724,42.506,219.987,42.183,219.987z"/>
      </g>
      <g>
        <line fill="#1A1A1A" x1="35.327" y1="244.179" x2="42.183" y2="244.179"/>
        <path fill="#1A1A1A" d="M42.183,244.764h-6.855c-0.324,0-0.585-0.263-0.585-0.585s0.261-0.585,0.585-0.585h6.855&#xD;&#xA;&#x9;&#x9;&#x9;&#x9;&#x9;c0.323,0,0.585,0.263,0.585,0.585S42.506,244.764,42.183,244.764z"/>
      </g>
      <g>
        <line fill="#1A1A1A" x1="35.327" y1="268.958" x2="42.183" y2="268.958"/>
        <path fill="#1A1A1A" d="M42.183,269.542h-6.855c-0.324,0-0.585-0.263-0.585-0.585c0-0.321,0.261-0.584,0.585-0.584h6.855&#xD;&#xA;&#x9;&#x9;&#x9;&#x9;&#x9;c0.323,0,0.585,0.263,0.585,0.584C42.768,269.28,42.506,269.542,42.183,269.542z"/>
      </g>
      <g>
        <line fill="#1A1A1A" x1="35.327" y1="293.737" x2="42.183" y2="293.737"/>
        <path fill="#1A1A1A" d="M42.183,294.321h-6.855c-0.324,0-0.585-0.262-0.585-0.584s0.261-0.585,0.585-0.585h6.855&#xD;&#xA;&#x9;&#x9;&#x9;&#x9;&#x9;c0.323,0,0.585,0.263,0.585,0.585S42.506,294.321,42.183,294.321z"/>
      </g>
      <g>
        <line fill="#1A1A1A" x1="35.327" y1="318.515" x2="38.815" y2="318.515"/>
        <path fill="#1A1A1A" d="M38.815,319.1h-3.488c-0.324,0-0.585-0.262-0.585-0.585c0-0.321,0.261-0.583,0.585-0.583h3.488&#xD;&#xA;&#x9;&#x9;&#x9;&#x9;&#x9;c0.325,0,0.585,0.262,0.585,0.583C39.4,318.838,39.141,319.1,38.815,319.1z"/>
      </g>
    </g>
    <g>
      <g>
        <line fill="#1A1A1A" x1="31.961" y1="83.122" x2="42.183" y2="83.122"/>
        <path fill="#1A1A1A" d="M42.183,83.823H31.961c-0.388,0-0.704-0.313-0.704-0.701c0-0.388,0.316-0.701,0.704-0.701h10.222&#xD;&#xA;&#x9;&#x9;&#x9;&#x9;&#x9;c0.388,0,0.703,0.313,0.703,0.701C42.886,83.51,42.57,83.823,42.183,83.823z"/>
      </g>
      <g>
        <line fill="#1A1A1A" x1="31.961" y1="107.898" x2="42.183" y2="107.898"/>
        <path fill="#1A1A1A" d="M42.183,108.6H31.961c-0.388,0-0.704-0.313-0.704-0.701c0-0.389,0.316-0.701,0.704-0.701h10.222&#xD;&#xA;&#x9;&#x9;&#x9;&#x9;&#x9;c0.388,0,0.703,0.313,0.703,0.701C42.886,108.287,42.57,108.6,42.183,108.6z"/>
      </g>
      <g>
        <line fill="#1A1A1A" x1="31.961" y1="132.677" x2="42.183" y2="132.677"/>
        <path fill="#1A1A1A" d="M42.183,133.378H31.961c-0.388,0-0.704-0.313-0.704-0.701c0-0.388,0.316-0.701,0.704-0.701h10.222&#xD;&#xA;&#x9;&#x9;&#x9;&#x9;&#x9;c0.388,0,0.703,0.313,0.703,0.701C42.886,133.065,42.57,133.378,42.183,133.378z"/>
      </g>
      <g>
        <line fill="#1A1A1A" x1="31.961" y1="157.456" x2="42.183" y2="157.456"/>
        <path fill="#1A1A1A" d="M42.183,158.157H31.961c-0.388,0-0.704-0.313-0.704-0.701c0-0.388,0.316-0.701,0.704-0.701h10.222&#xD;&#xA;&#x9;&#x9;&#x9;&#x9;&#x9;c0.388,0,0.703,0.313,0.703,0.701C42.886,157.845,42.57,158.157,42.183,158.157z"/>
      </g>
      <g>
        <line fill="#1A1A1A" x1="31.961" y1="182.235" x2="42.183" y2="182.235"/>
        <path fill="#1A1A1A" d="M42.183,182.936H31.961c-0.388,0-0.704-0.313-0.704-0.701c0-0.388,0.316-0.701,0.704-0.701h10.222&#xD;&#xA;&#x9;&#x9;&#x9;&#x9;&#x9;c0.388,0,0.703,0.313,0.703,0.701C42.886,182.624,42.57,182.936,42.183,182.936z"/>
      </g>
      <g>
        <line fill="#1A1A1A" x1="31.961" y1="207.012" x2="42.183" y2="207.012"/>
        <path fill="#1A1A1A" d="M42.183,207.713H31.961c-0.388,0-0.704-0.313-0.704-0.701c0-0.389,0.316-0.701,0.704-0.701h10.222&#xD;&#xA;&#x9;&#x9;&#x9;&#x9;&#x9;c0.388,0,0.703,0.313,0.703,0.701C42.886,207.4,42.57,207.713,42.183,207.713z"/>
      </g>
      <g>
        <line fill="#1A1A1A" x1="31.961" y1="231.791" x2="42.183" y2="231.791"/>
        <path fill="#1A1A1A" d="M42.183,232.492H31.961c-0.388,0-0.704-0.313-0.704-0.701s0.316-0.701,0.704-0.701h10.222&#xD;&#xA;&#x9;&#x9;&#x9;&#x9;&#x9;c0.388,0,0.703,0.313,0.703,0.701S42.57,232.492,42.183,232.492z"/>
      </g>
      <g>
        <line fill="#1A1A1A" x1="31.961" y1="256.57" x2="42.183" y2="256.57"/>
        <path fill="#1A1A1A" d="M42.183,257.271H31.961c-0.388,0-0.704-0.313-0.704-0.701s0.316-0.701,0.704-0.701h10.222&#xD;&#xA;&#x9;&#x9;&#x9;&#x9;&#x9;c0.388,0,0.703,0.313,0.703,0.701S42.57,257.271,42.183,257.271z"/>
      </g>
      <g>
        <line fill="#1A1A1A" x1="31.961" y1="281.349" x2="42.183" y2="281.349"/>
        <path fill="#1A1A1A" d="M42.183,282.049H31.961c-0.388,0-0.704-0.313-0.704-0.7c0-0.389,0.316-0.701,0.704-0.701h10.222&#xD;&#xA;&#x9;&#x9;&#x9;&#x9;&#x9;c0.388,0,0.703,0.313,0.703,0.701C42.886,281.737,42.57,282.049,42.183,282.049z"/>
      </g>
      <g>
        <line fill="#1A1A1A" x1="31.961" y1="306.125" x2="42.183" y2="306.125"/>
        <path fill="#1A1A1A" d="M42.183,306.827H31.961c-0.388,0-0.704-0.313-0.704-0.702c0-0.388,0.316-0.7,0.704-0.7h10.222&#xD;&#xA;&#x9;&#x9;&#x9;&#x9;&#x9;c0.388,0,0.703,0.313,0.703,0.7C42.886,306.514,42.57,306.827,42.183,306.827z"/>
      </g>
      <g>
        <line fill="#1A1A1A" x1="31.961" y1="58.343" x2="42.183" y2="58.343"/>
        <path fill="#1A1A1A" d="M42.183,59.044H31.961c-0.388,0-0.704-0.313-0.704-0.701c0-0.388,0.316-0.701,0.704-0.701h10.222&#xD;&#xA;&#x9;&#x9;&#x9;&#x9;&#x9;c0.388,0,0.703,0.313,0.703,0.701C42.886,58.73,42.57,59.044,42.183,59.044z"/>
      </g>
      <g>
        <line fill="#1A1A1A" x1="31.961" y1="330.904" x2="38.815" y2="330.904"/>
        <path fill="#1A1A1A" d="M38.815,331.606h-6.854c-0.388,0-0.704-0.314-0.704-0.702s0.316-0.7,0.704-0.7h6.854&#xD;&#xA;&#x9;&#x9;&#x9;&#x9;&#x9;c0.388,0,0.704,0.313,0.704,0.7S39.203,331.606,38.815,331.606z"/>
      </g>
    </g>
    <g>
      <g>
        <line fill="#1A1A1A" x1="63.228" y1="81.055" x2="70.082" y2="81.055"/>
        <path fill="#1A1A1A" d="M70.082,81.64h-6.854c-0.325,0-0.585-0.262-0.585-0.585c0-0.322,0.26-0.584,0.585-0.584h6.854&#xD;&#xA;&#x9;&#x9;&#x9;&#x9;&#x9;c0.325,0,0.585,0.262,0.585,0.584C70.667,81.377,70.407,81.64,70.082,81.64z"/>
      </g>
      <g>
        <line fill="#1A1A1A" x1="63.228" y1="103.77" x2="70.082" y2="103.77"/>
        <path fill="#1A1A1A" d="M70.082,104.354h-6.854c-0.325,0-0.585-0.262-0.585-0.584c0-0.323,0.26-0.585,0.585-0.585h6.854&#xD;&#xA;&#x9;&#x9;&#x9;&#x9;&#x9;c0.325,0,0.585,0.262,0.585,0.585C70.667,104.092,70.407,104.354,70.082,104.354z"/>
      </g>
      <g>
        <line fill="#1A1A1A" x1="63.228" y1="126.482" x2="70.082" y2="126.482"/>
        <path fill="#1A1A1A" d="M70.082,127.066h-6.854c-0.325,0-0.585-0.263-0.585-0.584c0-0.322,0.26-0.585,0.585-0.585h6.854&#xD;&#xA;&#x9;&#x9;&#x9;&#x9;&#x9;c0.325,0,0.585,0.263,0.585,0.585C70.667,126.804,70.407,127.066,70.082,127.066z"/>
      </g>
      <g>
        <line fill="#1A1A1A" x1="63.228" y1="149.196" x2="70.082" y2="149.196"/>
        <path fill="#1A1A1A" d="M70.082,149.781h-6.854c-0.325,0-0.585-0.263-0.585-0.585s0.26-0.584,0.585-0.584h6.854&#xD;&#xA;&#x9;&#x9;&#x9;&#x9;&#x9;c0.325,0,0.585,0.262,0.585,0.584S70.407,149.781,70.082,149.781z"/>
      </g>
      <g>
        <line fill="#1A1A1A" x1="63.228" y1="171.909" x2="70.082" y2="171.909"/>
        <path fill="#1A1A1A" d="M70.082,172.494h-6.854c-0.325,0-0.585-0.263-0.585-0.585c0-0.322,0.26-0.584,0.585-0.584h6.854&#xD;&#xA;&#x9;&#x9;&#x9;&#x9;&#x9;c0.325,0,0.585,0.263,0.585,0.584C70.667,172.231,70.407,172.494,70.082,172.494z"/>
      </g>
      <g>
        <line fill="#1A1A1A" x1="63.228" y1="194.624" x2="70.082" y2="194.624"/>
        <path fill="#1A1A1A" d="M70.082,195.208h-6.854c-0.325,0-0.585-0.262-0.585-0.584s0.26-0.585,0.585-0.585h6.854&#xD;&#xA;&#x9;&#x9;&#x9;&#x9;&#x9;c0.325,0,0.585,0.263,0.585,0.585S70.407,195.208,70.082,195.208z"/>
      </g>
      <g>
        <line fill="#1A1A1A" x1="63.228" y1="217.335" x2="70.082" y2="217.335"/>
        <path fill="#1A1A1A" d="M70.082,217.92h-6.854c-0.325,0-0.585-0.263-0.585-0.585c0-0.321,0.26-0.585,0.585-0.585h6.854&#xD;&#xA;&#x9;&#x9;&#x9;&#x9;&#x9;c0.325,0,0.585,0.264,0.585,0.585C70.667,217.658,70.407,217.92,70.082,217.92z"/>
      </g>
      <g>
        <line fill="#1A1A1A" x1="63.228" y1="240.05" x2="70.082" y2="240.05"/>
        <path fill="#1A1A1A" d="M70.082,240.635h-6.854c-0.325,0-0.585-0.263-0.585-0.585c0-0.321,0.26-0.584,0.585-0.584h6.854&#xD;&#xA;&#x9;&#x9;&#x9;&#x9;&#x9;c0.325,0,0.585,0.263,0.585,0.584C70.667,240.373,70.407,240.635,70.082,240.635z"/>
      </g>
      <g>
        <line fill="#1A1A1A" x1="63.228" y1="262.762" x2="70.082" y2="262.762"/>
        <path fill="#1A1A1A" d="M70.082,263.347h-6.854c-0.325,0-0.585-0.263-0.585-0.585c0-0.321,0.26-0.584,0.585-0.584h6.854&#xD;&#xA;&#x9;&#x9;&#x9;&#x9;&#x9;c0.325,0,0.585,0.263,0.585,0.584C70.667,263.084,70.407,263.347,70.082,263.347z"/>
      </g>
      <g>
        <line fill="#1A1A1A" x1="63.228" y1="285.477" x2="70.082" y2="285.477"/>
        <path fill="#1A1A1A" d="M70.082,286.062h-6.854c-0.325,0-0.585-0.263-0.585-0.585s0.26-0.584,0.585-0.584h6.854&#xD;&#xA;&#x9;&#x9;&#x9;&#x9;&#x9;c0.325,0,0.585,0.262,0.585,0.584S70.407,286.062,70.082,286.062z"/>
      </g>
      <g>
        <line fill="#1A1A1A" x1="63.228" y1="308.189" x2="70.082" y2="308.189"/>
        <path fill="#1A1A1A" d="M70.082,308.774h-6.854c-0.325,0-0.585-0.262-0.585-0.585c0-0.322,0.26-0.583,0.585-0.583h6.854&#xD;&#xA;&#x9;&#x9;&#x9;&#x9;&#x9;c0.325,0,0.585,0.261,0.585,0.583C70.667,308.512,70.407,308.774,70.082,308.774z"/>
      </g>
      <g>
        <line fill="#1A1A1A" x1="66.594" y1="330.815" x2="70.082" y2="330.815"/>
        <path fill="#1A1A1A" d="M70.082,331.4h-3.488c-0.325,0-0.585-0.264-0.585-0.585c0-0.322,0.26-0.585,0.585-0.585h3.488&#xD;&#xA;&#x9;&#x9;&#x9;&#x9;&#x9;c0.325,0,0.585,0.263,0.585,0.585C70.667,331.136,70.407,331.4,70.082,331.4z"/>
      </g>
    </g>
    <g>
      <g>
        <line fill="#1A1A1A" x1="63.228" y1="92.412" x2="73.449" y2="92.412"/>
        <path fill="#1A1A1A" d="M73.449,93.112H63.228c-0.389,0-0.704-0.313-0.704-0.7c0-0.389,0.315-0.701,0.704-0.701h10.222&#xD;&#xA;&#x9;&#x9;&#x9;&#x9;&#x9;c0.388,0,0.703,0.313,0.703,0.701C74.152,92.799,73.837,93.112,73.449,93.112z"/>
      </g>
      <g>
        <line fill="#1A1A1A" x1="63.228" y1="115.126" x2="73.449" y2="115.126"/>
        <path fill="#1A1A1A" d="M73.449,115.827H63.228c-0.389,0-0.704-0.313-0.704-0.701c0-0.389,0.315-0.701,0.704-0.701h10.222&#xD;&#xA;&#x9;&#x9;&#x9;&#x9;&#x9;c0.388,0,0.703,0.313,0.703,0.701C74.152,115.514,73.837,115.827,73.449,115.827z"/>
      </g>
      <g>
        <line fill="#1A1A1A" x1="63.228" y1="137.84" x2="73.449" y2="137.84"/>
        <path fill="#1A1A1A" d="M73.449,138.542H63.228c-0.389,0-0.704-0.313-0.704-0.701c0-0.388,0.315-0.701,0.704-0.701h10.222&#xD;&#xA;&#x9;&#x9;&#x9;&#x9;&#x9;c0.388,0,0.703,0.313,0.703,0.701C74.152,138.229,73.837,138.542,73.449,138.542z"/>
      </g>
      <g>
        <line fill="#1A1A1A" x1="63.228" y1="160.553" x2="73.449" y2="160.553"/>
        <path fill="#1A1A1A" d="M73.449,161.254H63.228c-0.389,0-0.704-0.313-0.704-0.701c0-0.388,0.315-0.701,0.704-0.701h10.222&#xD;&#xA;&#x9;&#x9;&#x9;&#x9;&#x9;c0.388,0,0.703,0.313,0.703,0.701C74.152,160.941,73.837,161.254,73.449,161.254z"/>
      </g>
      <g>
        <line fill="#1A1A1A" x1="63.228" y1="183.265" x2="73.449" y2="183.265"/>
        <path fill="#1A1A1A" d="M73.449,183.966H63.228c-0.389,0-0.704-0.313-0.704-0.701c0-0.388,0.315-0.701,0.704-0.701h10.222&#xD;&#xA;&#x9;&#x9;&#x9;&#x9;&#x9;c0.388,0,0.703,0.313,0.703,0.701C74.152,183.653,73.837,183.966,73.449,183.966z"/>
      </g>
      <g>
        <line fill="#1A1A1A" x1="63.228" y1="205.98" x2="73.449" y2="205.98"/>
        <path fill="#1A1A1A" d="M73.449,206.681H63.228c-0.389,0-0.704-0.313-0.704-0.701c0-0.389,0.315-0.701,0.704-0.701h10.222&#xD;&#xA;&#x9;&#x9;&#x9;&#x9;&#x9;c0.388,0,0.703,0.313,0.703,0.701C74.152,206.368,73.837,206.681,73.449,206.681z"/>
      </g>
      <g>
        <line fill="#1A1A1A" x1="63.228" y1="228.694" x2="73.449" y2="228.694"/>
        <path fill="#1A1A1A" d="M73.449,229.395H63.228c-0.389,0-0.704-0.313-0.704-0.701c0-0.388,0.315-0.701,0.704-0.701h10.222&#xD;&#xA;&#x9;&#x9;&#x9;&#x9;&#x9;c0.388,0,0.703,0.313,0.703,0.701C74.152,229.083,73.837,229.395,73.449,229.395z"/>
      </g>
      <g>
        <line fill="#1A1A1A" x1="63.228" y1="251.407" x2="73.449" y2="251.407"/>
        <path fill="#1A1A1A" d="M73.449,252.108H63.228c-0.389,0-0.704-0.313-0.704-0.701s0.315-0.701,0.704-0.701h10.222&#xD;&#xA;&#x9;&#x9;&#x9;&#x9;&#x9;c0.388,0,0.703,0.313,0.703,0.701S73.837,252.108,73.449,252.108z"/>
      </g>
      <g>
        <line fill="#1A1A1A" x1="63.228" y1="274.12" x2="73.449" y2="274.12"/>
        <path fill="#1A1A1A" d="M73.449,274.82H63.228c-0.389,0-0.704-0.313-0.704-0.7c0-0.389,0.315-0.701,0.704-0.701h10.222&#xD;&#xA;&#x9;&#x9;&#x9;&#x9;&#x9;c0.388,0,0.703,0.313,0.703,0.701C74.152,274.507,73.837,274.82,73.449,274.82z"/>
      </g>
      <g>
        <line fill="#1A1A1A" x1="63.228" y1="296.833" x2="73.449" y2="296.833"/>
        <path fill="#1A1A1A" d="M73.449,297.535H63.228c-0.389,0-0.704-0.313-0.704-0.701c0-0.389,0.315-0.701,0.704-0.701h10.222&#xD;&#xA;&#x9;&#x9;&#x9;&#x9;&#x9;c0.388,0,0.703,0.313,0.703,0.701C74.152,297.221,73.837,297.535,73.449,297.535z"/>
      </g>
      <g>
        <line fill="#1A1A1A" x1="63.228" y1="69.699" x2="73.449" y2="69.699"/>
        <path fill="#1A1A1A" d="M73.449,70.4H63.228c-0.389,0-0.704-0.313-0.704-0.701c0-0.388,0.315-0.701,0.704-0.701h10.222&#xD;&#xA;&#x9;&#x9;&#x9;&#x9;&#x9;c0.388,0,0.703,0.313,0.703,0.701C74.152,70.087,73.837,70.4,73.449,70.4z"/>
      </g>
      <g>
        <line fill="#1A1A1A" x1="66.594" y1="319.548" x2="73.449" y2="319.548"/>
        <path fill="#1A1A1A" d="M73.449,320.249h-6.855c-0.39,0-0.703-0.313-0.703-0.7c0-0.389,0.313-0.701,0.703-0.701h6.855&#xD;&#xA;&#x9;&#x9;&#x9;&#x9;&#x9;c0.388,0,0.703,0.313,0.703,0.701C74.152,319.936,73.837,320.249,73.449,320.249z"/>
      </g>
    </g>
    <g>
      <line fill="#1A1A1A" x1="63.228" y1="58.343" x2="70.082" y2="58.343"/>
      <path fill="#1A1A1A" d="M70.082,58.927h-6.854c-0.325,0-0.585-0.262-0.585-0.584s0.26-0.584,0.585-0.584h6.854&#xD;&#xA;&#x9;&#x9;&#x9;&#x9;c0.325,0,0.585,0.263,0.585,0.584S70.407,58.927,70.082,58.927z"/>
    </g>
  </g>
  <g>
    <path fill="#1A1A1A" d="M25.306,42.034c0.676,0,1.257,0.244,1.746,0.733c0.488,0.489,0.734,1.071,0.734,1.747&#xD;&#xA;&#x9;&#x9;&#x9;s-0.246,1.258-0.734,1.747c-0.489,0.488-1.07,0.733-1.746,0.733s-1.256-0.245-1.748-0.733c-0.485-0.489-0.731-1.071-0.731-1.747&#xD;&#xA;&#x9;&#x9;&#x9;s0.246-1.258,0.731-1.747C24.05,42.278,24.63,42.034,25.306,42.034z M24.063,44.514c0,0.345,0.12,0.639,0.362,0.881&#xD;&#xA;&#x9;&#x9;&#x9;c0.241,0.242,0.538,0.363,0.88,0.363c0.349,0,0.641-0.121,0.883-0.363c0.241-0.243,0.359-0.537,0.359-0.881&#xD;&#xA;&#x9;&#x9;&#x9;s-0.118-0.637-0.359-0.879c-0.242-0.243-0.534-0.363-0.883-0.363c-0.342,0-0.639,0.121-0.88,0.363&#xD;&#xA;&#x9;&#x9;&#x9;C24.184,43.876,24.063,44.169,24.063,44.514z"/>
    <path fill="#1A1A1A" d="M29.59,41.94h8.071v1.991h-5.719v2.604h5.011v1.964h-5.011v4.745H29.59V41.94z"/>
  </g>
  <g>
    <path fill="#1A1A1A" d="M65.523,42.034c0.673,0,1.262,0.244,1.751,0.733c0.483,0.489,0.729,1.071,0.729,1.747&#xD;&#xA;&#x9;&#x9;&#x9;s-0.246,1.258-0.729,1.747c-0.489,0.488-1.078,0.733-1.751,0.733c-0.676,0-1.26-0.245-1.743-0.733&#xD;&#xA;&#x9;&#x9;&#x9;c-0.493-0.489-0.736-1.071-0.736-1.747s0.243-1.258,0.736-1.747C64.264,42.278,64.848,42.034,65.523,42.034z M64.277,44.514&#xD;&#xA;&#x9;&#x9;&#x9;c0,0.345,0.124,0.639,0.366,0.881c0.246,0.242,0.534,0.363,0.88,0.363c0.349,0,0.641-0.121,0.883-0.363&#xD;&#xA;&#x9;&#x9;&#x9;c0.241-0.243,0.36-0.537,0.36-0.881s-0.119-0.637-0.36-0.879c-0.242-0.243-0.534-0.363-0.883-0.363&#xD;&#xA;&#x9;&#x9;&#x9;c-0.346,0-0.634,0.121-0.88,0.363C64.401,43.876,64.277,44.169,64.277,44.514z"/>
    <path fill="#1A1A1A" d="M70.891,43.109c0.909-0.931,2.068-1.397,3.476-1.397c1.886,0,3.262,0.625,4.133,1.872&#xD;&#xA;&#x9;&#x9;&#x9;c0.48,0.701,0.741,1.405,0.776,2.113h-2.364c-0.151-0.541-0.344-0.952-0.576-1.229c-0.425-0.49-1.05-0.737-1.878-0.737&#xD;&#xA;&#x9;&#x9;&#x9;c-0.839,0-1.506,0.347-1.99,1.042c-0.488,0.692-0.731,1.674-0.731,2.943c0,1.27,0.256,2.222,0.769,2.853&#xD;&#xA;&#x9;&#x9;&#x9;c0.516,0.632,1.168,0.947,1.959,0.947c0.809,0,1.429-0.269,1.854-0.813c0.237-0.291,0.435-0.729,0.59-1.313h2.343&#xD;&#xA;&#x9;&#x9;&#x9;c-0.197,1.233-0.718,2.238-1.549,3.01c-0.836,0.774-1.899,1.161-3.202,1.161c-1.611,0-2.877-0.521-3.799-1.567&#xD;&#xA;&#x9;&#x9;&#x9;c-0.922-1.05-1.379-2.487-1.379-4.316C69.32,45.704,69.841,44.178,70.891,43.109z"/>
  </g>
  <g>
    <path fill="#1A1A1A" d="M17.441,60.249c0.142-0.329,0.471-0.68,0.986-1.05c0.453-0.322,0.74-0.552,0.878-0.692&#xD;&#xA;&#x9;&#x9;&#x9;c0.2-0.217,0.302-0.455,0.302-0.713c0-0.21-0.056-0.383-0.174-0.522c-0.119-0.139-0.283-0.21-0.502-0.21&#xD;&#xA;&#x9;&#x9;&#x9;c-0.297,0-0.499,0.111-0.604,0.333c-0.064,0.128-0.101,0.331-0.109,0.607h-0.95c0.013-0.42,0.091-0.763,0.229-1.023&#xD;&#xA;&#x9;&#x9;&#x9;c0.26-0.496,0.727-0.744,1.388-0.744c0.525,0,0.945,0.146,1.257,0.438c0.311,0.29,0.465,0.676,0.465,1.156&#xD;&#xA;&#x9;&#x9;&#x9;c0,0.367-0.109,0.694-0.328,0.979c-0.142,0.189-0.38,0.4-0.708,0.632l-0.393,0.279c-0.246,0.174-0.411,0.299-0.502,0.377&#xD;&#xA;&#x9;&#x9;&#x9;c-0.093,0.077-0.165,0.167-0.229,0.272h2.169v0.858h-3.402C17.223,60.871,17.3,60.546,17.441,60.249z"/>
    <path fill="#1A1A1A" d="M24.563,60.158h-0.562v1.068h-0.955v-1.068h-1.969v-0.854l1.827-3.014h1.097v3.105h0.562V60.158z&#xD;&#xA;&#x9;&#x9;&#x9; M23.046,59.396v-2.14l-1.237,2.14H23.046z"/>
    <path fill="#1A1A1A" d="M28.056,56.893c0.257,0.448,0.383,1.08,0.383,1.9c0,0.82-0.126,1.45-0.383,1.893&#xD;&#xA;&#x9;&#x9;&#x9;c-0.251,0.443-0.699,0.665-1.329,0.665c-0.634,0-1.077-0.221-1.328-0.665c-0.257-0.442-0.385-1.073-0.385-1.893&#xD;&#xA;&#x9;&#x9;&#x9;c0-0.82,0.128-1.453,0.385-1.9c0.251-0.442,0.694-0.667,1.328-0.667C27.356,56.226,27.805,56.45,28.056,56.893z M26.151,60.102&#xD;&#xA;&#x9;&#x9;&#x9;c0.092,0.303,0.283,0.454,0.575,0.454c0.288,0,0.48-0.151,0.571-0.454c0.091-0.302,0.137-0.738,0.137-1.309&#xD;&#xA;&#x9;&#x9;&#x9;c0-0.599-0.046-1.042-0.137-1.329c-0.091-0.288-0.283-0.434-0.571-0.434c-0.292,0-0.483,0.146-0.575,0.434&#xD;&#xA;&#x9;&#x9;&#x9;c-0.096,0.288-0.142,0.73-0.142,1.329C26.01,59.363,26.056,59.8,26.151,60.102z"/>
  </g>
  <g>
    <path fill="#1A1A1A" d="M17.441,84.19c0.142-0.329,0.471-0.68,0.986-1.05c0.453-0.322,0.74-0.553,0.878-0.692&#xD;&#xA;&#x9;&#x9;&#x9;c0.2-0.217,0.302-0.454,0.302-0.712c0-0.211-0.056-0.384-0.174-0.523c-0.119-0.139-0.283-0.21-0.502-0.21&#xD;&#xA;&#x9;&#x9;&#x9;c-0.297,0-0.499,0.112-0.604,0.333c-0.064,0.127-0.101,0.331-0.109,0.607h-0.95c0.013-0.419,0.091-0.763,0.229-1.023&#xD;&#xA;&#x9;&#x9;&#x9;c0.26-0.496,0.727-0.744,1.388-0.744c0.525,0,0.945,0.146,1.257,0.439c0.311,0.29,0.465,0.676,0.465,1.155&#xD;&#xA;&#x9;&#x9;&#x9;c0,0.368-0.109,0.694-0.328,0.979c-0.142,0.189-0.38,0.399-0.708,0.632l-0.393,0.279c-0.246,0.174-0.411,0.299-0.502,0.377&#xD;&#xA;&#x9;&#x9;&#x9;c-0.093,0.078-0.165,0.167-0.229,0.271h2.169v0.859h-3.402C17.223,84.812,17.3,84.487,17.441,84.19z"/>
    <path fill="#1A1A1A" d="M21.342,84.19c0.142-0.329,0.472-0.68,0.987-1.05c0.452-0.322,0.74-0.553,0.876-0.692&#xD;&#xA;&#x9;&#x9;&#x9;c0.201-0.217,0.302-0.454,0.302-0.712c0-0.211-0.055-0.384-0.173-0.523c-0.12-0.139-0.283-0.21-0.503-0.21&#xD;&#xA;&#x9;&#x9;&#x9;c-0.298,0-0.498,0.112-0.603,0.333c-0.064,0.127-0.102,0.331-0.11,0.607h-0.95c0.014-0.419,0.093-0.763,0.229-1.023&#xD;&#xA;&#x9;&#x9;&#x9;c0.26-0.496,0.725-0.744,1.389-0.744c0.524,0,0.945,0.146,1.256,0.439c0.31,0.29,0.465,0.676,0.465,1.155&#xD;&#xA;&#x9;&#x9;&#x9;c0,0.368-0.109,0.694-0.329,0.979c-0.142,0.189-0.379,0.399-0.707,0.632l-0.393,0.279c-0.247,0.174-0.412,0.299-0.503,0.377&#xD;&#xA;&#x9;&#x9;&#x9;c-0.091,0.078-0.165,0.167-0.228,0.271h2.169v0.859h-3.402C21.123,84.812,21.2,84.487,21.342,84.19z"/>
    <path fill="#1A1A1A" d="M28.056,80.834c0.257,0.447,0.383,1.08,0.383,1.899s-0.126,1.45-0.383,1.894&#xD;&#xA;&#x9;&#x9;&#x9;c-0.251,0.442-0.699,0.664-1.329,0.664c-0.634,0-1.077-0.222-1.328-0.664c-0.257-0.443-0.385-1.074-0.385-1.894&#xD;&#xA;&#x9;&#x9;&#x9;s0.128-1.452,0.385-1.899c0.251-0.443,0.694-0.667,1.328-0.667C27.356,80.167,27.805,80.391,28.056,80.834z M26.151,84.042&#xD;&#xA;&#x9;&#x9;&#x9;c0.092,0.303,0.283,0.454,0.575,0.454c0.288,0,0.48-0.151,0.571-0.454c0.091-0.302,0.137-0.737,0.137-1.309&#xD;&#xA;&#x9;&#x9;&#x9;c0-0.598-0.046-1.042-0.137-1.329c-0.091-0.288-0.283-0.434-0.571-0.434c-0.292,0-0.483,0.146-0.575,0.434&#xD;&#xA;&#x9;&#x9;&#x9;c-0.096,0.288-0.142,0.731-0.142,1.329C26.01,83.305,26.056,83.74,26.151,84.042z"/>
  </g>
  <g>
    <path fill="#1A1A1A" d="M17.441,108.86c0.142-0.329,0.471-0.68,0.986-1.051c0.453-0.321,0.74-0.552,0.878-0.692&#xD;&#xA;&#x9;&#x9;&#x9;c0.2-0.217,0.302-0.454,0.302-0.712c0-0.21-0.056-0.383-0.174-0.523c-0.119-0.139-0.283-0.21-0.502-0.21&#xD;&#xA;&#x9;&#x9;&#x9;c-0.297,0-0.499,0.112-0.604,0.333c-0.064,0.127-0.101,0.331-0.109,0.607h-0.95c0.013-0.42,0.091-0.763,0.229-1.023&#xD;&#xA;&#x9;&#x9;&#x9;c0.26-0.496,0.727-0.744,1.388-0.744c0.525,0,0.945,0.146,1.257,0.439c0.311,0.289,0.465,0.676,0.465,1.155&#xD;&#xA;&#x9;&#x9;&#x9;c0,0.367-0.109,0.694-0.328,0.979c-0.142,0.189-0.38,0.399-0.708,0.632l-0.393,0.278c-0.246,0.174-0.411,0.299-0.502,0.377&#xD;&#xA;&#x9;&#x9;&#x9;c-0.093,0.078-0.165,0.167-0.229,0.272h2.169v0.859h-3.402C17.223,109.481,17.3,109.156,17.441,108.86z"/>
    <path fill="#1A1A1A" d="M24.156,105.502c0.255,0.448,0.383,1.081,0.383,1.9s-0.128,1.45-0.383,1.893&#xD;&#xA;&#x9;&#x9;&#x9;c-0.253,0.443-0.699,0.665-1.33,0.665c-0.635,0-1.078-0.222-1.329-0.665c-0.255-0.442-0.383-1.073-0.383-1.893&#xD;&#xA;&#x9;&#x9;&#x9;s0.128-1.452,0.383-1.9c0.251-0.442,0.694-0.667,1.329-0.667C23.457,104.836,23.903,105.06,24.156,105.502z M22.25,108.711&#xD;&#xA;&#x9;&#x9;&#x9;c0.093,0.303,0.283,0.454,0.576,0.454c0.288,0,0.48-0.151,0.571-0.454c0.091-0.302,0.137-0.738,0.137-1.309&#xD;&#xA;&#x9;&#x9;&#x9;c0-0.598-0.046-1.042-0.137-1.329c-0.091-0.288-0.283-0.434-0.571-0.434c-0.293,0-0.483,0.146-0.576,0.434&#xD;&#xA;&#x9;&#x9;&#x9;c-0.095,0.288-0.142,0.731-0.142,1.329C22.108,107.973,22.155,108.41,22.25,108.711z"/>
    <path fill="#1A1A1A" d="M28.056,105.502c0.257,0.448,0.383,1.081,0.383,1.9s-0.126,1.45-0.383,1.893&#xD;&#xA;&#x9;&#x9;&#x9;c-0.251,0.443-0.699,0.665-1.329,0.665c-0.634,0-1.077-0.222-1.328-0.665c-0.257-0.442-0.385-1.073-0.385-1.893&#xD;&#xA;&#x9;&#x9;&#x9;s0.128-1.452,0.385-1.9c0.251-0.442,0.694-0.667,1.328-0.667C27.356,104.836,27.805,105.06,28.056,105.502z M26.151,108.711&#xD;&#xA;&#x9;&#x9;&#x9;c0.092,0.303,0.283,0.454,0.575,0.454c0.288,0,0.48-0.151,0.571-0.454c0.091-0.302,0.137-0.738,0.137-1.309&#xD;&#xA;&#x9;&#x9;&#x9;c0-0.598-0.046-1.042-0.137-1.329c-0.091-0.288-0.283-0.434-0.571-0.434c-0.292,0-0.483,0.146-0.575,0.434&#xD;&#xA;&#x9;&#x9;&#x9;c-0.096,0.288-0.142,0.731-0.142,1.329C26.01,107.973,26.056,108.41,26.151,108.711z"/>
  </g>
  <g>
    <path fill="#1A1A1A" d="M17.479,131.754v-0.664c0.311-0.014,0.524-0.034,0.647-0.062c0.197-0.043,0.357-0.13,0.48-0.26&#xD;&#xA;&#x9;&#x9;&#x9;c0.082-0.089,0.146-0.208,0.192-0.356c0.021-0.089,0.035-0.155,0.035-0.199h0.813v4.967h-0.999v-3.426H17.479z"/>
    <path fill="#1A1A1A" d="M21.27,133.047c0.123-0.228,0.31-0.397,0.553-0.511c-0.243-0.16-0.397-0.333-0.471-0.519&#xD;&#xA;&#x9;&#x9;&#x9;c-0.074-0.187-0.109-0.36-0.109-0.523c0-0.361,0.137-0.668,0.411-0.923c0.273-0.255,0.657-0.383,1.151-0.383&#xD;&#xA;&#x9;&#x9;&#x9;c0.497,0,0.88,0.128,1.154,0.383c0.274,0.254,0.406,0.562,0.406,0.923c0,0.163-0.032,0.336-0.104,0.523&#xD;&#xA;&#x9;&#x9;&#x9;c-0.074,0.186-0.228,0.348-0.471,0.485c0.246,0.137,0.434,0.317,0.557,0.545c0.123,0.224,0.184,0.478,0.184,0.756&#xD;&#xA;&#x9;&#x9;&#x9;c0,0.418-0.151,0.774-0.462,1.067c-0.31,0.294-0.743,0.441-1.296,0.441c-0.558,0-0.978-0.146-1.266-0.441&#xD;&#xA;&#x9;&#x9;&#x9;c-0.283-0.292-0.43-0.648-0.43-1.067C21.077,133.525,21.142,133.271,21.27,133.047z M22.282,134.308&#xD;&#xA;&#x9;&#x9;&#x9;c0.128,0.135,0.302,0.201,0.525,0.201c0.225,0,0.403-0.066,0.526-0.201c0.128-0.135,0.191-0.324,0.191-0.571&#xD;&#xA;&#x9;&#x9;&#x9;c0-0.251-0.063-0.445-0.191-0.575c-0.133-0.132-0.307-0.196-0.526-0.196c-0.219,0-0.393,0.064-0.521,0.196&#xD;&#xA;&#x9;&#x9;&#x9;c-0.128,0.13-0.195,0.324-0.195,0.575C22.092,133.983,22.155,134.173,22.282,134.308z M22.348,132.047&#xD;&#xA;&#x9;&#x9;&#x9;c0.109,0.114,0.265,0.169,0.46,0.169c0.197,0,0.353-0.056,0.462-0.169s0.164-0.262,0.164-0.442c0-0.197-0.055-0.35-0.164-0.462&#xD;&#xA;&#x9;&#x9;&#x9;c-0.109-0.109-0.265-0.164-0.462-0.164c-0.195,0-0.351,0.055-0.46,0.164c-0.114,0.112-0.17,0.265-0.17,0.462&#xD;&#xA;&#x9;&#x9;&#x9;C22.178,131.785,22.233,131.933,22.348,132.047z"/>
    <path fill="#1A1A1A" d="M28.056,130.845c0.257,0.448,0.383,1.081,0.383,1.9c0,0.82-0.126,1.45-0.383,1.893&#xD;&#xA;&#x9;&#x9;&#x9;c-0.251,0.443-0.699,0.665-1.329,0.665c-0.634,0-1.077-0.222-1.328-0.665c-0.257-0.443-0.385-1.073-0.385-1.893&#xD;&#xA;&#x9;&#x9;&#x9;c0-0.819,0.128-1.452,0.385-1.9c0.251-0.442,0.694-0.667,1.328-0.667C27.356,130.179,27.805,130.403,28.056,130.845z&#xD;&#xA;&#x9;&#x9;&#x9; M26.151,134.054c0.092,0.304,0.283,0.454,0.575,0.454c0.288,0,0.48-0.15,0.571-0.454c0.091-0.302,0.137-0.737,0.137-1.309&#xD;&#xA;&#x9;&#x9;&#x9;c0-0.598-0.046-1.041-0.137-1.329c-0.091-0.288-0.283-0.434-0.571-0.434c-0.292,0-0.483,0.146-0.575,0.434&#xD;&#xA;&#x9;&#x9;&#x9;c-0.096,0.288-0.142,0.731-0.142,1.329C26.01,133.317,26.056,133.752,26.151,134.054z"/>
  </g>
  <g>
    <path fill="#1A1A1A" d="M17.479,156.322v-0.665c0.312-0.013,0.525-0.034,0.648-0.062c0.197-0.043,0.357-0.13,0.48-0.26&#xD;&#xA;&#x9;&#x9;&#x9;c0.081-0.089,0.146-0.208,0.19-0.356c0.023-0.089,0.037-0.156,0.037-0.199h0.813v4.967h-1v-3.425H17.479z"/>
    <path fill="#1A1A1A" d="M23.466,156.029c0-0.078-0.031-0.167-0.091-0.262c-0.105-0.155-0.266-0.233-0.475-0.233&#xD;&#xA;&#x9;&#x9;&#x9;c-0.32,0-0.545,0.178-0.681,0.534c-0.073,0.196-0.124,0.487-0.15,0.871c0.123-0.144,0.26-0.25,0.425-0.315&#xD;&#xA;&#x9;&#x9;&#x9;c0.154-0.066,0.337-0.1,0.548-0.1c0.438,0,0.799,0.151,1.082,0.45c0.283,0.299,0.425,0.683,0.425,1.148&#xD;&#xA;&#x9;&#x9;&#x9;c0,0.464-0.142,0.873-0.415,1.225c-0.279,0.356-0.708,0.532-1.289,0.532c-0.625,0-1.087-0.26-1.384-0.784&#xD;&#xA;&#x9;&#x9;&#x9;c-0.232-0.409-0.346-0.936-0.346-1.585c0-0.376,0.012-0.685,0.044-0.922c0.061-0.423,0.17-0.777,0.334-1.055&#xD;&#xA;&#x9;&#x9;&#x9;c0.142-0.242,0.328-0.434,0.558-0.581c0.228-0.146,0.502-0.219,0.826-0.219c0.456,0,0.827,0.119,1.101,0.354&#xD;&#xA;&#x9;&#x9;&#x9;c0.274,0.237,0.43,0.552,0.461,0.942H23.466z M22.311,158.829c0.142,0.169,0.325,0.254,0.548,0.254&#xD;&#xA;&#x9;&#x9;&#x9;c0.215,0,0.389-0.083,0.512-0.245c0.123-0.165,0.188-0.375,0.188-0.635c0-0.29-0.074-0.513-0.215-0.667&#xD;&#xA;&#x9;&#x9;&#x9;c-0.143-0.155-0.314-0.233-0.521-0.233c-0.165,0-0.315,0.053-0.439,0.151c-0.19,0.151-0.292,0.391-0.292,0.722&#xD;&#xA;&#x9;&#x9;&#x9;C22.091,158.44,22.165,158.66,22.311,158.829z"/>
    <path fill="#1A1A1A" d="M28.056,155.413c0.256,0.447,0.384,1.08,0.384,1.899s-0.128,1.45-0.384,1.894&#xD;&#xA;&#x9;&#x9;&#x9;c-0.251,0.442-0.698,0.664-1.328,0.664c-0.636,0-1.078-0.222-1.33-0.664c-0.256-0.443-0.384-1.074-0.384-1.894&#xD;&#xA;&#x9;&#x9;&#x9;s0.128-1.452,0.384-1.899c0.252-0.443,0.694-0.667,1.33-0.667C27.357,154.746,27.805,154.969,28.056,155.413z M26.151,158.621&#xD;&#xA;&#x9;&#x9;&#x9;c0.091,0.304,0.283,0.455,0.576,0.455c0.288,0,0.479-0.151,0.571-0.455c0.091-0.301,0.137-0.737,0.137-1.309&#xD;&#xA;&#x9;&#x9;&#x9;c0-0.598-0.046-1.041-0.137-1.328c-0.093-0.288-0.283-0.435-0.571-0.435c-0.293,0-0.485,0.146-0.576,0.435&#xD;&#xA;&#x9;&#x9;&#x9;c-0.095,0.287-0.142,0.73-0.142,1.328C26.01,157.883,26.057,158.32,26.151,158.621z"/>
  </g>
  <g>
    <path fill="#1A1A1A" d="M17.479,180.721v-0.664c0.311-0.014,0.524-0.034,0.647-0.062c0.197-0.043,0.357-0.13,0.48-0.26&#xD;&#xA;&#x9;&#x9;&#x9;c0.082-0.089,0.146-0.208,0.192-0.356c0.021-0.089,0.035-0.155,0.035-0.199h0.813v4.967h-0.999v-3.426H17.479z"/>
    <path fill="#1A1A1A" d="M24.563,183.078h-0.562v1.069h-0.955v-1.069h-1.969v-0.854l1.827-3.015h1.097v3.106h0.562V183.078z&#xD;&#xA;&#x9;&#x9;&#x9; M23.046,182.315v-2.14l-1.237,2.14H23.046z"/>
    <path fill="#1A1A1A" d="M28.056,179.813c0.257,0.447,0.383,1.08,0.383,1.9c0,0.819-0.126,1.45-0.383,1.893&#xD;&#xA;&#x9;&#x9;&#x9;c-0.251,0.443-0.699,0.665-1.329,0.665c-0.634,0-1.077-0.222-1.328-0.665c-0.257-0.443-0.385-1.073-0.385-1.893&#xD;&#xA;&#x9;&#x9;&#x9;c0-0.82,0.128-1.453,0.385-1.9c0.251-0.443,0.694-0.667,1.328-0.667C27.356,179.145,27.805,179.369,28.056,179.813z&#xD;&#xA;&#x9;&#x9;&#x9; M26.151,183.021c0.092,0.304,0.283,0.455,0.575,0.455c0.288,0,0.48-0.151,0.571-0.455c0.091-0.302,0.137-0.737,0.137-1.308&#xD;&#xA;&#x9;&#x9;&#x9;c0-0.598-0.046-1.042-0.137-1.33c-0.091-0.288-0.283-0.433-0.571-0.433c-0.292,0-0.483,0.146-0.575,0.433&#xD;&#xA;&#x9;&#x9;&#x9;c-0.096,0.288-0.142,0.731-0.142,1.33C26.01,182.283,26.056,182.719,26.151,183.021z"/>
  </g>
  <g>
    <path fill="#1A1A1A" d="M17.479,205.98v-0.665c0.311-0.014,0.524-0.034,0.647-0.062c0.197-0.043,0.357-0.13,0.48-0.261&#xD;&#xA;&#x9;&#x9;&#x9;c0.082-0.089,0.146-0.207,0.192-0.355c0.021-0.089,0.035-0.155,0.035-0.199h0.813v4.967h-0.999v-3.425H17.479z"/>
    <path fill="#1A1A1A" d="M21.342,208.427c0.142-0.328,0.472-0.681,0.987-1.05c0.452-0.322,0.74-0.553,0.876-0.692&#xD;&#xA;&#x9;&#x9;&#x9;c0.201-0.217,0.302-0.454,0.302-0.712c0-0.21-0.055-0.385-0.173-0.523c-0.12-0.14-0.283-0.21-0.503-0.21&#xD;&#xA;&#x9;&#x9;&#x9;c-0.298,0-0.498,0.112-0.603,0.334c-0.064,0.128-0.102,0.331-0.11,0.607h-0.95c0.014-0.421,0.093-0.764,0.229-1.023&#xD;&#xA;&#x9;&#x9;&#x9;c0.26-0.495,0.725-0.745,1.389-0.745c0.524,0,0.945,0.146,1.256,0.438c0.31,0.29,0.465,0.676,0.465,1.155&#xD;&#xA;&#x9;&#x9;&#x9;c0,0.368-0.109,0.694-0.329,0.98c-0.142,0.189-0.379,0.399-0.707,0.633l-0.393,0.278c-0.247,0.173-0.412,0.299-0.503,0.376&#xD;&#xA;&#x9;&#x9;&#x9;c-0.091,0.078-0.165,0.167-0.228,0.272h2.169v0.858h-3.402C21.123,209.048,21.2,208.724,21.342,208.427z"/>
    <path fill="#1A1A1A" d="M28.056,205.071c0.257,0.447,0.383,1.08,0.383,1.899c0,0.82-0.126,1.45-0.383,1.894&#xD;&#xA;&#x9;&#x9;&#x9;c-0.251,0.442-0.699,0.664-1.329,0.664c-0.634,0-1.077-0.222-1.328-0.664c-0.257-0.443-0.385-1.073-0.385-1.894&#xD;&#xA;&#x9;&#x9;&#x9;c0-0.819,0.128-1.452,0.385-1.899c0.251-0.443,0.694-0.667,1.328-0.667C27.356,204.404,27.805,204.627,28.056,205.071z&#xD;&#xA;&#x9;&#x9;&#x9; M26.151,208.279c0.092,0.304,0.283,0.455,0.575,0.455c0.288,0,0.48-0.151,0.571-0.455c0.091-0.301,0.137-0.737,0.137-1.309&#xD;&#xA;&#x9;&#x9;&#x9;c0-0.598-0.046-1.041-0.137-1.328c-0.091-0.288-0.283-0.435-0.571-0.435c-0.292,0-0.483,0.146-0.575,0.435&#xD;&#xA;&#x9;&#x9;&#x9;c-0.096,0.287-0.142,0.73-0.142,1.328C26.01,207.542,26.056,207.978,26.151,208.279z"/>
  </g>
  <g>
    <path fill="#1A1A1A" d="M17.479,231.241v-0.665c0.311-0.014,0.524-0.034,0.647-0.062c0.197-0.044,0.357-0.131,0.48-0.261&#xD;&#xA;&#x9;&#x9;&#x9;c0.082-0.088,0.146-0.208,0.192-0.356c0.021-0.088,0.035-0.154,0.035-0.198h0.813v4.967h-0.999v-3.425H17.479z"/>
    <path fill="#1A1A1A" d="M24.156,230.332c0.255,0.448,0.383,1.08,0.383,1.9c0,0.819-0.128,1.45-0.383,1.893&#xD;&#xA;&#x9;&#x9;&#x9;c-0.253,0.443-0.699,0.665-1.33,0.665c-0.635,0-1.078-0.222-1.329-0.665c-0.255-0.442-0.383-1.073-0.383-1.893&#xD;&#xA;&#x9;&#x9;&#x9;c0-0.82,0.128-1.452,0.383-1.9c0.251-0.442,0.694-0.667,1.329-0.667C23.457,229.665,23.903,229.889,24.156,230.332z&#xD;&#xA;&#x9;&#x9;&#x9; M22.25,233.541c0.093,0.303,0.283,0.454,0.576,0.454c0.288,0,0.48-0.151,0.571-0.454c0.091-0.302,0.137-0.738,0.137-1.309&#xD;&#xA;&#x9;&#x9;&#x9;c0-0.599-0.046-1.042-0.137-1.329c-0.091-0.288-0.283-0.435-0.571-0.435c-0.293,0-0.483,0.146-0.576,0.435&#xD;&#xA;&#x9;&#x9;&#x9;c-0.095,0.287-0.142,0.73-0.142,1.329C22.108,232.802,22.155,233.239,22.25,233.541z"/>
    <path fill="#1A1A1A" d="M28.056,230.332c0.257,0.448,0.383,1.08,0.383,1.9c0,0.819-0.126,1.45-0.383,1.893&#xD;&#xA;&#x9;&#x9;&#x9;c-0.251,0.443-0.699,0.665-1.329,0.665c-0.634,0-1.077-0.222-1.328-0.665c-0.257-0.442-0.385-1.073-0.385-1.893&#xD;&#xA;&#x9;&#x9;&#x9;c0-0.82,0.128-1.452,0.385-1.9c0.251-0.442,0.694-0.667,1.328-0.667C27.356,229.665,27.805,229.889,28.056,230.332z&#xD;&#xA;&#x9;&#x9;&#x9; M26.151,233.541c0.092,0.303,0.283,0.454,0.575,0.454c0.288,0,0.48-0.151,0.571-0.454c0.091-0.302,0.137-0.738,0.137-1.309&#xD;&#xA;&#x9;&#x9;&#x9;c0-0.599-0.046-1.042-0.137-1.329c-0.091-0.288-0.283-0.435-0.571-0.435c-0.292,0-0.483,0.146-0.575,0.435&#xD;&#xA;&#x9;&#x9;&#x9;c-0.096,0.287-0.142,0.73-0.142,1.329C26.01,232.802,26.056,233.239,26.151,233.541z"/>
  </g>
  <g>
    <path fill="#1A1A1A" d="M21.27,257.792c0.123-0.229,0.31-0.397,0.553-0.512c-0.243-0.16-0.397-0.333-0.471-0.519&#xD;&#xA;&#x9;&#x9;&#x9;c-0.074-0.188-0.109-0.36-0.109-0.522c0-0.361,0.137-0.669,0.411-0.923c0.273-0.256,0.657-0.384,1.151-0.384&#xD;&#xA;&#x9;&#x9;&#x9;c0.497,0,0.88,0.128,1.154,0.384c0.274,0.254,0.406,0.562,0.406,0.923c0,0.162-0.032,0.335-0.104,0.522&#xD;&#xA;&#x9;&#x9;&#x9;c-0.074,0.186-0.228,0.348-0.471,0.484c0.246,0.138,0.434,0.317,0.557,0.546c0.123,0.224,0.184,0.478,0.184,0.756&#xD;&#xA;&#x9;&#x9;&#x9;c0,0.418-0.151,0.773-0.462,1.066c-0.31,0.295-0.743,0.44-1.296,0.44c-0.558,0-0.978-0.146-1.266-0.44&#xD;&#xA;&#x9;&#x9;&#x9;c-0.283-0.293-0.43-0.648-0.43-1.066C21.077,258.269,21.142,258.015,21.27,257.792z M22.282,259.051&#xD;&#xA;&#x9;&#x9;&#x9;c0.128,0.135,0.302,0.201,0.525,0.201c0.225,0,0.403-0.066,0.526-0.201c0.128-0.135,0.191-0.323,0.191-0.57&#xD;&#xA;&#x9;&#x9;&#x9;c0-0.251-0.063-0.445-0.191-0.575c-0.133-0.133-0.307-0.196-0.526-0.196c-0.219,0-0.393,0.063-0.521,0.196&#xD;&#xA;&#x9;&#x9;&#x9;c-0.128,0.13-0.195,0.324-0.195,0.575C22.092,258.728,22.155,258.917,22.282,259.051z M22.348,256.792&#xD;&#xA;&#x9;&#x9;&#x9;c0.109,0.113,0.265,0.169,0.46,0.169c0.197,0,0.353-0.056,0.462-0.169c0.109-0.114,0.164-0.263,0.164-0.443&#xD;&#xA;&#x9;&#x9;&#x9;c0-0.196-0.055-0.349-0.164-0.461c-0.109-0.109-0.265-0.164-0.462-0.164c-0.195,0-0.351,0.055-0.46,0.164&#xD;&#xA;&#x9;&#x9;&#x9;c-0.114,0.112-0.17,0.265-0.17,0.461C22.178,256.529,22.233,256.677,22.348,256.792z"/>
    <path fill="#1A1A1A" d="M28.056,255.589c0.257,0.448,0.383,1.081,0.383,1.9c0,0.82-0.126,1.45-0.383,1.893&#xD;&#xA;&#x9;&#x9;&#x9;c-0.251,0.443-0.699,0.665-1.329,0.665c-0.634,0-1.077-0.222-1.328-0.665c-0.257-0.442-0.385-1.072-0.385-1.893&#xD;&#xA;&#x9;&#x9;&#x9;c0-0.819,0.128-1.452,0.385-1.9c0.251-0.442,0.694-0.666,1.328-0.666C27.356,254.923,27.805,255.147,28.056,255.589z&#xD;&#xA;&#x9;&#x9;&#x9; M26.151,258.798c0.092,0.304,0.283,0.454,0.575,0.454c0.288,0,0.48-0.15,0.571-0.454c0.091-0.302,0.137-0.737,0.137-1.309&#xD;&#xA;&#x9;&#x9;&#x9;c0-0.598-0.046-1.041-0.137-1.329s-0.283-0.434-0.571-0.434c-0.292,0-0.483,0.146-0.575,0.434&#xD;&#xA;&#x9;&#x9;&#x9;c-0.096,0.288-0.142,0.731-0.142,1.329C26.01,258.061,26.056,258.497,26.151,258.798z"/>
  </g>
  <g>
    <path fill="#1A1A1A" d="M23.467,280.072c0-0.077-0.033-0.166-0.093-0.263c-0.104-0.155-0.265-0.232-0.474-0.232&#xD;&#xA;&#x9;&#x9;&#x9;c-0.32,0-0.544,0.178-0.681,0.534c-0.074,0.196-0.123,0.486-0.151,0.87c0.123-0.144,0.261-0.249,0.425-0.314&#xD;&#xA;&#x9;&#x9;&#x9;c0.156-0.066,0.338-0.102,0.548-0.102c0.439,0,0.8,0.151,1.083,0.45s0.425,0.683,0.425,1.148c0,0.464-0.142,0.872-0.416,1.225&#xD;&#xA;&#x9;&#x9;&#x9;c-0.278,0.356-0.708,0.531-1.288,0.531c-0.625,0-1.087-0.26-1.384-0.782c-0.232-0.41-0.347-0.938-0.347-1.585&#xD;&#xA;&#x9;&#x9;&#x9;c0-0.377,0.014-0.686,0.045-0.923c0.06-0.423,0.169-0.776,0.334-1.056c0.142-0.241,0.329-0.433,0.557-0.579&#xD;&#xA;&#x9;&#x9;&#x9;c0.229-0.146,0.502-0.22,0.827-0.22c0.457,0,0.826,0.119,1.101,0.354c0.274,0.236,0.43,0.553,0.462,0.942H23.467z M22.311,282.873&#xD;&#xA;&#x9;&#x9;&#x9;c0.142,0.168,0.324,0.253,0.548,0.253c0.214,0,0.388-0.082,0.511-0.245c0.125-0.164,0.188-0.374,0.188-0.635&#xD;&#xA;&#x9;&#x9;&#x9;c0-0.289-0.073-0.514-0.214-0.667c-0.143-0.155-0.316-0.232-0.522-0.232c-0.165,0-0.313,0.053-0.438,0.15&#xD;&#xA;&#x9;&#x9;&#x9;c-0.191,0.151-0.291,0.391-0.291,0.722C22.092,282.484,22.164,282.703,22.311,282.873z"/>
    <path fill="#1A1A1A" d="M28.056,279.456c0.257,0.448,0.383,1.08,0.383,1.9c0,0.819-0.126,1.449-0.383,1.893&#xD;&#xA;&#x9;&#x9;&#x9;c-0.251,0.443-0.699,0.664-1.329,0.664c-0.634,0-1.077-0.221-1.328-0.664c-0.257-0.443-0.385-1.073-0.385-1.893&#xD;&#xA;&#x9;&#x9;&#x9;c0-0.82,0.128-1.452,0.385-1.9c0.251-0.442,0.694-0.667,1.328-0.667C27.356,278.789,27.805,279.013,28.056,279.456z&#xD;&#xA;&#x9;&#x9;&#x9; M26.151,282.665c0.092,0.303,0.283,0.454,0.575,0.454c0.288,0,0.48-0.151,0.571-0.454c0.091-0.302,0.137-0.738,0.137-1.309&#xD;&#xA;&#x9;&#x9;&#x9;c0-0.599-0.046-1.041-0.137-1.329s-0.283-0.435-0.571-0.435c-0.292,0-0.483,0.146-0.575,0.435&#xD;&#xA;&#x9;&#x9;&#x9;c-0.096,0.288-0.142,0.73-0.142,1.329C26.01,281.926,26.056,282.363,26.151,282.665z"/>
  </g>
  <g>
    <path fill="#1A1A1A" d="M24.563,306.802h-0.562v1.068h-0.955v-1.068h-1.969v-0.854l1.827-3.015h1.097v3.105h0.562V306.802z&#xD;&#xA;&#x9;&#x9;&#x9; M23.046,306.039v-2.14l-1.237,2.14H23.046z"/>
    <path fill="#1A1A1A" d="M28.056,303.536c0.257,0.447,0.383,1.08,0.383,1.899c0,0.82-0.126,1.45-0.383,1.894&#xD;&#xA;&#x9;&#x9;&#x9;c-0.251,0.443-0.699,0.665-1.329,0.665c-0.634,0-1.077-0.222-1.328-0.665c-0.257-0.443-0.385-1.073-0.385-1.894&#xD;&#xA;&#x9;&#x9;&#x9;c0-0.819,0.128-1.452,0.385-1.899c0.251-0.443,0.694-0.667,1.328-0.667C27.356,302.869,27.805,303.092,28.056,303.536z&#xD;&#xA;&#x9;&#x9;&#x9; M26.151,306.744c0.092,0.305,0.283,0.455,0.575,0.455c0.288,0,0.48-0.15,0.571-0.455c0.091-0.301,0.137-0.737,0.137-1.309&#xD;&#xA;&#x9;&#x9;&#x9;c0-0.598-0.046-1.041-0.137-1.329c-0.091-0.287-0.283-0.434-0.571-0.434c-0.292,0-0.483,0.146-0.575,0.434&#xD;&#xA;&#x9;&#x9;&#x9;c-0.096,0.288-0.142,0.731-0.142,1.329C26.01,306.006,26.056,306.443,26.151,306.744z"/>
  </g>
  <g>
    <path fill="#1A1A1A" d="M21.342,332.334c0.142-0.33,0.472-0.681,0.987-1.052c0.452-0.321,0.74-0.553,0.876-0.691&#xD;&#xA;&#x9;&#x9;&#x9;c0.201-0.217,0.302-0.454,0.302-0.713c0-0.209-0.055-0.383-0.173-0.523c-0.12-0.138-0.283-0.209-0.503-0.209&#xD;&#xA;&#x9;&#x9;&#x9;c-0.298,0-0.498,0.112-0.603,0.333c-0.064,0.129-0.102,0.332-0.11,0.607h-0.95c0.014-0.42,0.093-0.762,0.229-1.023&#xD;&#xA;&#x9;&#x9;&#x9;c0.26-0.494,0.725-0.743,1.389-0.743c0.524,0,0.945,0.146,1.256,0.438c0.31,0.289,0.465,0.676,0.465,1.154&#xD;&#xA;&#x9;&#x9;&#x9;c0,0.368-0.109,0.694-0.329,0.98c-0.142,0.189-0.379,0.398-0.707,0.633l-0.393,0.278c-0.247,0.173-0.412,0.299-0.503,0.376&#xD;&#xA;&#x9;&#x9;&#x9;c-0.091,0.078-0.165,0.168-0.228,0.272h2.169v0.859h-3.402C21.123,332.955,21.2,332.631,21.342,332.334z"/>
    <path fill="#1A1A1A" d="M28.056,328.977c0.257,0.447,0.383,1.08,0.383,1.899c0,0.82-0.126,1.45-0.383,1.894&#xD;&#xA;&#x9;&#x9;&#x9;c-0.251,0.443-0.699,0.665-1.329,0.665c-0.634,0-1.077-0.222-1.328-0.665c-0.257-0.443-0.385-1.073-0.385-1.894&#xD;&#xA;&#x9;&#x9;&#x9;c0-0.819,0.128-1.452,0.385-1.899c0.251-0.443,0.694-0.667,1.328-0.667C27.356,328.31,27.805,328.534,28.056,328.977z&#xD;&#xA;&#x9;&#x9;&#x9; M26.151,332.185c0.092,0.305,0.283,0.455,0.575,0.455c0.288,0,0.48-0.15,0.571-0.455c0.091-0.302,0.137-0.737,0.137-1.309&#xD;&#xA;&#x9;&#x9;&#x9;c0-0.598-0.046-1.041-0.137-1.329c-0.091-0.287-0.283-0.434-0.571-0.434c-0.292,0-0.483,0.146-0.575,0.434&#xD;&#xA;&#x9;&#x9;&#x9;c-0.096,0.288-0.142,0.731-0.142,1.329C26.01,331.448,26.056,331.883,26.151,332.185z"/>
  </g>
  <g>
    <path fill="#1A1A1A" d="M77.988,67.746v-0.664c0.311-0.014,0.525-0.034,0.648-0.062c0.197-0.043,0.356-0.13,0.48-0.26&#xD;&#xA;&#x9;&#x9;&#x9;c0.081-0.089,0.146-0.208,0.19-0.356c0.023-0.089,0.037-0.156,0.037-0.199h0.813v4.967h-1.001v-3.426H77.988z"/>
    <path fill="#1A1A1A" d="M81.504,67.746v-0.664c0.312-0.014,0.527-0.034,0.65-0.062c0.195-0.043,0.355-0.13,0.479-0.26&#xD;&#xA;&#x9;&#x9;&#x9;c0.083-0.089,0.146-0.208,0.192-0.356c0.023-0.089,0.037-0.156,0.037-0.199h0.813v4.967h-1.001v-3.426H81.504z"/>
    <path fill="#1A1A1A" d="M88.183,66.838c0.255,0.447,0.383,1.08,0.383,1.899s-0.128,1.45-0.383,1.894&#xD;&#xA;&#x9;&#x9;&#x9;c-0.251,0.442-0.699,0.664-1.33,0.664c-0.635,0-1.078-0.222-1.329-0.664c-0.255-0.443-0.383-1.074-0.383-1.894&#xD;&#xA;&#x9;&#x9;&#x9;s0.128-1.452,0.383-1.899c0.251-0.443,0.694-0.667,1.329-0.667C87.483,66.17,87.932,66.395,88.183,66.838z M86.278,70.046&#xD;&#xA;&#x9;&#x9;&#x9;c0.091,0.304,0.283,0.454,0.574,0.454c0.289,0,0.479-0.15,0.57-0.454c0.093-0.302,0.138-0.737,0.138-1.309&#xD;&#xA;&#x9;&#x9;&#x9;c0-0.598-0.045-1.042-0.138-1.329c-0.091-0.287-0.281-0.434-0.57-0.434c-0.291,0-0.483,0.146-0.574,0.434&#xD;&#xA;&#x9;&#x9;&#x9;c-0.098,0.288-0.142,0.731-0.142,1.329C86.137,69.309,86.181,69.744,86.278,70.046z"/>
  </g>
  <g>
    <path fill="#1A1A1A" d="M77.988,91.697v-0.665c0.311-0.014,0.525-0.035,0.648-0.062c0.197-0.043,0.356-0.13,0.48-0.26&#xD;&#xA;&#x9;&#x9;&#x9;c0.081-0.089,0.146-0.208,0.19-0.356c0.023-0.088,0.037-0.155,0.037-0.199h0.813v4.967h-1.001v-3.425H77.988z"/>
    <path fill="#1A1A1A" d="M84.665,90.788c0.257,0.448,0.385,1.08,0.385,1.899c0,0.821-0.128,1.45-0.385,1.894&#xD;&#xA;&#x9;&#x9;&#x9;c-0.251,0.443-0.697,0.664-1.329,0.664c-0.634,0-1.077-0.221-1.328-0.664c-0.256-0.443-0.384-1.073-0.384-1.894&#xD;&#xA;&#x9;&#x9;&#x9;c0-0.819,0.128-1.452,0.384-1.899c0.251-0.443,0.694-0.667,1.328-0.667C83.968,90.121,84.414,90.344,84.665,90.788z&#xD;&#xA;&#x9;&#x9;&#x9; M82.761,93.996c0.092,0.304,0.283,0.455,0.575,0.455c0.288,0,0.48-0.151,0.571-0.455c0.091-0.301,0.137-0.737,0.137-1.309&#xD;&#xA;&#x9;&#x9;&#x9;c0-0.598-0.046-1.041-0.137-1.328c-0.091-0.288-0.283-0.434-0.571-0.434c-0.292,0-0.483,0.146-0.575,0.434&#xD;&#xA;&#x9;&#x9;&#x9;c-0.096,0.288-0.142,0.73-0.142,1.328C82.619,93.258,82.665,93.695,82.761,93.996z"/>
    <path fill="#1A1A1A" d="M88.565,90.788c0.256,0.448,0.384,1.08,0.384,1.899c0,0.821-0.128,1.45-0.384,1.894&#xD;&#xA;&#x9;&#x9;&#x9;c-0.251,0.443-0.699,0.664-1.328,0.664c-0.636,0-1.078-0.221-1.33-0.664c-0.256-0.443-0.384-1.073-0.384-1.894&#xD;&#xA;&#x9;&#x9;&#x9;c0-0.819,0.128-1.452,0.384-1.899c0.252-0.443,0.694-0.667,1.33-0.667C87.866,90.121,88.314,90.344,88.565,90.788z M86.661,93.996&#xD;&#xA;&#x9;&#x9;&#x9;c0.091,0.304,0.283,0.455,0.576,0.455c0.287,0,0.479-0.151,0.571-0.455c0.09-0.301,0.137-0.737,0.137-1.309&#xD;&#xA;&#x9;&#x9;&#x9;c0-0.598-0.047-1.041-0.137-1.328c-0.093-0.288-0.284-0.434-0.571-0.434c-0.293,0-0.485,0.146-0.576,0.434&#xD;&#xA;&#x9;&#x9;&#x9;c-0.096,0.288-0.142,0.73-0.142,1.328C86.52,93.258,86.565,93.695,86.661,93.996z"/>
  </g>
  <g>
    <path fill="#1A1A1A" d="M78.176,113.811c0.305-0.331,0.702-0.496,1.196-0.496c0.753,0,1.274,0.335,1.554,1.002&#xD;&#xA;&#x9;&#x9;&#x9;c0.158,0.382,0.241,0.88,0.241,1.499c0,0.6-0.078,1.103-0.229,1.502c-0.295,0.768-0.831,1.148-1.611,1.148&#xD;&#xA;&#x9;&#x9;&#x9;c-0.374,0-0.708-0.109-1.005-0.331c-0.296-0.22-0.466-0.542-0.507-0.964h0.968c0.023,0.146,0.087,0.265,0.188,0.356&#xD;&#xA;&#x9;&#x9;&#x9;c0.1,0.091,0.232,0.137,0.401,0.137c0.319,0,0.548-0.178,0.676-0.534c0.072-0.197,0.114-0.484,0.133-0.859&#xD;&#xA;&#x9;&#x9;&#x9;c-0.087,0.112-0.184,0.196-0.283,0.256c-0.184,0.11-0.406,0.165-0.676,0.165c-0.393,0-0.745-0.137-1.05-0.409&#xD;&#xA;&#x9;&#x9;&#x9;c-0.307-0.274-0.457-0.667-0.457-1.181C77.715,114.571,77.865,114.139,78.176,113.811z M79.815,115.781&#xD;&#xA;&#x9;&#x9;&#x9;c0.224-0.142,0.333-0.386,0.333-0.738c0-0.278-0.063-0.502-0.195-0.667c-0.133-0.165-0.312-0.247-0.539-0.247&#xD;&#xA;&#x9;&#x9;&#x9;c-0.17,0-0.312,0.049-0.43,0.142c-0.188,0.146-0.283,0.393-0.283,0.742c0,0.295,0.063,0.517,0.182,0.663&#xD;&#xA;&#x9;&#x9;&#x9;c0.118,0.148,0.302,0.222,0.553,0.222C79.567,115.898,79.697,115.859,79.815,115.781z"/>
    <path fill="#1A1A1A" d="M84.665,113.988c0.257,0.448,0.385,1.08,0.385,1.9c0,0.82-0.128,1.45-0.385,1.893&#xD;&#xA;&#x9;&#x9;&#x9;c-0.251,0.443-0.697,0.665-1.329,0.665c-0.634,0-1.077-0.221-1.328-0.665c-0.256-0.442-0.384-1.073-0.384-1.893&#xD;&#xA;&#x9;&#x9;&#x9;c0-0.82,0.128-1.452,0.384-1.9c0.251-0.442,0.694-0.667,1.328-0.667C83.968,113.322,84.414,113.546,84.665,113.988z&#xD;&#xA;&#x9;&#x9;&#x9; M82.761,117.197c0.092,0.303,0.283,0.454,0.575,0.454c0.288,0,0.48-0.151,0.571-0.454c0.091-0.302,0.137-0.738,0.137-1.309&#xD;&#xA;&#x9;&#x9;&#x9;c0-0.599-0.046-1.042-0.137-1.329c-0.091-0.288-0.283-0.434-0.571-0.434c-0.292,0-0.483,0.146-0.575,0.434&#xD;&#xA;&#x9;&#x9;&#x9;c-0.096,0.288-0.142,0.73-0.142,1.329C82.619,116.459,82.665,116.896,82.761,117.197z"/>
  </g>
  <g>
    <path fill="#1A1A1A" d="M77.879,138.081c0.123-0.229,0.31-0.398,0.553-0.512c-0.243-0.16-0.397-0.333-0.471-0.519&#xD;&#xA;&#x9;&#x9;&#x9;c-0.072-0.187-0.109-0.36-0.109-0.522c0-0.361,0.137-0.669,0.411-0.923c0.273-0.255,0.657-0.383,1.151-0.383&#xD;&#xA;&#x9;&#x9;&#x9;c0.497,0,0.88,0.128,1.154,0.383c0.274,0.254,0.406,0.562,0.406,0.923c0,0.163-0.03,0.335-0.104,0.522&#xD;&#xA;&#x9;&#x9;&#x9;c-0.074,0.186-0.228,0.347-0.471,0.484c0.247,0.137,0.434,0.318,0.557,0.546c0.123,0.223,0.184,0.477,0.184,0.756&#xD;&#xA;&#x9;&#x9;&#x9;c0,0.417-0.151,0.773-0.462,1.066c-0.31,0.295-0.743,0.441-1.296,0.441c-0.558,0-0.978-0.146-1.266-0.441&#xD;&#xA;&#x9;&#x9;&#x9;c-0.283-0.292-0.43-0.649-0.43-1.066C77.687,138.558,77.751,138.304,77.879,138.081z M78.892,139.34&#xD;&#xA;&#x9;&#x9;&#x9;c0.128,0.135,0.302,0.201,0.525,0.201c0.225,0,0.403-0.066,0.526-0.201c0.128-0.134,0.191-0.324,0.191-0.57&#xD;&#xA;&#x9;&#x9;&#x9;c0-0.251-0.063-0.445-0.191-0.576c-0.133-0.132-0.307-0.196-0.526-0.196c-0.219,0-0.393,0.064-0.521,0.196&#xD;&#xA;&#x9;&#x9;&#x9;c-0.128,0.13-0.195,0.324-0.195,0.576C78.701,139.017,78.765,139.206,78.892,139.34z M78.957,137.08&#xD;&#xA;&#x9;&#x9;&#x9;c0.109,0.114,0.265,0.169,0.46,0.169c0.197,0,0.353-0.056,0.462-0.169s0.164-0.263,0.164-0.443c0-0.196-0.055-0.35-0.164-0.461&#xD;&#xA;&#x9;&#x9;&#x9;c-0.109-0.109-0.265-0.164-0.462-0.164c-0.195,0-0.351,0.055-0.46,0.164c-0.114,0.111-0.17,0.265-0.17,0.461&#xD;&#xA;&#x9;&#x9;&#x9;C78.787,136.817,78.843,136.966,78.957,137.08z"/>
    <path fill="#1A1A1A" d="M84.665,135.878c0.257,0.448,0.385,1.081,0.385,1.9s-0.128,1.45-0.385,1.893&#xD;&#xA;&#x9;&#x9;&#x9;c-0.251,0.443-0.697,0.665-1.329,0.665c-0.634,0-1.077-0.222-1.328-0.665c-0.256-0.442-0.384-1.073-0.384-1.893&#xD;&#xA;&#x9;&#x9;&#x9;s0.128-1.452,0.384-1.9c0.251-0.442,0.694-0.667,1.328-0.667C83.968,135.212,84.414,135.436,84.665,135.878z M82.761,139.087&#xD;&#xA;&#x9;&#x9;&#x9;c0.092,0.303,0.283,0.454,0.575,0.454c0.288,0,0.48-0.151,0.571-0.454c0.091-0.302,0.137-0.737,0.137-1.309&#xD;&#xA;&#x9;&#x9;&#x9;c0-0.599-0.046-1.042-0.137-1.329c-0.091-0.288-0.283-0.434-0.571-0.434c-0.292,0-0.483,0.146-0.575,0.434&#xD;&#xA;&#x9;&#x9;&#x9;c-0.096,0.288-0.142,0.73-0.142,1.329C82.619,138.35,82.665,138.786,82.761,139.087z"/>
  </g>
  <g>
    <path fill="#1A1A1A" d="M81.204,157.966c-0.146,0.144-0.353,0.399-0.612,0.77c-0.261,0.367-0.479,0.749-0.653,1.142&#xD;&#xA;&#x9;&#x9;&#x9;c-0.142,0.308-0.265,0.685-0.38,1.13c-0.109,0.445-0.168,0.811-0.168,1.096h-1.015c0.032-0.891,0.325-1.816,0.878-2.777&#xD;&#xA;&#x9;&#x9;&#x9;c0.36-0.598,0.662-1.012,0.903-1.247h-2.476l0.015-0.877h3.508V157.966z"/>
    <path fill="#1A1A1A" d="M84.665,157.77c0.257,0.447,0.385,1.08,0.385,1.899s-0.128,1.45-0.385,1.894&#xD;&#xA;&#x9;&#x9;&#x9;c-0.251,0.442-0.697,0.664-1.329,0.664c-0.634,0-1.077-0.222-1.328-0.664c-0.256-0.443-0.384-1.074-0.384-1.894&#xD;&#xA;&#x9;&#x9;&#x9;s0.128-1.453,0.384-1.899c0.251-0.443,0.694-0.667,1.328-0.667C83.968,157.102,84.414,157.326,84.665,157.77z M82.761,160.978&#xD;&#xA;&#x9;&#x9;&#x9;c0.092,0.304,0.283,0.454,0.575,0.454c0.288,0,0.48-0.15,0.571-0.454c0.091-0.302,0.137-0.737,0.137-1.309&#xD;&#xA;&#x9;&#x9;&#x9;c0-0.598-0.046-1.042-0.137-1.329c-0.091-0.287-0.283-0.434-0.571-0.434c-0.292,0-0.483,0.146-0.575,0.434&#xD;&#xA;&#x9;&#x9;&#x9;c-0.096,0.288-0.142,0.731-0.142,1.329C82.619,160.24,82.665,160.676,82.761,160.978z"/>
  </g>
  <g>
    <path fill="#1A1A1A" d="M80.076,182.171c0-0.078-0.033-0.167-0.093-0.262c-0.104-0.156-0.265-0.233-0.474-0.233&#xD;&#xA;&#x9;&#x9;&#x9;c-0.32,0-0.544,0.178-0.681,0.534c-0.074,0.196-0.123,0.487-0.151,0.87c0.123-0.144,0.261-0.249,0.425-0.315&#xD;&#xA;&#x9;&#x9;&#x9;c0.156-0.066,0.338-0.101,0.548-0.101c0.439,0,0.8,0.151,1.083,0.451c0.283,0.298,0.425,0.683,0.425,1.148&#xD;&#xA;&#x9;&#x9;&#x9;c0,0.463-0.142,0.872-0.416,1.224c-0.278,0.356-0.708,0.532-1.288,0.532c-0.625,0-1.087-0.26-1.384-0.783&#xD;&#xA;&#x9;&#x9;&#x9;c-0.232-0.409-0.347-0.937-0.347-1.585c0-0.377,0.014-0.685,0.046-0.923c0.059-0.422,0.168-0.776,0.333-1.054&#xD;&#xA;&#x9;&#x9;&#x9;c0.142-0.243,0.329-0.434,0.557-0.581c0.229-0.146,0.502-0.219,0.827-0.219c0.457,0,0.826,0.119,1.101,0.354&#xD;&#xA;&#x9;&#x9;&#x9;c0.274,0.238,0.43,0.553,0.462,0.943H80.076z M78.92,184.971c0.142,0.168,0.324,0.253,0.548,0.253&#xD;&#xA;&#x9;&#x9;&#x9;c0.216,0,0.388-0.082,0.513-0.244c0.123-0.165,0.187-0.375,0.187-0.635c0-0.29-0.073-0.514-0.214-0.667&#xD;&#xA;&#x9;&#x9;&#x9;c-0.143-0.155-0.316-0.233-0.522-0.233c-0.163,0-0.313,0.053-0.438,0.151c-0.192,0.15-0.292,0.391-0.292,0.721&#xD;&#xA;&#x9;&#x9;&#x9;C78.701,184.583,78.773,184.802,78.92,184.971z"/>
    <path fill="#1A1A1A" d="M84.665,181.554c0.257,0.448,0.385,1.081,0.385,1.9c0,0.82-0.128,1.45-0.385,1.893&#xD;&#xA;&#x9;&#x9;&#x9;c-0.251,0.443-0.697,0.665-1.329,0.665c-0.634,0-1.077-0.222-1.328-0.665c-0.256-0.442-0.384-1.073-0.384-1.893&#xD;&#xA;&#x9;&#x9;&#x9;c0-0.819,0.128-1.452,0.384-1.9c0.251-0.442,0.694-0.667,1.328-0.667C83.968,180.888,84.414,181.112,84.665,181.554z&#xD;&#xA;&#x9;&#x9;&#x9; M82.761,184.763c0.092,0.303,0.283,0.454,0.575,0.454c0.288,0,0.48-0.151,0.571-0.454c0.091-0.302,0.137-0.738,0.137-1.309&#xD;&#xA;&#x9;&#x9;&#x9;c0-0.599-0.046-1.041-0.137-1.329s-0.283-0.434-0.571-0.434c-0.292,0-0.483,0.146-0.575,0.434&#xD;&#xA;&#x9;&#x9;&#x9;c-0.096,0.288-0.142,0.73-0.142,1.329C82.619,184.025,82.665,184.461,82.761,184.763z"/>
  </g>
  <g>
    <path fill="#1A1A1A" d="M78.701,207.019c0.037,0.212,0.111,0.376,0.221,0.491c0.108,0.116,0.269,0.173,0.479,0.173&#xD;&#xA;&#x9;&#x9;&#x9;c0.243,0,0.425-0.085,0.553-0.256c0.123-0.169,0.188-0.384,0.188-0.642c0-0.253-0.061-0.468-0.179-0.642&#xD;&#xA;&#x9;&#x9;&#x9;c-0.118-0.176-0.302-0.263-0.553-0.263c-0.118,0-0.219,0.016-0.306,0.046c-0.154,0.055-0.269,0.155-0.347,0.304l-0.873-0.041&#xD;&#xA;&#x9;&#x9;&#x9;l0.348-2.742h2.731v0.826h-2.027l-0.179,1.087c0.15-0.099,0.27-0.162,0.353-0.196c0.14-0.051,0.313-0.077,0.516-0.077&#xD;&#xA;&#x9;&#x9;&#x9;c0.411,0,0.771,0.139,1.077,0.415c0.307,0.276,0.458,0.676,0.458,1.205c0,0.458-0.146,0.869-0.443,1.229&#xD;&#xA;&#x9;&#x9;&#x9;c-0.293,0.361-0.731,0.542-1.321,0.542c-0.47,0-0.857-0.126-1.164-0.382c-0.302-0.251-0.471-0.611-0.508-1.077H78.701z"/>
    <path fill="#1A1A1A" d="M84.703,204.013c0.256,0.448,0.384,1.081,0.384,1.9s-0.128,1.45-0.384,1.893&#xD;&#xA;&#x9;&#x9;&#x9;c-0.251,0.443-0.698,0.665-1.33,0.665c-0.634,0-1.077-0.222-1.328-0.665c-0.256-0.442-0.384-1.073-0.384-1.893&#xD;&#xA;&#x9;&#x9;&#x9;s0.128-1.452,0.384-1.9c0.251-0.442,0.694-0.667,1.328-0.667C84.005,203.346,84.452,203.571,84.703,204.013z M82.799,207.222&#xD;&#xA;&#x9;&#x9;&#x9;c0.091,0.303,0.283,0.454,0.574,0.454c0.288,0,0.48-0.151,0.571-0.454c0.093-0.302,0.137-0.738,0.137-1.309&#xD;&#xA;&#x9;&#x9;&#x9;c0-0.599-0.044-1.041-0.137-1.329c-0.091-0.288-0.283-0.435-0.571-0.435c-0.291,0-0.483,0.146-0.574,0.435&#xD;&#xA;&#x9;&#x9;&#x9;c-0.097,0.288-0.142,0.73-0.142,1.329C82.657,206.484,82.702,206.92,82.799,207.222z"/>
  </g>
  <g>
    <path fill="#1A1A1A" d="M81.172,230.079H80.61v1.068h-0.955v-1.068h-1.969v-0.854l1.827-3.015h1.097v3.105h0.562V230.079z&#xD;&#xA;&#x9;&#x9;&#x9; M79.655,229.315v-2.14l-1.237,2.14H79.655z"/>
    <path fill="#1A1A1A" d="M84.665,226.812c0.257,0.448,0.385,1.081,0.385,1.9c0,0.82-0.128,1.45-0.385,1.893&#xD;&#xA;&#x9;&#x9;&#x9;c-0.251,0.443-0.697,0.665-1.329,0.665c-0.634,0-1.077-0.222-1.328-0.665c-0.256-0.442-0.384-1.072-0.384-1.893&#xD;&#xA;&#x9;&#x9;&#x9;c0-0.819,0.128-1.452,0.384-1.9c0.251-0.442,0.694-0.666,1.328-0.666C83.968,226.146,84.414,226.37,84.665,226.812z&#xD;&#xA;&#x9;&#x9;&#x9; M82.761,230.021c0.092,0.304,0.283,0.454,0.575,0.454c0.288,0,0.48-0.15,0.571-0.454c0.091-0.302,0.137-0.738,0.137-1.309&#xD;&#xA;&#x9;&#x9;&#x9;c0-0.599-0.046-1.041-0.137-1.329s-0.283-0.434-0.571-0.434c-0.292,0-0.483,0.146-0.575,0.434&#xD;&#xA;&#x9;&#x9;&#x9;c-0.096,0.288-0.142,0.73-0.142,1.329C82.619,229.283,82.665,229.719,82.761,230.021z"/>
  </g>
  <g>
    <path fill="#1A1A1A" d="M78.646,252.306c0,0.201,0.032,0.365,0.096,0.493c0.12,0.242,0.339,0.361,0.649,0.361&#xD;&#xA;&#x9;&#x9;&#x9;c0.191,0,0.355-0.066,0.497-0.196c0.146-0.133,0.216-0.32,0.216-0.566c0-0.326-0.133-0.546-0.395-0.656&#xD;&#xA;&#x9;&#x9;&#x9;c-0.15-0.062-0.388-0.093-0.711-0.093v-0.699c0.314-0.002,0.539-0.034,0.662-0.092c0.214-0.095,0.323-0.29,0.323-0.581&#xD;&#xA;&#x9;&#x9;&#x9;c0-0.19-0.054-0.343-0.163-0.465c-0.111-0.116-0.27-0.178-0.467-0.178c-0.232,0-0.401,0.075-0.506,0.22&#xD;&#xA;&#x9;&#x9;&#x9;c-0.111,0.148-0.165,0.343-0.156,0.586h-0.914c0.01-0.246,0.051-0.479,0.128-0.7c0.078-0.194,0.206-0.375,0.376-0.539&#xD;&#xA;&#x9;&#x9;&#x9;c0.127-0.116,0.278-0.206,0.455-0.268c0.174-0.062,0.39-0.094,0.646-0.094c0.474,0,0.857,0.124,1.149,0.37&#xD;&#xA;&#x9;&#x9;&#x9;c0.288,0.245,0.435,0.576,0.435,0.987c0,0.294-0.087,0.541-0.261,0.739c-0.109,0.128-0.223,0.213-0.342,0.258&#xD;&#xA;&#x9;&#x9;&#x9;c0.091,0,0.219,0.078,0.384,0.23c0.251,0.231,0.374,0.546,0.374,0.945c0,0.421-0.146,0.788-0.438,1.107&#xD;&#xA;&#x9;&#x9;&#x9;c-0.288,0.318-0.721,0.478-1.287,0.478c-0.704,0-1.193-0.228-1.467-0.689c-0.146-0.241-0.224-0.562-0.242-0.959H78.646z"/>
    <path fill="#1A1A1A" d="M84.665,249.498c0.257,0.447,0.385,1.08,0.385,1.899c0,0.82-0.128,1.45-0.385,1.894&#xD;&#xA;&#x9;&#x9;&#x9;c-0.251,0.442-0.697,0.664-1.329,0.664c-0.634,0-1.077-0.222-1.328-0.664c-0.256-0.443-0.384-1.073-0.384-1.894&#xD;&#xA;&#x9;&#x9;&#x9;c0-0.819,0.128-1.452,0.384-1.899c0.251-0.443,0.694-0.667,1.328-0.667C83.968,248.831,84.414,249.054,84.665,249.498z&#xD;&#xA;&#x9;&#x9;&#x9; M82.761,252.706c0.092,0.304,0.283,0.455,0.575,0.455c0.288,0,0.48-0.151,0.571-0.455c0.091-0.301,0.137-0.737,0.137-1.309&#xD;&#xA;&#x9;&#x9;&#x9;c0-0.598-0.046-1.041-0.137-1.328c-0.091-0.288-0.283-0.435-0.571-0.435c-0.292,0-0.483,0.146-0.575,0.435&#xD;&#xA;&#x9;&#x9;&#x9;c-0.096,0.287-0.142,0.73-0.142,1.328C82.619,251.968,82.665,252.405,82.761,252.706z"/>
  </g>
  <g>
    <path fill="#1A1A1A" d="M77.951,275.712c0.142-0.329,0.472-0.681,0.987-1.05c0.452-0.322,0.74-0.553,0.877-0.692&#xD;&#xA;&#x9;&#x9;&#x9;c0.2-0.217,0.301-0.454,0.301-0.712c0-0.211-0.055-0.384-0.173-0.523c-0.118-0.139-0.283-0.21-0.503-0.21&#xD;&#xA;&#x9;&#x9;&#x9;c-0.298,0-0.498,0.112-0.603,0.333c-0.064,0.128-0.102,0.331-0.11,0.607h-0.95c0.014-0.42,0.093-0.763,0.229-1.022&#xD;&#xA;&#x9;&#x9;&#x9;c0.26-0.496,0.727-0.744,1.389-0.744c0.524,0,0.945,0.146,1.256,0.438c0.31,0.29,0.465,0.676,0.465,1.156&#xD;&#xA;&#x9;&#x9;&#x9;c0,0.367-0.109,0.694-0.328,0.979c-0.142,0.189-0.38,0.399-0.708,0.633l-0.393,0.278c-0.247,0.174-0.412,0.299-0.503,0.377&#xD;&#xA;&#x9;&#x9;&#x9;c-0.091,0.077-0.165,0.166-0.228,0.271h2.169v0.858h-3.402C77.732,276.333,77.81,276.009,77.951,275.712z"/>
    <path fill="#1A1A1A" d="M84.665,272.356c0.257,0.448,0.385,1.08,0.385,1.9c0,0.819-0.128,1.45-0.385,1.893&#xD;&#xA;&#x9;&#x9;&#x9;c-0.251,0.443-0.697,0.664-1.329,0.664c-0.634,0-1.077-0.221-1.328-0.664c-0.256-0.442-0.384-1.073-0.384-1.893&#xD;&#xA;&#x9;&#x9;&#x9;c0-0.82,0.128-1.452,0.384-1.9c0.251-0.442,0.694-0.667,1.328-0.667C83.968,271.689,84.414,271.914,84.665,272.356z&#xD;&#xA;&#x9;&#x9;&#x9; M82.761,275.565c0.092,0.303,0.283,0.454,0.575,0.454c0.288,0,0.48-0.151,0.571-0.454c0.091-0.302,0.137-0.738,0.137-1.309&#xD;&#xA;&#x9;&#x9;&#x9;c0-0.599-0.046-1.042-0.137-1.329c-0.091-0.288-0.283-0.435-0.571-0.435c-0.292,0-0.483,0.146-0.575,0.435&#xD;&#xA;&#x9;&#x9;&#x9;c-0.096,0.287-0.142,0.73-0.142,1.329C82.619,274.827,82.665,275.263,82.761,275.565z"/>
  </g>
  <g>
    <path fill="#1A1A1A" d="M77.988,295.667v-0.665c0.311-0.013,0.525-0.033,0.648-0.062c0.197-0.043,0.356-0.13,0.48-0.26&#xD;&#xA;&#x9;&#x9;&#x9;c0.081-0.09,0.146-0.208,0.19-0.356c0.023-0.09,0.037-0.155,0.037-0.198h0.813v4.966h-1.001v-3.425H77.988z"/>
    <path fill="#1A1A1A" d="M84.665,294.757c0.257,0.447,0.385,1.08,0.385,1.9c0,0.819-0.128,1.45-0.385,1.894&#xD;&#xA;&#x9;&#x9;&#x9;c-0.251,0.443-0.697,0.664-1.329,0.664c-0.634,0-1.077-0.221-1.328-0.664c-0.256-0.443-0.384-1.074-0.384-1.894&#xD;&#xA;&#x9;&#x9;&#x9;c0-0.82,0.128-1.453,0.384-1.9c0.251-0.443,0.694-0.666,1.328-0.666C83.968,294.091,84.414,294.314,84.665,294.757z&#xD;&#xA;&#x9;&#x9;&#x9; M82.761,297.965c0.092,0.305,0.283,0.455,0.575,0.455c0.288,0,0.48-0.15,0.571-0.455c0.091-0.301,0.137-0.737,0.137-1.308&#xD;&#xA;&#x9;&#x9;&#x9;c0-0.599-0.046-1.041-0.137-1.329s-0.283-0.434-0.571-0.434c-0.292,0-0.483,0.146-0.575,0.434&#xD;&#xA;&#x9;&#x9;&#x9;c-0.096,0.288-0.142,0.73-0.142,1.329C82.619,297.228,82.665,297.665,82.761,297.965z"/>
  </g>
  <g>
    <path fill="#1A1A1A" d="M80.766,317.744c0.255,0.448,0.383,1.081,0.383,1.899c0,0.821-0.128,1.45-0.383,1.894&#xD;&#xA;&#x9;&#x9;&#x9;c-0.251,0.443-0.699,0.665-1.33,0.665c-0.635,0-1.078-0.222-1.329-0.665c-0.255-0.443-0.383-1.072-0.383-1.894&#xD;&#xA;&#x9;&#x9;&#x9;c0-0.818,0.128-1.451,0.383-1.899c0.251-0.443,0.694-0.666,1.329-0.666C80.066,317.078,80.515,317.3,80.766,317.744z&#xD;&#xA;&#x9;&#x9;&#x9; M78.861,320.952c0.091,0.305,0.281,0.454,0.574,0.454c0.288,0,0.48-0.149,0.571-0.454c0.092-0.3,0.137-0.737,0.137-1.309&#xD;&#xA;&#x9;&#x9;&#x9;c0-0.597-0.045-1.04-0.137-1.328c-0.091-0.288-0.283-0.434-0.571-0.434c-0.293,0-0.483,0.146-0.574,0.434&#xD;&#xA;&#x9;&#x9;&#x9;c-0.097,0.288-0.142,0.731-0.142,1.328C78.72,320.214,78.765,320.652,78.861,320.952z"/>
  </g>
</svg>