<svg version="1.2" baseProfile="tiny" viewBox="0 0 105.227 410.267" xmlns:xlink="http://www.w3.org/1999/xlink" xmlns="http://www.w3.org/2000/svg">
<path style="fill:#ffffff;" d="M97.0435,6.9212C97.0435,6.9212,88.2465,3.5078,52.6135,3.5078C16.9247,3.5078,8.1835,6.9212,8.1835,6.9212C5.6075,6.9212,3.5062,9.0259,3.5062,11.5982L3.5062,19.7379L3.5062,378.1144C3.5062,380.6868,5.6075,382.7914,8.1835,382.7914L25.9911,382.7914L25.9911,402.6689L33.2991,402.6689L33.2991,406.7592L71.8816,406.7592L71.8816,402.6689L79.1896,402.6689L79.1896,382.7914L97.0435,382.7914C99.6142,382.7914,101.7208,380.6868,101.7208,378.1144L101.7208,19.7379L101.7208,11.5982C101.7198,9.0259,99.6131,6.9212,97.0435,6.9212M91.2865,337.7523C91.2865,337.7523,67.3884,337.7523,66.0815,337.7523C64.7714,337.7523,63.977,336.7718,63.977,335.4138C63.977,334.105,63.977,325.5017,63.977,325.5017C63.977,319.1877,58.8798,314.0922,52.564,314.0922C46.2967,314.0922,41.2006,319.1877,41.2006,325.5017C41.2006,325.5017,41.2006,334.105,41.2006,335.4138C41.2006,336.7718,40.2188,337.7523,38.9087,337.7523C37.6008,337.7523,13.8889,337.7523,13.8889,337.7523L13.8889,36.4809C13.8889,37.7405,14.9612,38.8154,16.2271,38.8154L88.9505,38.8154C90.2153,38.8154,91.2876,37.7405,91.2876,36.4809L91.2876,337.7523Z"/>
</svg>