<svg version="1.2" baseProfile="tiny" id="EdgeSVG_i9Qa1" x="0px" y="0px" width="37.159px" height="293.411px" viewBox="0 0 37.159 293.411" xmlns:xlink="http://www.w3.org/1999/xlink" xmlns="http://www.w3.org/2000/svg">
  <linearGradient id="SVGID_8_" gradientUnits="userSpaceOnUse" x1="18.5732" y1="289.6401" x2="18.5732" y2="2.5239">
    <stop offset="0" style="stop-color:#FFFFFF;stop-opacity:0.1"/>
    <stop offset="0.0736" style="stop-color:#FFFFFF;stop-opacity:0"/>
  </linearGradient>
  <path fill="url(#SVGID_8_)" d="M18.581,289.64c-8.514,0-15.437-6.925-15.437-15.435c0-4.896,1.77-7.464,3.486-9.945&#xD;&#xA;&#x9;&#x9;c1.415-2.045,2.877-4.158,2.877-7.134V11.594c0-5,4.066-9.07,9.07-9.07c4.995,0,9.062,4.071,9.062,9.07v245.345&#xD;&#xA;&#x9;&#x9;c0,2.962,1.444,5.052,2.842,7.073c1.734,2.508,3.521,5.1,3.521,10.193C34.003,282.86,27.232,289.64,18.581,289.64z"/>
  <linearGradient id="SVGID_9_" gradientUnits="userSpaceOnUse" x1="0.9941" y1="146.9409" x2="36.1533" y2="146.9409">
    <stop offset="0" style="stop-color:#231F20;stop-opacity:0.15"/>
    <stop offset="1" style="stop-color:#231F20;stop-opacity:0.2"/>
  </linearGradient>
  <path fill="url(#SVGID_9_)" d="M29.787,257.799c0-5.408,0-245.347,0-245.347c0-6.196-5.019-11.216-11.209-11.216&#xD;&#xA;&#x9;&#x9;c-6.199,0-11.218,5.02-11.218,11.216c0,0,0,240.132,0,245.533c0,5.402-6.366,7.363-6.366,17.078s7.869,17.583,17.587,17.583&#xD;&#xA;&#x9;&#x9;c9.703,0,17.572-7.583,17.572-17.583C36.153,265.065,29.787,263.206,29.787,257.799z M18.581,291.358&#xD;&#xA;&#x9;&#x9;c-8.985,0-16.301-7.311-16.301-16.295c0-5.163,1.939-7.964,3.647-10.434c1.397-2.023,2.719-3.936,2.719-6.645V12.452&#xD;&#xA;&#x9;&#x9;c0-5.474,4.456-9.929,9.932-9.929c5.467,0,9.923,4.455,9.923,9.929v245.347c0,2.693,1.304,4.583,2.684,6.582&#xD;&#xA;&#x9;&#x9;c1.726,2.494,3.683,5.32,3.683,10.682C34.867,284.202,27.713,291.358,18.581,291.358z"/>
  <linearGradient id="SVGID_10_" gradientUnits="userSpaceOnUse" x1="18.5791" y1="292.4106" x2="18.5791" y2="1.0005">
    <stop offset="0.0123" style="stop-color:#FFFFFF;stop-opacity:0.05"/>
    <stop offset="0.1519" style="stop-color:#FFFFFF;stop-opacity:0.0571"/>
    <stop offset="1" style="stop-color:#FFFFFF;stop-opacity:0.1"/>
  </linearGradient>
  <path fill="url(#SVGID_10_)" d="M27.162,257.563c0-5.408,0-245.347,0-245.347C27.162,6.02,23.318,1,18.578,1&#xD;&#xA;&#x9;&#x9;c-4.743,0-8.587,5.02-8.587,11.216c0,0,0,240.132,0,245.532c0,5.402-4.869,7.364-4.869,17.079s6.023,17.583,13.465,17.583&#xD;&#xA;&#x9;&#x9;c7.421,0,13.45-7.584,13.45-17.583S27.162,262.969,27.162,257.563z"/>
  <linearGradient id="SVGID_11_" gradientUnits="userSpaceOnUse" x1="18.5771" y1="292.4106" x2="18.5771" y2="1.0005">
    <stop offset="0.0123" style="stop-color:#FFFFFF;stop-opacity:0"/>
    <stop offset="0.0158" style="stop-color:#F6F6F6;stop-opacity:3.690064e-004"/>
    <stop offset="0.0354" style="stop-color:#C8C8C8;stop-opacity:0.0024"/>
    <stop offset="0.0574" style="stop-color:#9D9D9D;stop-opacity:0.0047"/>
    <stop offset="0.081" style="stop-color:#777777;stop-opacity:0.0071"/>
    <stop offset="0.1068" style="stop-color:#575757;stop-opacity:0.0098"/>
    <stop offset="0.1352" style="stop-color:#3B3B3B;stop-opacity:0.0127"/>
    <stop offset="0.1674" style="stop-color:#252525;stop-opacity:0.016"/>
    <stop offset="0.2049" style="stop-color:#141414;stop-opacity:0.0199"/>
    <stop offset="0.2513" style="stop-color:#090909;stop-opacity:0.0247"/>
    <stop offset="0.3163" style="stop-color:#020202;stop-opacity:0.0314"/>
    <stop offset="0.4969" style="stop-color:#000000;stop-opacity:0.05"/>
    <stop offset="0.9289" style="stop-color:#000000;stop-opacity:0.0071"/>
    <stop offset="1" style="stop-color:#000000;stop-opacity:0"/>
  </linearGradient>
  <path fill="url(#SVGID_11_)" d="M20.954,257.563c0-5.408,0-245.347,0-245.347C20.954,6.02,19.888,1,18.578,1&#xD;&#xA;&#x9;&#x9;c-1.307,0-2.379,5.02-2.379,11.216c0,0,0,240.132,0,245.532c0,5.402-1.339,7.364-1.339,17.079s1.661,17.583,3.718,17.583&#xD;&#xA;&#x9;&#x9;c2.054,0,3.715-7.584,3.715-17.583S20.954,262.969,20.954,257.563z"/>
  <linearGradient id="SVGID_12_" gradientUnits="userSpaceOnUse" x1="10.5225" y1="145.002" x2="32.4971" y2="145.002">
    <stop offset="0.0123" style="stop-color:#FFFFFF;stop-opacity:0.5"/>
    <stop offset="0.1519" style="stop-color:#FFFFFF;stop-opacity:0.5"/>
    <stop offset="1" style="stop-color:#FFFFFF;stop-opacity:0.5"/>
  </linearGradient>
  <path fill="url(#SVGID_12_)" d="M27.162,11.187v21.245c0,0,0.231,212.118,0,221.728c-0.258,10.67,5.335,10.453,5.335,20.733&#xD;&#xA;&#x9;&#x9;c0,10.278-5.335,11.741-5.335,11.741s5.461-24.189-12.302-20.501c-5.382,1.119-6.173-3.354,0-4.101&#xD;&#xA;&#x9;&#x9;c6.173-0.745,10.646-0.371,10.646-38.018c0-37.646,0-187.483,0-198.664c0-11.183-3.149-18.921-10.646-16.027&#xD;&#xA;&#x9;&#x9;c-3.744,1.446-4.011-3.201,0-5.099C18.874,2.323,27.162,3.172,27.162,11.187z"/>
  <linearGradient id="SVGID_13_" gradientUnits="userSpaceOnUse" x1="5.1221" y1="282.7173" x2="29.6084" y2="282.7173">
    <stop offset="0.0123" style="stop-color:#FFFFFF;stop-opacity:0.25"/>
    <stop offset="0.1519" style="stop-color:#FFFFFF;stop-opacity:0.2359"/>
    <stop offset="1" style="stop-color:#FFFFFF;stop-opacity:0.15"/>
  </linearGradient>
  <path fill="url(#SVGID_13_)" d="M18.578,288.87c-10.204,0-13.456-8.332-13.456-12.301c0,0,18.911-0.323,24.486,6.15&#xD;&#xA;&#x9;&#x9;C29.608,282.719,26.934,288.87,18.578,288.87z"/>
</svg>