<svg version="1.2" baseProfile="tiny" viewBox="0 0 81.5 6.0" xmlns:xlink="http://www.w3.org/1999/xlink" xmlns="http://www.w3.org/2000/svg">
<path style="fill:#ffffff;stroke:#ffffff;stroke-width:1;" d="M80.7502,0.0L80.7502,6.0M60.7501,6.0L60.7501,1.017M40.75,6.0L40.75,1.017M20.7507,6.0L20.7507,1.017M76.7502,3.05L76.7502,6.0M72.7502,6.0L72.7502,3.05M68.7501,3.05L68.7501,6.0M64.7501,3.05L64.7501,6.0M56.7501,3.05L56.7501,6.0M52.7501,3.05L52.7501,6.0M48.75,3.05L48.75,6.0M44.75,3.05L44.75,6.0M36.75,3.05L36.75,6.0M32.75,6.0L32.75,3.05M28.7499,6.0L28.7499,3.05M24.7507,6.0L24.7507,3.05M16.7507,6.0L16.7507,3.05M12.7499,3.05L12.7499,6.0M8.7498,6.0L8.7498,3.05M4.7498,3.05L4.7498,6.0M0.7498,0.0L0.7498,6.0"/>
</svg>