<?xml version="1.0" standalone="no"?>
<!DOCTYPE svg PUBLIC "-//W3C//DTD SVG 20010904//EN"
 "http://www.w3.org/TR/2001/REC-SVG-20010904/DTD/svg10.dtd">
<svg version="1.0" xmlns="http://www.w3.org/2000/svg"
 width="547.000000pt" height="547.000000pt" viewBox="0 0 547.000000 547.000000"
 preserveAspectRatio="xMidYMid meet">

<g transform="translate(0.000000,547.000000) scale(0.100000,-0.100000)"
fill="#ff0000" stroke="none">
<path d="M2475 5460 c-206 -23 -424 -70 -607 -131 -816 -272 -1468 -930 -1733
-1750 -312 -967 -68 -2018 639 -2748 429 -441 958 -709 1596 -808 161 -25 565
-25 735 0 657 97 1246 409 1662 880 369 416 594 893 678 1437 22 140 31 506
16 652 -81 785 -467 1472 -1086 1933 -375 279 -779 447 -1255 520 -123 19
-524 28 -645 15z m652 -1838 l393 393 290 -290 290 -290 -392 -392 -393 -393
390 -390 390 -390 -290 -290 -290 -290 -390 390 -390 390 -390 -390 -390 -390
-290 290 -290 290 390 390 390 390 -390 390 -390 390 290 290 290 290 390
-390 390 -390 392 392z"/>
</g>
</svg>
