<?xml version="1.0" encoding="UTF-8" standalone="no"?>
<svg
   xmlns:dc="http://purl.org/dc/elements/1.1/"
   xmlns:cc="http://creativecommons.org/ns#"
   xmlns:rdf="http://www.w3.org/1999/02/22-rdf-syntax-ns#"
   xmlns:svg="http://www.w3.org/2000/svg"
   xmlns="http://www.w3.org/2000/svg"
   xmlns:sodipodi="http://sodipodi.sourceforge.net/DTD/sodipodi-0.dtd"
   xmlns:inkscape="http://www.inkscape.org/namespaces/inkscape"
   width="568.45001mm"
   height="264.74222mm"
   viewBox="0 0 568.45001 264.74222"
   version="1.1"
   id="svg8"
   inkscape:version="1.0.1 (3bc2e813f5, 2020-09-07)"
   sodipodi:docname="MainBackgroundImage3.svg">
  <defs
     id="defs2">
    <style
       id="style10">
      .cls-1, .cls-2 {
        fill: #9ff;
      }

      .cls-3 {
        letter-spacing: -.006em;
      }

      .cls-4 {
        isolation: isolate;
      }

      .cls-5 {
        font-family: MyriadPro-Regular, 'Myriad Pro';
        font-size: 12px;
      }

      .cls-6 {
        fill: #41445f;
      }

      .cls-7 {
        fill: url(#radial-gradient);
        mix-blend-mode: color-dodge;
        opacity: .75;
      }

      .cls-8 {
        letter-spacing: -.003em;
      }

      .cls-9 {
        fill: #788ba0;
      }

      .cls-10 {
        letter-spacing: 0em;
      }

      .cls-2 {
        fill-rule: evenodd;
      }

      .cls-11 {
        fill: none;
      }

      .cls-12 {
        letter-spacing: .004em;
      }

      .cls-13 {
        letter-spacing: -.01em;
      }

      .cls-14 {
        fill: #6e8299;
      }
    </style>
    <radialGradient
       id="radial-gradient"
       cx="-336.147"
       cy="3083.7949"
       fx="-336.147"
       fy="3083.7949"
       r="230.617"
       gradientTransform="matrix(1.652,0,0,1.478,3044.6523,-3919.7356)"
       gradientUnits="userSpaceOnUse">
      <stop
         offset="0"
         stop-color="#7895a4"
         id="stop12" />
      <stop
         offset=".434"
         stop-color="#3f4e56"
         stop-opacity=".529"
         id="stop14" />
      <stop
         offset=".818"
         stop-color="#111618"
         stop-opacity=".148"
         id="stop16" />
      <stop
         offset="1"
         stop-color="#000"
         stop-opacity="0"
         id="stop18" />
    </radialGradient>
  </defs>
  <sodipodi:namedview
     id="base"
     pagecolor="#ffffff"
     bordercolor="#666666"
     borderopacity="1.0"
     inkscape:pageopacity="0.0"
     inkscape:pageshadow="2"
     inkscape:zoom="0.7"
     inkscape:cx="1139.9166"
     inkscape:cy="279.64976"
     inkscape:document-units="mm"
     inkscape:current-layer="g337"
     inkscape:document-rotation="0"
     showgrid="false"
     fit-margin-top="0"
     fit-margin-left="0"
     fit-margin-right="0"
     fit-margin-bottom="0"
     inkscape:window-width="2560"
     inkscape:window-height="1377"
     inkscape:window-x="-8"
     inkscape:window-y="-8"
     inkscape:window-maximized="1" />
  <metadata
     id="metadata5">
    <rdf:RDF>
      <cc:Work
         rdf:about="">
        <dc:format>image/svg+xml</dc:format>
        <dc:type
           rdf:resource="http://purl.org/dc/dcmitype/StillImage" />
        <dc:title></dc:title>
      </cc:Work>
    </rdf:RDF>
  </metadata>
  <g
     inkscape:label="Layer 1"
     inkscape:groupmode="layer"
     id="layer1"
     transform="translate(173.93535,29.856989)">
    <g
       id="g801"
       style="isolation:isolate"
       transform="matrix(0.26458333,0,0,0.26458333,-137.05171,-24.190474)">
      <g
         id="g339"
         transform="matrix(1.5,0,0,1.5,-467.41675,-239.44175)">
        <g
           id="g143">
          <polygon
             class="cls-6"
             points="1645.407,519.646 1650.991,530.867 1650.991,639 1645.119,650.802 1638.84,650.802 1644.712,639 1644.712,530.867 1639.129,519.646 1638.84,519.646 1638.84,437.086 1644.712,425.284 1644.712,317.151 1639.129,305.93 1645.407,305.93 1650.991,317.151 1650.991,425.284 1645.119,437.086 1645.119,519.646 "
             id="polygon25" />
          <polygon
             class="cls-6"
             points="224.26,437.086 218.676,425.864 218.676,317.731 224.549,305.93 230.828,305.93 224.955,317.731 224.955,425.864 230.539,437.086 230.828,437.086 230.828,519.645 224.955,531.447 224.955,639.58 230.539,650.802 224.26,650.802 218.676,639.58 218.676,531.447 224.549,519.645 224.549,437.086 "
             id="polygon27" />
          <g
             id="g77">
            <g
               id="g51">
              <g
                 id="g33">
                <polygon
                   class="cls-6"
                   points="1455.286,186.931 1428.961,177.061 1391.637,177.061 1364.645,166.941 1322.345,166.941 1329.167,176.205 1283.08,176.205 1259.885,167.509 1157.742,167.509 1166.401,179.42 1432.622,179.42 1440.593,182.576 1639.789,299.622 1637.622,296.679 1584.784,265.632 1581.397,261.033 "
                   id="polygon29" />
                <polygon
                   class="cls-6"
                   points="1251.149,160.685 1228.261,160.685 1225.372,156.762 1345.324,156.762 1351.576,159.32 1307.117,159.32 1314.779,169.724 1275.26,169.724 "
                   id="polygon31" />
              </g>
              <polygon
                 class="cls-6"
                 points="1151.905,167.509 1160.796,179.449 1125.119,179.449 1116.494,167.737 "
                 id="polygon35" />
              <g
                 id="g41">
                <polygon
                   class="cls-6"
                   points="1218.904,158.186 1221.226,159.55 1099.319,159.55 1109.472,173.337 933.807,173.337 931.485,171.972 1106.605,171.972 1096.452,158.186 "
                   id="polygon37" />
                <path
                   class="cls-6"
                   d="m 938.122,176.066 c 1.819,0 0.694,-1.527 -2.512,-3.411 -3.206,-1.884 -7.28,-3.411 -9.098,-3.411 -1.818,0 -0.694,1.527 2.512,3.411 3.206,1.884 7.28,3.411 9.099,3.411 z"
                   id="path39" />
              </g>
              <g
                 id="g49">
                <polygon
                   class="cls-6"
                   points="1380.323,170.407 1378.001,169.042 1418.885,169.042 1463.299,185.693 1592.093,261.372 1598.327,269.836 1629.322,288.048 1628.004,288.048 1596.048,269.271 1589.815,260.807 1462.943,186.258 1420.662,170.407 "
                   id="polygon43" />
                <path
                   class="cls-6"
                   d="m 1633.911,291.193 c 1.819,0 0.694,-1.527 -2.512,-3.411 -3.206,-1.884 -7.28,-3.411 -9.099,-3.411 -1.819,0 -0.694,1.527 2.512,3.411 3.206,1.884 7.28,3.411 9.098,3.411 z"
                   id="path45" />
                <path
                   class="cls-6"
                   d="m 1385.736,173.135 c 1.819,0 0.694,-1.527 -2.512,-3.411 -3.206,-1.884 -7.28,-3.411 -9.099,-3.411 -1.819,0 -0.694,1.527 2.512,3.411 3.206,1.884 7.28,3.411 9.099,3.411 z"
                   id="path47" />
              </g>
            </g>
            <g
               id="g75">
              <g
                 id="g57">
                <polygon
                   class="cls-6"
                   points="409.453,186.931 435.778,177.061 473.102,177.061 500.094,166.941 542.394,166.941 535.572,176.205 581.659,176.205 604.854,167.509 706.997,167.509 698.339,179.42 432.117,179.42 424.146,182.576 224.95,299.622 227.117,296.679 279.955,265.632 283.342,261.033 "
                   id="polygon53" />
                <polygon
                   class="cls-6"
                   points="613.59,160.685 636.478,160.685 639.367,156.762 519.415,156.762 513.163,159.32 557.622,159.32 549.96,169.724 589.479,169.724 "
                   id="polygon55" />
              </g>
              <polygon
                 class="cls-6"
                 points="712.834,167.509 703.943,179.449 739.62,179.449 748.245,167.737 "
                 id="polygon59" />
              <g
                 id="g65">
                <polygon
                   class="cls-6"
                   points="645.835,158.186 643.513,159.55 765.42,159.55 755.267,173.337 930.932,173.337 933.254,171.972 758.134,171.972 768.287,158.186 "
                   id="polygon61" />
                <path
                   class="cls-6"
                   d="m 926.617,176.066 c -1.819,0 -0.694,-1.527 2.512,-3.411 3.206,-1.884 7.28,-3.411 9.098,-3.411 1.818,0 0.694,1.527 -2.512,3.411 -3.206,1.884 -7.28,3.411 -9.099,3.411 z"
                   id="path63" />
              </g>
              <g
                 id="g73">
                <polygon
                   class="cls-6"
                   points="484.416,170.407 486.738,169.042 445.854,169.042 401.44,185.693 272.646,261.372 266.412,269.836 235.418,288.048 236.735,288.048 268.691,269.271 274.924,260.807 401.796,186.258 444.077,170.407 "
                   id="polygon67" />
                <path
                   class="cls-6"
                   d="m 230.828,291.193 c -1.819,0 -0.694,-1.527 2.512,-3.411 3.206,-1.884 7.28,-3.411 9.099,-3.411 1.819,0 0.694,1.527 -2.512,3.411 -3.206,1.884 -7.28,3.411 -9.099,3.411 z"
                   id="path69" />
                <path
                   class="cls-6"
                   d="m 479.003,173.135 c -1.819,0 -0.694,-1.527 2.512,-3.411 3.206,-1.884 7.28,-3.411 9.099,-3.411 1.819,0 0.694,1.527 -2.512,3.411 -3.206,1.884 -7.28,3.411 -9.099,3.411 z"
                   id="path71" />
              </g>
            </g>
          </g>
          <g
             id="g141">
            <g
               id="g83">
              <polygon
                 class="cls-6"
                 points="827.27,798.926 832.477,804.32 879.25,804.32 886.484,796.827 928.978,796.827 929.185,796.827 971.68,796.827 978.914,804.32 1025.687,804.32 1030.894,798.926 1066.568,798.926 1079.034,793.651 929.185,793.651 928.978,793.651 779.13,793.651 791.596,798.926 "
                 id="polygon79" />
              <path
                 class="cls-6"
                 d="m 858.492,812.417 h 150.63 l 4.598,-4.763 h -39.036 l -7.432,-7.698 h -75.756 l -6.11,6.329 c 0,0 -32.385,0.387 -32.759,0 l 5.866,6.131 z"
                 id="path81" />
            </g>
            <g
               id="g89">
              <polygon
                 class="cls-6"
                 points="1030.894,158.84 1025.687,153.446 978.914,153.446 971.68,160.94 929.185,160.94 928.978,160.94 886.484,160.94 879.25,153.446 832.477,153.446 827.27,158.84 791.596,158.84 779.13,164.115 928.978,164.115 929.185,164.115 1079.034,164.115 1066.568,158.84 "
                 id="polygon85" />
              <path
                 class="cls-6"
                 d="m 999.672,145.35 h -150.63 l -4.598,4.763 h 39.036 l 7.432,7.698 h 75.756 l 6.11,-6.329 c 0,0 32.385,-0.387 32.76,0 l -5.866,-6.131 z"
                 id="path87" />
            </g>
            <g
               id="g139">
              <g
                 id="g113">
                <g
                   id="g95">
                  <polygon
                     class="cls-6"
                     points="409.453,768.75 435.778,778.619 473.102,778.619 500.094,788.739 542.394,788.739 535.572,779.476 581.659,779.476 604.854,788.172 706.997,788.172 698.339,776.26 432.117,776.26 424.146,773.105 224.95,656.059 227.117,659.001 279.955,690.048 283.342,694.648 "
                     id="polygon91" />
                  <polygon
                     class="cls-6"
                     points="613.59,794.996 636.478,794.996 639.367,798.918 519.415,798.918 513.163,796.36 557.622,796.36 549.96,785.956 589.479,785.956 "
                     id="polygon93" />
                </g>
                <polygon
                   class="cls-6"
                   points="712.834,788.172 703.943,776.232 739.62,776.232 748.245,787.943 "
                   id="polygon97" />
                <g
                   id="g103">
                  <polygon
                     class="cls-6"
                     points="645.835,797.494 643.513,796.13 765.42,796.13 755.267,782.343 930.932,782.343 933.254,783.708 758.134,783.708 768.287,797.494 "
                     id="polygon99" />
                  <path
                     class="cls-6"
                     d="m 926.617,779.614 c -1.819,0 -0.694,1.527 2.512,3.411 3.206,1.884 7.28,3.411 9.098,3.411 1.818,0 0.694,-1.527 -2.512,-3.411 -3.206,-1.884 -7.28,-3.411 -9.099,-3.411 z"
                     id="path101" />
                </g>
                <g
                   id="g111">
                  <polygon
                     class="cls-6"
                     points="272.646,694.308 266.412,685.844 235.418,667.632 236.735,667.632 268.691,686.409 274.924,694.873 401.796,769.422 444.077,785.274 484.416,785.274 486.738,786.638 445.854,786.638 401.44,769.987 "
                     id="polygon105" />
                  <path
                     class="cls-6"
                     d="m 230.828,664.487 c -1.819,0 -0.694,1.527 2.512,3.411 3.206,1.884 7.28,3.411 9.099,3.411 1.819,0 0.694,-1.527 -2.512,-3.411 -3.206,-1.884 -7.28,-3.411 -9.099,-3.411 z"
                     id="path107" />
                  <path
                     class="cls-6"
                     d="m 479.003,782.545 c -1.819,0 -0.694,1.527 2.512,3.411 3.206,1.884 7.28,3.411 9.099,3.411 1.819,0 0.694,-1.527 -2.512,-3.411 -3.206,-1.884 -7.28,-3.411 -9.099,-3.411 z"
                     id="path109" />
                </g>
              </g>
              <g
                 id="g137">
                <g
                   id="g119">
                  <polygon
                     class="cls-6"
                     points="1455.286,768.75 1428.961,778.619 1391.637,778.619 1364.645,788.739 1322.345,788.739 1329.167,779.476 1283.08,779.476 1259.885,788.172 1157.742,788.172 1166.401,776.26 1432.622,776.26 1440.593,773.105 1639.789,656.059 1637.622,659.001 1584.784,690.048 1581.397,694.648 "
                     id="polygon115" />
                  <polygon
                     class="cls-6"
                     points="1251.149,794.996 1228.261,794.996 1225.372,798.918 1345.324,798.918 1351.576,796.36 1307.117,796.36 1314.779,785.956 1275.26,785.956 "
                     id="polygon117" />
                </g>
                <polygon
                   class="cls-6"
                   points="1151.905,788.172 1160.796,776.232 1125.119,776.232 1116.494,787.943 "
                   id="polygon121" />
                <g
                   id="g127">
                  <polygon
                     class="cls-6"
                     points="1218.904,797.494 1221.226,796.13 1099.319,796.13 1109.472,782.343 933.807,782.343 931.485,783.708 1106.605,783.708 1096.452,797.494 "
                     id="polygon123" />
                  <path
                     class="cls-6"
                     d="m 938.122,779.614 c 1.819,0 0.694,1.527 -2.512,3.411 -3.206,1.884 -7.28,3.411 -9.098,3.411 -1.818,0 -0.694,-1.527 2.512,-3.411 3.206,-1.884 7.28,-3.411 9.099,-3.411 z"
                     id="path125" />
                </g>
                <g
                   id="g135">
                  <polygon
                     class="cls-6"
                     points="1592.093,694.308 1598.327,685.844 1629.322,667.632 1628.004,667.632 1596.048,686.409 1589.815,694.873 1462.943,769.422 1420.662,785.274 1380.323,785.274 1378.001,786.638 1418.885,786.638 1463.299,769.987 "
                     id="polygon129" />
                  <path
                     class="cls-6"
                     d="m 1633.911,664.487 c 1.819,0 0.694,1.527 -2.512,3.411 -3.206,1.884 -7.28,3.411 -9.099,3.411 -1.819,0 -0.694,-1.527 2.512,-3.411 3.206,-1.884 7.28,-3.411 9.098,-3.411 z"
                     id="path131" />
                  <path
                     class="cls-6"
                     d="m 1385.736,782.545 c 1.819,0 0.694,1.527 -2.512,3.411 -3.206,1.884 -7.28,3.411 -9.099,3.411 -1.819,0 -0.694,-1.527 2.512,-3.411 3.206,-1.884 7.28,-3.411 9.099,-3.411 z"
                     id="path133" />
                </g>
              </g>
            </g>
          </g>
        </g>
        <g
           id="g337"
           transform="translate(1.3333334)">
          <rect
             class="cls-6"
             x="788.82397"
             y="629.24799"
             width="299.97501"
             height="1.086"
             id="rect145" />
          <polygon
             class="cls-6"
             points="1088.529,571.612 1386.387,741.758 1385.88,742.709 1088.022,572.564 "
             id="polygon147" />
          <polygon
             class="cls-6"
             points="479.16,223.533 778.066,394.275 777.559,395.227 478.653,224.484 "
             id="polygon149" />
          <polygon
             class="cls-6"
             points="777.559,571.015 778.066,571.967 479.16,742.709 478.653,741.758 "
             id="polygon151" />
          <polygon
             class="cls-6"
             points="1385.88,223.533 1386.387,224.484 1088.529,394.63 1088.022,393.678 "
             id="polygon153" />
          <path
             class="cls-6"
             d="m 933.043,517.958 -37.825,-39.179 37.825,-39.18 37.825,39.18 z m -36.341,-39.179 36.341,37.642 36.341,-37.642 -36.341,-37.643 z"
             id="path155" />
          <path
             class="cls-6"
             d="m 933.50018,518.06301 -37.825,-39.179 37.825,-39.18 37.825,39.18 z m -36.341,-39.179 36.341,37.642 36.341,-37.642 -36.341,-37.643 z"
             id="path157" />
          <g
             id="g239">
            <polygon
               class="cls-6"
               points="1089.752,476.021 1089.752,481.536 1088.799,481.53 1088.799,476.027 "
               id="polygon159" />
            <polygon
               class="cls-6"
               points="1095.894,475.983 1095.894,481.574 1094.915,481.568 1094.915,475.989 "
               id="polygon161" />
            <polygon
               class="cls-6"
               points="1102.21,475.943 1102.21,481.614 1101.203,481.608 1101.203,475.949 "
               id="polygon163" />
            <polygon
               class="cls-6"
               points="1108.709,475.902 1108.709,481.655 1107.672,481.648 1107.672,475.909 "
               id="polygon165" />
            <polygon
               class="cls-6"
               points="1115.397,475.86 1115.397,481.697 1114.33,481.69 1114.33,475.867 "
               id="polygon167" />
            <polygon
               class="cls-6"
               points="1122.284,475.817 1122.284,481.74 1121.185,481.733 1121.185,475.824 "
               id="polygon169" />
            <polygon
               class="cls-6"
               points="1129.378,475.772 1129.378,481.785 1128.246,481.778 1128.246,475.779 "
               id="polygon171" />
            <polygon
               class="cls-6"
               points="1136.689,475.726 1136.689,481.831 1135.522,481.823 1135.522,475.733 "
               id="polygon173" />
            <polygon
               class="cls-6"
               points="1144.227,475.679 1144.227,481.878 1143.024,481.871 1143.024,475.686 "
               id="polygon175" />
            <polygon
               class="cls-6"
               points="1152.003,475.63 1152.003,481.927 1150.761,481.919 1150.761,475.638 "
               id="polygon177" />
            <polygon
               class="cls-6"
               points="1160.028,475.579 1160.028,481.977 1158.746,481.969 1158.746,475.588 "
               id="polygon179" />
            <polygon
               class="cls-6"
               points="1168.314,475.527 1168.314,482.03 1166.99,482.021 1166.99,475.536 "
               id="polygon181" />
            <polygon
               class="cls-6"
               points="1176.875,475.474 1176.875,482.083 1175.507,482.075 1175.507,475.482 "
               id="polygon183" />
            <polygon
               class="cls-6"
               points="1185.723,475.418 1185.723,482.139 1184.309,482.13 1184.309,475.427 "
               id="polygon185" />
            <polygon
               class="cls-6"
               points="1194.875,475.36 1194.875,482.196 1193.412,482.187 1193.412,475.37 "
               id="polygon187" />
            <polygon
               class="cls-6"
               points="1204.346,475.301 1204.346,482.256 1202.832,482.247 1202.832,475.31 "
               id="polygon189" />
            <polygon
               class="cls-6"
               points="1214.152,475.239 1214.152,482.318 1212.584,482.308 1212.584,475.249 "
               id="polygon191" />
            <polygon
               class="cls-6"
               points="1224.312,475.175 1224.312,482.382 1222.687,482.371 1222.687,475.186 "
               id="polygon193" />
            <polygon
               class="cls-6"
               points="1234.846,475.109 1234.846,482.448 1233.16,482.437 1233.16,475.12 "
               id="polygon195" />
            <polygon
               class="cls-6"
               points="1245.774,475.041 1245.774,482.516 1244.025,482.506 1244.025,475.051 "
               id="polygon197" />
            <polygon
               class="cls-6"
               points="1257.119,474.969 1257.119,482.588 1255.303,482.576 1255.303,474.981 "
               id="polygon199" />
            <polygon
               class="cls-6"
               points="1268.905,474.895 1268.905,482.662 1267.018,482.65 1267.018,474.907 "
               id="polygon201" />
            <polygon
               class="cls-6"
               points="1281.159,474.818 1281.159,482.739 1279.196,482.727 1279.196,474.83 "
               id="polygon203" />
            <polygon
               class="cls-6"
               points="1293.909,474.738 1293.909,482.819 1291.866,482.806 1291.866,474.751 "
               id="polygon205" />
            <polygon
               class="cls-6"
               points="1307.186,474.654 1307.186,482.902 1305.058,482.889 1305.058,474.668 "
               id="polygon207" />
            <polygon
               class="cls-6"
               points="1321.023,474.568 1321.023,482.99 1318.804,482.976 1318.804,474.581 "
               id="polygon209" />
            <polygon
               class="cls-6"
               points="1335.455,474.477 1335.455,483.08 1333.14,483.066 1333.14,474.491 "
               id="polygon211" />
            <polygon
               class="cls-6"
               points="1350.524,474.382 1350.524,483.175 1348.106,483.16 1348.106,474.397 "
               id="polygon213" />
            <polygon
               class="cls-6"
               points="1366.271,474.283 1366.271,483.274 1363.743,483.258 1363.743,474.299 "
               id="polygon215" />
            <polygon
               class="cls-6"
               points="1382.743,474.179 1382.743,483.377 1380.097,483.361 1380.097,474.196 "
               id="polygon217" />
            <polygon
               class="cls-6"
               points="1399.992,474.071 1399.992,483.486 1397.221,483.469 1397.221,474.088 "
               id="polygon219" />
            <polygon
               class="cls-6"
               points="1418.075,473.957 1418.075,483.6 1415.168,483.581 1415.168,473.976 "
               id="polygon221" />
            <polygon
               class="cls-6"
               points="1437.052,473.838 1437.052,483.719 1433.999,483.7 1433.999,473.857 "
               id="polygon223" />
            <polygon
               class="cls-6"
               points="1456.992,473.713 1456.992,483.844 1453.783,483.824 1453.783,473.733 "
               id="polygon225" />
            <polygon
               class="cls-6"
               points="1477.97,473.581 1477.97,483.976 1474.592,483.955 1474.592,473.602 "
               id="polygon227" />
            <polygon
               class="cls-6"
               points="1500.069,473.442 1500.069,484.115 1496.509,484.093 1496.509,473.464 "
               id="polygon229" />
            <polygon
               class="cls-6"
               points="1523.382,473.295 1523.382,484.262 1519.624,484.238 1519.624,473.319 "
               id="polygon231" />
            <polygon
               class="cls-6"
               points="1548.012,473.141 1548.012,484.416 1544.039,484.391 1544.039,473.166 "
               id="polygon233" />
            <polygon
               class="cls-6"
               points="1574.073,472.977 1574.073,484.58 1569.867,484.554 1569.867,473.003 "
               id="polygon235" />
            <polygon
               class="cls-6"
               points="1601.694,431.519 1601.694,526.038 1597.233,525.816 1597.233,431.741 "
               id="polygon237" />
          </g>
          <g
             id="g321">
            <polygon
               class="cls-6"
               points="788.269,476.021 788.269,481.536 789.222,481.53 789.222,476.027 "
               id="polygon241" />
            <polygon
               class="cls-6"
               points="782.127,475.983 782.127,481.574 783.107,481.568 783.107,475.989 "
               id="polygon243" />
            <polygon
               class="cls-6"
               points="775.811,475.943 775.811,481.614 776.818,481.608 776.818,475.949 "
               id="polygon245" />
            <polygon
               class="cls-6"
               points="769.313,475.902 769.313,481.655 770.349,481.648 770.349,475.909 "
               id="polygon247" />
            <polygon
               class="cls-6"
               points="762.624,475.86 762.624,481.697 763.691,481.69 763.691,475.867 "
               id="polygon249" />
            <polygon
               class="cls-6"
               points="755.738,475.817 755.738,481.74 756.836,481.733 756.836,475.824 "
               id="polygon251" />
            <polygon
               class="cls-6"
               points="748.643,475.772 748.643,481.785 749.775,481.778 749.775,475.779 "
               id="polygon253" />
            <polygon
               class="cls-6"
               points="741.332,475.726 741.332,481.831 742.499,481.823 742.499,475.733 "
               id="polygon255" />
            <polygon
               class="cls-6"
               points="733.794,475.679 733.794,481.878 734.998,481.871 734.998,475.686 "
               id="polygon257" />
            <polygon
               class="cls-6"
               points="726.018,475.63 726.018,481.927 727.26,481.919 727.26,475.638 "
               id="polygon259" />
            <polygon
               class="cls-6"
               points="717.994,475.579 717.994,481.977 719.275,481.969 719.275,475.588 "
               id="polygon261" />
            <polygon
               class="cls-6"
               points="709.707,475.527 709.707,482.03 711.031,482.021 711.031,475.536 "
               id="polygon263" />
            <polygon
               class="cls-6"
               points="701.147,475.474 701.147,482.083 702.514,482.075 702.514,475.482 "
               id="polygon265" />
            <polygon
               class="cls-6"
               points="692.298,475.418 692.298,482.139 693.712,482.13 693.712,475.427 "
               id="polygon267" />
            <polygon
               class="cls-6"
               points="683.146,475.36 683.146,482.196 684.609,482.187 684.609,475.37 "
               id="polygon269" />
            <polygon
               class="cls-6"
               points="673.675,475.301 673.675,482.256 675.19,482.247 675.19,475.31 "
               id="polygon271" />
            <polygon
               class="cls-6"
               points="663.869,475.239 663.869,482.318 665.437,482.308 665.437,475.249 "
               id="polygon273" />
            <polygon
               class="cls-6"
               points="653.709,475.175 653.709,482.382 655.334,482.371 655.334,475.186 "
               id="polygon275" />
            <polygon
               class="cls-6"
               points="643.175,475.109 643.175,482.448 644.861,482.437 644.861,475.12 "
               id="polygon277" />
            <polygon
               class="cls-6"
               points="632.247,475.041 632.247,482.516 633.996,482.506 633.996,475.051 "
               id="polygon279" />
            <polygon
               class="cls-6"
               points="620.902,474.969 620.902,482.588 622.718,482.576 622.718,474.981 "
               id="polygon281" />
            <polygon
               class="cls-6"
               points="609.116,474.895 609.116,482.662 611.003,482.65 611.003,474.907 "
               id="polygon283" />
            <polygon
               class="cls-6"
               points="596.862,474.818 596.862,482.739 598.825,482.727 598.825,474.83 "
               id="polygon285" />
            <polygon
               class="cls-6"
               points="584.112,474.738 584.112,482.819 586.155,482.806 586.155,474.751 "
               id="polygon287" />
            <polygon
               class="cls-6"
               points="570.835,474.654 570.835,482.902 572.964,482.889 572.964,474.668 "
               id="polygon289" />
            <polygon
               class="cls-6"
               points="556.999,474.568 556.999,482.99 559.218,482.976 559.218,474.581 "
               id="polygon291" />
            <polygon
               class="cls-6"
               points="542.566,474.477 542.566,483.08 544.881,483.066 544.881,474.491 "
               id="polygon293" />
            <polygon
               class="cls-6"
               points="527.497,474.382 527.497,483.175 529.916,483.16 529.916,474.397 "
               id="polygon295" />
            <polygon
               class="cls-6"
               points="511.75,474.283 511.75,483.274 514.278,483.258 514.278,474.299 "
               id="polygon297" />
            <polygon
               class="cls-6"
               points="495.278,474.179 495.278,483.377 497.924,483.361 497.924,474.196 "
               id="polygon299" />
            <polygon
               class="cls-6"
               points="478.029,474.071 478.029,483.486 480.801,483.469 480.801,474.088 "
               id="polygon301" />
            <polygon
               class="cls-6"
               points="459.947,473.957 459.947,483.6 462.854,483.581 462.854,473.976 "
               id="polygon303" />
            <polygon
               class="cls-6"
               points="440.97,473.838 440.97,483.719 444.022,483.7 444.022,473.857 "
               id="polygon305" />
            <polygon
               class="cls-6"
               points="421.03,473.713 421.03,483.844 424.239,483.824 424.239,473.733 "
               id="polygon307" />
            <polygon
               class="cls-6"
               points="400.052,473.581 400.052,483.976 403.429,483.955 403.429,473.602 "
               id="polygon309" />
            <polygon
               class="cls-6"
               points="377.952,473.442 377.952,484.115 381.512,484.093 381.512,473.464 "
               id="polygon311" />
            <polygon
               class="cls-6"
               points="354.639,473.295 354.639,484.262 358.397,484.238 358.397,473.319 "
               id="polygon313" />
            <polygon
               class="cls-6"
               points="330.009,473.141 330.009,484.416 333.982,484.391 333.982,473.166 "
               id="polygon315" />
            <polygon
               class="cls-6"
               points="303.948,472.977 303.948,484.58 308.154,484.554 308.154,473.003 "
               id="polygon317" />
            <polygon
               class="cls-6"
               points="276.327,431.519 276.327,526.038 280.788,525.816 280.788,431.741 "
               id="polygon319" />
          </g>
          <rect
             class="cls-6"
             x="788.29999"
             y="333.73999"
             width="299.97501"
             height="1.086"
             id="rect323" />
          <g
             id="g329"
             transform="matrix(1,0,0,1.3095288,0,-128.50423)">
            <polygon
               class="cls-6"
               points="802.437,383.833 773.937,421.211 773.113,420.537 801.614,383.16 "
               id="polygon325" />
            <polygon
               class="cls-6"
               points="1096.562,421.235 1095.756,421.93 1066.353,385.309 1067.159,384.614 "
               id="polygon327" />
          </g>
          <g
             id="g335"
             transform="matrix(1,0,0,1.3236071,0,-180.76202)">
            <polygon
               class="cls-6"
               points="1094.472,546.419 1065.972,583.796 1065.148,583.123 1093.649,545.745 "
               id="polygon331" />
            <polygon
               class="cls-6"
               points="801.233,581.647 800.427,582.342 771.024,545.722 771.83,545.027 "
               id="polygon333" />
          </g>
        </g>
      </g>
      <g
         id="g721">
        <g
           id="g349">
          <g
             id="g345">
            <path
               class="cls-14"
               d="m 1615.385,837.281 c 4.162,0 7.537,3.285 7.537,7.338 0,4.053 -3.374,7.338 -7.537,7.338 -4.163,0 -7.535,-3.286 -7.535,-7.338 0,-4.052 3.374,-7.338 7.535,-7.338 z"
               id="path341" />
            <polygon
               class="cls-14"
               points="1615.385,845.708 1296.001,845.708 1226.009,758.263 1227.249,756.723 1296.726,843.529 1615.385,843.529 "
               id="polygon343" />
          </g>
          <path
             class="cls-14"
             d="m 1228.126,761.267 -4.611,-5.194 c 50.033,-68.44 77.583,-157.084 77.583,-249.602 0,-103.338 -35.075,-202.822 -96.233,-272.964 l 4.225,-5.681 c 62.429,71.596 98.236,173.152 98.236,278.645 0,94.443 -28.126,184.934 -79.201,254.796 z"
             id="path347" />
        </g>
        <g
           id="g717"
           transform="translate(-25.91525,-22.08175)">
          <g
             id="g603">
            <g
               id="g391">
              <polygon
                 class="cls-9"
                 points="1155.815,828.593 1148.377,816.451 1152.423,813.989 1160.018,826.033 "
                 id="polygon351" />
              <path
                 class="cls-9"
                 d="m 1282.221,672.858 c 0,0 0.562,-1.042 1.122,-2.085 0.514,-1.068 1.026,-2.136 1.026,-2.136 l 12.723,6.393 c 0,0 -0.535,1.11 -1.068,2.218 -0.583,1.084 -1.166,2.166 -1.166,2.166 l -12.638,-6.557 z"
                 id="path353" />
              <polygon
                 class="cls-9"
                 points="1170.281,813.228 1165.037,805.628 1168.96,802.974 1174.303,810.505 "
                 id="polygon355" />
              <path
                 class="cls-9"
                 d="m 1181.095,793.926 c 0,0 0.948,-0.709 1.896,-1.42 0.479,-0.347 0.943,-0.714 1.279,-1.004 0.343,-0.284 0.572,-0.472 0.572,-0.472 l 5.742,7.229 c 0,0 -0.234,0.194 -0.584,0.484 -0.346,0.298 -0.821,0.674 -1.313,1.031 -0.972,0.729 -1.942,1.457 -1.942,1.457 l -5.649,-7.305 z"
                 id="path357" />
              <path
                 class="cls-9"
                 d="m 1196.505,781.381 c 0,0 0.919,-0.749 1.781,-1.563 0.874,-0.797 1.75,-1.596 1.75,-1.596 l 6.126,6.909 c 0,0 -0.897,0.817 -1.795,1.635 -0.884,0.833 -1.825,1.601 -1.825,1.601 l -6.036,-6.986 z"
                 id="path359" />
              <polygon
                 class="cls-9"
                 points="1217.585,774.629 1211.18,767.978 1214.523,764.623 1221.014,771.19 "
                 id="polygon361" />
              <polygon
                 class="cls-9"
                 points="1231.84,760.076 1225.084,753.782 1228.266,750.272 1235.101,756.478 "
                 id="polygon363" />
              <polygon
                 class="cls-9"
                 points="1245.298,744.785 1238.212,738.865 1241.223,735.208 1248.385,741.035 "
                 id="polygon365" />
              <polygon
                 class="cls-9"
                 points="1257.921,728.797 1250.524,723.271 1253.358,719.473 1260.824,724.905 "
                 id="polygon367" />
              <polygon
                 class="cls-9"
                 points="1269.671,712.159 1261.987,707.04 1264.635,703.114 1272.385,708.131 "
                 id="polygon369" />
              <path
                 class="cls-9"
                 d="m 1272.562,690.222 c 0,0 0.613,-1.014 1.228,-2.025 0.613,-1.014 1.217,-2.032 1.217,-2.032 l 8.012,4.589 c 0,0 -0.62,1.044 -1.247,2.083 -0.629,1.039 -1.259,2.077 -1.259,2.077 l -7.951,-4.691 z"
                 id="path371" />
              <polygon
                 class="cls-9"
                 points="1299.345,658.797 1290.929,654.999 1292.772,650.634 1301.236,654.325 "
                 id="polygon373" />
              <polygon
                 class="cls-9"
                 points="1307.175,639.988 1298.564,636.656 1300.191,632.206 1308.843,635.426 "
                 id="polygon375" />
              <polygon
                 class="cls-9"
                 points="1313.973,620.784 1305.193,617.927 1306.598,613.404 1315.414,616.146 "
                 id="polygon377" />
              <polygon
                 class="cls-9"
                 points="1319.718,601.24 1310.797,598.868 1311.975,594.283 1320.929,596.535 "
                 id="polygon379" />
              <polygon
                 class="cls-9"
                 points="1324.395,581.412 1315.355,579.536 1316.305,574.896 1325.369,576.654 "
                 id="polygon381" />
              <polygon
                 class="cls-9"
                 points="1327.987,561.361 1318.859,559.982 1319.574,555.301 1328.722,556.561 "
                 id="polygon383" />
              <polygon
                 class="cls-9"
                 points="1330.485,541.146 1321.294,540.264 1321.776,535.553 1330.976,536.314 "
                 id="polygon385" />
              <polygon
                 class="cls-9"
                 points="1331.886,520.824 1322.661,520.443 1322.903,515.712 1332.132,515.976 "
                 id="polygon387" />
              <polygon
                 class="cls-9"
                 points="1332.192,500.459 1322.959,500.573 1322.962,495.835 1332.192,495.602 "
                 id="polygon389" />
            </g>
            <g
               id="g433">
              <polygon
                 class="cls-9"
                 points="776.661,838.109 783.48,825.61 787.643,827.866 780.989,840.454 "
                 id="polygon393" />
              <polygon
                 class="cls-9"
                 points="975.364,883.8 974.717,869.577 979.449,869.338 980.278,883.553 "
                 id="polygon395" />
              <polygon
                 class="cls-9"
                 points="797.199,842.98 801.173,834.646 805.442,836.698 801.576,845.084 "
                 id="polygon397" />
              <polygon
                 class="cls-9"
                 points="815.816,851.251 819.325,842.712 823.69,844.555 820.289,853.139 "
                 id="polygon399" />
              <path
                 class="cls-9"
                 d="m 837.891,849.785 c 0,0 1.111,0.408 2.224,0.815 1.103,0.431 2.245,0.753 2.245,0.753 l -2.925,8.757 c 0,0 -1.169,-0.33 -2.302,-0.77 -1.14,-0.418 -2.28,-0.834 -2.28,-0.834 l 3.039,-8.72 z"
                 id="path401" />
              <path
                 class="cls-9"
                 d="m 856.812,855.842 c 0,0 0.283,0.087 0.708,0.219 0.42,0.141 0.991,0.299 1.566,0.439 1.148,0.295 2.293,0.589 2.293,0.589 l -2.439,8.906 c 0,0 -1.177,-0.304 -2.352,-0.607 -0.591,-0.143 -1.175,-0.306 -1.608,-0.45 -0.434,-0.136 -0.724,-0.226 -0.724,-0.226 l 2.555,-8.87 z"
                 id="path403" />
              <polygon
                 class="cls-9"
                 points="873.975,869.836 876.04,860.839 880.681,861.785 878.734,870.81 "
                 id="polygon405" />
              <polygon
                 class="cls-9"
                 points="893.959,873.812 895.528,864.714 900.21,865.428 898.759,874.547 "
                 id="polygon407" />
              <polygon
                 class="cls-9"
                 points="914.126,876.697 915.195,867.527 919.909,868.006 918.957,877.189 "
                 id="polygon409" />
              <polygon
                 class="cls-9"
                 points="934.416,878.489 934.988,869.276 939.719,869.514 939.266,878.735 "
                 id="polygon411" />
              <polygon
                 class="cls-9"
                 points="954.773,879.188 954.848,869.955 959.585,869.956 959.63,879.188 "
                 id="polygon413" />
              <polygon
                 class="cls-9"
                 points="995.451,877.326 994.537,868.139 999.25,867.662 1000.283,876.836 "
                 id="polygon415" />
              <polygon
                 class="cls-9"
                 points="1015.659,874.761 1014.247,865.638 1018.929,864.924 1020.46,874.03 "
                 id="polygon417" />
              <polygon
                 class="cls-9"
                 points="1035.698,871.109 1033.791,862.075 1038.431,861.127 1040.457,870.135 "
                 id="polygon419" />
              <polygon
                 class="cls-9"
                 points="1055.511,866.374 1053.112,857.459 1057.7,856.279 1060.213,865.162 "
                 id="polygon421" />
              <path
                 class="cls-9"
                 d="m 1072.155,851.799 c 0,0 1.13,-0.351 2.261,-0.703 0.568,-0.168 1.129,-0.355 1.542,-0.517 0.418,-0.154 0.695,-0.255 0.695,-0.255 l 2.999,8.733 c 0,0 -0.285,0.104 -0.713,0.259 -0.424,0.167 -1.001,0.359 -1.582,0.532 -1.159,0.36 -2.318,0.722 -2.318,0.722 z"
                 id="path423" />
              <path
                 class="cls-9"
                 d="m 1090.861,845.116 c 0,0 1.124,-0.379 2.206,-0.865 1.089,-0.461 2.179,-0.925 2.179,-0.925 l 3.471,8.555 c 0,0 -1.116,0.474 -2.235,0.948 -1.108,0.498 -2.259,0.885 -2.259,0.885 z"
                 id="path425" />
              <polygon
                 class="cls-9"
                 points="1112.994,845.793 1109.169,837.39 1113.433,835.331 1117.369,843.684 "
                 id="polygon427" />
              <polygon
                 class="cls-9"
                 points="1131.28,836.809 1127,828.628 1131.16,826.363 1135.545,834.487 "
                 id="polygon429" />
              <polygon
                 class="cls-9"
                 points="1149.051,826.851 1144.333,818.916 1148.377,816.451 1153.198,824.326 "
                 id="polygon431" />
            </g>
            <g
               id="g475">
              <polygon
                 class="cls-9"
                 points="578.798,514.511 593.032,514.154 593.27,518.885 579.042,519.425 "
                 id="polygon435" />
              <path
                 class="cls-9"
                 d="m 650.472,701.84 c 0,0 0.655,0.986 1.318,1.966 0.664,0.981 1.327,1.961 1.327,1.961 l -11.884,7.842 c 0,0 -0.687,-1.018 -1.379,-2.038 -0.689,-1.018 -1.366,-2.045 -1.366,-2.045 l 11.983,-7.687 z"
                 id="path437" />
              <polygon
                 class="cls-9"
                 points="584.884,534.729 594.087,534.003 594.566,538.716 585.372,539.561 "
                 id="polygon439" />
              <polygon
                 class="cls-9"
                 points="587.058,554.985 596.209,553.763 596.926,558.445 587.79,559.785 "
                 id="polygon441" />
              <polygon
                 class="cls-9"
                 points="590.326,575.092 599.398,573.375 600.348,578.015 591.299,579.85 "
                 id="polygon443" />
              <polygon
                 class="cls-9"
                 points="594.681,594.994 603.646,592.782 604.828,597.368 595.892,599.696 "
                 id="polygon445" />
              <polygon
                 class="cls-9"
                 points="600.114,614.627 608.943,611.926 610.352,616.449 601.557,619.262 "
                 id="polygon447" />
              <polygon
                 class="cls-9"
                 points="606.605,633.935 615.274,630.756 616.902,635.202 608.277,638.494 "
                 id="polygon449" />
              <polygon
                 class="cls-9"
                 points="614.135,652.863 622.615,649.212 624.463,653.574 616.031,657.334 "
                 id="polygon451" />
              <polygon
                 class="cls-9"
                 points="622.681,671.355 630.949,667.246 633.008,671.51 624.794,675.728 "
                 id="polygon453" />
              <path
                 class="cls-9"
                 d="m 640.244,684.805 c 0,0 0.565,1.039 1.132,2.08 0.612,1.012 1.226,2.025 1.226,2.025 l -7.972,4.658 c 0,0 -0.629,-1.038 -1.255,-2.077 -0.581,-1.066 -1.162,-2.133 -1.162,-2.133 l 8.031,-4.554 z"
                 id="path455" />
              <polygon
                 class="cls-9"
                 points="654.195,723.646 661.682,718.247 664.526,722.035 657.106,727.534 "
                 id="polygon457" />
              <polygon
                 class="cls-9"
                 points="666.582,739.819 673.768,734.02 676.786,737.671 669.677,743.561 "
                 id="polygon459" />
              <polygon
                 class="cls-9"
                 points="679.815,755.304 686.676,749.125 689.866,752.629 683.085,758.894 "
                 id="polygon461" />
              <polygon
                 class="cls-9"
                 points="693.856,770.062 700.371,763.52 703.726,766.866 697.295,773.492 "
                 id="polygon463" />
              <polygon
                 class="cls-9"
                 points="708.664,784.049 714.817,777.165 718.325,780.348 712.261,787.31 "
                 id="polygon465" />
              <path
                 class="cls-9"
                 d="m 729.969,790.019 c 0,0 0.914,0.754 1.829,1.507 0.9,0.77 1.856,1.471 1.856,1.471 l -5.679,7.281 c 0,0 -0.977,-0.721 -1.902,-1.508 -0.938,-0.772 -1.875,-1.544 -1.875,-1.544 l 5.772,-7.207 z"
                 id="path467" />
              <path
                 class="cls-9"
                 d="m 745.785,802.049 c 0,0 0.239,0.178 0.594,0.444 0.351,0.272 0.833,0.615 1.329,0.938 0.983,0.661 1.965,1.323 1.965,1.323 l -5.276,7.578 c 0,0 -1.006,-0.679 -2.013,-1.358 -0.509,-0.331 -1.004,-0.684 -1.364,-0.964 -0.363,-0.271 -0.607,-0.453 -0.607,-0.453 z"
                 id="path469" />
              <polygon
                 class="cls-9"
                 points="757.288,820.97 762.247,813.182 766.298,815.635 761.441,823.489 "
                 id="polygon471" />
              <polygon
                 class="cls-9"
                 points="774.789,831.402 779.315,823.354 783.48,825.61 779.059,833.715 "
                 id="polygon473" />
            </g>
            <g
               id="g517">
              <polygon
                 class="cls-9"
                 points="760.18,181.394 767.617,193.537 763.571,195.998 755.975,183.954 "
                 id="polygon477" />
              <path
                 class="cls-9"
                 d="m 633.774,337.13 -1.124,2.085 c -0.512,1.068 -1.025,2.134 -1.025,2.134 L 618.9,334.957 c 0,0 0.535,-1.11 1.068,-2.218 0.583,-1.084 1.167,-2.168 1.167,-2.168 l 12.638,6.558 z"
                 id="path479" />
              <polygon
                 class="cls-9"
                 points="745.712,196.76 750.957,204.359 747.034,207.014 741.691,199.484 "
                 id="polygon481" />
              <path
                 class="cls-9"
                 d="m 734.897,216.062 c 0,0 -0.948,0.709 -1.896,1.419 -0.479,0.349 -0.943,0.716 -1.279,1.006 -0.341,0.283 -0.572,0.472 -0.572,0.472 l -5.742,-7.229 c 0,0 0.234,-0.194 0.584,-0.484 0.346,-0.298 0.823,-0.674 1.313,-1.031 0.972,-0.729 1.942,-1.457 1.942,-1.457 l 5.649,7.304 z"
                 id="path483" />
              <path
                 class="cls-9"
                 d="m 719.488,228.607 c 0,0 -0.919,0.749 -1.779,1.563 l -1.752,1.595 -6.126,-6.907 c 0,0 0.898,-0.818 1.797,-1.635 0.884,-0.833 1.824,-1.603 1.824,-1.603 l 6.036,6.988 z"
                 id="path485" />
              <polygon
                 class="cls-9"
                 points="698.41,235.359 704.813,242.009 701.47,245.363 694.978,238.799 "
                 id="polygon487" />
              <polygon
                 class="cls-9"
                 points="684.155,249.912 690.91,256.205 687.727,259.716 680.891,253.51 "
                 id="polygon489" />
              <polygon
                 class="cls-9"
                 points="670.695,265.204 677.782,271.122 674.77,274.78 667.608,268.954 "
                 id="polygon491" />
              <polygon
                 class="cls-9"
                 points="658.071,281.19 665.469,286.717 662.636,290.513 655.169,285.082 "
                 id="polygon493" />
              <polygon
                 class="cls-9"
                 points="646.322,297.829 654.008,302.946 651.358,306.874 643.61,301.856 "
                 id="polygon495" />
              <path
                 class="cls-9"
                 d="m 643.43,319.767 c 0,0 -0.613,1.012 -1.228,2.025 -0.612,1.012 -1.217,2.03 -1.217,2.03 l -8.011,-4.589 c 0,0 0.618,-1.044 1.247,-2.083 0.628,-1.038 1.257,-2.077 1.257,-2.077 l 7.951,4.693 z"
                 id="path497" />
              <polygon
                 class="cls-9"
                 points="616.649,351.191 625.065,354.989 623.222,359.352 614.757,355.663 "
                 id="polygon499" />
              <polygon
                 class="cls-9"
                 points="608.819,370 617.429,373.332 615.804,377.78 607.151,374.56 "
                 id="polygon501" />
              <polygon
                 class="cls-9"
                 points="602.019,389.205 610.8,392.061 609.396,396.583 600.58,393.842 "
                 id="polygon503" />
              <polygon
                 class="cls-9"
                 points="596.274,408.749 605.198,411.118 604.019,415.706 595.064,413.453 "
                 id="polygon505" />
              <polygon
                 class="cls-9"
                 points="591.597,428.576 600.639,430.452 599.688,435.093 590.625,433.333 "
                 id="polygon507" />
              <polygon
                 class="cls-9"
                 points="588.006,448.626 597.136,450.006 596.418,454.688 587.273,453.426 "
                 id="polygon509" />
              <polygon
                 class="cls-9"
                 points="585.508,468.842 594.699,469.723 594.218,474.435 585.016,473.674 "
                 id="polygon511" />
              <polygon
                 class="cls-9"
                 points="584.107,489.163 593.331,489.545 593.09,494.277 583.86,494.013 "
                 id="polygon513" />
              <polygon
                 class="cls-9"
                 points="583.801,509.529 593.034,509.416 593.032,514.154 583.801,514.386 "
                 id="polygon515" />
            </g>
            <g
               id="g559">
              <polygon
                 class="cls-9"
                 points="1139.332,171.879 1132.513,184.378 1128.35,182.12 1135.006,169.534 "
                 id="polygon519" />
              <polygon
                 class="cls-9"
                 points="940.628,126.187 941.275,140.412 936.544,140.65 935.714,126.435 "
                 id="polygon521" />
              <polygon
                 class="cls-9"
                 points="1118.794,167.009 1114.82,175.343 1110.553,173.288 1114.416,164.903 "
                 id="polygon523" />
              <polygon
                 class="cls-9"
                 points="1100.179,158.737 1096.667,167.274 1092.304,165.431 1095.703,156.848 "
                 id="polygon525" />
              <path
                 class="cls-9"
                 d="m 1078.103,160.202 -2.226,-0.813 c -1.103,-0.431 -2.245,-0.753 -2.245,-0.753 l 2.925,-8.757 c 0,0 1.17,0.33 2.302,0.772 l 2.28,0.833 -3.037,8.718 z"
                 id="path527" />
              <path
                 class="cls-9"
                 d="m 1059.181,154.146 c 0,0 -0.282,-0.086 -0.706,-0.219 -0.421,-0.141 -0.991,-0.301 -1.568,-0.44 -1.146,-0.293 -2.293,-0.588 -2.293,-0.588 l 2.439,-8.906 c 0,0 1.177,0.304 2.354,0.605 0.589,0.143 1.174,0.307 1.606,0.451 0.434,0.135 0.725,0.224 0.725,0.224 l -2.557,8.872 z"
                 id="path529" />
              <polygon
                 class="cls-9"
                 points="1042.018,140.15 1039.951,149.149 1035.312,148.201 1037.261,139.177 "
                 id="polygon531" />
              <polygon
                 class="cls-9"
                 points="1022.035,136.175 1020.466,145.273 1015.783,144.56 1017.233,135.442 "
                 id="polygon533" />
              <polygon
                 class="cls-9"
                 points="1001.868,133.29 1000.797,142.461 996.085,141.982 997.038,132.798 "
                 id="polygon535" />
              <polygon
                 class="cls-9"
                 points="981.577,131.499 981.005,140.713 976.275,140.472 976.727,131.251 "
                 id="polygon537" />
              <polygon
                 class="cls-9"
                 points="961.221,130.8 961.146,140.032 956.408,140.031 956.363,130.8 "
                 id="polygon539" />
              <polygon
                 class="cls-9"
                 points="920.542,132.662 921.458,141.849 916.742,142.325 915.709,133.152 "
                 id="polygon541" />
              <polygon
                 class="cls-9"
                 points="900.335,135.225 901.746,144.35 897.064,145.065 895.535,135.959 "
                 id="polygon543" />
              <polygon
                 class="cls-9"
                 points="880.295,138.879 882.203,147.911 877.562,148.859 875.538,139.853 "
                 id="polygon545" />
              <polygon
                 class="cls-9"
                 points="860.482,143.614 862.88,152.529 858.293,153.709 855.779,144.824 "
                 id="polygon547" />
              <path
                 class="cls-9"
                 d="m 843.838,158.189 c 0,0 -1.129,0.351 -2.261,0.703 -0.567,0.167 -1.129,0.355 -1.542,0.517 -0.418,0.154 -0.695,0.255 -0.695,0.255 l -2.997,-8.733 c 0,0 0.285,-0.104 0.711,-0.261 0.424,-0.165 1.001,-0.359 1.584,-0.53 1.159,-0.362 2.317,-0.724 2.317,-0.724 l 2.884,8.773 z"
                 id="path549" />
              <path
                 class="cls-9"
                 d="m 825.131,164.873 c 0,0 -1.124,0.378 -2.205,0.865 -1.09,0.461 -2.181,0.924 -2.181,0.924 l -3.471,-8.555 c 0,0 1.118,-0.474 2.235,-0.946 1.11,-0.498 2.261,-0.886 2.261,-0.886 z"
                 id="path551" />
              <polygon
                 class="cls-9"
                 points="802.998,164.194 806.825,172.597 802.559,174.656 798.625,166.304 "
                 id="polygon553" />
              <polygon
                 class="cls-9"
                 points="784.713,173.178 788.993,181.36 784.833,183.624 780.447,175.5 "
                 id="polygon555" />
              <polygon
                 class="cls-9"
                 points="766.941,183.137 771.662,191.073 767.617,193.537 762.794,185.662 "
                 id="polygon557" />
            </g>
            <g
               id="g601">
              <polygon
                 class="cls-9"
                 points="1337.197,495.478 1322.962,495.835 1322.722,491.103 1336.95,490.564 "
                 id="polygon561" />
              <path
                 class="cls-9"
                 d="m 1265.52,308.149 c 0,0 -0.655,-0.986 -1.316,-1.968 -0.666,-0.98 -1.329,-1.96 -1.329,-1.96 l 11.884,-7.843 c 0,0 0.69,1.018 1.379,2.037 0.689,1.02 1.367,2.045 1.367,2.045 z"
                 id="path563" />
              <polygon
                 class="cls-9"
                 points="1331.111,475.258 1321.906,475.985 1321.428,471.271 1330.622,470.427 "
                 id="polygon565" />
              <polygon
                 class="cls-9"
                 points="1328.936,455.003 1319.784,456.225 1319.068,451.543 1328.203,450.201 "
                 id="polygon567" />
              <polygon
                 class="cls-9"
                 points="1325.667,434.894 1316.595,436.612 1315.647,431.974 1324.693,430.137 "
                 id="polygon569" />
              <polygon
                 class="cls-9"
                 points="1321.312,414.995 1312.348,417.206 1311.165,412.62 1320.101,410.292 "
                 id="polygon571" />
              <polygon
                 class="cls-9"
                 points="1315.879,395.361 1307.05,398.061 1305.644,393.539 1314.436,390.724 "
                 id="polygon573" />
              <polygon
                 class="cls-9"
                 points="1309.388,376.053 1300.72,379.233 1299.091,374.786 1307.716,371.493 "
                 id="polygon575" />
              <polygon
                 class="cls-9"
                 points="1301.857,357.125 1293.378,360.776 1291.53,356.414 1299.963,352.653 "
                 id="polygon577" />
              <polygon
                 class="cls-9"
                 points="1293.312,338.633 1285.043,342.742 1282.986,338.476 1291.2,334.26 "
                 id="polygon579" />
              <path
                 class="cls-9"
                 d="m 1275.749,325.183 c 0,0 -0.565,-1.041 -1.13,-2.08 -0.613,-1.014 -1.226,-2.025 -1.226,-2.025 l 7.972,-4.659 c 0,0 0.628,1.039 1.255,2.077 0.581,1.068 1.162,2.134 1.162,2.134 l -8.033,4.554 z"
                 id="path581" />
              <polygon
                 class="cls-9"
                 points="1261.799,286.342 1254.311,291.741 1251.468,287.951 1258.887,282.455 "
                 id="polygon583" />
              <polygon
                 class="cls-9"
                 points="1249.411,270.169 1242.227,275.968 1239.207,272.318 1246.316,266.427 "
                 id="polygon585" />
              <polygon
                 class="cls-9"
                 points="1236.179,254.682 1229.318,260.863 1226.127,257.359 1232.908,251.093 "
                 id="polygon587" />
              <polygon
                 class="cls-9"
                 points="1222.137,239.926 1215.621,246.467 1212.267,243.122 1218.699,236.496 "
                 id="polygon589" />
              <polygon
                 class="cls-9"
                 points="1207.329,225.938 1201.176,232.823 1197.668,229.64 1203.731,222.678 "
                 id="polygon591" />
              <path
                 class="cls-9"
                 d="m 1186.024,219.967 c 0,0 -0.913,-0.753 -1.827,-1.505 -0.901,-0.77 -1.856,-1.472 -1.856,-1.472 l 5.678,-7.28 c 0,0 0.978,0.721 1.904,1.508 0.937,0.772 1.873,1.542 1.873,1.542 z"
                 id="path593" />
              <path
                 class="cls-9"
                 d="m 1170.207,207.939 c 0,0 -0.237,-0.178 -0.592,-0.444 -0.351,-0.272 -0.834,-0.616 -1.331,-0.938 -0.982,-0.663 -1.965,-1.323 -1.965,-1.323 l 5.276,-7.578 c 0,0 1.007,0.679 2.013,1.358 0.509,0.331 1.004,0.682 1.364,0.962 0.365,0.272 0.608,0.453 0.608,0.453 l -5.374,7.509 z"
                 id="path595" />
              <polygon
                 class="cls-9"
                 points="1158.705,189.018 1153.747,196.806 1149.696,194.352 1154.551,186.5 "
                 id="polygon597" />
              <polygon
                 class="cls-9"
                 points="1141.204,178.587 1136.677,186.634 1132.513,184.378 1136.935,176.273 "
                 id="polygon599" />
            </g>
          </g>
          <g
             id="g715">
            <g
               id="g625">
              <g
                 id="g613">
                <path
                   class="cls-9"
                   d="m 687.684,680.453 -4.032,-6.477 -4.538,-7.453 c -1.098,-1.917 -2.224,-3.998 -3.427,-6.219 -0.653,-1.206 -1.327,-2.453 -2.032,-3.734 -9.223,-17.182 -17.751,-37.666 -23.404,-56.209 -5.755,-18.389 -10.264,-40.116 -12.369,-59.6 l -1.126,-11.266 -0.828,-16.345 1.781,-0.087 0.825,16.295 1.121,11.218 c 2.091,19.366 6.576,40.968 12.3,59.259 5.625,18.441 14.103,38.807 23.267,55.884 0.701,1.276 1.377,2.528 2.033,3.737 1.194,2.205 2.315,4.275 3.393,6.155 l 8.523,13.857 z"
                   id="path605" />
                <g
                   id="g611">
                  <path
                     class="cls-9"
                     d="m 678.241,674.775 9.059,3.478 1.076,-9.633 c 0,0 0.397,1.364 0.993,3.412 0.602,2.046 1.361,4.821 2.338,7.484 1.885,5.43 3.771,10.858 3.771,10.858 l -8.73,-7.606 c -2.243,-1.893 -4.293,-3.936 -5.875,-5.452 -1.58,-1.524 -2.632,-2.541 -2.632,-2.541 z"
                     id="path607" />
                  <path
                     class="cls-9"
                     d="m 681.373,676.616 c 0,0 0.773,0.762 1.931,1.904 1.127,1.159 2.727,2.634 4.362,4.07 l 6.437,5.751 -6.161,-9.103 c 0,0 -1.665,-0.618 -3.289,-1.286 -1.64,-0.669 -3.279,-1.337 -3.279,-1.337 z"
                     id="path609" />
                </g>
              </g>
              <g
                 id="g623">
                <path
                   class="cls-9"
                   d="m 854.377,810.428 -7.138,-2.607 c -0.794,-0.301 -1.643,-0.605 -2.544,-0.932 -1.708,-0.615 -3.614,-1.299 -5.655,-2.139 l -10.432,-4.405 c -17.911,-7.863 -37.282,-18.692 -53.154,-29.706 -16.217,-11.09 -33.216,-25.356 -46.632,-39.131 -2.97,-2.864 -5.516,-5.643 -7.823,-8.217 l -5.87,-6.443 -4.893,-5.867 1.371,-1.143 4.866,5.838 5.847,6.418 c 2.29,2.555 4.81,5.306 7.759,8.15 13.359,13.717 30.257,27.897 46.388,38.926 15.786,10.96 35.048,21.725 52.845,29.54 l 10.416,4.398 c 2.006,0.823 3.888,1.5 5.569,2.107 0.916,0.328 1.772,0.637 2.567,0.938 l 7.127,2.604 -0.612,1.672 z"
                   id="path615" />
                <g
                   id="g621">
                  <path
                     class="cls-9"
                     d="m 843.471,811.808 9.29,-2.917 -5.127,-8.187 c 0,0 4.672,3.27 9.344,6.538 4.852,3.058 9.703,6.118 9.703,6.118 0,0 -5.795,-0.248 -11.589,-0.498 z"
                     id="path617" />
                  <path
                     class="cls-9"
                     d="m 847.08,811.297 c 0,0 4.315,0.511 8.622,0.857 4.318,0.239 8.637,0.479 8.637,0.479 0,0 -2.626,-0.815 -5.25,-1.632 -1.311,-0.408 -2.624,-0.815 -3.609,-1.121 -0.969,-0.352 -1.616,-0.585 -1.616,-0.585 l -6.784,2.001 z"
                     id="path619" />
                </g>
              </g>
            </g>
            <g
               id="g647">
              <g
                 id="g635">
                <path
                   class="cls-9"
                   d="m 966.199,827.418 c -4.197,0.106 -8.34,0.126 -12.382,0.064 -19.536,-0.191 -41.595,-2.578 -60.516,-6.56 -16.103,-3.295 -26.786,-6.682 -26.892,-6.712 l 0.543,-1.7 c 0.106,0.032 10.704,3.388 26.712,6.669 18.817,3.956 40.747,6.334 60.177,6.52 19.578,0.322 41.582,-1.428 60.355,-4.771 l 5.358,-1.062 c 5.691,-1.121 10.605,-2.09 14.182,-3.033 l 7.367,-1.896 0.44,1.723 -7.357,1.896 c -3.63,0.957 -8.568,1.931 -14.286,3.057 l -5.37,1.065 c -15.017,2.68 -32.076,4.333 -48.33,4.741 z"
                   id="path627" />
                <g
                   id="g633">
                  <path
                     class="cls-9"
                     d="m 1033.256,823.994 6.084,-7.687 -8.784,-3.86 c 0,0 5.687,0.067 11.372,0.133 2.882,0.074 5.747,0.01 7.886,-0.114 2.155,-0.088 3.591,-0.147 3.591,-0.147 0,0 -1.225,0.77 -3.063,1.923 -1.835,1.193 -4.318,2.69 -6.863,4.062 -5.111,2.845 -10.223,5.69 -10.223,5.69 z"
                     id="path629" />
                  <path
                     class="cls-9"
                     d="m 1035.965,821.524 c 0,0 3.817,-2.069 7.633,-4.137 1.899,-1.023 3.782,-2.051 5.157,-2.932 1.383,-0.844 2.306,-1.406 2.306,-1.406 0,0 -2.615,0.853 -5.26,1.595 -2.661,0.685 -5.322,1.371 -5.322,1.371 l -4.514,5.51 z"
                     id="path631" />
                </g>
              </g>
              <g
                 id="g645">
                <path
                   class="cls-9"
                   d="m 1077.636,804.798 -0.697,-1.64 6.999,-2.962 c 0.775,-0.344 1.627,-0.7 2.536,-1.078 1.648,-0.685 3.478,-1.449 5.433,-2.375 l 10.185,-4.917 c 17.358,-8.691 36.052,-20.418 51.271,-32.161 15.551,-11.82 31.716,-26.836 44.354,-41.195 2.873,-3.063 5.3,-6.019 7.349,-8.545 l 5.553,-6.739 4.536,-6.044 1.427,1.071 -5.1,6.731 -5.036,6.108 c -2.064,2.547 -4.514,5.529 -7.412,8.619 -12.691,14.423 -28.951,29.524 -44.586,41.413 -15.304,11.804 -34.103,23.595 -51.572,32.342 l -10.198,4.924 c -1.99,0.945 -3.848,1.72 -5.519,2.416 -0.895,0.373 -1.737,0.722 -2.515,1.065 z"
                   id="path637" />
                <g
                   id="g643">
                  <path
                     class="cls-9"
                     d="m 1214.594,709.085 c 0,0 0.128,-2.399 0.098,-4.872 -0.022,-2.45 -0.043,-4.896 -0.043,-4.896 l -4.637,1.255 c -2.29,0.628 -4.69,1.122 -4.69,1.122 0,0 1.19,-0.799 2.874,-2.094 1.676,-1.319 3.912,-3.077 6.147,-4.834 2.234,-1.781 4.535,-3.54 6.179,-4.93 1.622,-1.414 2.704,-2.355 2.704,-2.355 0,0 -0.476,1.369 -1.19,3.423 -0.745,2.038 -1.857,4.69 -2.933,7.396 -1.097,2.711 -2.195,5.42 -3.018,7.452 -0.847,2.032 -1.491,3.334 -1.491,3.334 z"
                     id="path639" />
                  <path
                     class="cls-9"
                     d="m 1215.263,705.53 c 0,0 1.683,-4.014 3.362,-8.027 0.828,-1.989 1.654,-3.977 2.274,-5.468 0.621,-1.483 0.954,-2.522 0.954,-2.522 0,0 -0.383,0.57 -0.959,1.425 -0.616,0.826 -1.438,1.929 -2.259,3.031 -1.643,2.203 -3.286,4.405 -3.286,4.405 z"
                     id="path641" />
                </g>
              </g>
            </g>
            <g
               id="g669">
              <g
                 id="g657">
                <path
                   class="cls-9"
                   d="m 1223.967,687.977 -1.481,-0.993 4.248,-6.302 c 1.998,-2.834 4.344,-6.77 7.06,-11.323 1.074,-1.803 2.21,-3.707 3.417,-5.702 9.556,-16.638 18.622,-36.758 24.868,-55.176 6.403,-18.502 11.482,-39.972 13.937,-58.912 0.805,-5.487 1.276,-10.468 1.656,-14.47 0.191,-2.022 0.363,-3.841 0.549,-5.433 l 0.383,-7.529 1.779,0.086 -0.389,7.593 c -0.187,1.633 -0.357,3.443 -0.548,5.45 -0.379,4.021 -0.853,9.027 -1.667,14.547 -2.464,19.038 -7.575,40.641 -14.013,59.243 -6.278,18.522 -15.395,38.752 -25.015,55.505 -1.218,2.009 -2.354,3.912 -3.423,5.71 -2.738,4.586 -5.101,8.545 -7.122,11.421 l -4.237,6.285 z"
                   id="path649" />
                <g
                   id="g655">
                  <path
                     class="cls-9"
                     d="m 1284.803,532.367 c 0,0 -1.235,-2.064 -2.655,-4.104 -1.38,-2.021 -2.762,-4.041 -2.762,-4.041 0,0 -1.576,1.813 -3.153,3.625 -1.534,1.8 -3.247,3.545 -3.247,3.545 0,0 0.576,-1.323 1.196,-3.342 0.66,-2.029 1.54,-4.733 2.419,-7.439 0.874,-2.74 1.747,-5.481 2.402,-7.535 0.557,-2.077 0.927,-3.462 0.927,-3.462 0,0 0.37,1.404 0.925,3.507 0.455,2.12 1.062,4.948 1.668,7.775 0.596,2.861 1.191,5.723 1.64,7.87 0.482,2.162 0.639,3.601 0.639,3.601 z"
                     id="path651" />
                  <path
                     class="cls-9"
                     d="m 1283.357,529.038 c 0,0 -0.836,-4.269 -1.673,-8.537 -0.421,-2.112 -0.841,-4.224 -1.154,-5.807 -0.288,-1.576 -0.599,-2.624 -0.599,-2.624 0,0 -0.01,0.687 -0.014,1.716 -0.051,1.03 -0.122,2.402 -0.191,3.774 -0.141,2.744 -0.279,5.489 -0.279,5.489 l 3.91,5.99 z"
                     id="path653" />
                </g>
              </g>
              <g
                 id="g667">
                <path
                   class="cls-9"
                   d="m 1278.407,484.369 c -0.01,-0.107 -0.535,-11.211 -2.946,-27.374 -2.754,-19.088 -8.073,-40.499 -14.598,-58.741 -6.318,-18.08 -15.594,-38.103 -25.451,-54.935 -3.987,-6.6 -7.758,-12.841 -10.643,-16.875 l -4.275,-6.313 1.473,-0.999 4.269,6.294 c 2.908,4.07 6.698,10.342 10.705,16.98 9.924,16.939 19.249,37.074 25.603,55.255 6.558,18.343 11.911,39.877 14.678,59.077 2.427,16.253 2.959,27.439 2.967,27.551 l -1.782,0.079 z"
                   id="path659" />
                <g
                   id="g665">
                  <path
                     class="cls-9"
                     d="m 1231.625,324.407 -9.247,-3.082 -0.639,9.631 c 0,0 -1.864,-5.391 -3.728,-10.781 -2.136,-5.321 -4.274,-10.643 -4.274,-10.643 0,0 4.552,3.599 9.101,7.2 4.392,3.836 8.786,7.674 8.786,7.674 z"
                     id="path661" />
                  <path
                     class="cls-9"
                     d="m 1228.4,322.705 c 0,0 -3.238,-2.879 -6.472,-5.758 -3.358,-2.725 -6.715,-5.452 -6.715,-5.452 0,0 1.646,2.2 3.295,4.398 1.688,2.171 3.21,4.458 3.21,4.458 z"
                     id="path663" />
                </g>
              </g>
            </g>
            <g
               id="g691">
              <g
                 id="g679">
                <path
                   class="cls-9"
                   d="m 1213.023,310.057 c -0.066,-0.088 -6.666,-9.029 -17.685,-21.092 -12.902,-14.268 -29.237,-29.098 -44.82,-40.686 -15.456,-11.665 -34.276,-23.172 -51.643,-31.578 -1.332,-0.629 -2.626,-1.257 -3.875,-1.864 -2.232,-1.086 -4.342,-2.114 -6.313,-2.953 l -15.04,-6.227 0.613,-1.675 4.003,1.575 11.119,4.685 c 2.014,0.86 4.144,1.894 6.397,2.989 1.246,0.607 2.533,1.228 3.864,1.857 17.475,8.459 36.407,20.034 51.944,31.764 15.669,11.649 32.095,26.565 45.07,40.912 11.083,12.134 17.738,21.147 17.803,21.24 l -1.436,1.052 z"
                   id="path671" />
                <g
                   id="g677">
                  <path
                     class="cls-9"
                     d="m 1085.251,203.032 -9.376,2.49 4.776,8.44 c 0,0 -1.119,-0.876 -2.8,-2.189 -1.675,-1.34 -3.942,-3.077 -6.291,-4.674 l -9.418,-6.597 11.525,1.057 c 2.922,0.227 5.807,0.615 7.964,0.949 2.171,0.314 3.62,0.524 3.62,0.524 z"
                     id="path673" />
                  <path
                     class="cls-9"
                     d="m 1081.636,203.37 c 0,0 -4.262,-0.753 -8.606,-1.13 -4.293,-0.448 -8.584,-0.895 -8.584,-0.895 l 10.326,3.774 c 0,0 1.728,-0.519 3.427,-0.913 1.72,-0.418 3.438,-0.836 3.438,-0.836 z"
                     id="path675" />
                </g>
              </g>
              <g
                 id="g689">
                <path
                   class="cls-9"
                   d="m 863.537,198.622 -0.524,-1.702 7.265,-2.24 10.35,-2.669 c 2.743,-0.714 5.854,-1.52 9.205,-2.136 18.367,-4.134 39.983,-6.778 59.442,-7.266 0.672,-0.018 1.326,-0.034 1.987,-0.05 19.437,-0.488 41.137,1.062 59.724,4.269 3.42,0.453 6.635,1.117 9.468,1.702 l 10.228,2.098 7.405,1.875 -0.436,1.732 -7.364,-1.873 -10.195,-2.085 c -2.804,-0.578 -5.984,-1.236 -9.376,-1.688 -18.508,-3.191 -40.09,-4.733 -59.413,-4.248 -0.668,0.016 -1.323,0.034 -1.976,0.05 -19.357,0.485 -40.847,3.111 -59.136,7.229 -3.324,0.615 -6.401,1.412 -9.117,2.118 l -10.315,2.655 -7.223,2.229 z"
                   id="path681" />
                <g
                   id="g687">
                  <path
                     class="cls-9"
                     d="m 871.014,189.286 c 0,0 -1.518,1.853 -2.943,3.891 -1.422,1.993 -2.842,3.989 -2.842,3.989 0,0 2.243,0.852 4.486,1.707 2.218,0.82 4.453,1.846 4.453,1.846 0,0 -1.435,-0.066 -3.555,0.008 -2.13,0.082 -4.972,0.191 -7.812,0.299 -2.874,0.126 -5.747,0.255 -7.902,0.349 -2.141,0.194 -3.569,0.322 -3.569,0.322 0,0 1.188,-0.831 2.972,-2.075 1.833,-1.161 4.278,-2.706 6.722,-4.253 2.482,-1.548 4.964,-3.097 6.824,-4.258 1.875,-1.161 3.166,-1.825 3.166,-1.825 z"
                     id="path683" />
                  <path
                     class="cls-9"
                     d="m 868.382,191.774 c 0,0 -3.718,2.259 -7.437,4.519 -1.838,1.124 -3.676,2.248 -5.053,3.09 -1.38,0.813 -2.256,1.47 -2.256,1.47 0,0 0.645,-0.232 1.616,-0.581 0.985,-0.306 2.298,-0.714 3.607,-1.124 2.624,-0.818 5.249,-1.633 5.249,-1.633 l 4.275,-5.74 z"
                     id="path685" />
                </g>
              </g>
            </g>
            <g
               id="g713">
              <g
                 id="g701">
                <path
                   class="cls-9"
                   d="m 709.346,302.983 -1.372,-1.135 4.824,-5.867 c 1.036,-1.323 2.307,-2.717 3.782,-4.326 0.647,-0.709 1.326,-1.452 2.021,-2.232 0.81,-0.869 1.625,-1.777 2.471,-2.725 1.625,-1.821 3.308,-3.702 5.245,-5.62 13.165,-13.871 30.003,-28.33 46.178,-39.65 15.688,-11.135 34.939,-22.181 52.807,-30.302 2.652,-1.097 5.108,-2.15 7.393,-3.134 4.378,-1.884 8.161,-3.511 11.218,-4.525 l 7.112,-2.608 0.613,1.676 -7.135,2.613 c -3.013,1.002 -6.762,2.615 -11.107,4.482 -2.291,0.985 -4.754,2.043 -7.385,3.133 -17.744,8.062 -36.883,19.044 -52.49,30.12 -16.087,11.258 -32.826,25.633 -45.93,39.44 -1.92,1.9 -3.583,3.763 -5.193,5.562 -0.853,0.954 -1.675,1.873 -2.48,2.738 -0.687,0.772 -1.372,1.516 -2.024,2.23 -1.447,1.585 -2.696,2.959 -3.702,4.245 l -4.847,5.884 z"
                   id="path693" />
                <g
                   id="g699">
                  <path
                     class="cls-9"
                     d="m 710.348,291.037 -0.389,9.801 9.365,-2.051 c 0,0 -4.631,3.295 -9.264,6.59 -2.365,1.64 -4.658,3.366 -6.313,4.725 -1.691,1.337 -2.818,2.229 -2.818,2.229 0,0 0.54,-1.343 1.348,-3.354 0.78,-2.045 1.921,-4.706 3.166,-7.317 l 4.906,-10.622 z"
                     id="path695" />
                  <path
                     class="cls-9"
                     d="m 709.615,294.628 c 0,0 -1.865,3.921 -3.729,7.843 -1.917,3.851 -3.489,7.892 -3.489,7.892 0,0 1.608,-2.229 3.322,-4.376 1.747,-2.122 3.492,-4.243 3.492,-4.243 l 0.403,-7.116 z"
                     id="path697" />
                </g>
              </g>
              <g
                 id="g711">
                <path
                   class="cls-9"
                   d="m 637.713,500.524 -1.784,0.011 c 0.002,-0.112 -0.032,-11.311 1.574,-27.671 1.793,-19.301 6.051,-41.08 11.685,-59.746 5.418,-18.455 13.722,-39.033 22.77,-56.454 l 0.136,-0.255 c 3.82,-7.092 7.122,-13.218 9.726,-17.278 l 3.932,-6.478 1.521,0.924 -3.942,6.499 c -2.578,4.022 -5.862,10.118 -9.669,17.179 l -0.13,0.243 c -8.992,17.312 -17.245,37.775 -22.636,56.127 -5.604,18.564 -9.838,40.217 -11.621,59.407 -1.593,16.269 -1.561,27.385 -1.563,27.492 z"
                   id="path703" />
                <g
                   id="g709">
                  <path
                     class="cls-9"
                     d="m 631.189,490.56 2.767,3.997 c 1.343,1.981 2.866,3.928 2.866,3.928 0,0 1.441,-1.893 3.06,-3.742 1.579,-1.835 3.154,-3.67 3.154,-3.67 0,0 -1.883,5.393 -3.252,10.91 -1.481,5.561 -2.965,11.122 -2.965,11.122 0,0 -1.481,-5.588 -2.962,-11.175 -1.598,-5.635 -2.668,-11.37 -2.668,-11.37 z"
                     id="path705" />
                  <path
                     class="cls-9"
                     d="m 632.746,493.83 c 0,0 0.21,1.062 0.525,2.653 0.394,1.585 0.919,3.697 1.444,5.811 1.052,4.177 2.104,8.357 2.104,8.357 l 0.003,-10.992 c 0,0 -1.052,-1.449 -2.104,-2.897 -0.988,-1.465 -1.973,-2.932 -1.973,-2.932 z"
                     id="path707" />
                </g>
              </g>
            </g>
          </g>
        </g>
      </g>
    </g>
  </g>
</svg>
