<svg id="svg" version="1.1" xmlns="http://www.w3.org/2000/svg" xmlns:xlink="http://www.w3.org/1999/xlink" width="400" height="339.9239543726236" viewBox="0, 0, 400,339.9239543726236"><g id="svgg"><path id="path0" d="M123.979 26.532 C 123.863 26.720,123.395 26.780,122.938 26.665 C 122.414 26.533,122.109 26.603,122.109 26.854 C 122.109 27.072,121.969 27.165,121.798 27.059 C 121.627 26.953,121.430 27.038,121.360 27.248 C 121.290 27.457,120.780 27.678,120.227 27.739 C 119.116 27.861,117.639 29.411,117.924 30.154 C 118.030 30.429,117.865 30.612,117.514 30.612 C 117.100 30.612,116.978 30.807,117.101 31.276 C 117.197 31.641,117.100 31.998,116.886 32.070 C 116.622 32.157,116.459 33.923,116.381 37.528 L 116.265 42.857 117.827 42.857 C 118.743 42.857,119.388 43.013,119.388 43.234 C 119.388 43.493,120.489 43.581,122.874 43.513 C 124.792 43.459,126.634 43.537,126.968 43.687 C 127.302 43.837,128.412 43.890,129.434 43.806 C 130.456 43.721,131.293 43.790,131.293 43.960 C 131.293 44.130,131.976 44.227,132.812 44.176 C 133.648 44.124,134.439 44.189,134.569 44.320 C 134.700 44.451,135.471 44.558,136.281 44.558 C 137.151 44.558,137.755 44.716,137.755 44.942 C 137.755 45.192,138.173 45.259,138.946 45.134 C 139.652 45.019,140.136 45.081,140.136 45.287 C 140.136 45.494,140.545 45.542,141.156 45.408 C 141.844 45.257,142.177 45.316,142.177 45.589 C 142.177 45.868,142.548 45.924,143.367 45.771 C 144.155 45.623,144.558 45.677,144.558 45.930 C 144.558 46.178,144.916 46.234,145.578 46.088 C 146.268 45.937,146.599 45.996,146.599 46.271 C 146.599 46.511,146.879 46.605,147.279 46.500 C 147.653 46.402,147.959 46.479,147.959 46.670 C 147.959 46.862,148.345 46.944,148.818 46.854 C 149.290 46.764,149.766 46.835,149.875 47.012 C 149.985 47.189,150.440 47.242,150.887 47.130 C 151.335 47.018,151.701 47.068,151.701 47.243 C 151.701 47.417,152.313 47.663,153.061 47.789 C 153.810 47.916,154.422 48.175,154.422 48.366 C 154.422 48.566,154.781 48.623,155.272 48.500 C 155.788 48.370,156.122 48.432,156.122 48.656 C 156.122 48.871,156.407 48.935,156.803 48.810 C 157.219 48.677,157.483 48.748,157.483 48.993 C 157.483 49.213,157.713 49.304,157.993 49.197 C 158.274 49.089,158.503 49.166,158.503 49.367 C 158.503 49.588,158.841 49.649,159.354 49.520 C 159.884 49.387,160.204 49.451,160.204 49.690 C 160.204 49.900,160.434 49.985,160.714 49.877 C 160.995 49.769,161.224 49.829,161.224 50.011 C 161.224 50.192,161.498 50.340,161.833 50.340 C 162.167 50.340,163.022 50.636,163.733 50.999 C 164.443 51.361,165.241 51.574,165.505 51.472 C 165.770 51.371,165.986 51.452,165.986 51.654 C 165.986 51.855,166.216 51.931,166.497 51.824 C 166.777 51.716,167.007 51.814,167.007 52.041 C 167.007 52.268,167.236 52.366,167.517 52.258 C 167.798 52.150,168.027 52.221,168.027 52.415 C 168.027 52.608,168.315 52.676,168.667 52.564 C 169.083 52.432,169.382 52.557,169.522 52.920 C 169.659 53.277,169.980 53.415,170.412 53.302 C 170.784 53.204,171.088 53.264,171.088 53.433 C 171.088 53.603,171.399 53.741,171.779 53.741 C 172.159 53.741,172.560 53.976,172.670 54.262 C 172.796 54.590,173.106 54.707,173.510 54.579 C 173.900 54.455,174.150 54.540,174.150 54.796 C 174.150 55.027,174.244 55.121,174.360 55.005 C 174.476 54.889,174.798 55.022,175.076 55.300 C 175.363 55.586,175.861 55.717,176.226 55.601 C 176.598 55.483,176.871 55.558,176.871 55.779 C 176.871 55.990,177.024 56.068,177.211 55.952 C 177.398 55.837,177.551 55.898,177.551 56.089 C 177.551 56.280,178.156 56.599,178.896 56.799 C 179.636 56.998,180.441 57.360,180.685 57.604 C 180.929 57.848,181.305 57.989,181.520 57.917 C 181.736 57.845,182.194 58.078,182.538 58.434 C 183.171 59.090,187.030 61.038,187.500 60.938 C 187.640 60.909,187.755 61.046,187.755 61.245 C 187.755 61.443,187.897 61.517,188.070 61.410 C 188.511 61.138,190.136 61.929,190.136 62.416 C 190.136 62.637,190.748 63.001,191.497 63.225 C 192.276 63.459,192.857 63.845,192.857 64.129 C 192.857 64.402,193.125 64.644,193.452 64.665 C 193.780 64.687,194.201 64.740,194.388 64.783 C 194.575 64.827,194.919 64.886,195.153 64.914 C 195.387 64.943,195.578 65.212,195.578 65.513 C 195.578 65.859,195.765 65.987,196.088 65.863 C 196.369 65.756,196.599 65.825,196.599 66.017 C 196.599 66.209,196.753 66.271,196.941 66.155 C 197.130 66.039,197.376 66.183,197.488 66.475 C 197.600 66.768,197.905 67.007,198.166 67.007 C 198.426 67.007,198.639 67.232,198.639 67.506 C 198.639 67.811,198.839 67.929,199.150 67.810 C 199.481 67.683,199.660 67.819,199.660 68.197 C 199.660 68.561,199.841 68.711,200.142 68.595 C 200.407 68.494,200.708 68.630,200.812 68.899 C 200.915 69.168,201.233 69.388,201.520 69.388 C 201.806 69.388,202.041 69.541,202.041 69.728 C 202.041 69.915,202.275 70.068,202.562 70.068 C 202.848 70.068,203.167 70.288,203.270 70.557 C 203.373 70.826,203.675 70.962,203.940 70.860 C 204.230 70.749,204.422 70.889,204.422 71.211 C 204.422 71.525,204.615 71.673,204.887 71.569 C 205.168 71.461,205.430 71.685,205.547 72.134 C 205.670 72.602,205.922 72.808,206.229 72.690 C 206.520 72.579,206.889 72.825,207.143 73.299 C 207.386 73.753,207.770 74.018,208.036 73.916 C 208.311 73.811,208.503 73.958,208.503 74.273 C 208.503 74.583,208.697 74.734,208.963 74.632 C 209.217 74.535,209.678 74.844,209.992 75.323 C 210.304 75.800,210.750 76.190,210.982 76.190 C 211.214 76.190,211.554 76.535,211.739 76.956 C 211.924 77.377,212.304 77.721,212.585 77.721 C 212.866 77.721,213.380 78.073,213.728 78.502 C 214.076 78.932,214.532 79.226,214.742 79.156 C 214.953 79.086,215.538 79.599,216.043 80.297 C 216.548 80.994,217.178 81.542,217.442 81.514 C 217.707 81.486,218.456 82.151,219.108 82.993 C 219.880 83.990,220.508 84.485,220.907 84.413 C 221.352 84.333,221.463 84.454,221.310 84.852 C 221.180 85.192,221.259 85.366,221.519 85.307 C 222.062 85.185,228.696 91.700,228.444 92.108 C 228.338 92.279,229.243 93.314,230.453 94.410 C 231.663 95.506,232.653 96.596,232.653 96.833 C 232.653 97.070,233.034 97.513,233.500 97.818 C 233.967 98.124,234.278 98.488,234.192 98.627 C 233.959 99.003,234.761 99.969,235.720 100.467 C 236.185 100.708,236.527 101.084,236.480 101.301 C 236.434 101.518,236.687 101.877,237.042 102.099 C 237.397 102.321,237.610 102.702,237.517 102.947 C 237.417 103.206,237.716 103.533,238.231 103.728 C 238.717 103.913,239.116 104.297,239.116 104.581 C 239.116 104.864,239.406 105.278,239.762 105.500 C 240.117 105.722,240.338 106.086,240.253 106.308 C 240.167 106.531,240.432 106.801,240.841 106.908 C 241.350 107.041,241.519 107.274,241.376 107.646 C 241.254 107.965,241.375 108.269,241.672 108.383 C 241.950 108.489,242.177 108.761,242.177 108.986 C 242.177 109.211,242.521 109.765,242.942 110.217 C 243.363 110.669,243.707 111.169,243.707 111.329 C 243.707 111.489,243.991 111.827,244.337 112.080 C 244.683 112.333,244.865 112.703,244.742 112.903 C 244.619 113.102,244.756 113.265,245.048 113.265 C 245.340 113.265,245.578 113.495,245.578 113.776 C 245.578 114.056,245.856 114.563,246.195 114.902 C 246.534 115.241,246.751 115.700,246.677 115.923 C 246.603 116.145,246.801 116.327,247.117 116.327 C 247.488 116.327,247.622 116.507,247.496 116.837 C 247.373 117.157,247.500 117.347,247.836 117.347 C 248.173 117.347,248.299 117.537,248.176 117.857 C 248.069 118.138,248.129 118.367,248.310 118.367 C 248.491 118.367,248.639 118.597,248.639 118.878 C 248.639 119.158,248.895 119.388,249.206 119.388 C 249.518 119.388,249.673 119.488,249.549 119.612 C 249.426 119.735,249.496 120.041,249.704 120.292 C 249.913 120.543,249.996 120.748,249.889 120.748 C 249.783 120.748,249.855 121.207,250.051 121.769 C 250.247 122.330,250.605 122.789,250.847 122.789 C 251.352 122.789,251.797 123.719,251.512 124.180 C 251.406 124.351,251.452 124.490,251.612 124.490 C 251.773 124.490,252.103 125.041,252.347 125.715 C 252.591 126.388,253.081 127.230,253.436 127.586 C 253.791 127.941,253.994 128.231,253.887 128.231 C 253.780 128.231,253.939 128.477,254.239 128.777 C 254.558 129.096,254.700 129.591,254.580 129.968 C 254.468 130.322,254.527 130.612,254.713 130.612 C 254.898 130.612,255.222 131.136,255.433 131.776 C 255.644 132.415,256.037 133.121,256.306 133.345 C 256.575 133.568,256.711 133.886,256.609 134.052 C 256.506 134.218,256.594 134.354,256.803 134.354 C 257.012 134.354,257.088 134.507,256.973 134.694 C 256.857 134.881,256.935 135.034,257.146 135.034 C 257.374 135.034,257.442 135.309,257.312 135.716 C 257.167 136.175,257.276 136.467,257.649 136.610 C 257.953 136.727,258.122 137.032,258.023 137.289 C 257.920 137.558,258.064 137.755,258.364 137.755 C 258.650 137.755,258.791 137.905,258.678 138.088 C 258.565 138.271,258.661 138.769,258.892 139.194 C 259.123 139.618,259.335 140.248,259.363 140.592 C 259.392 140.937,259.626 141.350,259.885 141.509 C 260.143 141.669,260.251 141.903,260.125 142.029 C 259.999 142.155,260.124 142.485,260.402 142.763 C 260.688 143.050,260.819 143.548,260.703 143.913 C 260.581 144.296,260.661 144.558,260.898 144.558 C 261.118 144.558,261.209 144.787,261.101 145.068 C 260.994 145.349,261.024 145.578,261.170 145.578 C 261.315 145.578,261.711 146.650,262.051 147.959 C 262.391 149.269,262.798 150.340,262.956 150.340 C 263.114 150.340,263.156 150.570,263.048 150.850 C 262.940 151.131,263.038 151.361,263.265 151.361 C 263.493 151.361,263.590 151.590,263.482 151.871 C 263.375 152.151,263.445 152.381,263.639 152.381 C 263.837 152.381,263.897 152.680,263.776 153.061 C 263.646 153.469,263.714 153.741,263.946 153.741 C 264.177 153.741,264.245 154.014,264.116 154.422 C 263.983 154.838,264.055 155.102,264.299 155.102 C 264.519 155.102,264.611 155.332,264.503 155.612 C 264.395 155.893,264.438 156.122,264.598 156.122 C 264.758 156.122,264.991 156.808,265.117 157.645 C 265.243 158.483,265.475 159.248,265.634 159.346 C 265.793 159.444,265.843 159.830,265.745 160.204 C 265.641 160.602,265.734 160.884,265.970 160.884 C 266.212 160.884,266.290 161.144,266.166 161.536 C 266.052 161.894,266.097 162.273,266.267 162.378 C 266.437 162.483,266.502 162.955,266.411 163.427 C 266.311 163.954,266.403 164.286,266.650 164.286 C 266.898 164.286,266.970 164.547,266.837 164.966 C 266.706 165.376,266.776 165.646,267.011 165.646 C 267.267 165.646,267.324 165.996,267.177 166.667 C 267.038 167.297,267.090 167.687,267.311 167.687 C 267.529 167.687,267.590 168.090,267.466 168.707 C 267.336 169.358,267.401 169.728,267.645 169.728 C 267.855 169.728,268.027 170.178,268.027 170.728 C 268.027 171.278,268.155 171.807,268.311 171.904 C 268.467 172.000,268.526 172.545,268.442 173.114 C 268.359 173.684,268.442 174.150,268.627 174.150 C 268.825 174.150,268.893 174.780,268.792 175.680 C 268.679 176.679,268.750 177.211,268.997 177.211 C 269.249 177.211,269.305 177.720,269.165 178.741 C 269.030 179.728,269.084 180.272,269.317 180.272 C 269.552 180.272,269.611 180.927,269.486 182.143 C 269.359 183.370,269.418 184.014,269.658 184.014 C 269.907 184.014,269.960 184.995,269.826 187.075 C 269.675 189.391,269.730 190.136,270.049 190.136 C 270.366 190.136,270.426 190.874,270.292 193.112 L 270.112 196.088 275.022 196.088 C 277.723 196.088,279.932 195.978,279.932 195.844 C 279.932 195.710,280.166 195.689,280.452 195.799 C 280.761 195.918,281.257 195.671,281.671 195.193 C 282.056 194.750,282.472 194.384,282.597 194.379 C 283.230 194.354,284.706 193.039,284.552 192.637 C 284.455 192.384,284.519 192.177,284.694 192.177 C 284.869 192.177,284.932 191.967,284.834 191.711 C 284.735 191.454,284.903 190.996,285.206 190.693 C 285.510 190.389,285.662 189.987,285.546 189.799 C 285.429 189.610,285.496 189.456,285.694 189.456 C 286.169 189.456,286.204 129.724,285.729 129.431 C 285.550 129.320,285.499 128.983,285.614 128.681 C 285.739 128.356,285.580 127.954,285.225 127.695 C 284.896 127.453,284.725 127.096,284.846 126.900 C 285.081 126.520,284.534 125.302,283.799 124.567 C 283.553 124.320,283.183 123.475,282.978 122.689 C 282.772 121.902,282.377 121.082,282.100 120.867 C 281.822 120.652,281.571 120.155,281.542 119.762 C 281.512 119.369,281.358 119.048,281.200 119.048 C 281.042 119.048,281.007 118.895,281.122 118.707 C 281.238 118.520,281.199 118.367,281.035 118.367 C 280.712 118.367,279.431 115.977,279.531 115.561 C 279.564 115.421,279.413 115.306,279.195 115.306 C 278.977 115.306,278.893 115.211,279.009 115.096 C 279.125 114.980,278.988 114.654,278.706 114.371 C 278.423 114.089,278.273 113.648,278.371 113.392 C 278.470 113.135,278.393 112.925,278.201 112.925 C 278.008 112.925,277.946 112.772,278.061 112.585 C 278.177 112.398,278.097 112.245,277.883 112.245 C 277.669 112.245,277.557 112.057,277.634 111.827 C 277.771 111.414,277.582 111.094,276.474 109.868 C 276.162 109.523,275.996 109.151,276.105 109.042 C 276.215 108.933,276.130 108.844,275.918 108.844 C 275.705 108.844,275.620 108.614,275.727 108.333 C 275.848 108.020,275.727 107.823,275.413 107.823 C 274.852 107.823,274.376 106.921,274.679 106.432 C 274.784 106.262,274.692 106.122,274.473 106.122 C 274.255 106.122,274.165 105.893,274.273 105.612 C 274.388 105.312,274.277 105.102,274.002 105.102 C 273.746 105.102,273.376 104.643,273.180 104.082 C 272.985 103.520,272.654 103.061,272.447 103.061 C 272.239 103.061,272.155 102.922,272.260 102.752 C 272.563 102.262,272.087 101.361,271.526 101.361 C 271.212 101.361,271.091 101.164,271.211 100.850 C 271.331 100.540,271.212 100.340,270.908 100.340 C 270.633 100.340,270.408 100.034,270.408 99.660 C 270.408 99.286,270.183 98.980,269.909 98.980 C 269.604 98.980,269.486 98.780,269.605 98.469 C 269.732 98.138,269.596 97.959,269.218 97.959 C 268.892 97.959,268.706 97.772,268.796 97.534 C 269.052 96.863,268.442 95.578,267.868 95.578 C 267.581 95.578,267.347 95.365,267.347 95.104 C 267.347 94.844,267.108 94.539,266.815 94.427 C 266.523 94.314,266.379 94.067,266.497 93.878 C 266.614 93.688,266.480 93.444,266.199 93.337 C 265.919 93.229,265.776 92.915,265.882 92.639 C 266.006 92.315,265.811 92.067,265.331 91.942 C 264.882 91.824,264.658 91.563,264.766 91.282 C 264.864 91.026,264.793 90.816,264.607 90.816 C 264.421 90.816,264.123 90.434,263.946 89.966 C 263.768 89.498,263.394 89.116,263.114 89.116 C 262.806 89.116,262.682 88.918,262.799 88.613 C 262.923 88.290,262.668 87.964,262.085 87.698 C 261.461 87.414,261.229 87.094,261.340 86.670 C 261.440 86.288,261.316 86.054,261.014 86.054 C 260.746 86.054,260.385 85.680,260.211 85.222 C 260.037 84.764,259.499 84.130,259.016 83.814 C 258.533 83.498,258.196 83.069,258.266 82.861 C 258.336 82.653,257.958 82.217,257.426 81.892 C 256.895 81.567,256.479 81.184,256.501 81.042 C 256.624 80.282,256.378 79.883,255.606 79.590 C 255.135 79.410,254.606 78.917,254.431 78.492 C 254.002 77.454,253.018 76.333,252.322 76.090 C 252.008 75.981,251.505 75.371,251.203 74.734 C 250.645 73.558,247.221 70.068,246.625 70.068 C 246.445 70.068,245.617 69.188,244.785 68.112 C 243.038 65.855,241.066 64.032,240.555 64.203 C 240.361 64.268,239.536 63.509,238.723 62.517 C 237.910 61.526,237.015 60.714,236.735 60.714 C 236.454 60.714,236.074 60.370,235.889 59.950 C 235.704 59.529,235.046 58.944,234.426 58.650 C 233.805 58.355,233.151 57.727,232.971 57.254 C 232.758 56.694,232.467 56.461,232.139 56.587 C 231.836 56.703,231.423 56.460,231.107 55.977 C 230.818 55.535,230.282 55.095,229.916 54.999 C 229.551 54.904,229.252 54.582,229.252 54.284 C 229.252 53.771,228.891 53.603,228.017 53.707 C 227.806 53.732,227.547 53.424,227.442 53.023 C 227.315 52.534,227.076 52.360,226.721 52.496 C 226.429 52.608,226.190 52.541,226.190 52.346 C 226.190 51.820,225.390 51.117,224.955 51.262 C 224.747 51.332,224.495 51.075,224.395 50.693 C 224.272 50.226,224.034 50.066,223.671 50.205 C 223.305 50.345,223.129 50.223,223.129 49.830 C 223.129 49.486,222.945 49.318,222.680 49.419 C 222.432 49.514,222.048 49.301,221.826 48.946 C 221.604 48.590,221.195 48.299,220.915 48.299 C 220.636 48.299,220.408 48.075,220.408 47.800 C 220.408 47.516,220.206 47.378,219.942 47.479 C 219.685 47.578,219.380 47.410,219.264 47.107 C 219.148 46.804,218.897 46.651,218.707 46.769 C 218.518 46.886,218.271 46.743,218.158 46.450 C 218.046 46.158,217.741 45.918,217.481 45.918 C 217.220 45.918,217.007 45.765,217.007 45.578 C 217.007 45.391,216.794 45.238,216.533 45.238 C 216.272 45.238,215.972 45.011,215.866 44.734 C 215.755 44.447,215.447 44.316,215.149 44.430 C 214.822 44.556,214.626 44.440,214.626 44.120 C 214.626 43.559,213.724 43.084,213.235 43.386 C 213.064 43.492,212.925 43.408,212.925 43.200 C 212.925 42.992,212.466 42.662,211.905 42.466 C 211.344 42.270,210.884 41.901,210.884 41.644 C 210.884 41.369,210.675 41.258,210.374 41.374 C 210.051 41.498,209.864 41.369,209.864 41.023 C 209.864 40.722,209.634 40.457,209.354 40.434 C 209.073 40.410,208.690 40.353,208.503 40.306 C 208.316 40.259,207.934 40.202,207.653 40.179 C 207.372 40.155,207.143 39.923,207.143 39.663 C 207.143 39.402,206.760 39.093,206.293 38.976 C 205.825 38.859,205.442 38.603,205.442 38.409 C 205.442 38.214,205.303 38.141,205.133 38.246 C 204.692 38.519,203.741 38.096,203.741 37.628 C 203.741 37.411,202.823 36.868,201.701 36.423 C 200.578 35.977,199.660 35.473,199.660 35.303 C 199.660 35.133,199.518 35.081,199.345 35.188 C 198.953 35.431,197.279 34.694,197.279 34.279 C 197.279 34.111,197.126 34.068,196.939 34.184 C 196.752 34.299,196.599 34.258,196.599 34.092 C 196.599 33.751,193.823 32.454,192.495 32.175 C 192.015 32.074,191.262 31.679,190.822 31.297 C 190.365 30.901,189.765 30.684,189.425 30.792 C 189.065 30.906,188.557 30.689,188.141 30.243 C 187.763 29.837,187.232 29.589,186.961 29.693 C 186.691 29.797,186.181 29.614,185.829 29.286 C 185.477 28.958,185.019 28.746,184.811 28.816 C 184.603 28.885,184.197 28.706,183.908 28.418 C 183.620 28.129,183.163 27.978,182.892 28.082 C 182.622 28.186,182.152 28.022,181.849 27.719 C 181.546 27.416,181.143 27.263,180.955 27.379 C 180.766 27.496,180.612 27.413,180.612 27.195 C 180.612 26.976,180.415 26.874,180.173 26.967 C 179.931 27.059,179.443 26.923,179.087 26.663 C 178.282 26.074,124.341 25.945,123.979 26.532 M235.379 26.880 C 235.582 27.260,235.889 27.483,236.060 27.377 C 236.232 27.271,236.567 27.497,236.805 27.878 C 237.044 28.259,237.431 28.571,237.667 28.571 C 237.902 28.571,238.095 28.817,238.095 29.118 C 238.095 29.462,238.283 29.593,238.600 29.471 C 238.895 29.358,239.251 29.549,239.456 29.932 C 239.661 30.315,240.016 30.506,240.311 30.393 C 240.631 30.270,240.816 30.404,240.816 30.757 C 240.816 31.063,241.084 31.414,241.412 31.536 C 241.739 31.658,242.202 32.029,242.441 32.361 C 242.680 32.693,243.081 32.886,243.332 32.790 C 243.602 32.686,243.867 32.917,243.983 33.358 C 244.100 33.808,244.361 34.031,244.644 33.923 C 244.909 33.821,245.384 34.152,245.748 34.694 C 246.099 35.216,246.567 35.574,246.788 35.490 C 247.009 35.405,247.277 35.670,247.384 36.079 C 247.510 36.561,247.756 36.755,248.083 36.629 C 248.389 36.512,248.803 36.764,249.132 37.265 C 249.431 37.722,249.905 38.095,250.186 38.095 C 250.467 38.095,250.843 38.478,251.020 38.946 C 251.311 39.709,251.708 39.954,252.462 39.838 C 252.600 39.816,253.122 40.417,253.623 41.173 C 254.123 41.929,254.713 42.478,254.933 42.394 C 255.483 42.182,255.798 42.456,256.945 44.147 C 257.600 45.113,258.108 45.542,258.443 45.413 C 258.958 45.216,260.544 46.447,260.544 47.045 C 260.544 47.499,265.449 52.509,267.517 54.167 C 268.452 54.917,269.220 55.709,269.224 55.927 C 269.233 56.541,270.488 57.930,271.609 58.568 C 272.164 58.884,272.634 59.343,272.652 59.589 C 272.715 60.446,273.206 61.224,273.684 61.224 C 273.949 61.224,274.306 61.592,274.477 62.041 C 274.647 62.489,275.139 63.103,275.570 63.405 C 276.001 63.707,276.355 64.207,276.357 64.516 C 276.359 64.825,276.820 65.333,277.381 65.645 C 277.942 65.957,278.420 66.391,278.444 66.609 C 278.467 66.828,278.506 67.142,278.529 67.307 C 278.552 67.473,278.897 67.693,279.296 67.797 C 279.800 67.929,279.955 68.158,279.805 68.549 C 279.659 68.929,279.800 69.166,280.242 69.281 C 280.601 69.375,280.983 69.802,281.090 70.230 C 281.197 70.657,281.613 71.093,282.013 71.198 C 282.488 71.322,282.673 71.566,282.545 71.901 C 282.420 72.224,282.598 72.494,283.025 72.629 C 283.505 72.782,283.642 73.033,283.495 73.497 C 283.349 73.955,283.450 74.150,283.831 74.150 C 284.130 74.150,284.474 74.418,284.595 74.745 C 284.820 75.355,285.346 75.836,285.799 75.845 C 286.205 75.853,286.115 33.411,285.709 33.160 C 285.519 33.042,285.456 32.795,285.571 32.610 C 285.918 32.048,285.395 30.612,284.843 30.612 C 284.557 30.612,284.365 30.421,284.414 30.187 C 284.549 29.553,282.735 27.771,281.892 27.709 C 281.488 27.679,281.098 27.477,281.026 27.261 C 280.953 27.044,280.754 26.953,280.583 27.059 C 280.412 27.165,280.272 27.070,280.272 26.848 C 280.272 26.582,279.926 26.515,279.252 26.650 C 278.676 26.765,278.231 26.709,278.231 26.522 C 278.231 26.310,270.432 26.190,256.621 26.190 C 235.016 26.190,235.010 26.191,235.379 26.880 M117.772 69.297 L 116.327 69.427 116.327 83.192 L 116.327 96.958 118.537 96.731 C 120.227 96.558,120.748 96.608,120.748 96.941 C 120.748 97.274,121.351 97.332,123.299 97.184 C 124.989 97.056,125.850 97.113,125.850 97.351 C 125.850 97.583,126.399 97.636,127.381 97.502 C 128.401 97.362,128.912 97.418,128.912 97.669 C 128.912 97.917,129.367 97.973,130.244 97.833 C 131.032 97.707,131.623 97.760,131.691 97.964 C 131.754 98.153,132.684 98.344,133.757 98.388 C 134.830 98.433,135.710 98.584,135.711 98.724 C 135.713 98.865,136.173 98.980,136.735 98.980 C 137.296 98.980,137.755 99.143,137.755 99.343 C 137.755 99.551,138.045 99.614,138.435 99.490 C 138.852 99.357,139.116 99.429,139.116 99.674 C 139.116 99.931,139.420 99.997,139.966 99.860 C 140.499 99.727,140.816 99.791,140.816 100.033 C 140.816 100.252,141.111 100.342,141.497 100.242 C 141.871 100.144,142.177 100.213,142.177 100.395 C 142.177 100.577,142.483 100.629,142.857 100.510 C 143.276 100.377,143.537 100.449,143.537 100.697 C 143.537 100.932,143.820 101.026,144.218 100.922 C 144.592 100.824,144.898 100.889,144.898 101.067 C 144.898 101.245,145.089 101.359,145.323 101.321 C 145.557 101.283,146.207 101.440,146.769 101.671 C 147.330 101.902,148.210 102.175,148.724 102.278 C 149.239 102.381,149.660 102.595,149.660 102.753 C 149.660 102.911,149.870 102.959,150.126 102.861 C 150.383 102.762,150.849 102.939,151.163 103.252 C 151.476 103.566,151.828 103.727,151.944 103.611 C 152.061 103.495,152.430 103.648,152.766 103.952 C 153.101 104.256,153.611 104.414,153.899 104.304 C 154.186 104.193,154.422 104.260,154.422 104.453 C 154.422 104.645,154.575 104.707,154.762 104.592 C 154.949 104.476,155.102 104.538,155.102 104.729 C 155.102 104.920,155.714 105.241,156.463 105.442 C 157.355 105.683,157.832 106.009,157.850 106.391 C 157.866 106.740,157.945 106.804,158.047 106.551 C 158.178 106.228,158.334 106.245,158.711 106.621 C 158.982 106.892,159.429 107.028,159.704 106.922 C 159.979 106.816,160.204 106.908,160.204 107.127 C 160.204 107.345,160.357 107.429,160.544 107.313 C 160.731 107.197,160.884 107.252,160.884 107.435 C 160.884 107.617,161.573 108.030,162.415 108.352 C 163.257 108.673,164.331 109.292,164.800 109.728 C 165.270 110.163,165.882 110.432,166.161 110.325 C 166.439 110.219,166.667 110.310,166.667 110.528 C 166.667 110.746,166.820 110.830,167.007 110.714 C 167.194 110.599,167.347 110.731,167.347 111.007 C 167.347 111.290,167.794 111.609,168.367 111.735 C 168.929 111.858,169.388 112.171,169.388 112.431 C 169.388 112.712,169.595 112.824,169.898 112.708 C 170.229 112.581,170.408 112.717,170.408 113.095 C 170.408 113.459,170.590 113.609,170.890 113.493 C 171.155 113.392,171.457 113.528,171.560 113.797 C 171.663 114.066,171.900 114.286,172.086 114.286 C 172.273 114.286,172.890 114.740,173.458 115.295 C 174.026 115.850,174.700 116.224,174.956 116.126 C 175.236 116.019,175.498 116.243,175.615 116.692 C 175.740 117.167,175.989 117.367,176.307 117.245 C 176.613 117.127,176.870 117.305,176.975 117.711 C 177.077 118.099,177.442 118.367,177.868 118.367 C 178.322 118.367,178.707 118.679,178.909 119.211 C 179.102 119.718,179.415 119.984,179.695 119.877 C 179.973 119.770,180.535 120.241,181.097 121.051 C 181.612 121.795,182.226 122.331,182.460 122.241 C 182.694 122.151,183.475 122.812,184.196 123.709 C 185.792 125.696,189.345 129.252,189.735 129.252 C 189.890 129.252,190.377 129.634,190.816 130.102 C 191.256 130.570,191.507 130.952,191.374 130.952 C 190.822 130.952,191.946 132.371,192.735 132.671 C 193.207 132.851,193.527 133.188,193.447 133.420 C 193.366 133.653,193.622 134.073,194.014 134.354 C 194.407 134.634,194.728 135.091,194.728 135.370 C 194.728 135.648,195.160 136.082,195.688 136.335 C 196.283 136.621,196.578 136.978,196.464 137.275 C 196.363 137.539,196.432 137.755,196.618 137.755 C 196.804 137.755,197.101 138.138,197.279 138.605 C 197.457 139.073,197.852 139.456,198.157 139.456 C 198.517 139.456,198.642 139.640,198.512 139.979 C 198.399 140.271,198.524 140.584,198.794 140.687 C 199.059 140.789,199.194 141.090,199.092 141.355 C 198.977 141.655,199.126 141.837,199.490 141.837 C 199.868 141.837,200.004 142.016,199.877 142.347 C 199.761 142.650,199.873 142.857,200.154 142.857 C 200.414 142.857,200.727 143.316,200.850 143.878 C 200.980 144.468,201.293 144.898,201.594 144.898 C 201.916 144.898,202.039 145.092,201.918 145.408 C 201.795 145.729,201.921 145.918,202.258 145.918 C 202.595 145.918,202.721 146.108,202.598 146.429 C 202.490 146.709,202.560 146.939,202.752 146.939 C 202.944 146.939,203.010 147.087,202.898 147.268 C 202.786 147.449,203.157 148.081,203.721 148.672 C 204.286 149.263,204.666 149.880,204.565 150.043 C 204.464 150.207,204.553 150.340,204.762 150.340 C 204.971 150.340,205.048 150.493,204.932 150.680 C 204.816 150.867,204.897 151.020,205.110 151.020 C 205.324 151.020,205.431 151.212,205.347 151.446 C 205.201 151.856,205.981 153.734,206.443 154.082 C 206.995 154.498,208.063 156.676,207.914 157.083 C 207.823 157.331,208.079 157.841,208.481 158.215 C 208.959 158.660,209.141 159.124,209.005 159.551 C 208.889 159.918,208.957 160.204,209.162 160.204 C 209.362 160.204,209.711 160.893,209.936 161.735 C 210.161 162.577,210.452 163.265,210.583 163.265 C 210.714 163.265,210.741 163.570,210.644 163.941 C 210.531 164.374,210.669 164.695,211.026 164.832 C 211.389 164.971,211.514 165.271,211.382 165.687 C 211.270 166.039,211.328 166.327,211.510 166.327 C 211.692 166.327,211.765 166.617,211.672 166.972 C 211.579 167.327,211.702 167.978,211.946 168.418 C 212.189 168.858,212.349 169.409,212.301 169.643 C 212.254 169.877,212.385 170.068,212.593 170.068 C 212.816 170.068,212.883 170.347,212.755 170.748 C 212.631 171.139,212.694 171.429,212.902 171.429 C 213.102 171.429,213.265 171.811,213.265 172.279 C 213.265 172.747,213.404 173.129,213.574 173.129 C 213.743 173.129,213.802 173.435,213.704 173.810 C 213.606 174.184,213.693 174.490,213.897 174.490 C 214.129 174.490,214.192 174.875,214.065 175.510 C 213.943 176.116,214.003 176.531,214.211 176.531 C 214.404 176.531,214.482 176.837,214.384 177.211 C 214.282 177.603,214.374 177.891,214.602 177.891 C 214.869 177.891,214.925 178.276,214.773 179.082 C 214.626 179.868,214.680 180.272,214.932 180.272 C 215.187 180.272,215.242 180.724,215.097 181.633 C 214.961 182.482,215.011 182.993,215.230 182.993 C 215.444 182.993,215.510 183.527,215.399 184.354 C 215.280 185.238,215.350 185.714,215.596 185.714 C 215.857 185.714,215.909 186.352,215.763 187.755 C 215.613 189.183,215.666 189.796,215.938 189.796 C 216.201 189.796,216.327 190.789,216.327 192.857 L 216.327 195.918 230.414 195.918 C 238.163 195.918,244.744 196.011,245.040 196.125 C 245.393 196.260,245.578 196.143,245.578 195.785 C 245.578 195.484,245.449 195.238,245.292 195.238 C 245.134 195.238,244.905 192.598,244.784 189.371 C 244.662 186.145,244.416 183.456,244.238 183.397 C 244.055 183.336,244.001 182.560,244.114 181.611 C 244.251 180.451,244.191 179.932,243.918 179.932 C 243.668 179.932,243.602 179.622,243.738 179.082 C 243.855 178.615,243.836 177.965,243.695 177.637 C 243.555 177.309,243.473 176.620,243.514 176.105 C 243.556 175.582,243.416 175.170,243.196 175.170 C 242.936 175.170,242.879 174.824,243.027 174.150 C 243.170 173.499,243.116 173.129,242.878 173.129 C 242.649 173.129,242.587 172.799,242.717 172.279 C 242.855 171.729,242.788 171.429,242.527 171.429 C 242.255 171.429,242.196 171.095,242.347 170.408 C 242.494 169.737,242.437 169.388,242.181 169.388 C 241.946 169.388,241.877 169.118,242.007 168.707 C 242.131 168.317,242.068 168.027,241.860 168.027 C 241.660 168.027,241.497 167.655,241.497 167.199 C 241.497 166.744,241.320 165.940,241.103 165.413 C 240.887 164.887,240.744 164.188,240.785 163.861 C 240.826 163.533,240.701 163.265,240.508 163.265 C 240.315 163.265,240.246 163.036,240.353 162.755 C 240.461 162.474,240.377 162.245,240.166 162.245 C 239.927 162.245,239.863 161.925,239.996 161.395 C 240.125 160.882,240.064 160.544,239.843 160.544 C 239.642 160.544,239.565 160.315,239.673 160.034 C 239.781 159.753,239.683 159.524,239.456 159.524 C 239.228 159.524,239.131 159.294,239.239 159.014 C 239.346 158.733,239.290 158.503,239.113 158.503 C 238.937 158.503,238.884 158.044,238.997 157.483 C 239.129 156.823,239.063 156.463,238.810 156.463 C 238.379 156.463,237.605 154.840,237.715 154.167 C 237.754 153.933,237.616 153.741,237.410 153.741 C 237.203 153.741,237.135 153.579,237.258 153.380 C 237.381 153.181,237.233 152.744,236.930 152.409 C 236.623 152.070,236.473 151.551,236.593 151.240 C 236.717 150.916,236.639 150.680,236.408 150.680 C 236.163 150.680,236.092 150.417,236.225 149.998 C 236.371 149.539,236.261 149.247,235.888 149.104 C 235.584 148.987,235.416 148.682,235.514 148.425 C 235.612 148.169,235.545 147.959,235.363 147.959 C 235.182 147.959,235.034 147.715,235.034 147.416 C 235.034 147.118,234.732 146.450,234.364 145.932 C 233.995 145.415,233.791 144.894,233.910 144.775 C 234.029 144.655,233.953 144.558,233.741 144.558 C 233.528 144.558,233.437 144.342,233.539 144.078 C 233.711 143.629,232.840 141.531,232.325 141.156 C 232.196 141.063,231.730 140.106,231.289 139.031 C 230.848 137.955,230.302 137.075,230.076 137.075 C 229.594 137.075,229.164 136.132,229.441 135.684 C 229.546 135.513,229.470 135.374,229.272 135.374 C 229.074 135.374,228.936 135.259,228.966 135.119 C 229.077 134.591,228.480 133.673,228.025 133.673 C 227.764 133.673,227.532 133.444,227.509 133.163 C 227.429 132.203,227.380 132.093,226.766 131.479 C 226.428 131.141,226.232 130.655,226.330 130.398 C 226.429 130.141,226.297 129.932,226.037 129.932 C 225.777 129.932,225.463 129.473,225.340 128.912 C 225.217 128.350,224.903 127.891,224.644 127.891 C 224.363 127.891,224.251 127.684,224.367 127.381 C 224.494 127.050,224.358 126.871,223.980 126.871 C 223.595 126.871,223.465 126.693,223.597 126.348 C 223.709 126.056,223.585 125.743,223.315 125.639 C 223.049 125.537,222.919 125.228,223.025 124.952 C 223.148 124.630,222.957 124.381,222.493 124.260 C 222.095 124.156,221.769 123.875,221.769 123.636 C 221.769 123.397,221.538 123.113,221.255 123.005 C 220.973 122.897,220.762 122.689,220.785 122.543 C 220.903 121.824,220.696 121.429,220.202 121.429 C 219.841 121.429,219.726 121.244,219.863 120.887 C 220.000 120.530,219.848 120.287,219.418 120.174 C 219.059 120.081,218.677 119.654,218.570 119.226 C 218.463 118.799,218.047 118.363,217.647 118.258 C 217.153 118.129,216.985 117.894,217.126 117.527 C 217.265 117.165,217.061 116.862,216.507 116.610 C 216.053 116.403,215.635 115.921,215.579 115.540 C 215.522 115.159,215.017 114.594,214.456 114.284 C 213.828 113.937,213.420 113.428,213.396 112.962 C 213.374 112.544,212.991 111.947,212.545 111.635 C 210.980 110.540,209.184 108.760,209.184 108.304 C 209.184 108.050,208.971 107.926,208.708 108.027 C 208.098 108.261,206.309 105.966,206.659 105.399 C 206.833 105.118,206.741 105.053,206.370 105.195 C 205.789 105.418,203.741 103.603,203.741 102.866 C 203.741 102.364,202.021 101.180,201.463 101.297 C 201.239 101.344,200.883 101.059,200.672 100.664 C 200.002 99.414,199.235 98.693,198.764 98.874 C 198.490 98.979,198.169 98.682,197.959 98.129 C 197.729 97.525,197.437 97.276,197.107 97.403 C 196.782 97.527,196.421 97.242,196.088 96.599 C 195.781 96.004,195.386 95.673,195.110 95.779 C 194.832 95.886,194.570 95.660,194.453 95.213 C 194.334 94.760,194.075 94.540,193.788 94.650 C 193.530 94.749,193.137 94.539,192.915 94.184 C 192.693 93.828,192.283 93.537,192.004 93.537 C 191.725 93.537,191.497 93.299,191.497 93.007 C 191.497 92.714,191.332 92.578,191.129 92.704 C 190.927 92.829,190.534 92.606,190.256 92.208 C 189.977 91.810,189.606 91.574,189.430 91.683 C 189.255 91.791,189.019 91.641,188.907 91.348 C 188.795 91.056,188.490 90.816,188.229 90.816 C 187.968 90.816,187.755 90.663,187.755 90.476 C 187.755 90.289,187.526 90.136,187.245 90.136 C 186.964 90.136,186.735 89.988,186.735 89.807 C 186.735 89.625,186.505 89.565,186.224 89.673 C 185.904 89.796,185.714 89.669,185.714 89.333 C 185.714 88.996,185.525 88.870,185.204 88.993 C 184.873 89.120,184.694 88.984,184.694 88.605 C 184.694 88.242,184.512 88.092,184.212 88.207 C 183.947 88.309,183.651 88.188,183.555 87.938 C 183.459 87.688,182.835 87.303,182.167 87.083 C 181.499 86.862,180.952 86.464,180.952 86.198 C 180.952 85.932,180.685 85.697,180.357 85.675 C 180.030 85.653,179.609 85.600,179.422 85.557 C 179.235 85.513,178.890 85.454,178.656 85.426 C 178.423 85.397,178.231 85.175,178.231 84.931 C 178.231 84.687,177.466 84.213,176.531 83.877 C 175.595 83.540,174.830 83.134,174.830 82.975 C 174.830 82.636,172.249 81.417,170.107 80.745 C 169.287 80.488,168.437 80.032,168.218 79.733 C 167.999 79.433,167.369 79.165,166.818 79.137 C 166.267 79.109,165.647 78.868,165.440 78.603 C 165.232 78.335,164.815 78.216,164.505 78.335 C 164.197 78.453,163.946 78.408,163.946 78.234 C 163.946 78.060,163.310 77.746,162.534 77.537 C 161.757 77.328,160.899 76.934,160.627 76.662 C 160.349 76.384,159.850 76.257,159.488 76.372 C 159.105 76.493,158.844 76.414,158.844 76.177 C 158.844 75.957,158.614 75.866,158.333 75.973 C 158.053 76.081,157.823 76.004,157.823 75.803 C 157.823 75.602,157.598 75.524,157.324 75.629 C 157.049 75.734,156.728 75.664,156.609 75.472 C 156.491 75.281,156.180 75.206,155.918 75.306 C 155.656 75.407,155.442 75.324,155.442 75.123 C 155.442 74.922,155.217 74.843,154.942 74.949 C 154.668 75.054,154.017 74.919,153.497 74.647 C 152.977 74.376,152.360 74.153,152.126 74.152 C 151.892 74.151,151.701 73.980,151.701 73.773 C 151.701 73.540,151.374 73.478,150.850 73.609 C 150.373 73.729,150.000 73.675,150.000 73.487 C 150.000 73.302,149.770 73.239,149.490 73.346 C 149.206 73.455,148.980 73.356,148.980 73.123 C 148.980 72.839,148.651 72.770,147.959 72.908 C 147.398 73.020,146.939 72.977,146.939 72.812 C 146.939 72.648,146.633 72.593,146.259 72.691 C 145.862 72.794,145.578 72.701,145.578 72.467 C 145.578 72.247,145.310 72.099,144.983 72.140 C 144.656 72.180,144.120 72.097,143.793 71.955 C 143.465 71.812,142.968 71.784,142.687 71.892 C 142.406 71.999,142.177 71.928,142.177 71.734 C 142.177 71.539,141.832 71.414,141.412 71.455 C 140.991 71.496,140.376 71.413,140.046 71.271 C 139.716 71.128,139.142 71.091,138.770 71.188 C 138.316 71.307,138.095 71.196,138.095 70.849 C 138.095 70.443,137.840 70.380,136.905 70.556 C 136.094 70.708,135.714 70.652,135.714 70.380 C 135.714 70.105,135.292 70.049,134.354 70.199 C 133.430 70.346,132.993 70.291,132.993 70.026 C 132.993 69.759,132.509 69.702,131.463 69.845 C 130.435 69.986,129.932 69.930,129.932 69.674 C 129.932 69.410,129.260 69.363,127.721 69.520 C 126.287 69.667,125.510 69.624,125.510 69.397 C 125.510 69.059,121.056 69.001,117.772 69.297 M116.327 155.782 C 116.327 177.058,116.446 189.116,116.656 189.116 C 116.837 189.116,116.902 189.333,116.800 189.599 C 116.698 189.865,116.812 190.439,117.054 190.875 C 117.295 191.310,117.498 191.787,117.505 191.934 C 117.512 192.081,117.728 192.332,117.986 192.491 C 118.244 192.651,118.360 192.934,118.245 193.121 C 117.984 193.543,118.901 194.348,119.336 194.079 C 119.512 193.971,120.016 194.338,120.457 194.894 C 120.989 195.565,121.459 195.843,121.854 195.719 C 122.181 195.616,122.449 195.657,122.449 195.810 C 122.449 195.963,137.985 196.088,156.973 196.088 L 191.497 196.088 191.497 194.813 C 191.497 194.111,191.330 193.537,191.127 193.537 C 190.874 193.537,190.833 192.741,190.997 190.986 C 191.167 189.177,191.125 188.435,190.852 188.435 C 190.595 188.435,190.540 187.987,190.686 187.075 C 190.805 186.327,190.764 185.714,190.595 185.714 C 190.425 185.714,190.088 184.453,189.845 182.912 C 189.603 181.371,189.258 180.020,189.078 179.909 C 188.899 179.798,188.851 179.452,188.970 179.139 C 189.095 178.816,189.023 178.571,188.805 178.571 C 188.567 178.571,188.503 178.251,188.636 177.721 C 188.765 177.208,188.704 176.871,188.483 176.871 C 188.281 176.871,188.205 176.641,188.312 176.361 C 188.420 176.080,188.323 175.850,188.095 175.850 C 187.868 175.850,187.770 175.621,187.878 175.340 C 187.986 175.060,187.960 174.830,187.822 174.830 C 187.683 174.830,187.570 174.205,187.570 173.441 C 187.570 172.479,187.389 171.951,186.982 171.724 C 186.659 171.543,186.395 171.096,186.395 170.731 C 186.395 170.367,186.232 170.068,186.034 170.068 C 185.836 170.068,185.769 169.915,185.884 169.728 C 186.000 169.541,185.947 169.388,185.766 169.388 C 185.586 169.388,185.512 169.104,185.602 168.758 C 185.693 168.412,185.515 167.876,185.206 167.568 C 184.898 167.259,184.744 167.007,184.864 167.007 C 184.984 167.007,184.835 166.759,184.531 166.456 C 184.228 166.152,183.889 165.451,183.778 164.896 C 183.668 164.341,183.370 163.808,183.117 163.711 C 182.864 163.614,182.742 163.397,182.845 163.230 C 182.949 163.062,182.862 162.925,182.653 162.925 C 182.444 162.925,182.359 162.785,182.465 162.614 C 182.571 162.443,182.496 162.249,182.300 162.184 C 182.103 162.118,181.917 161.723,181.885 161.304 C 181.854 160.886,181.712 160.544,181.571 160.544 C 181.430 160.544,181.402 160.315,181.510 160.034 C 181.636 159.705,181.502 159.524,181.130 159.524 C 180.814 159.524,180.622 159.332,180.702 159.099 C 180.783 158.865,180.517 158.362,180.111 157.981 C 179.705 157.600,179.435 157.102,179.511 156.875 C 179.587 156.648,179.390 156.463,179.074 156.463 C 178.702 156.463,178.568 156.282,178.694 155.952 C 178.817 155.632,178.691 155.442,178.354 155.442 C 178.020 155.442,177.891 155.252,178.012 154.937 C 178.126 154.640,177.931 154.285,177.538 154.075 C 177.171 153.878,176.871 153.504,176.871 153.242 C 176.871 152.981,176.554 152.666,176.166 152.543 C 175.743 152.409,175.534 152.128,175.645 151.841 C 175.751 151.565,175.467 151.125,174.977 150.804 C 174.508 150.497,174.182 150.075,174.253 149.868 C 174.324 149.660,173.866 149.137,173.237 148.706 C 172.607 148.275,172.185 147.772,172.299 147.587 C 172.534 147.207,167.057 141.673,166.750 141.980 C 166.473 142.257,165.306 141.147,165.306 140.606 C 165.306 140.107,164.144 139.371,163.839 139.676 C 163.731 139.784,163.366 139.421,163.029 138.869 C 162.691 138.317,162.224 137.930,161.990 138.009 C 161.756 138.087,161.565 137.910,161.565 137.613 C 161.565 137.126,161.166 136.920,160.450 137.038 C 160.304 137.062,160.100 136.860,159.996 136.589 C 159.893 136.319,159.591 136.181,159.326 136.282 C 159.025 136.398,158.844 136.248,158.844 135.884 C 158.844 135.515,158.663 135.371,158.351 135.490 C 158.055 135.604,157.776 135.421,157.653 135.034 C 157.530 134.647,157.251 134.464,156.955 134.578 C 156.654 134.693,156.463 134.559,156.463 134.231 C 156.463 133.894,156.273 133.768,155.952 133.891 C 155.629 134.015,155.442 133.886,155.442 133.540 C 155.442 133.239,155.213 132.974,154.932 132.951 C 153.765 132.853,152.043 131.987,152.035 131.493 C 152.029 131.116,148.674 129.520,147.664 129.414 C 146.823 129.326,145.238 128.503,145.238 128.154 C 145.238 127.984,144.948 127.937,144.594 128.050 C 144.239 128.162,143.740 128.046,143.485 127.790 C 143.230 127.535,142.831 127.390,142.599 127.467 C 142.367 127.544,142.177 127.426,142.177 127.203 C 142.177 126.980,141.958 126.882,141.692 126.984 C 141.425 127.087,141.013 126.938,140.777 126.653 C 140.531 126.357,140.011 126.200,139.562 126.286 C 139.129 126.369,138.776 126.298,138.776 126.128 C 138.776 125.959,138.584 125.844,138.350 125.872 C 137.720 125.949,136.395 125.471,136.395 125.167 C 136.395 125.022,136.157 124.812,135.867 124.700 C 135.564 124.584,135.427 124.641,135.547 124.834 C 135.661 125.019,135.592 125.170,135.394 125.170 C 135.196 125.170,135.034 125.000,135.034 124.793 C 135.034 124.561,134.708 124.498,134.184 124.629 C 133.651 124.763,133.333 124.699,133.333 124.457 C 133.333 124.228,132.986 124.137,132.483 124.233 C 132.015 124.322,131.633 124.251,131.633 124.075 C 131.633 123.897,131.182 123.855,130.612 123.980 C 129.924 124.131,129.592 124.072,129.592 123.799 C 129.592 123.520,129.220 123.463,128.401 123.617 C 127.590 123.769,127.211 123.713,127.211 123.441 C 127.211 123.167,126.791 123.109,125.871 123.257 C 125.027 123.391,124.444 123.330,124.295 123.090 C 124.132 122.825,123.144 122.780,121.078 122.942 C 119.089 123.097,118.021 123.054,117.871 122.812 C 117.748 122.612,117.350 122.449,116.987 122.449 C 116.338 122.449,116.327 123.014,116.327 155.782 M175.719 222.014 C 175.584 222.148,174.946 222.213,174.301 222.158 C 173.583 222.096,173.129 222.209,173.129 222.450 C 173.129 222.710,172.783 222.767,172.109 222.619 C 171.539 222.494,171.088 222.536,171.088 222.715 C 171.088 222.891,170.706 222.962,170.238 222.872 C 169.718 222.773,169.388 222.866,169.388 223.113 C 169.388 223.360,169.126 223.432,168.707 223.299 C 168.326 223.178,168.027 223.238,168.027 223.436 C 168.027 223.630,167.798 223.700,167.517 223.592 C 167.236 223.485,167.007 223.569,167.007 223.780 C 167.007 224.012,166.692 224.084,166.205 223.961 C 165.703 223.835,165.205 223.960,164.869 224.295 C 164.575 224.589,164.132 224.833,163.885 224.837 C 163.638 224.842,163.068 225.127,162.619 225.473 C 162.170 225.818,161.520 226.026,161.174 225.936 C 160.774 225.831,160.544 225.952,160.544 226.266 C 160.544 226.824,158.963 227.665,158.478 227.365 C 158.305 227.258,158.163 227.349,158.163 227.567 C 158.163 227.785,157.934 227.876,157.653 227.768 C 157.342 227.649,157.143 227.768,157.143 228.072 C 157.143 228.347,156.930 228.571,156.669 228.571 C 156.408 228.571,156.103 228.811,155.991 229.103 C 155.879 229.396,155.632 229.539,155.442 229.422 C 155.252 229.305,155.002 229.457,154.886 229.760 C 154.767 230.070,154.457 230.228,154.176 230.120 C 153.864 230.000,153.611 230.187,153.497 230.624 C 153.397 231.007,152.799 231.535,152.168 231.799 C 151.537 232.062,151.020 232.486,151.020 232.739 C 151.020 233.274,148.948 235.374,148.421 235.374 C 147.856 235.374,146.849 236.654,147.097 237.056 C 147.221 237.256,147.071 237.516,146.764 237.634 C 146.457 237.752,146.069 238.210,145.901 238.652 C 145.733 239.094,145.353 239.456,145.056 239.456 C 144.748 239.456,144.617 239.617,144.751 239.834 C 144.880 240.042,144.774 240.342,144.516 240.502 C 144.063 240.782,144.011 240.912,143.920 242.007 C 143.897 242.287,143.660 242.517,143.394 242.517 C 143.128 242.517,142.733 243.053,142.517 243.707 C 142.301 244.362,141.974 244.898,141.790 244.898 C 141.607 244.898,141.557 245.061,141.681 245.261 C 141.804 245.460,141.639 245.818,141.314 246.056 C 140.989 246.293,140.794 246.703,140.882 246.965 C 140.969 247.228,140.826 247.658,140.562 247.922 C 140.299 248.185,140.157 248.684,140.248 249.030 C 140.338 249.377,140.257 249.660,140.068 249.660 C 139.878 249.660,139.811 249.889,139.919 250.170 C 140.027 250.451,139.980 250.680,139.815 250.680 C 139.650 250.680,139.412 251.293,139.286 252.041 C 139.159 252.789,138.900 253.401,138.709 253.401 C 138.508 253.401,138.452 253.761,138.575 254.252 C 138.708 254.782,138.644 255.102,138.405 255.102 C 138.166 255.102,138.102 255.422,138.235 255.952 C 138.370 256.489,138.304 256.803,138.058 256.803 C 137.794 256.803,137.738 257.240,137.886 258.163 C 138.005 258.912,137.974 259.524,137.815 259.524 C 137.657 259.524,137.532 262.049,137.538 265.136 C 137.543 268.223,137.685 270.748,137.852 270.748 C 138.018 270.748,138.052 271.361,137.925 272.109 C 137.766 273.050,137.818 273.469,138.092 273.469 C 138.357 273.469,138.414 273.811,138.265 274.490 C 138.114 275.177,138.173 275.510,138.445 275.510 C 138.706 275.510,138.774 275.811,138.636 276.361 C 138.513 276.851,138.569 277.211,138.769 277.211 C 138.960 277.211,139.116 277.517,139.116 277.891 C 139.116 278.265,139.247 278.571,139.409 278.571 C 139.570 278.571,139.629 278.952,139.540 279.418 C 139.429 279.995,139.556 280.332,139.937 280.478 C 140.300 280.618,140.425 280.917,140.293 281.333 C 140.182 281.685,140.249 281.973,140.443 281.973 C 140.636 281.973,140.704 282.211,140.592 282.502 C 140.473 282.812,140.698 283.319,141.136 283.727 C 141.547 284.110,141.801 284.637,141.700 284.899 C 141.600 285.160,141.666 285.374,141.847 285.374 C 142.029 285.374,142.177 285.625,142.177 285.932 C 142.177 286.239,142.415 286.664,142.706 286.877 C 143.189 287.230,143.443 287.907,143.511 289.031 C 143.526 289.264,143.783 289.456,144.084 289.456 C 144.417 289.456,144.558 289.645,144.445 289.940 C 144.264 290.410,145.725 292.177,146.294 292.177 C 146.450 292.177,146.490 292.404,146.383 292.682 C 146.255 293.016,146.502 293.307,147.109 293.537 C 147.665 293.749,147.959 294.068,147.852 294.345 C 147.602 294.997,151.556 299.014,152.203 298.766 C 152.541 298.636,152.829 298.879,153.061 299.490 C 153.292 300.097,153.582 300.343,153.916 300.215 C 154.222 300.098,154.422 300.219,154.422 300.521 C 154.422 300.796,154.728 301.020,155.102 301.020 C 155.476 301.020,155.782 301.245,155.782 301.520 C 155.782 301.824,155.982 301.943,156.293 301.824 C 156.613 301.701,156.803 301.827,156.803 302.164 C 156.803 302.500,156.992 302.627,157.313 302.504 C 157.618 302.387,157.823 302.501,157.823 302.788 C 157.823 303.055,158.577 303.538,159.524 303.879 C 160.459 304.215,161.224 304.603,161.224 304.741 C 161.224 305.142,162.870 305.782,163.387 305.584 C 163.646 305.484,163.953 305.651,164.069 305.955 C 164.186 306.258,164.550 306.465,164.879 306.415 C 165.207 306.364,165.827 306.516,166.255 306.752 C 166.683 306.988,167.295 307.149,167.615 307.109 C 167.935 307.069,168.628 307.214,169.155 307.430 C 169.681 307.646,170.485 307.823,170.941 307.823 C 171.396 307.823,171.769 307.993,171.769 308.200 C 171.769 308.432,172.095 308.495,172.619 308.364 C 173.151 308.230,173.469 308.294,173.469 308.536 C 173.469 308.799,173.952 308.848,175.000 308.691 C 175.892 308.557,176.531 308.595,176.531 308.782 C 176.531 308.968,178.730 309.098,181.803 309.094 C 184.767 309.089,187.075 308.949,187.075 308.774 C 187.075 308.597,187.737 308.561,188.605 308.691 C 189.540 308.831,190.136 308.790,190.136 308.585 C 190.136 307.587,194.198 308.644,194.230 309.650 C 194.248 310.205,195.645 311.763,196.351 312.014 C 196.683 312.133,197.055 312.501,197.179 312.832 C 197.543 313.812,198.737 315.306,199.154 315.306 C 199.367 315.306,199.901 315.689,200.340 316.156 C 200.780 316.624,201.030 317.007,200.898 317.007 C 200.360 317.007,201.459 318.422,202.222 318.712 C 202.679 318.885,203.264 319.555,203.543 320.223 C 203.898 321.073,204.198 321.363,204.573 321.219 C 204.914 321.088,205.102 321.206,205.102 321.552 C 205.102 321.887,205.292 322.015,205.609 321.893 C 205.899 321.782,206.206 321.932,206.325 322.242 C 206.440 322.541,206.671 322.701,206.838 322.597 C 207.006 322.494,207.143 322.539,207.143 322.698 C 207.143 323.064,209.884 323.810,211.229 323.810 C 211.788 323.810,212.245 323.963,212.245 324.150 C 212.245 324.808,230.500 324.592,230.754 323.930 C 231.013 323.256,230.279 322.386,228.292 321.016 C 227.484 320.459,226.896 319.812,226.985 319.580 C 227.153 319.143,224.832 316.667,224.254 316.667 C 223.719 316.667,222.361 315.044,222.588 314.675 C 222.704 314.488,221.878 313.524,220.753 312.534 C 219.628 311.543,218.707 310.604,218.707 310.446 C 218.707 310.012,216.546 307.498,216.156 307.478 C 215.631 307.451,214.163 306.132,214.398 305.897 C 214.690 305.604,213.309 303.741,212.799 303.741 C 212.158 303.741,210.096 301.470,210.356 301.050 C 210.483 300.844,210.349 300.680,210.054 300.680 C 209.762 300.680,209.524 300.532,209.524 300.351 C 209.524 300.170,209.751 300.109,210.029 300.215 C 210.363 300.343,210.653 300.097,210.884 299.490 C 211.088 298.954,211.418 298.641,211.676 298.740 C 212.232 298.953,216.279 294.877,216.079 294.305 C 215.998 294.072,216.323 293.733,216.803 293.550 C 217.362 293.338,217.606 293.042,217.484 292.724 C 217.373 292.434,217.587 292.072,218.001 291.851 C 218.389 291.643,218.707 291.248,218.707 290.974 C 218.707 290.700,218.932 290.476,219.207 290.476 C 219.511 290.476,219.630 290.277,219.511 289.966 C 219.387 289.643,219.515 289.456,219.862 289.456 C 220.162 289.456,220.420 289.264,220.433 289.031 C 220.501 287.902,220.801 286.894,221.100 286.791 C 221.283 286.728,221.346 286.537,221.241 286.366 C 221.135 286.194,221.219 286.054,221.429 286.054 C 221.638 286.054,221.714 285.901,221.599 285.714 C 221.483 285.527,221.551 285.374,221.749 285.374 C 221.947 285.374,222.109 285.136,222.109 284.844 C 222.109 284.530,222.269 284.412,222.502 284.556 C 222.752 284.711,222.802 284.649,222.638 284.384 C 222.488 284.142,222.631 283.785,222.980 283.530 C 223.342 283.265,223.495 282.870,223.365 282.532 C 223.247 282.225,223.309 281.973,223.503 281.973 C 223.701 281.973,223.761 281.674,223.639 281.293 C 223.518 280.911,223.578 280.612,223.776 280.612 C 223.970 280.612,224.040 280.383,223.933 280.102 C 223.825 279.821,223.922 279.592,224.150 279.592 C 224.377 279.592,224.475 279.362,224.367 279.082 C 224.259 278.801,224.289 278.571,224.432 278.571 C 224.714 278.571,225.510 275.100,225.510 273.874 C 225.510 273.464,225.683 273.129,225.894 273.129 C 226.151 273.129,226.206 272.680,226.060 271.769 C 225.937 270.998,225.980 270.408,226.160 270.408 C 226.341 270.408,226.487 268.221,226.500 265.306 C 226.515 261.955,226.400 260.204,226.166 260.204 C 225.935 260.204,225.890 259.661,226.038 258.673 C 226.176 257.758,226.136 257.143,225.939 257.143 C 225.759 257.143,225.442 256.123,225.235 254.876 C 225.029 253.629,224.680 252.499,224.461 252.363 C 224.242 252.228,224.161 251.957,224.282 251.762 C 224.402 251.567,224.352 251.316,224.170 251.203 C 223.988 251.091,223.925 250.774,224.031 250.499 C 224.136 250.225,224.037 250.000,223.810 250.000 C 223.582 250.000,223.485 249.771,223.592 249.490 C 223.700 249.209,223.630 248.980,223.436 248.980 C 223.242 248.980,223.175 248.690,223.288 248.335 C 223.401 247.979,223.279 247.477,223.015 247.213 C 222.416 246.614,221.265 244.474,221.359 244.133 C 221.397 243.992,221.266 243.878,221.068 243.878 C 220.870 243.878,220.803 243.724,220.918 243.537 C 221.034 243.350,220.950 243.197,220.732 243.197 C 220.514 243.197,220.425 242.964,220.534 242.679 C 220.643 242.395,220.459 241.887,220.124 241.553 C 219.789 241.218,219.576 240.762,219.650 240.540 C 219.724 240.318,219.542 240.136,219.246 240.136 C 218.950 240.136,218.707 239.943,218.707 239.708 C 218.707 239.472,218.395 239.084,218.014 238.846 C 217.633 238.608,217.407 238.273,217.513 238.101 C 217.619 237.930,217.391 237.620,217.005 237.414 C 216.620 237.208,216.345 236.856,216.394 236.632 C 216.510 236.108,212.390 231.938,211.873 232.055 C 211.659 232.103,211.221 231.684,210.901 231.122 C 210.581 230.561,210.102 230.102,209.836 230.102 C 209.571 230.102,209.230 229.907,209.078 229.670 C 208.926 229.432,208.657 229.327,208.480 229.436 C 208.303 229.546,208.067 229.396,207.954 229.103 C 207.842 228.811,207.614 228.571,207.447 228.571 C 207.280 228.571,206.831 228.260,206.450 227.879 C 206.069 227.498,205.621 227.270,205.455 227.373 C 205.072 227.610,203.401 226.864,203.401 226.456 C 203.401 226.288,203.248 226.245,203.061 226.361 C 202.874 226.476,202.721 226.383,202.721 226.154 C 202.721 225.925,202.624 225.834,202.505 225.953 C 202.387 226.071,201.907 225.867,201.439 225.499 C 200.971 225.131,200.312 224.830,199.974 224.830 C 199.636 224.830,199.269 224.684,199.159 224.505 C 199.048 224.326,198.733 224.266,198.458 224.371 C 198.184 224.476,197.959 224.398,197.959 224.197 C 197.959 223.996,197.730 223.919,197.449 224.027 C 197.168 224.134,196.939 224.043,196.939 223.823 C 196.939 223.578,196.675 223.507,196.259 223.639 C 195.877 223.761,195.578 223.701,195.578 223.503 C 195.578 223.309,195.349 223.239,195.068 223.346 C 194.786 223.455,194.558 223.356,194.558 223.126 C 194.558 222.881,194.285 222.781,193.894 222.883 C 193.529 222.979,193.181 222.910,193.121 222.729 C 193.061 222.549,191.977 222.356,190.712 222.300 C 189.447 222.244,188.315 222.102,188.197 221.984 C 187.897 221.684,176.020 221.713,175.719 222.014 M36.395 265.476 L 36.395 308.503 45.238 308.503 L 54.082 308.503 54.082 281.871 C 54.082 263.923,53.967 255.123,53.729 254.885 C 53.293 254.450,53.691 251.629,54.147 251.911 C 54.324 252.020,54.386 252.324,54.286 252.585 C 54.185 252.847,54.223 253.061,54.369 253.061 C 54.670 253.061,55.938 255.474,55.844 255.867 C 55.810 256.008,55.944 256.122,56.143 256.122 C 56.341 256.122,56.408 256.276,56.293 256.463 C 56.177 256.650,56.253 256.803,56.463 256.803 C 56.672 256.803,56.756 256.943,56.651 257.114 C 56.545 257.285,56.630 257.482,56.839 257.552 C 57.049 257.622,57.269 258.116,57.327 258.651 C 57.386 259.186,57.618 259.737,57.842 259.876 C 58.067 260.014,58.145 260.298,58.017 260.506 C 57.888 260.714,57.917 260.884,58.080 260.884 C 58.244 260.884,58.633 261.420,58.945 262.075 C 59.257 262.730,59.650 263.265,59.817 263.265 C 60.155 263.265,60.998 265.113,60.998 265.854 C 60.998 266.114,61.097 266.327,61.218 266.327 C 61.467 266.327,62.689 268.683,62.729 269.241 C 62.806 270.316,64.674 273.760,65.714 274.744 C 66.032 275.045,66.214 275.417,66.119 275.571 C 66.024 275.725,66.117 275.850,66.327 275.850 C 66.536 275.850,66.612 276.003,66.497 276.190 C 66.381 276.378,66.424 276.531,66.592 276.531 C 67.007 276.531,67.744 278.205,67.501 278.597 C 67.394 278.770,67.456 278.912,67.639 278.912 C 67.822 278.912,68.234 279.600,68.555 280.442 C 68.877 281.284,69.281 281.973,69.454 281.973 C 69.627 281.973,69.681 282.114,69.574 282.287 C 69.275 282.771,70.114 284.354,70.669 284.354 C 70.967 284.354,71.084 284.555,70.965 284.864 C 70.844 285.180,70.967 285.374,71.289 285.374 C 71.575 285.374,71.714 285.527,71.599 285.714 C 71.483 285.901,71.560 286.054,71.769 286.054 C 71.978 286.054,72.062 286.194,71.957 286.366 C 71.851 286.537,71.925 286.730,72.122 286.796 C 72.318 286.861,72.505 287.257,72.536 287.675 C 72.568 288.093,72.723 288.435,72.882 288.435 C 73.040 288.435,73.083 288.575,72.977 288.746 C 72.871 288.918,72.956 289.115,73.166 289.185 C 73.376 289.254,73.595 289.749,73.654 290.284 C 73.713 290.819,73.894 291.348,74.057 291.461 C 74.221 291.574,74.729 292.544,75.187 293.617 C 75.645 294.689,76.228 295.569,76.482 295.572 C 76.752 295.576,76.862 295.790,76.748 296.088 C 76.630 296.396,76.746 296.599,77.040 296.599 C 77.308 296.599,77.685 296.893,77.877 297.252 C 78.503 298.422,79.299 299.010,79.968 298.798 C 80.351 298.677,80.612 298.756,80.612 298.993 C 80.612 299.213,80.837 299.306,81.112 299.201 C 81.386 299.096,81.701 299.156,81.812 299.335 C 82.103 299.805,86.735 299.754,86.735 299.280 C 86.735 299.060,87.039 298.980,87.459 299.090 C 87.878 299.199,88.400 299.064,88.694 298.770 C 88.974 298.489,89.413 298.341,89.670 298.439 C 89.926 298.538,90.136 298.470,90.136 298.289 C 90.136 298.107,90.342 297.959,90.594 297.959 C 91.235 297.959,92.290 296.717,92.020 296.280 C 91.897 296.081,92.019 295.918,92.290 295.918 C 92.561 295.918,92.879 295.536,92.997 295.068 C 93.114 294.600,93.356 294.218,93.533 294.218 C 93.711 294.218,93.776 294.008,93.677 293.751 C 93.579 293.495,93.753 293.187,94.063 293.068 C 94.390 292.943,94.546 292.638,94.434 292.344 C 94.327 292.065,94.413 291.837,94.625 291.837 C 94.838 291.837,94.911 291.737,94.789 291.614 C 94.667 291.492,94.869 290.903,95.238 290.306 C 95.607 289.709,95.809 289.120,95.687 288.998 C 95.565 288.876,95.623 288.776,95.815 288.776 C 96.008 288.776,96.429 288.087,96.751 287.245 C 97.072 286.403,97.477 285.714,97.651 285.714 C 97.825 285.714,98.386 284.834,98.898 283.759 C 99.411 282.683,99.936 281.755,100.066 281.696 C 100.196 281.637,100.224 281.385,100.128 281.135 C 100.032 280.886,100.287 280.372,100.693 279.993 C 101.100 279.614,101.331 279.139,101.207 278.938 C 101.082 278.736,101.142 278.571,101.340 278.571 C 101.539 278.571,101.668 278.457,101.628 278.316 C 101.589 278.176,101.747 277.717,101.981 277.296 C 102.214 276.875,102.300 276.531,102.171 276.531 C 102.042 276.531,102.263 276.247,102.663 275.901 C 103.062 275.554,103.310 275.192,103.212 275.094 C 102.963 274.845,103.787 273.129,104.156 273.129 C 104.324 273.129,104.367 272.976,104.252 272.789 C 104.136 272.602,104.206 272.449,104.406 272.449 C 104.607 272.449,105.113 271.722,105.532 270.833 C 105.950 269.945,106.418 269.125,106.572 269.012 C 106.726 268.900,106.900 268.370,106.958 267.835 C 107.017 267.300,107.237 266.805,107.446 266.736 C 107.656 266.666,107.741 266.469,107.635 266.297 C 107.529 266.126,107.605 265.986,107.803 265.986 C 108.001 265.986,108.136 265.872,108.102 265.731 C 108.002 265.315,109.284 262.925,109.607 262.925 C 109.770 262.925,109.817 262.784,109.710 262.611 C 109.448 262.186,110.219 260.546,110.684 260.538 C 110.888 260.535,111.429 259.655,111.888 258.583 C 112.346 257.510,112.854 256.540,113.018 256.427 C 113.181 256.314,113.362 255.785,113.421 255.250 C 113.480 254.715,113.699 254.220,113.909 254.151 C 114.118 254.081,114.203 253.884,114.098 253.712 C 113.992 253.541,114.077 253.401,114.286 253.401 C 114.495 253.401,114.571 253.248,114.456 253.061 C 114.340 252.874,114.392 252.721,114.571 252.721 C 115.168 252.721,115.350 261.528,115.243 285.119 L 115.136 308.504 123.579 308.503 C 130.442 308.503,132.112 308.413,132.507 308.017 C 133.239 307.286,133.239 223.666,132.507 222.935 C 131.927 222.354,114.479 222.202,114.125 222.774 C 114.014 222.953,113.719 223.021,113.468 222.925 C 113.218 222.829,112.915 223.004,112.796 223.315 C 112.667 223.652,112.368 223.799,112.054 223.679 C 111.725 223.552,111.615 223.617,111.761 223.851 C 111.888 224.057,111.781 224.356,111.523 224.515 C 111.265 224.675,111.044 224.925,111.032 225.073 C 110.983 225.654,109.720 227.891,109.441 227.891 C 109.277 227.891,109.231 228.033,109.338 228.206 C 109.580 228.598,108.844 230.272,108.429 230.272 C 108.261 230.272,108.218 230.425,108.333 230.612 C 108.449 230.799,108.381 230.952,108.183 230.952 C 107.985 230.952,107.855 231.067,107.894 231.207 C 107.999 231.584,105.413 236.885,105.060 237.019 C 104.894 237.082,104.844 237.273,104.950 237.444 C 105.056 237.615,104.984 237.755,104.791 237.755 C 104.597 237.755,104.184 238.253,103.873 238.861 C 103.561 239.469,103.206 240.043,103.083 240.136 C 102.961 240.230,102.269 241.645,101.546 243.282 C 100.824 244.919,100.120 246.259,99.983 246.259 C 99.714 246.259,99.164 247.941,99.277 248.423 C 99.314 248.584,99.118 248.890,98.840 249.103 C 98.562 249.316,98.009 250.370,97.612 251.446 C 97.215 252.521,96.739 253.401,96.554 253.401 C 96.369 253.401,96.313 253.554,96.429 253.741 C 96.544 253.929,96.481 254.082,96.289 254.082 C 96.097 254.082,96.020 254.291,96.119 254.548 C 96.217 254.804,96.067 255.245,95.784 255.528 C 95.502 255.810,95.365 256.136,95.481 256.252 C 95.597 256.368,95.504 256.463,95.275 256.463 C 95.045 256.463,94.952 256.616,95.068 256.803 C 95.184 256.990,95.116 257.143,94.918 257.143 C 94.720 257.143,94.585 257.258,94.619 257.398 C 94.719 257.814,93.437 260.204,93.114 260.204 C 92.951 260.204,92.903 260.343,93.008 260.514 C 93.296 260.979,92.847 261.905,92.333 261.905 C 91.882 261.905,91.388 262.933,91.570 263.492 C 91.623 263.655,91.318 264.163,90.893 264.621 C 89.956 265.628,88.366 269.000,88.628 269.424 C 88.731 269.591,88.672 269.728,88.497 269.728 C 88.321 269.728,87.988 270.187,87.755 270.748 C 87.523 271.310,87.188 271.769,87.011 271.769 C 86.834 271.769,86.786 272.075,86.905 272.449 C 87.026 272.830,86.966 273.129,86.768 273.129 C 86.574 273.129,86.498 273.343,86.598 273.605 C 86.699 273.866,86.445 274.393,86.034 274.776 C 85.623 275.159,85.366 275.678,85.463 275.931 C 85.559 276.183,85.445 276.653,85.209 276.976 C 84.673 277.709,83.673 277.384,83.673 276.476 C 83.673 276.112,83.298 275.261,82.838 274.585 C 82.379 273.909,82.091 273.212,82.200 273.037 C 82.389 272.731,81.024 269.396,80.566 269.048 C 80.443 268.954,79.725 267.538,78.969 265.901 C 78.213 264.264,77.467 262.925,77.310 262.925 C 76.971 262.925,75.643 260.530,75.765 260.137 C 75.812 259.987,75.688 259.864,75.490 259.864 C 75.292 259.864,75.225 259.711,75.340 259.524 C 75.456 259.337,75.413 259.184,75.245 259.184 C 74.830 259.184,74.093 257.510,74.335 257.117 C 74.442 256.944,74.396 256.803,74.233 256.803 C 73.910 256.803,72.628 254.413,72.728 253.997 C 72.762 253.856,72.627 253.741,72.429 253.741 C 72.231 253.741,72.163 253.588,72.279 253.401 C 72.395 253.214,72.352 253.061,72.184 253.061 C 71.768 253.061,71.032 251.387,71.274 250.995 C 71.381 250.822,71.330 250.680,71.160 250.680 C 70.990 250.680,70.579 250.030,70.245 249.235 C 69.038 246.359,64.847 237.922,64.570 237.812 C 64.413 237.749,64.286 237.482,64.286 237.217 C 64.286 236.952,64.047 236.735,63.755 236.735 C 63.464 236.735,63.320 236.582,63.435 236.395 C 63.551 236.207,63.473 236.054,63.262 236.054 C 63.034 236.054,62.967 235.779,63.096 235.372 C 63.239 234.920,63.133 234.622,62.781 234.486 C 62.488 234.374,62.333 234.145,62.437 233.978 C 62.540 233.810,62.488 233.673,62.320 233.673 C 61.963 233.673,61.122 231.962,61.361 231.723 C 61.516 231.568,61.278 231.214,60.268 230.094 C 60.023 229.821,59.799 229.291,59.771 228.915 C 59.742 228.539,59.590 228.231,59.431 228.231 C 59.273 228.231,59.238 228.078,59.354 227.891 C 59.469 227.704,59.426 227.551,59.258 227.551 C 58.843 227.551,58.107 225.877,58.349 225.485 C 58.456 225.312,58.381 225.170,58.183 225.170 C 57.985 225.170,57.823 224.991,57.823 224.772 C 57.823 224.112,56.773 223.162,56.261 223.359 C 55.998 223.460,55.782 223.364,55.782 223.146 C 55.782 222.927,55.629 222.844,55.442 222.959 C 55.255 223.075,55.102 223.007,55.102 222.809 C 55.102 222.564,52.105 222.449,45.748 222.449 L 36.395 222.449 36.395 265.476 M223.810 230.404 C 223.810 236.550,223.906 238.356,224.235 238.344 C 224.469 238.335,229.749 238.352,235.969 238.382 L 247.279 238.435 247.279 272.761 C 247.279 299.787,247.189 307.116,246.857 307.227 C 246.550 307.329,246.590 307.523,247.003 307.935 C 247.795 308.728,265.735 308.804,266.521 308.017 C 266.936 307.603,267.007 302.460,267.007 272.898 L 267.007 238.265 278.401 238.334 L 289.796 238.402 289.796 230.426 L 289.796 222.449 256.803 222.449 L 223.810 222.449 223.810 230.404 M298.639 230.430 L 298.639 238.411 310.379 238.338 L 322.118 238.265 322.029 273.384 L 321.939 308.503 332.063 308.503 L 342.186 308.503 342.097 273.384 L 342.007 238.265 353.231 238.363 C 359.405 238.416,364.800 238.375,365.221 238.271 L 365.986 238.082 365.986 230.266 L 365.986 222.449 332.313 222.449 L 298.639 222.449 298.639 230.430 M186.735 238.563 C 186.735 238.727,187.194 238.769,187.755 238.656 C 188.390 238.529,188.776 238.593,188.776 238.824 C 188.776 239.028,189.082 239.115,189.456 239.017 C 189.830 238.919,190.136 238.991,190.136 239.176 C 190.136 239.361,190.327 239.446,190.561 239.365 C 190.795 239.284,191.351 239.500,191.798 239.847 C 192.244 240.193,192.878 240.476,193.207 240.476 C 193.536 240.476,193.897 240.715,194.009 241.008 C 194.121 241.300,194.353 241.453,194.525 241.347 C 195.016 241.043,195.918 241.517,195.918 242.080 C 195.918 242.382,196.116 242.514,196.404 242.404 C 196.911 242.209,197.511 242.764,198.126 243.999 C 198.326 244.400,198.889 244.920,199.378 245.154 C 199.867 245.388,200.363 245.962,200.480 246.430 C 200.597 246.897,200.929 247.279,201.217 247.279 C 201.505 247.279,201.655 247.418,201.550 247.588 C 201.249 248.075,201.721 248.980,202.276 248.980 C 202.552 248.980,202.714 249.170,202.637 249.402 C 202.560 249.634,202.700 250.027,202.949 250.276 C 203.198 250.525,203.401 251.005,203.401 251.343 C 203.401 251.681,203.622 252.141,203.891 252.364 C 204.161 252.588,204.298 252.989,204.195 253.256 C 204.093 253.523,204.173 253.741,204.375 253.741 C 204.576 253.741,204.652 253.971,204.545 254.252 C 204.437 254.532,204.521 254.762,204.732 254.762 C 204.971 254.762,205.035 255.082,204.902 255.612 C 204.764 256.162,204.831 256.463,205.092 256.463 C 205.364 256.463,205.423 256.796,205.272 257.483 C 205.142 258.077,205.188 258.503,205.383 258.503 C 205.577 258.503,205.641 259.075,205.535 259.864 C 205.433 260.628,205.495 261.224,205.677 261.224 C 205.866 261.224,205.991 262.863,205.977 265.136 C 205.963 267.287,205.817 269.047,205.651 269.048 C 205.485 269.048,205.444 269.736,205.560 270.578 C 205.699 271.596,205.643 272.109,205.393 272.109 C 205.159 272.109,205.092 272.484,205.216 273.105 C 205.335 273.699,205.264 274.152,205.041 274.227 C 204.834 274.296,204.630 274.929,204.588 275.635 C 204.545 276.341,204.337 277.092,204.126 277.303 C 203.914 277.514,203.741 277.952,203.741 278.275 C 203.741 278.598,203.532 279.073,203.275 279.329 C 202.570 280.034,201.649 281.954,201.855 282.287 C 201.955 282.449,201.808 282.670,201.529 282.777 C 201.249 282.884,201.020 283.196,201.020 283.470 C 201.020 283.744,200.732 284.059,200.380 284.171 C 200.027 284.283,199.759 284.569,199.784 284.808 C 199.836 285.298,197.776 287.783,197.372 287.718 C 196.654 287.600,196.259 287.808,196.259 288.302 C 196.259 288.648,196.071 288.776,195.748 288.653 C 195.438 288.533,195.238 288.652,195.238 288.956 C 195.238 289.231,195.019 289.456,194.752 289.456 C 194.485 289.456,194.026 289.696,193.732 289.990 C 193.438 290.284,193.197 290.426,193.197 290.306 C 193.197 290.186,192.948 290.337,192.643 290.642 C 192.338 290.946,191.884 291.117,191.634 291.021 C 191.383 290.925,191.092 290.986,190.986 291.156 C 190.881 291.327,190.570 291.381,190.295 291.275 C 190.021 291.170,189.796 291.263,189.796 291.483 C 189.796 291.728,189.532 291.799,189.116 291.667 C 188.725 291.543,188.435 291.606,188.435 291.814 C 188.435 292.013,187.925 292.177,187.302 292.177 C 186.678 292.177,186.080 292.265,185.973 292.372 C 185.865 292.480,184.065 292.567,181.973 292.567 C 179.880 292.567,178.080 292.480,177.973 292.372 C 177.866 292.265,177.421 292.177,176.984 292.177 C 176.548 292.177,176.190 292.005,176.190 291.794 C 176.190 291.550,175.820 291.486,175.170 291.616 C 174.558 291.738,174.150 291.678,174.150 291.465 C 174.150 291.265,173.853 291.205,173.469 291.327 C 173.088 291.448,172.789 291.388,172.789 291.190 C 172.789 290.996,172.560 290.926,172.279 291.033 C 171.998 291.141,171.769 291.051,171.769 290.833 C 171.769 290.615,171.616 290.531,171.429 290.646 C 171.241 290.762,171.088 290.685,171.088 290.476 C 171.088 290.267,170.935 290.191,170.748 290.306 C 170.561 290.422,170.408 290.357,170.408 290.163 C 170.408 289.968,170.026 289.713,169.558 289.595 C 169.090 289.478,168.707 289.160,168.707 288.889 C 168.707 288.617,168.542 288.497,168.340 288.622 C 168.138 288.747,167.751 288.533,167.481 288.146 C 167.210 287.760,166.800 287.516,166.570 287.604 C 166.340 287.692,166.000 287.422,165.814 287.003 C 165.628 286.584,165.006 285.927,164.431 285.542 C 163.856 285.157,163.451 284.646,163.531 284.406 C 163.612 284.165,163.352 283.884,162.956 283.780 C 162.559 283.676,162.255 283.418,162.280 283.207 C 162.395 282.237,162.207 281.633,161.789 281.633 C 161.270 281.633,160.544 280.230,160.544 279.225 C 160.544 278.854,160.306 278.459,160.014 278.347 C 159.723 278.235,159.563 277.939,159.659 277.688 C 159.756 277.438,159.695 277.146,159.524 277.041 C 159.353 276.935,159.300 276.624,159.405 276.350 C 159.510 276.075,159.417 275.850,159.197 275.850 C 158.952 275.850,158.881 275.587,159.014 275.170 C 159.135 274.787,159.075 274.490,158.875 274.490 C 158.662 274.490,158.602 274.081,158.724 273.469 C 158.853 272.828,158.789 272.449,158.552 272.449 C 158.302 272.449,158.247 271.936,158.386 270.918 C 158.528 269.879,158.472 269.388,158.209 269.388 C 157.942 269.388,157.823 268.083,157.823 265.136 C 157.823 262.199,157.942 260.884,158.208 260.884 C 158.461 260.884,158.530 260.417,158.410 259.524 C 158.301 258.705,158.366 258.163,158.575 258.163 C 158.767 258.163,158.850 257.781,158.760 257.313 C 158.671 256.845,158.746 256.463,158.928 256.463 C 159.110 256.463,159.162 256.081,159.044 255.612 C 158.911 255.082,158.975 254.762,159.214 254.762 C 159.424 254.762,159.508 254.532,159.401 254.252 C 159.293 253.971,159.370 253.741,159.571 253.741 C 159.772 253.741,159.849 253.512,159.741 253.231 C 159.633 252.951,159.700 252.721,159.890 252.721 C 160.079 252.721,160.201 252.530,160.160 252.296 C 160.061 251.724,160.916 250.000,161.299 250.000 C 161.467 250.000,161.519 249.861,161.414 249.691 C 161.123 249.220,161.577 248.299,162.101 248.299 C 162.372 248.299,162.483 248.089,162.368 247.789 C 162.241 247.458,162.377 247.279,162.755 247.279 C 163.141 247.279,163.270 247.101,163.137 246.754 C 163.000 246.398,163.325 246.000,164.148 245.514 C 164.815 245.121,165.730 244.213,166.181 243.498 C 166.728 242.632,167.174 242.262,167.515 242.393 C 167.848 242.521,168.027 242.386,168.027 242.007 C 168.027 241.628,168.206 241.493,168.537 241.620 C 168.844 241.737,169.048 241.622,169.048 241.330 C 169.048 241.049,169.660 240.669,170.493 240.431 C 171.288 240.204,172.168 239.835,172.449 239.612 C 172.730 239.388,173.151 239.274,173.384 239.358 C 173.618 239.443,173.810 239.361,173.810 239.176 C 173.810 238.991,174.116 238.919,174.490 239.017 C 174.864 239.115,175.170 239.028,175.170 238.824 C 175.170 238.593,175.555 238.529,176.190 238.656 C 176.752 238.769,177.211 238.727,177.211 238.563 C 177.211 238.399,179.354 238.265,181.973 238.265 C 184.592 238.265,186.735 238.399,186.735 238.563 " stroke="none" fill="#fcfcfc" fill-rule="evenodd"></path><path id="path1" d="M234.418 26.552 C 234.499 26.797,234.767 27.065,235.013 27.147 C 235.268 27.232,235.395 27.105,235.310 26.849 C 235.229 26.604,234.961 26.336,234.715 26.254 C 234.460 26.169,234.332 26.297,234.418 26.552 M280.952 27.041 C 281.420 27.308,281.956 27.527,282.143 27.527 C 282.330 27.527,282.100 27.308,281.633 27.041 C 281.165 26.773,280.629 26.555,280.442 26.555 C 280.255 26.555,280.485 26.773,280.952 27.041 M183.673 28.251 C 183.673 28.449,183.813 28.525,183.985 28.419 C 184.156 28.314,184.364 28.419,184.448 28.654 C 184.532 28.889,184.732 28.959,184.893 28.808 C 185.053 28.658,184.959 28.392,184.684 28.218 C 184.021 27.799,183.673 27.810,183.673 28.251 M250.064 38.457 C 250.146 38.702,250.413 38.970,250.659 39.052 C 250.914 39.137,251.042 39.009,250.957 38.754 C 250.875 38.509,250.607 38.241,250.361 38.159 C 250.106 38.074,249.979 38.202,250.064 38.457 M116.497 43.197 C 116.368 43.405,116.890 43.537,117.837 43.537 C 118.690 43.537,119.388 43.384,119.388 43.197 C 119.388 43.010,118.785 42.857,118.047 42.857 C 117.310 42.857,116.612 43.010,116.497 43.197 M136.395 44.898 C 136.395 45.085,136.701 45.238,137.075 45.238 C 137.449 45.238,137.755 45.085,137.755 44.898 C 137.755 44.711,137.449 44.558,137.075 44.558 C 136.701 44.558,136.395 44.711,136.395 44.898 M258.503 45.455 C 258.503 45.893,260.145 47.452,260.369 47.227 C 260.462 47.135,260.080 46.621,259.520 46.085 C 258.961 45.549,258.503 45.266,258.503 45.455 M229.330 54.486 C 229.404 54.708,229.646 54.950,229.868 55.024 C 230.117 55.107,230.193 54.952,230.066 54.620 C 229.829 54.002,229.126 53.873,229.330 54.486 M267.007 54.238 C 267.007 54.533,268.845 56.099,269.004 55.939 C 269.203 55.740,267.671 54.082,267.288 54.082 C 267.133 54.082,267.007 54.152,267.007 54.238 M178.940 56.906 C 179.909 57.610,180.952 58.118,180.952 57.886 C 180.952 57.724,180.563 57.415,180.086 57.197 C 179.292 56.835,178.601 56.660,178.940 56.906 M233.349 57.313 C 233.341 57.818,233.948 58.682,234.162 58.469 C 234.263 58.367,234.124 57.989,233.851 57.628 C 233.578 57.268,233.352 57.126,233.349 57.313 M271.088 58.398 C 271.088 58.585,271.395 59.015,271.769 59.354 C 272.143 59.692,272.449 59.816,272.449 59.629 C 272.449 59.442,272.143 59.012,271.769 58.673 C 271.395 58.335,271.088 58.211,271.088 58.398 M236.054 60.204 C 236.414 60.876,237.075 61.140,237.075 60.612 C 237.075 60.255,236.336 59.524,235.974 59.524 C 235.818 59.524,235.854 59.830,236.054 60.204 M273.533 61.586 C 273.615 61.831,273.883 62.099,274.128 62.181 C 274.384 62.266,274.511 62.139,274.426 61.884 C 274.344 61.638,274.076 61.370,273.831 61.288 C 273.576 61.203,273.448 61.331,273.533 61.586 M239.622 63.262 C 240.158 63.821,240.672 64.203,240.765 64.111 C 240.989 63.886,239.430 62.245,238.993 62.245 C 238.803 62.245,239.087 62.702,239.622 63.262 M278.989 68.091 C 279.159 68.599,279.932 68.879,279.932 68.432 C 279.932 68.249,279.690 68.007,279.393 67.893 C 279.062 67.766,278.907 67.842,278.989 68.091 M245.917 69.216 C 246.356 69.683,246.790 69.990,246.881 69.899 C 247.107 69.673,245.901 68.367,245.466 68.367 C 245.276 68.367,245.478 68.749,245.917 69.216 M116.491 69.039 C 116.604 69.222,117.155 69.318,117.716 69.252 C 119.311 69.067,119.316 68.707,117.724 68.707 C 116.876 68.707,116.371 68.844,116.491 69.039 M125.510 69.388 C 125.510 69.818,126.205 69.818,126.871 69.388 C 127.268 69.131,127.174 69.057,126.446 69.053 C 125.931 69.050,125.510 69.201,125.510 69.388 M132.993 70.068 C 132.993 70.255,133.223 70.408,133.503 70.408 C 133.784 70.408,134.014 70.255,134.014 70.068 C 134.014 69.881,133.784 69.728,133.503 69.728 C 133.223 69.728,132.993 69.881,132.993 70.068 M135.714 70.408 C 135.714 70.595,135.944 70.748,136.224 70.748 C 136.505 70.748,136.735 70.595,136.735 70.408 C 136.735 70.221,136.505 70.068,136.224 70.068 C 135.944 70.068,135.714 70.221,135.714 70.408 M283.673 74.425 C 283.673 74.608,283.916 74.850,284.212 74.964 C 284.543 75.091,284.699 75.015,284.616 74.766 C 284.447 74.258,283.673 73.978,283.673 74.425 M251.701 75.340 C 251.934 75.621,252.277 75.850,252.464 75.850 C 252.654 75.850,252.617 75.625,252.381 75.340 C 252.148 75.060,251.804 74.830,251.617 74.830 C 251.428 74.830,251.464 75.056,251.701 75.340 M254.422 78.559 C 254.422 78.740,254.728 79.051,255.102 79.252 C 255.851 79.653,256.016 79.281,255.374 78.639 C 254.882 78.148,254.422 78.109,254.422 78.559 M215.045 79.932 C 215.474 80.619,215.986 80.841,215.986 80.340 C 215.986 79.987,215.249 79.252,214.895 79.252 C 214.744 79.252,214.811 79.558,215.045 79.932 M168.367 79.892 C 168.367 80.058,168.673 80.273,169.048 80.371 C 169.851 80.581,169.971 80.098,169.190 79.798 C 168.476 79.524,168.367 79.537,168.367 79.892 M217.857 82.313 C 218.196 82.687,218.626 82.993,218.813 82.993 C 219.000 82.993,218.876 82.687,218.537 82.313 C 218.199 81.939,217.769 81.633,217.582 81.633 C 217.395 81.633,217.519 81.939,217.857 82.313 M258.163 82.928 C 258.163 83.111,258.406 83.354,258.702 83.467 C 259.033 83.594,259.189 83.518,259.106 83.270 C 258.936 82.761,258.163 82.481,258.163 82.928 M224.677 88.776 C 226.523 90.646,228.190 92.177,228.381 92.177 C 228.572 92.177,227.204 90.646,225.340 88.776 C 223.476 86.905,221.809 85.374,221.636 85.374 C 221.462 85.374,222.830 86.905,224.677 88.776 M180.952 86.358 C 180.952 86.735,181.999 87.162,182.267 86.894 C 182.375 86.786,182.238 86.555,181.963 86.381 C 181.327 85.979,180.952 85.970,180.952 86.358 M231.367 95.912 C 231.815 96.628,232.653 97.103,232.653 96.641 C 232.653 96.318,231.517 95.238,231.178 95.238 C 231.051 95.238,231.136 95.541,231.367 95.912 M118.197 96.939 C 118.072 97.141,118.477 97.279,119.198 97.279 C 119.863 97.279,120.408 97.126,120.408 96.939 C 120.408 96.752,119.958 96.599,119.408 96.599 C 118.858 96.599,118.313 96.752,118.197 96.939 M124.830 97.279 C 124.417 97.546,124.466 97.610,125.085 97.614 C 125.506 97.617,125.850 97.466,125.850 97.279 C 125.850 96.853,125.489 96.853,124.830 97.279 M136.735 99.320 C 136.735 99.507,136.964 99.660,137.245 99.660 C 137.526 99.660,137.755 99.507,137.755 99.320 C 137.755 99.133,137.526 98.980,137.245 98.980 C 136.964 98.980,136.735 99.133,136.735 99.320 M200.680 100.510 C 200.913 100.791,201.257 101.020,201.444 101.020 C 201.634 101.020,201.597 100.795,201.361 100.510 C 201.128 100.230,200.784 100.000,200.597 100.000 C 200.407 100.000,200.444 100.226,200.680 100.510 M150.000 103.025 C 150.000 103.192,150.242 103.421,150.538 103.535 C 151.370 103.854,151.453 103.785,150.899 103.231 C 150.321 102.653,150.000 102.579,150.000 103.025 M204.931 104.176 C 205.451 104.883,205.963 105.375,206.067 105.270 C 206.172 105.166,205.746 104.588,205.121 103.986 L 203.984 102.891 204.931 104.176 M156.463 105.746 C 156.463 106.123,157.509 106.550,157.777 106.282 C 157.885 106.174,157.748 105.943,157.473 105.769 C 156.837 105.367,156.463 105.358,156.463 105.746 M206.662 105.735 C 206.567 105.889,207.019 106.528,207.666 107.156 C 208.314 107.783,208.844 108.172,208.844 108.020 C 208.844 107.538,206.843 105.442,206.662 105.735 M209.259 108.559 C 209.332 108.777,209.912 109.351,210.549 109.835 L 211.708 110.714 210.701 109.439 C 209.724 108.201,208.990 107.754,209.259 108.559 M163.265 109.147 C 163.265 109.314,163.507 109.544,163.803 109.657 C 164.534 109.938,164.626 109.921,164.626 109.504 C 164.626 109.306,164.473 109.238,164.286 109.354 C 164.099 109.469,163.946 109.402,163.946 109.204 C 163.946 109.006,163.793 108.844,163.605 108.844 C 163.418 108.844,163.265 108.980,163.265 109.147 M278.936 114.116 C 278.936 114.303,279.154 114.838,279.422 115.306 C 279.689 115.774,279.908 116.003,279.908 115.816 C 279.908 115.629,279.689 115.094,279.422 114.626 C 279.154 114.158,278.936 113.929,278.936 114.116 M280.272 117.323 C 280.272 117.496,280.494 117.861,280.766 118.132 C 281.038 118.404,281.165 118.721,281.050 118.837 C 280.934 118.953,281.018 119.048,281.236 119.048 C 281.728 119.048,281.729 118.950,281.238 117.873 C 280.852 117.026,280.272 116.695,280.272 117.323 M182.313 122.396 C 182.313 122.734,183.446 123.810,183.801 123.810 C 184.122 123.810,182.899 122.133,182.568 122.120 C 182.428 122.114,182.313 122.238,182.313 122.396 M118.797 122.693 C 119.314 122.771,120.080 122.769,120.498 122.688 C 120.916 122.608,120.493 122.544,119.558 122.546 C 118.622 122.549,118.280 122.615,118.797 122.693 M283.339 123.700 C 283.348 124.221,283.975 124.982,284.206 124.751 C 284.332 124.625,284.187 124.274,283.884 123.971 C 283.581 123.669,283.336 123.547,283.339 123.700 M145.238 128.195 C 145.238 128.362,145.480 128.592,145.776 128.705 C 146.608 129.024,146.691 128.955,146.137 128.401 C 145.559 127.823,145.238 127.749,145.238 128.195 M253.401 128.045 C 253.401 128.479,254.229 129.932,254.476 129.932 C 254.921 129.932,254.813 129.351,254.268 128.806 C 253.996 128.535,253.869 128.218,253.984 128.102 C 254.100 127.986,254.016 127.891,253.798 127.891 C 253.580 127.891,253.401 127.960,253.401 128.045 M189.625 129.930 C 189.740 130.116,190.170 130.445,190.580 130.660 C 191.321 131.049,191.322 131.046,190.679 130.322 C 190.029 129.590,189.232 129.294,189.625 129.930 M152.041 131.596 C 152.041 131.763,152.283 131.993,152.579 132.106 C 153.411 132.426,153.494 132.356,152.940 131.803 C 152.362 131.224,152.041 131.151,152.041 131.596 M256.468 134.609 C 256.480 135.214,257.062 135.780,257.290 135.410 C 257.418 135.203,257.352 135.034,257.143 135.034 C 256.934 135.034,256.857 134.881,256.973 134.694 C 257.088 134.507,257.021 134.354,256.823 134.354 C 256.625 134.354,256.465 134.469,256.468 134.609 M174.213 150.021 C 174.295 150.267,174.563 150.535,174.809 150.616 C 175.064 150.702,175.191 150.574,175.106 150.319 C 175.024 150.073,174.757 149.805,174.511 149.724 C 174.256 149.639,174.128 149.766,174.213 150.021 M208.849 160.459 C 208.860 161.018,209.503 161.698,209.760 161.423 C 209.911 161.263,209.842 161.063,209.607 160.979 C 209.372 160.895,209.266 160.686,209.372 160.515 C 209.477 160.344,209.402 160.204,209.204 160.204 C 209.006 160.204,208.846 160.319,208.849 160.459 M184.014 165.646 C 184.014 165.833,184.176 165.986,184.374 165.986 C 184.572 165.986,184.665 166.101,184.580 166.241 C 184.495 166.382,184.639 166.694,184.900 166.935 C 185.477 167.469,185.495 167.303,184.979 166.172 C 184.587 165.310,184.014 164.998,184.014 165.646 M267.347 170.238 C 267.347 170.519,267.500 170.748,267.687 170.748 C 267.874 170.748,268.027 170.519,268.027 170.238 C 268.027 169.957,267.874 169.728,267.687 169.728 C 267.500 169.728,267.347 169.957,267.347 170.238 M269.398 184.881 C 269.407 185.761,269.453 185.807,269.773 185.256 C 270.035 184.806,270.032 184.522,269.763 184.253 C 269.489 183.979,269.391 184.149,269.398 184.881 M190.136 185.204 C 190.136 185.485,190.289 185.714,190.476 185.714 C 190.663 185.714,190.816 185.485,190.816 185.204 C 190.816 184.923,190.663 184.694,190.476 184.694 C 190.289 184.694,190.136 184.923,190.136 185.204 M215.306 186.415 C 215.306 186.800,215.459 187.020,215.646 186.905 C 215.833 186.789,215.986 186.474,215.986 186.204 C 215.986 185.935,215.833 185.714,215.646 185.714 C 215.459 185.714,215.306 186.029,215.306 186.415 M190.476 187.925 C 190.476 188.206,190.629 188.435,190.816 188.435 C 191.003 188.435,191.156 188.206,191.156 187.925 C 191.156 187.645,191.003 187.415,190.816 187.415 C 190.629 187.415,190.476 187.645,190.476 187.925 M215.646 190.646 C 215.646 191.114,215.799 191.497,215.986 191.497 C 216.173 191.497,216.327 191.114,216.327 190.646 C 216.327 190.179,216.173 189.796,215.986 189.796 C 215.799 189.796,215.646 190.179,215.646 190.646 M269.728 192.367 C 269.728 193.594,269.853 194.520,270.007 194.426 C 270.411 194.176,270.465 190.136,270.063 190.136 C 269.877 190.136,269.728 191.127,269.728 192.367 M191.043 191.383 C 190.687 191.739,190.778 193.197,191.156 193.197 C 191.344 193.197,191.497 192.738,191.497 192.177 C 191.497 191.120,191.427 190.999,191.043 191.383 M244.898 193.197 C 244.898 194.331,245.049 195.238,245.238 195.238 C 245.427 195.238,245.578 194.331,245.578 193.197 C 245.578 192.063,245.427 191.156,245.238 191.156 C 245.049 191.156,244.898 192.063,244.898 193.197 M123.810 196.259 C 123.810 196.483,135.261 196.599,157.483 196.599 C 179.705 196.599,191.156 196.483,191.156 196.259 C 191.156 196.034,179.705 195.918,157.483 195.918 C 135.261 195.918,123.810 196.034,123.810 196.259 M216.327 196.259 C 216.327 196.480,221.315 196.599,230.612 196.599 C 239.909 196.599,244.898 196.480,244.898 196.259 C 244.898 196.037,239.909 195.918,230.612 195.918 C 221.315 195.918,216.327 196.037,216.327 196.259 M270.578 196.259 C 270.443 196.478,271.829 196.599,274.490 196.599 C 277.151 196.599,278.537 196.478,278.401 196.259 C 278.282 196.065,276.590 195.918,274.490 195.918 C 272.389 195.918,270.698 196.065,270.578 196.259 M178.571 221.429 C 178.571 221.633,179.932 221.769,181.973 221.769 C 184.014 221.769,185.374 221.633,185.374 221.429 C 185.374 221.224,184.014 221.088,181.973 221.088 C 179.932 221.088,178.571 221.224,178.571 221.429 M202.749 225.953 C 203.719 226.658,204.762 227.165,204.762 226.933 C 204.762 226.772,204.372 226.462,203.896 226.245 C 203.101 225.883,202.411 225.707,202.749 225.953 M58.868 226.361 C 58.868 226.548,59.086 227.083,59.354 227.551 C 59.621 228.019,59.840 228.248,59.840 228.061 C 59.840 227.874,59.621 227.338,59.354 226.871 C 59.086 226.403,58.868 226.173,58.868 226.361 M109.609 227.061 C 109.108 227.604,109.066 227.891,109.487 227.891 C 109.778 227.891,110.321 226.868,110.127 226.686 C 110.076 226.638,109.843 226.807,109.609 227.061 M60.227 229.321 C 60.214 229.452,60.382 229.950,60.599 230.426 C 60.992 231.288,61.565 231.601,61.565 230.952 C 61.565 230.765,61.435 230.612,61.276 230.612 C 61.118 230.612,60.822 230.268,60.619 229.847 C 60.416 229.426,60.240 229.189,60.227 229.321 M106.372 233.425 C 105.699 234.254,105.620 234.694,106.143 234.694 C 106.341 234.694,106.408 234.541,106.293 234.354 C 106.177 234.167,106.228 234.014,106.406 234.014 C 106.718 234.014,107.263 233.000,107.060 232.797 C 107.006 232.743,106.696 233.026,106.372 233.425 M149.770 233.418 C 148.512 234.816,148.518 235.222,149.779 234.032 C 150.462 233.387,151.020 232.813,151.020 232.756 C 151.020 232.413,150.360 232.763,149.770 233.418 M62.097 233.297 C 61.969 233.504,62.036 233.673,62.245 233.673 C 62.454 233.673,62.531 233.827,62.415 234.014 C 62.299 234.201,62.367 234.354,62.565 234.354 C 62.998 234.354,63.018 234.007,62.622 233.382 C 62.419 233.060,62.259 233.035,62.097 233.297 M104.817 236.581 C 104.331 237.645,104.328 237.755,104.782 237.755 C 104.980 237.755,105.048 237.602,104.932 237.415 C 104.816 237.228,104.909 237.075,105.139 237.075 C 105.368 237.075,105.455 236.974,105.332 236.851 C 105.209 236.728,105.278 236.422,105.487 236.171 C 105.700 235.914,105.722 235.714,105.538 235.714 C 105.358 235.714,105.034 236.104,104.817 236.581 M216.327 236.670 C 216.327 236.853,216.569 237.095,216.865 237.209 C 217.196 237.336,217.352 237.260,217.269 237.011 C 217.100 236.503,216.327 236.223,216.327 236.670 M321.655 238.322 C 321.283 238.694,321.384 307.823,321.756 307.823 C 321.965 307.823,322.089 295.093,322.098 272.959 C 322.105 253.784,322.059 238.095,321.996 238.095 C 321.934 238.095,321.780 238.197,321.655 238.322 M246.599 272.259 C 246.599 294.608,246.714 306.122,246.939 306.122 C 247.163 306.122,247.279 294.678,247.279 272.469 C 247.279 250.400,247.162 238.743,246.939 238.605 C 246.713 238.466,246.599 249.770,246.599 272.259 M222.114 245.833 C 222.124 246.299,222.749 247.092,222.949 246.893 C 223.217 246.625,222.790 245.578,222.413 245.578 C 222.246 245.578,222.111 245.693,222.114 245.833 M70.413 249.551 C 70.423 250.072,71.050 250.832,71.281 250.602 C 71.406 250.476,71.262 250.125,70.959 249.822 C 70.656 249.519,70.411 249.397,70.413 249.551 M160.586 250.894 C 160.020 252.137,160.267 252.206,160.960 250.998 C 161.275 250.449,161.412 250.000,161.263 250.000 C 161.115 250.000,160.810 250.402,160.586 250.894 M202.386 250.255 C 202.398 250.813,203.041 251.493,203.298 251.219 C 203.448 251.059,203.379 250.859,203.144 250.775 C 202.909 250.691,202.803 250.482,202.909 250.311 C 203.015 250.140,202.939 250.000,202.741 250.000 C 202.543 250.000,202.383 250.115,202.386 250.255 M96.684 252.571 C 96.183 253.115,96.141 253.401,96.562 253.401 C 96.852 253.401,97.396 252.378,97.202 252.197 C 97.151 252.149,96.918 252.317,96.684 252.571 M53.768 253.997 C 53.784 254.530,53.876 254.713,53.984 254.422 C 54.088 254.141,54.324 253.720,54.509 253.486 C 54.749 253.183,54.687 253.061,54.293 253.061 C 53.912 253.061,53.750 253.350,53.768 253.997 M54.422 253.936 C 54.422 254.043,54.651 254.360,54.932 254.640 C 55.486 255.194,55.555 255.112,55.236 254.280 C 55.042 253.774,54.422 253.512,54.422 253.936 M94.953 255.967 C 94.383 257.218,94.492 257.485,95.108 256.347 C 95.396 255.816,95.568 255.318,95.490 255.241 C 95.412 255.163,95.171 255.490,94.953 255.967 M73.475 255.673 C 73.484 256.194,74.111 256.954,74.342 256.724 C 74.468 256.598,74.323 256.247,74.020 255.944 C 73.717 255.641,73.472 255.519,73.475 255.673 M225.510 256.633 C 225.510 256.913,225.663 257.143,225.850 257.143 C 226.037 257.143,226.190 256.913,226.190 256.633 C 226.190 256.352,226.037 256.122,225.850 256.122 C 225.663 256.122,225.510 256.352,225.510 256.633 M114.626 282.483 C 114.626 299.150,114.742 307.823,114.966 307.823 C 115.190 307.823,115.306 299.150,115.306 282.483 C 115.306 265.816,115.190 257.143,114.966 257.143 C 114.742 257.143,114.626 265.816,114.626 282.483 M93.447 258.935 C 92.807 259.724,92.692 260.204,93.143 260.204 C 93.432 260.204,94.330 258.502,94.140 258.312 C 94.083 258.255,93.771 258.536,93.447 258.935 M75.022 258.807 C 74.894 259.014,74.961 259.184,75.170 259.184 C 75.379 259.184,75.456 259.337,75.340 259.524 C 75.225 259.711,75.292 259.864,75.490 259.864 C 75.923 259.864,75.944 259.517,75.548 258.892 C 75.344 258.571,75.185 258.545,75.022 258.807 M226.031 259.283 C 225.885 259.619,225.862 259.989,225.978 260.105 C 226.324 260.451,226.602 259.966,226.443 259.295 C 226.302 258.701,226.284 258.701,226.031 259.283 M157.823 261.735 C 157.823 262.202,157.976 262.585,158.163 262.585 C 158.350 262.585,158.503 262.202,158.503 261.735 C 158.503 261.267,158.350 260.884,158.163 260.884 C 157.976 260.884,157.823 261.267,157.823 261.735 M205.442 262.415 C 205.442 263.149,205.579 263.561,205.782 263.435 C 205.969 263.320,206.122 262.861,206.122 262.415 C 206.122 261.969,205.969 261.510,205.782 261.395 C 205.579 261.269,205.442 261.681,205.442 262.415 M109.050 263.463 C 108.731 264.295,108.800 264.378,109.354 263.824 C 109.932 263.246,110.006 262.925,109.560 262.925 C 109.393 262.925,109.164 263.167,109.050 263.463 M137.085 265.136 C 137.085 266.797,137.185 267.363,137.415 267.007 C 137.596 266.726,137.745 265.884,137.745 265.136 C 137.745 264.388,137.596 263.546,137.415 263.265 C 137.185 262.909,137.085 263.475,137.085 265.136 M59.657 263.803 C 59.771 264.099,59.864 264.405,59.864 264.484 C 59.864 264.562,60.036 264.626,60.246 264.626 C 60.527 264.626,60.527 264.505,60.249 264.169 C 60.040 263.918,59.971 263.612,60.094 263.489 C 60.217 263.366,60.123 263.265,59.884 263.265 C 59.629 263.265,59.536 263.486,59.657 263.803 M60.884 266.521 C 60.884 266.628,61.114 266.945,61.395 267.225 C 61.948 267.779,62.018 267.697,61.698 266.865 C 61.504 266.359,60.884 266.097,60.884 266.521 M205.442 268.197 C 205.442 268.665,205.595 269.048,205.782 269.048 C 205.969 269.048,206.122 268.665,206.122 268.197 C 206.122 267.730,205.969 267.347,205.782 267.347 C 205.595 267.347,205.442 267.730,205.442 268.197 M157.823 268.707 C 157.823 269.082,157.976 269.388,158.163 269.388 C 158.350 269.388,158.503 269.082,158.503 268.707 C 158.503 268.333,158.350 268.027,158.163 268.027 C 157.976 268.027,157.823 268.333,157.823 268.707 M225.850 270.918 C 225.850 271.199,226.003 271.429,226.190 271.429 C 226.378 271.429,226.531 271.199,226.531 270.918 C 226.531 270.638,226.378 270.408,226.190 270.408 C 226.003 270.408,225.850 270.638,225.850 270.918 M137.415 271.408 C 137.415 271.794,137.568 272.109,137.755 272.109 C 137.942 272.109,138.095 271.888,138.095 271.619 C 138.095 271.349,137.942 271.034,137.755 270.918 C 137.568 270.803,137.415 271.023,137.415 271.408 M104.252 272.789 C 104.367 272.976,104.274 273.129,104.045 273.129 C 103.816 273.129,103.729 273.230,103.852 273.353 C 103.975 273.476,103.905 273.782,103.697 274.033 C 103.484 274.290,103.461 274.490,103.645 274.490 C 103.825 274.490,104.150 274.100,104.367 273.623 C 104.852 272.559,104.855 272.449,104.402 272.449 C 104.204 272.449,104.136 272.602,104.252 272.789 M225.510 273.639 C 225.510 273.920,225.663 274.150,225.850 274.150 C 226.037 274.150,226.190 273.920,226.190 273.639 C 226.190 273.359,226.037 273.129,225.850 273.129 C 225.663 273.129,225.510 273.359,225.510 273.639 M137.755 273.980 C 137.755 274.260,137.908 274.490,138.095 274.490 C 138.282 274.490,138.435 274.260,138.435 273.980 C 138.435 273.699,138.282 273.469,138.095 273.469 C 137.908 273.469,137.755 273.699,137.755 273.980 M138.095 276.020 C 138.095 276.301,138.248 276.531,138.435 276.531 C 138.622 276.531,138.776 276.301,138.776 276.020 C 138.776 275.740,138.622 275.510,138.435 275.510 C 138.248 275.510,138.095 275.740,138.095 276.020 M198.384 286.038 C 196.879 287.851,196.994 288.031,198.639 286.434 C 199.388 285.708,200.000 285.019,200.000 284.904 C 200.000 284.390,199.406 284.807,198.384 286.038 M71.353 286.373 C 71.668 286.922,71.973 287.324,72.030 287.267 C 72.214 287.083,71.329 285.374,71.050 285.374 C 70.901 285.374,71.038 285.823,71.353 286.373 M97.431 286.025 C 97.537 286.196,97.431 286.405,97.196 286.489 C 96.961 286.573,96.892 286.773,97.042 286.933 C 97.193 287.094,97.458 287.000,97.632 286.725 C 98.051 286.062,98.040 285.714,97.599 285.714 C 97.401 285.714,97.325 285.854,97.431 286.025 M192.262 290.211 C 191.841 290.414,191.497 290.713,191.497 290.876 C 191.497 291.110,192.536 290.606,193.509 289.899 C 193.849 289.652,192.959 289.875,192.262 290.211 M210.434 301.263 C 210.332 301.429,210.812 302.005,211.501 302.542 L 212.755 303.518 211.910 302.524 C 211.445 301.978,210.965 301.402,210.843 301.246 C 210.721 301.089,210.537 301.097,210.434 301.263 M214.626 306.054 C 214.626 306.395,215.747 307.483,216.098 307.483 C 216.574 307.483,216.274 306.950,215.466 306.362 C 215.004 306.026,214.626 305.887,214.626 306.054 M170.408 308.163 C 170.408 308.350,170.638 308.503,170.918 308.503 C 171.199 308.503,171.429 308.350,171.429 308.163 C 171.429 307.976,171.199 307.823,170.918 307.823 C 170.638 307.823,170.408 307.976,170.408 308.163 M175.340 308.844 C 175.225 309.031,175.454 309.184,175.850 309.184 C 176.247 309.184,176.476 309.031,176.361 308.844 C 176.245 308.656,176.015 308.503,175.850 308.503 C 175.685 308.503,175.456 308.656,175.340 308.844 M187.075 308.844 C 187.075 309.031,187.390 309.184,187.775 309.184 C 188.160 309.184,188.381 309.031,188.265 308.844 C 188.150 308.656,187.835 308.503,187.565 308.503 C 187.295 308.503,187.075 308.656,187.075 308.844 M192.686 308.842 C 192.801 309.028,193.200 309.343,193.572 309.542 C 194.194 309.875,194.213 309.847,193.811 309.204 C 193.571 308.819,193.172 308.503,192.925 308.503 C 192.679 308.503,192.571 308.656,192.686 308.842 M181.042 309.428 C 181.559 309.506,182.324 309.504,182.743 309.423 C 183.161 309.342,182.738 309.278,181.803 309.281 C 180.867 309.284,180.525 309.350,181.042 309.428 M218.707 310.502 C 218.707 310.829,219.845 311.905,220.192 311.905 C 220.324 311.905,220.278 311.617,220.089 311.265 C 219.729 310.591,218.707 310.028,218.707 310.502 M195.918 312.403 C 195.918 312.490,196.221 312.723,196.591 312.921 C 197.140 313.215,197.227 313.186,197.065 312.763 C 196.889 312.304,195.918 311.999,195.918 312.403 M223.129 315.476 C 223.569 315.944,224.081 316.327,224.268 316.327 C 224.455 316.327,224.249 315.944,223.810 315.476 C 223.370 315.009,222.858 314.626,222.671 314.626 C 222.483 314.626,222.690 315.009,223.129 315.476 M199.149 315.985 C 199.264 316.171,199.693 316.499,200.104 316.714 C 200.845 317.103,200.846 317.101,200.202 316.376 C 199.553 315.645,198.755 315.349,199.149 315.985 M202.381 319.558 C 202.614 319.838,202.957 320.068,203.145 320.068 C 203.334 320.068,203.297 319.842,203.061 319.558 C 202.828 319.277,202.485 319.048,202.298 319.048 C 202.108 319.048,202.145 319.273,202.381 319.558 M227.211 319.645 C 227.211 319.832,227.440 320.175,227.721 320.408 C 228.006 320.644,228.231 320.681,228.231 320.491 C 228.231 320.304,228.002 319.961,227.721 319.728 C 227.436 319.492,227.211 319.455,227.211 319.645 M210.884 324.150 C 210.884 324.337,211.190 324.490,211.565 324.490 C 211.939 324.490,212.245 324.337,212.245 324.150 C 212.245 323.963,211.939 323.810,211.565 323.810 C 211.190 323.810,210.884 323.963,210.884 324.150 " stroke="none" fill="#b68ab7" fill-rule="evenodd"></path><path id="path2" d="" stroke="none" fill="#100d4c8" fill-rule="evenodd"></path><path id="path3" d="" stroke="none" fill="#100d4c8" fill-rule="evenodd"></path><path id="path4" d="" stroke="none" fill="#100d4c8" fill-rule="evenodd"></path></g></svg>