<svg id="svg" version="1.1" xmlns="http://www.w3.org/2000/svg" xmlns:xlink="http://www.w3.org/1999/xlink" width="400" height="339.9239543726236" viewBox="0, 0, 400,339.9239543726236"><g id="svgg"><path id="path0" d="M123.639 26.346 C 120.933 27.157,120.408 27.365,120.408 27.626 C 120.408 27.794,120.251 27.834,120.059 27.715 C 119.643 27.458,117.687 29.456,117.687 30.138 C 117.687 30.399,117.566 30.612,117.417 30.612 C 116.804 30.612,116.327 33.967,116.327 38.270 L 116.327 42.857 117.857 42.857 C 118.699 42.857,119.388 43.018,119.388 43.214 C 119.388 43.437,120.572 43.576,122.534 43.584 C 126.747 43.601,130.877 43.792,131.200 43.984 C 131.344 44.070,132.878 44.251,134.609 44.385 C 136.371 44.522,137.755 44.783,137.755 44.979 C 137.755 45.187,138.234 45.249,138.946 45.134 C 139.652 45.019,140.136 45.081,140.136 45.287 C 140.136 45.494,140.545 45.542,141.156 45.408 C 141.844 45.257,142.177 45.316,142.177 45.589 C 142.177 45.868,142.548 45.924,143.367 45.771 C 144.173 45.620,144.558 45.675,144.558 45.943 C 144.558 46.182,144.852 46.261,145.305 46.142 C 145.717 46.035,146.214 46.074,146.411 46.229 C 146.608 46.385,148.449 46.846,150.502 47.255 C 152.555 47.663,154.338 48.164,154.464 48.368 C 154.590 48.572,154.938 48.645,155.238 48.530 C 155.537 48.415,155.782 48.486,155.782 48.687 C 155.782 48.908,156.120 48.969,156.633 48.840 C 157.163 48.707,157.483 48.771,157.483 49.010 C 157.483 49.220,157.703 49.308,157.971 49.205 C 158.240 49.102,158.508 49.160,158.566 49.333 C 158.625 49.506,159.247 49.689,159.948 49.739 C 160.649 49.789,161.223 49.927,161.224 50.045 C 161.224 50.163,161.904 50.431,162.735 50.640 C 163.566 50.849,164.344 51.179,164.464 51.374 C 164.585 51.569,164.976 51.635,165.335 51.522 C 165.693 51.408,165.986 51.473,165.986 51.667 C 165.986 51.861,166.216 51.931,166.497 51.824 C 166.777 51.716,167.007 51.814,167.007 52.041 C 167.007 52.268,167.236 52.366,167.517 52.258 C 167.798 52.150,168.027 52.227,168.027 52.428 C 168.027 52.629,168.246 52.710,168.513 52.608 C 168.779 52.505,169.171 52.630,169.382 52.885 C 169.594 53.140,170.381 53.452,171.132 53.579 C 171.882 53.706,172.580 54.028,172.683 54.296 C 172.797 54.594,173.118 54.703,173.510 54.579 C 173.900 54.455,174.150 54.540,174.150 54.796 C 174.150 55.027,174.244 55.121,174.360 55.005 C 174.476 54.889,174.805 55.028,175.091 55.315 C 175.377 55.601,175.895 55.761,176.241 55.670 C 176.587 55.580,176.871 55.654,176.871 55.834 C 176.871 56.015,177.024 56.068,177.211 55.952 C 177.398 55.837,177.551 55.898,177.551 56.089 C 177.551 56.280,178.156 56.599,178.896 56.799 C 179.636 56.998,180.460 57.379,180.727 57.646 C 180.993 57.913,181.306 58.036,181.422 57.920 C 181.538 57.805,181.633 57.884,181.633 58.096 C 181.633 58.308,181.862 58.394,182.143 58.286 C 182.423 58.179,182.653 58.258,182.653 58.464 C 182.653 58.827,186.992 61.041,187.500 60.937 C 187.640 60.908,187.755 61.033,187.755 61.214 C 187.755 61.395,187.965 61.463,188.221 61.364 C 188.478 61.266,188.919 61.416,189.201 61.699 C 189.484 61.981,189.810 62.118,189.925 62.002 C 190.041 61.886,190.136 62.022,190.136 62.304 C 190.136 62.608,190.691 62.984,191.497 63.225 C 192.276 63.459,192.857 63.845,192.857 64.129 C 192.857 64.562,193.486 64.795,194.303 64.666 C 194.443 64.644,194.558 64.774,194.558 64.955 C 194.558 65.137,194.787 65.197,195.068 65.089 C 195.398 64.963,195.578 65.097,195.578 65.468 C 195.578 65.784,195.766 65.980,195.996 65.904 C 196.226 65.827,196.714 66.044,197.081 66.386 C 197.447 66.727,197.948 67.007,198.193 67.007 C 198.439 67.007,198.639 67.232,198.639 67.506 C 198.639 67.811,198.839 67.929,199.150 67.810 C 199.481 67.683,199.660 67.819,199.660 68.197 C 199.660 68.561,199.841 68.711,200.142 68.595 C 200.407 68.494,200.708 68.630,200.812 68.899 C 200.915 69.168,201.233 69.388,201.520 69.388 C 201.806 69.388,202.041 69.541,202.041 69.728 C 202.041 69.915,202.275 70.068,202.562 70.068 C 202.848 70.068,203.170 70.297,203.278 70.576 C 203.385 70.856,203.594 71.010,203.741 70.918 C 203.889 70.827,204.098 70.981,204.205 71.260 C 204.313 71.540,204.635 71.769,204.921 71.769 C 205.208 71.769,205.442 71.926,205.442 72.117 C 205.442 72.309,205.829 72.613,206.301 72.792 C 206.774 72.972,207.246 73.341,207.350 73.613 C 207.454 73.884,207.736 74.031,207.977 73.939 C 208.225 73.844,208.498 74.092,208.608 74.515 C 208.727 74.968,208.987 75.188,209.273 75.078 C 209.531 74.979,209.924 75.189,210.146 75.544 C 210.368 75.900,210.778 76.190,211.057 76.190 C 211.336 76.190,211.565 76.396,211.565 76.648 C 211.565 76.900,211.871 77.382,212.245 77.721 C 212.709 78.141,212.925 78.197,212.925 77.898 C 212.925 77.657,213.242 77.863,213.630 78.355 C 214.018 78.848,214.535 79.252,214.780 79.252 C 215.025 79.252,215.636 79.790,216.138 80.449 C 216.640 81.107,217.180 81.566,217.337 81.469 C 217.494 81.371,218.261 82.054,219.040 82.985 C 219.820 83.916,220.561 84.643,220.688 84.601 C 220.815 84.558,220.945 84.671,220.978 84.851 C 221.011 85.030,221.277 85.261,221.569 85.364 C 222.329 85.630,228.595 91.863,228.408 92.166 C 228.322 92.305,229.240 93.321,230.448 94.424 C 231.656 95.526,232.646 96.609,232.649 96.829 C 232.651 97.049,233.056 97.547,233.549 97.934 C 234.042 98.322,234.345 98.639,234.222 98.639 C 234.099 98.639,234.249 99.022,234.555 99.490 C 234.862 99.957,235.328 100.340,235.592 100.340 C 235.855 100.340,236.218 100.727,236.398 101.199 C 236.578 101.672,236.947 102.144,237.218 102.248 C 237.490 102.352,237.625 102.663,237.519 102.940 C 237.398 103.256,237.579 103.508,238.010 103.621 C 238.385 103.719,238.863 104.173,239.071 104.630 C 239.280 105.087,239.671 105.546,239.942 105.650 C 240.212 105.754,240.350 106.056,240.248 106.321 C 240.136 106.613,240.278 106.803,240.610 106.803 C 240.910 106.803,241.176 106.956,241.199 107.143 C 241.222 107.330,241.261 107.642,241.284 107.836 C 241.307 108.029,241.480 108.297,241.667 108.431 C 241.855 108.564,242.225 109.094,242.490 109.609 C 242.755 110.123,243.099 110.544,243.255 110.544 C 243.410 110.544,243.537 110.765,243.537 111.035 C 243.537 111.305,243.860 111.752,244.255 112.028 C 244.649 112.305,244.870 112.696,244.745 112.898 C 244.619 113.101,244.755 113.265,245.048 113.265 C 245.340 113.265,245.578 113.495,245.578 113.776 C 245.578 114.056,245.856 114.563,246.195 114.902 C 246.534 115.241,246.751 115.700,246.677 115.923 C 246.603 116.145,246.801 116.327,247.117 116.327 C 247.494 116.327,247.623 116.506,247.491 116.850 C 247.377 117.147,247.507 117.456,247.793 117.566 C 248.069 117.672,248.211 117.895,248.107 118.063 C 248.004 118.230,248.081 118.367,248.279 118.367 C 248.477 118.367,248.639 118.597,248.639 118.878 C 248.639 119.158,248.762 119.388,248.912 119.388 C 249.063 119.388,249.461 120.153,249.797 121.088 C 250.133 122.024,250.606 122.789,250.848 122.789 C 251.352 122.789,251.796 123.720,251.512 124.180 C 251.406 124.351,251.452 124.490,251.612 124.490 C 251.773 124.490,252.103 125.041,252.347 125.715 C 252.591 126.388,253.081 127.230,253.436 127.586 C 253.791 127.941,253.994 128.231,253.887 128.231 C 253.780 128.231,253.939 128.477,254.239 128.777 C 254.558 129.096,254.700 129.591,254.580 129.968 C 254.468 130.322,254.519 130.612,254.693 130.612 C 254.867 130.612,255.273 131.301,255.594 132.143 C 255.916 132.985,256.328 133.673,256.511 133.673 C 256.693 133.673,256.748 133.827,256.633 134.014 C 256.517 134.201,256.594 134.354,256.803 134.354 C 257.012 134.354,257.088 134.507,256.973 134.694 C 256.857 134.881,256.935 135.034,257.146 135.034 C 257.367 135.034,257.442 135.306,257.324 135.678 C 257.208 136.044,257.339 136.542,257.625 136.828 C 257.903 137.106,258.036 137.429,257.920 137.545 C 257.805 137.660,257.867 137.755,258.060 137.755 C 258.253 137.755,258.675 138.597,258.999 139.626 C 259.322 140.655,259.721 141.497,259.885 141.497 C 260.049 141.497,260.101 141.711,260.000 141.972 C 259.900 142.234,259.984 142.551,260.186 142.676 C 260.389 142.802,260.467 143.047,260.360 143.221 C 260.252 143.395,260.312 143.537,260.492 143.537 C 260.673 143.537,260.735 143.866,260.629 144.269 C 260.514 144.710,260.639 145.148,260.943 145.374 C 261.221 145.580,261.727 146.781,262.067 148.044 C 262.408 149.307,262.812 150.340,262.965 150.340 C 263.118 150.340,263.156 150.570,263.048 150.850 C 262.940 151.131,263.038 151.361,263.265 151.361 C 263.492 151.361,263.592 151.585,263.487 151.860 C 263.381 152.134,263.435 152.446,263.605 152.551 C 263.776 152.657,263.830 152.968,263.724 153.242 C 263.614 153.529,263.729 153.744,263.994 153.747 C 264.374 153.751,264.376 153.803,264.005 154.037 C 263.642 154.268,263.662 154.430,264.112 154.880 C 264.419 155.186,264.580 155.581,264.472 155.756 C 264.363 155.932,264.412 156.161,264.581 156.265 C 264.749 156.369,265.075 157.451,265.305 158.669 C 265.535 159.888,265.838 160.884,265.978 160.884 C 266.118 160.884,266.159 161.267,266.070 161.735 C 265.980 162.202,266.057 162.585,266.240 162.585 C 266.423 162.585,266.499 162.968,266.410 163.435 C 266.314 163.939,266.405 164.286,266.633 164.286 C 266.876 164.286,266.940 164.603,266.806 165.136 C 266.673 165.666,266.737 165.986,266.976 165.986 C 267.216 165.986,267.280 166.306,267.146 166.837 C 267.017 167.352,267.078 167.687,267.302 167.687 C 267.530 167.687,267.592 168.076,267.466 168.707 C 267.352 169.276,267.407 169.728,267.590 169.728 C 267.770 169.728,268.110 171.297,268.346 173.214 C 268.581 175.132,268.856 176.930,268.956 177.211 C 269.057 177.491,269.106 178.295,269.067 178.997 C 269.028 179.698,269.149 180.272,269.337 180.272 C 269.547 180.272,269.606 180.977,269.490 182.096 C 269.378 183.190,269.443 184.007,269.653 184.137 C 269.872 184.273,269.934 185.369,269.818 187.067 C 269.689 188.939,269.760 189.934,270.044 190.277 C 270.326 190.617,270.400 191.613,270.278 193.431 L 270.100 196.088 275.016 196.088 C 277.720 196.088,279.932 195.978,279.932 195.844 C 279.932 195.710,280.166 195.689,280.452 195.799 C 280.753 195.915,281.237 195.694,281.598 195.278 C 281.941 194.882,282.358 194.552,282.523 194.546 C 283.142 194.520,284.771 192.918,284.547 192.555 C 284.419 192.347,284.485 192.177,284.694 192.177 C 284.903 192.177,284.980 192.024,284.864 191.837 C 284.748 191.650,284.816 191.497,285.014 191.497 C 285.212 191.497,285.349 191.382,285.319 191.241 C 285.289 191.101,285.442 190.556,285.659 190.029 C 286.289 188.502,286.218 129.556,285.584 128.113 C 285.325 127.523,284.924 126.543,284.692 125.935 C 284.461 125.327,284.149 124.830,284.000 124.830 C 283.850 124.830,283.467 124.026,283.147 123.044 C 282.827 122.062,282.355 121.016,282.098 120.721 C 281.841 120.425,281.734 120.081,281.859 119.955 C 281.984 119.830,281.899 119.728,281.669 119.728 C 281.440 119.728,281.347 119.575,281.463 119.388 C 281.578 119.201,281.502 119.048,281.293 119.048 C 281.083 119.048,281.007 118.895,281.122 118.707 C 281.238 118.520,281.189 118.367,281.014 118.367 C 280.665 118.367,279.819 116.535,279.819 115.779 C 279.819 115.519,279.589 115.306,279.308 115.306 C 279.028 115.306,278.895 115.209,279.013 115.091 C 279.131 114.973,279.048 114.552,278.827 114.156 C 278.607 113.760,278.459 113.321,278.499 113.180 C 278.539 113.040,278.409 112.925,278.211 112.925 C 278.013 112.925,277.946 112.772,278.061 112.585 C 278.177 112.398,278.093 112.245,277.875 112.245 C 277.657 112.245,277.566 112.015,277.674 111.735 C 277.782 111.454,277.757 111.224,277.618 111.224 C 277.480 111.224,276.987 110.497,276.524 109.609 C 276.060 108.720,275.486 107.869,275.248 107.717 C 275.010 107.565,274.904 107.298,275.013 107.122 C 275.121 106.946,275.039 106.803,274.830 106.803 C 274.621 106.803,274.544 106.650,274.660 106.463 C 274.775 106.276,274.692 106.122,274.473 106.122 C 274.255 106.122,274.156 105.917,274.252 105.665 C 274.349 105.413,274.136 104.997,273.779 104.740 C 273.421 104.482,273.129 104.071,273.129 103.826 C 273.129 103.581,272.901 103.292,272.621 103.185 C 272.341 103.078,272.189 102.867,272.282 102.716 C 272.566 102.256,272.067 101.361,271.526 101.361 C 271.225 101.361,271.092 101.162,271.201 100.878 C 271.302 100.613,271.166 100.312,270.897 100.209 C 270.628 100.106,270.408 99.787,270.408 99.500 C 270.408 99.214,270.293 98.977,270.153 98.974 C 270.013 98.971,269.523 98.206,269.066 97.274 C 268.608 96.341,268.034 95.578,267.790 95.578 C 267.546 95.578,267.347 95.371,267.347 95.118 C 267.347 94.864,266.994 94.277,266.563 93.812 C 266.133 93.347,265.843 92.779,265.919 92.549 C 265.995 92.320,265.727 92.045,265.323 91.940 C 264.880 91.824,264.658 91.562,264.766 91.282 C 264.864 91.026,264.793 90.816,264.607 90.816 C 264.421 90.816,264.123 90.434,263.946 89.966 C 263.768 89.498,263.465 89.116,263.274 89.116 C 263.082 89.116,262.925 88.890,262.925 88.613 C 262.925 88.337,262.544 87.861,262.078 87.556 C 261.612 87.250,261.310 86.872,261.407 86.715 C 261.504 86.557,261.273 86.263,260.894 86.060 C 260.514 85.856,260.204 85.471,260.204 85.202 C 260.204 84.934,259.741 84.372,259.174 83.953 C 258.608 83.534,258.218 83.002,258.307 82.770 C 258.396 82.538,258.157 82.249,257.777 82.128 C 257.396 82.007,256.926 81.453,256.732 80.896 C 256.538 80.339,256.012 79.744,255.564 79.574 C 255.116 79.403,254.606 78.917,254.431 78.492 C 254.002 77.454,253.018 76.333,252.322 76.090 C 252.008 75.981,251.505 75.371,251.203 74.734 C 250.679 73.630,247.239 70.071,246.690 70.065 C 246.546 70.063,246.046 69.567,245.578 68.962 C 244.197 67.176,240.929 63.947,240.717 64.158 C 240.483 64.392,239.531 63.536,238.209 61.905 C 237.679 61.250,237.015 60.714,236.735 60.714 C 236.454 60.714,236.074 60.370,235.889 59.950 C 235.704 59.529,235.046 58.944,234.426 58.650 C 233.805 58.355,233.151 57.727,232.971 57.254 C 232.760 56.698,232.466 56.461,232.143 56.585 C 231.850 56.698,231.492 56.495,231.277 56.094 C 231.076 55.717,230.538 55.268,230.081 55.094 C 229.625 54.921,229.252 54.545,229.252 54.260 C 229.252 53.797,228.856 53.593,228.408 53.827 C 228.318 53.873,228.003 53.567,227.708 53.146 C 227.414 52.725,227.008 52.381,226.806 52.381 C 226.605 52.381,226.155 52.051,225.805 51.649 C 225.456 51.246,225.170 51.050,225.170 51.214 C 225.170 51.378,224.932 51.172,224.641 50.756 C 224.349 50.340,223.890 50.000,223.620 50.000 C 223.350 50.000,223.129 49.883,223.129 49.741 C 223.129 49.481,222.121 48.866,221.003 48.445 C 220.676 48.321,220.408 48.013,220.408 47.760 C 220.408 47.507,220.198 47.381,219.942 47.479 C 219.685 47.578,219.380 47.410,219.264 47.107 C 219.148 46.804,218.914 46.641,218.746 46.745 C 218.577 46.850,218.351 46.706,218.244 46.427 C 218.136 46.147,217.814 45.918,217.528 45.918 C 217.241 45.918,217.007 45.765,217.007 45.578 C 217.007 45.391,216.794 45.238,216.533 45.238 C 216.272 45.238,215.963 44.987,215.845 44.679 C 215.727 44.372,215.545 44.206,215.440 44.311 C 215.335 44.415,214.944 44.196,214.571 43.823 C 214.198 43.450,213.675 43.228,213.409 43.330 C 213.143 43.433,212.925 43.360,212.925 43.170 C 212.925 42.980,212.428 42.608,211.820 42.344 C 211.212 42.080,210.944 41.855,211.224 41.845 C 211.655 41.829,211.660 41.779,211.255 41.523 C 210.992 41.356,210.571 41.298,210.320 41.394 C 210.055 41.496,209.864 41.340,209.864 41.023 C 209.864 40.722,209.634 40.457,209.354 40.434 C 208.311 40.347,208.171 40.294,207.530 39.745 C 207.170 39.437,206.553 39.082,206.159 38.957 C 205.765 38.832,205.442 38.578,205.442 38.392 C 205.442 38.207,205.303 38.141,205.133 38.246 C 204.692 38.519,203.741 38.096,203.741 37.628 C 203.741 37.411,202.823 36.868,201.701 36.423 C 200.578 35.977,199.660 35.473,199.660 35.303 C 199.660 35.133,199.507 35.088,199.320 35.204 C 199.133 35.320,198.980 35.285,198.980 35.126 C 198.980 34.968,198.649 34.814,198.245 34.783 C 197.841 34.753,197.384 34.529,197.230 34.286 C 197.075 34.043,196.945 33.997,196.939 34.184 C 196.933 34.377,196.821 34.360,196.678 34.144 C 196.348 33.643,193.707 32.313,193.041 32.313 C 192.753 32.313,192.517 32.151,192.517 31.953 C 192.517 31.755,192.364 31.687,192.177 31.803 C 191.990 31.918,191.837 31.842,191.837 31.633 C 191.837 31.423,191.682 31.348,191.494 31.464 C 191.305 31.581,190.903 31.428,190.600 31.125 C 190.296 30.821,189.838 30.654,189.582 30.752 C 189.326 30.851,189.116 30.820,189.116 30.685 C 189.116 30.397,187.650 29.728,186.310 29.404 C 185.795 29.280,185.374 29.046,185.374 28.885 C 185.374 28.724,185.145 28.681,184.864 28.789 C 184.583 28.896,184.354 28.806,184.354 28.588 C 184.354 28.370,184.201 28.286,184.014 28.401 C 183.827 28.517,183.673 28.433,183.673 28.215 C 183.673 27.997,183.444 27.906,183.163 28.014 C 182.883 28.122,182.653 28.066,182.653 27.891 C 182.653 27.716,182.423 27.660,182.143 27.768 C 181.862 27.876,181.633 27.778,181.633 27.551 C 181.633 27.324,181.403 27.226,181.122 27.334 C 180.842 27.442,180.612 27.406,180.612 27.254 C 180.612 26.365,126.455 25.502,123.639 26.346 M235.367 26.857 C 235.571 27.239,235.967 27.551,236.247 27.551 C 236.527 27.551,236.844 27.781,236.952 28.061 C 237.060 28.342,237.343 28.571,237.582 28.571 C 237.821 28.571,238.110 28.916,238.226 29.337 C 238.389 29.934,238.502 29.999,238.739 29.631 C 238.982 29.254,239.120 29.304,239.431 29.886 C 239.645 30.285,240.028 30.612,240.282 30.612 C 240.536 30.612,240.832 30.842,240.939 31.122 C 241.047 31.403,241.333 31.633,241.574 31.633 C 241.816 31.633,242.208 31.945,242.446 32.326 C 242.685 32.708,243.020 32.933,243.191 32.827 C 243.363 32.721,243.669 32.944,243.872 33.324 C 244.075 33.703,244.455 34.014,244.715 34.014 C 244.976 34.014,245.469 34.370,245.812 34.806 C 246.155 35.242,246.606 35.542,246.814 35.472 C 247.022 35.403,247.278 35.675,247.383 36.076 C 247.488 36.478,247.774 36.740,248.018 36.658 C 248.263 36.577,248.743 36.867,249.086 37.303 C 249.429 37.739,249.932 38.095,250.203 38.095 C 250.475 38.095,250.841 38.474,251.017 38.936 C 251.195 39.404,251.716 39.872,252.193 39.992 C 252.664 40.110,253.377 40.736,253.776 41.383 C 254.211 42.086,254.689 42.487,254.967 42.381 C 255.245 42.274,255.922 42.845,256.656 43.805 C 257.329 44.687,258.059 45.412,258.277 45.417 C 258.681 45.426,269.039 55.658,269.058 56.068 C 269.075 56.420,270.557 57.953,271.283 58.369 C 271.644 58.576,272.234 59.303,272.594 59.985 C 272.954 60.667,273.455 61.224,273.708 61.224 C 273.960 61.224,274.306 61.592,274.477 62.041 C 274.647 62.489,275.139 63.103,275.570 63.405 C 276.001 63.707,276.355 64.217,276.357 64.539 C 276.359 64.861,276.765 65.319,277.259 65.557 C 277.754 65.794,278.251 66.360,278.366 66.815 C 278.480 67.270,278.890 67.742,279.277 67.865 C 279.666 67.989,279.905 68.286,279.812 68.529 C 279.719 68.771,280.014 69.292,280.468 69.687 C 280.921 70.081,281.293 70.558,281.293 70.746 C 281.293 70.934,281.517 71.088,281.792 71.088 C 282.085 71.088,282.215 71.289,282.106 71.573 C 281.996 71.858,282.280 72.295,282.794 72.631 C 283.274 72.946,283.592 73.326,283.499 73.476 C 283.407 73.626,283.429 74.004,283.550 74.318 C 283.719 74.760,283.829 74.788,284.041 74.445 C 284.239 74.125,284.407 74.246,284.648 74.880 C 284.832 75.363,285.223 75.850,285.518 75.963 C 286.733 76.429,286.192 31.328,284.974 30.575 C 284.726 30.422,284.520 30.177,284.516 30.029 C 284.506 29.702,282.675 27.726,282.365 27.709 C 282.243 27.702,281.798 27.506,281.378 27.272 C 280.957 27.038,280.610 26.967,280.607 27.114 C 280.604 27.261,280.457 27.151,280.279 26.871 C 279.999 26.427,277.016 26.348,257.476 26.262 L 234.995 26.163 235.367 26.857 M117.772 69.297 L 116.327 69.427 116.327 83.200 L 116.327 96.973 118.367 96.742 C 119.913 96.567,120.408 96.616,120.408 96.943 C 120.408 97.273,121.056 97.332,123.129 97.190 C 124.899 97.068,125.850 97.126,125.850 97.355 C 125.850 97.572,126.441 97.641,127.381 97.535 C 128.298 97.432,128.912 97.500,128.912 97.706 C 128.912 97.910,129.463 97.975,130.272 97.866 C 131.020 97.766,131.633 97.809,131.633 97.962 C 131.633 98.114,133.010 98.428,134.694 98.658 C 136.378 98.888,137.755 99.225,137.755 99.408 C 137.755 99.590,138.061 99.659,138.435 99.561 C 138.810 99.463,139.116 99.539,139.116 99.729 C 139.116 99.927,139.477 99.983,139.966 99.860 C 140.499 99.727,140.816 99.791,140.816 100.033 C 140.816 100.252,141.111 100.342,141.497 100.242 C 141.871 100.144,142.177 100.219,142.177 100.408 C 142.177 100.598,142.402 100.667,142.676 100.561 C 142.951 100.456,143.274 100.530,143.395 100.725 C 143.515 100.920,143.903 101.004,144.256 100.912 C 144.609 100.819,144.898 100.860,144.898 101.002 C 144.898 101.144,145.893 101.529,147.109 101.858 C 148.325 102.187,149.320 102.603,149.320 102.782 C 149.320 102.961,149.610 103.015,149.964 102.903 C 150.344 102.782,150.839 102.928,151.171 103.260 C 151.480 103.569,151.821 103.735,151.927 103.628 C 152.034 103.521,152.344 103.656,152.616 103.928 C 153.045 104.357,154.025 104.592,154.847 104.462 C 154.987 104.440,155.102 104.569,155.102 104.749 C 155.102 104.929,155.714 105.241,156.463 105.442 C 157.211 105.644,157.823 105.981,157.823 106.192 C 157.823 106.403,157.918 106.481,158.034 106.365 C 158.149 106.250,158.460 106.371,158.724 106.634 C 158.988 106.898,159.429 107.028,159.704 106.922 C 159.979 106.816,160.204 106.885,160.204 107.074 C 160.204 107.263,161.046 107.767,162.075 108.193 C 163.104 108.620,163.946 109.103,163.946 109.266 C 163.946 109.430,164.099 109.469,164.286 109.354 C 164.473 109.238,164.626 109.313,164.626 109.520 C 164.626 109.948,166.693 110.908,167.088 110.664 C 167.231 110.576,167.347 110.731,167.347 111.007 C 167.347 111.289,167.793 111.608,168.359 111.733 C 168.916 111.855,169.336 112.135,169.294 112.355 C 169.252 112.575,169.467 112.714,169.772 112.665 C 170.104 112.610,170.411 112.883,170.537 113.345 C 170.696 113.926,170.820 114.004,171.041 113.662 C 171.277 113.296,171.374 113.313,171.541 113.747 C 171.654 114.043,171.913 114.286,172.114 114.286 C 172.316 114.286,172.827 114.658,173.249 115.114 C 173.671 115.569,174.238 115.990,174.508 116.049 C 174.779 116.108,175.200 116.424,175.444 116.752 C 175.689 117.079,176.110 117.347,176.380 117.347 C 176.650 117.347,176.871 117.508,176.871 117.705 C 176.871 117.902,177.330 118.223,177.891 118.418 C 178.452 118.614,178.836 118.895,178.745 119.042 C 178.535 119.382,179.536 120.237,179.816 119.957 C 179.930 119.843,180.477 120.319,181.032 121.014 C 181.587 121.710,182.235 122.239,182.472 122.189 C 182.709 122.140,183.489 122.829,184.205 123.720 C 185.900 125.830,189.173 129.070,189.886 129.344 C 190.194 129.462,190.765 130.185,191.155 130.950 C 191.557 131.737,192.242 132.484,192.736 132.671 C 193.240 132.863,193.535 133.190,193.436 133.448 C 193.342 133.692,193.556 134.074,193.911 134.296 C 194.267 134.518,194.558 134.923,194.558 135.197 C 194.558 135.470,195.011 136.029,195.565 136.438 C 196.119 136.848,196.492 137.312,196.395 137.469 C 196.298 137.626,196.384 137.755,196.587 137.755 C 196.790 137.755,197.101 138.138,197.279 138.605 C 197.457 139.073,197.759 139.456,197.951 139.456 C 198.142 139.456,198.299 139.690,198.299 139.977 C 198.299 140.263,198.519 140.582,198.788 140.685 C 199.057 140.788,199.194 141.090,199.092 141.355 C 198.977 141.655,199.126 141.837,199.490 141.837 C 199.868 141.837,200.004 142.016,199.877 142.347 C 199.761 142.650,199.873 142.857,200.154 142.857 C 200.414 142.857,200.727 143.316,200.850 143.878 C 200.974 144.439,201.287 144.898,201.547 144.898 C 201.826 144.898,201.940 145.106,201.825 145.405 C 201.714 145.695,201.864 146.002,202.174 146.121 C 202.473 146.236,202.632 146.467,202.529 146.634 C 202.425 146.802,202.512 146.939,202.721 146.939 C 202.930 146.939,203.002 147.100,202.880 147.297 C 202.758 147.494,202.957 147.915,203.321 148.232 C 203.686 148.550,204.093 149.154,204.226 149.575 C 204.359 149.996,204.619 150.340,204.805 150.340 C 204.990 150.340,205.048 150.493,204.932 150.680 C 204.816 150.867,204.893 151.020,205.102 151.020 C 205.311 151.020,205.391 151.169,205.278 151.351 C 205.066 151.694,205.996 153.768,206.513 154.104 C 206.676 154.209,207.084 155.076,207.420 156.029 C 207.755 156.983,208.212 157.982,208.434 158.250 C 208.656 158.517,208.737 158.837,208.614 158.960 C 208.491 159.083,208.564 159.184,208.776 159.184 C 208.989 159.184,209.074 159.413,208.967 159.694 C 208.859 159.974,208.929 160.204,209.123 160.204 C 209.317 160.204,209.719 161.084,210.017 162.160 C 210.314 163.236,210.708 164.381,210.891 164.706 C 211.074 165.031,211.224 165.529,211.224 165.812 C 211.224 166.095,211.339 166.327,211.480 166.328 C 211.620 166.328,211.747 166.894,211.763 167.584 C 211.779 168.275,211.961 168.896,212.169 168.966 C 212.377 169.035,212.463 169.311,212.359 169.580 C 212.256 169.848,212.344 170.068,212.555 170.068 C 212.800 170.068,212.856 170.394,212.712 170.969 C 212.568 171.544,212.611 171.793,212.831 171.657 C 213.041 171.527,213.355 172.444,213.629 173.987 C 213.878 175.386,214.182 176.531,214.306 176.531 C 214.430 176.531,214.458 176.913,214.369 177.381 C 214.276 177.868,214.365 178.231,214.578 178.231 C 214.809 178.231,214.872 178.616,214.745 179.252 C 214.614 179.907,214.679 180.272,214.927 180.272 C 215.188 180.272,215.243 180.716,215.097 181.633 C 214.977 182.381,215.017 182.993,215.187 182.993 C 215.356 182.993,215.436 183.605,215.364 184.354 C 215.285 185.188,215.378 185.714,215.605 185.714 C 215.855 185.714,215.907 186.379,215.763 187.755 C 215.613 189.183,215.666 189.796,215.938 189.796 C 216.201 189.796,216.327 190.789,216.327 192.857 L 216.327 195.918 230.414 195.918 C 238.163 195.918,244.744 196.011,245.040 196.125 C 245.393 196.260,245.578 196.143,245.578 195.785 C 245.578 195.484,245.425 195.238,245.238 195.238 C 245.035 195.238,244.898 193.924,244.898 191.975 C 244.898 188.688,244.312 180.879,243.994 179.932 C 243.900 179.651,243.757 178.427,243.677 177.211 C 243.596 175.995,243.379 174.949,243.194 174.887 C 243.010 174.825,242.951 174.404,243.065 173.951 C 243.188 173.461,243.122 173.129,242.903 173.129 C 242.674 173.129,242.612 172.740,242.738 172.109 C 242.870 171.451,242.804 171.088,242.553 171.088 C 242.308 171.088,242.243 170.774,242.377 170.238 C 242.510 169.708,242.446 169.388,242.207 169.388 C 241.968 169.388,241.904 169.068,242.037 168.537 C 242.155 168.070,242.109 167.687,241.936 167.687 C 241.763 167.687,241.424 166.692,241.182 165.476 C 240.940 164.260,240.644 163.265,240.524 163.265 C 240.404 163.264,240.265 162.690,240.215 161.989 C 240.165 161.288,239.982 160.666,239.809 160.607 C 239.636 160.548,239.578 160.281,239.681 160.012 C 239.784 159.744,239.689 159.524,239.469 159.524 C 239.225 159.524,239.153 159.260,239.286 158.844 C 239.404 158.469,239.353 158.163,239.170 158.163 C 238.988 158.163,238.924 157.838,239.028 157.440 C 239.147 156.986,239.023 156.608,238.695 156.424 C 238.408 156.264,238.072 155.594,237.949 154.937 C 237.825 154.279,237.616 153.741,237.485 153.741 C 237.353 153.741,237.221 153.325,237.191 152.816 C 237.162 152.308,236.979 151.839,236.785 151.774 C 236.591 151.710,236.517 151.437,236.620 151.169 C 236.723 150.900,236.652 150.680,236.463 150.680 C 236.273 150.680,236.192 150.397,236.283 150.051 C 236.373 149.704,236.213 149.187,235.927 148.901 C 235.641 148.614,235.501 148.286,235.617 148.170 C 235.733 148.054,235.649 147.959,235.431 147.959 C 235.213 147.959,235.034 147.781,235.034 147.563 C 235.034 146.941,233.912 144.558,233.619 144.558 C 233.473 144.558,233.437 144.342,233.539 144.078 C 233.711 143.629,232.840 141.531,232.325 141.156 C 232.196 141.063,231.730 140.106,231.289 139.031 C 230.848 137.955,230.286 137.075,230.039 137.075 C 229.648 137.075,229.427 136.419,229.552 135.629 C 229.574 135.489,229.430 135.374,229.232 135.374 C 229.034 135.374,228.950 135.247,229.046 135.092 C 229.141 134.937,228.773 134.268,228.227 133.606 C 227.682 132.944,227.328 132.309,227.442 132.196 C 227.555 132.082,227.398 131.893,227.091 131.775 C 226.785 131.658,226.619 131.424,226.723 131.257 C 226.826 131.089,226.732 130.952,226.514 130.952 C 226.296 130.952,226.206 130.723,226.313 130.442 C 226.430 130.140,226.317 129.932,226.037 129.932 C 225.777 129.932,225.463 129.473,225.340 128.912 C 225.217 128.350,224.903 127.891,224.644 127.891 C 224.383 127.891,224.251 127.682,224.350 127.425 C 224.448 127.168,224.281 126.863,223.978 126.747 C 223.674 126.631,223.522 126.380,223.639 126.190 C 223.757 126.001,223.623 125.757,223.342 125.650 C 223.062 125.542,222.910 125.251,223.005 125.003 C 223.101 124.754,222.900 124.461,222.559 124.350 C 222.218 124.239,221.646 123.536,221.289 122.788 C 220.931 122.040,220.418 121.429,220.147 121.429 C 219.852 121.429,219.733 121.227,219.849 120.924 C 219.962 120.630,219.773 120.274,219.398 120.074 C 219.044 119.884,218.656 119.422,218.538 119.048 C 218.419 118.674,218.102 118.367,217.834 118.367 C 217.566 118.367,217.347 118.065,217.347 117.695 C 217.347 117.325,216.964 116.772,216.497 116.465 C 216.029 116.159,215.646 115.714,215.646 115.477 C 215.646 115.241,215.108 114.636,214.449 114.134 C 213.791 113.632,213.330 113.095,213.425 112.941 C 213.520 112.788,212.605 111.790,211.391 110.724 C 210.177 109.658,209.184 108.544,209.184 108.248 C 209.184 107.952,209.079 107.814,208.951 107.942 C 208.698 108.195,206.463 106.176,206.463 105.696 C 206.463 105.534,206.639 105.511,206.855 105.645 C 207.106 105.800,207.155 105.737,206.991 105.472 C 206.850 105.243,206.526 105.135,206.273 105.233 C 205.998 105.338,205.031 104.521,203.885 103.215 C 202.825 102.008,201.769 101.020,201.538 101.020 C 201.308 101.020,200.707 100.523,200.203 99.915 C 199.700 99.307,199.142 98.790,198.963 98.767 C 198.785 98.744,198.486 98.705,198.299 98.682 C 198.112 98.659,197.959 98.406,197.959 98.121 C 197.959 97.836,197.586 97.460,197.130 97.287 C 196.673 97.113,196.135 96.664,195.934 96.287 C 195.733 95.911,195.361 95.683,195.108 95.780 C 194.832 95.886,194.569 95.658,194.453 95.213 C 194.334 94.760,194.075 94.540,193.788 94.650 C 193.530 94.749,193.137 94.539,192.915 94.184 C 192.693 93.828,192.283 93.537,192.004 93.537 C 191.725 93.537,191.535 93.346,191.582 93.112 C 191.628 92.878,191.456 92.732,191.199 92.786 C 190.941 92.841,190.510 92.571,190.240 92.186 C 189.970 91.800,189.606 91.574,189.430 91.683 C 189.255 91.791,189.019 91.641,188.907 91.348 C 188.795 91.056,188.490 90.816,188.229 90.816 C 187.968 90.816,187.755 90.663,187.755 90.476 C 187.755 90.289,187.526 90.136,187.245 90.136 C 186.964 90.136,186.735 89.974,186.735 89.776 C 186.735 89.578,186.598 89.500,186.430 89.604 C 186.263 89.707,186.039 89.566,185.933 89.289 C 185.823 89.004,185.514 88.874,185.217 88.988 C 184.872 89.120,184.694 88.990,184.694 88.605 C 184.694 88.242,184.512 88.092,184.212 88.207 C 183.947 88.309,183.651 88.188,183.555 87.938 C 183.459 87.688,182.835 87.303,182.167 87.083 C 181.499 86.862,180.952 86.464,180.952 86.198 C 180.952 85.776,180.317 85.546,179.507 85.674 C 179.366 85.696,179.252 85.561,179.252 85.374 C 179.252 85.187,179.022 85.034,178.741 85.034 C 178.461 85.034,178.231 84.911,178.231 84.761 C 178.231 84.611,177.466 84.213,176.531 83.877 C 175.595 83.540,174.830 83.139,174.830 82.984 C 174.830 82.672,171.943 81.287,169.872 80.605 C 169.138 80.363,168.382 79.953,168.191 79.694 C 168.000 79.434,167.436 79.178,166.936 79.125 C 166.436 79.072,165.826 78.874,165.581 78.686 C 165.336 78.497,164.219 78.062,163.099 77.720 C 161.978 77.377,160.852 76.887,160.597 76.632 C 160.341 76.376,159.842 76.259,159.488 76.372 C 159.105 76.493,158.844 76.414,158.844 76.177 C 158.844 75.957,158.614 75.866,158.333 75.973 C 158.053 76.081,157.823 76.014,157.823 75.825 C 157.823 75.635,157.632 75.512,157.398 75.550 C 157.164 75.588,156.553 75.446,156.040 75.234 C 155.528 75.022,154.877 74.938,154.595 75.046 C 154.313 75.154,154.082 75.090,154.082 74.904 C 154.082 74.718,153.546 74.465,152.891 74.342 C 152.236 74.219,151.701 73.955,151.701 73.754 C 151.701 73.554,151.395 73.470,151.021 73.568 C 150.647 73.666,150.259 73.614,150.160 73.452 C 150.060 73.291,149.754 73.245,149.479 73.351 C 149.204 73.456,148.980 73.355,148.980 73.126 C 148.980 72.865,148.662 72.771,148.129 72.872 C 147.662 72.962,147.279 72.887,147.279 72.706 C 147.279 72.524,147.030 72.472,146.726 72.589 C 146.421 72.705,145.961 72.626,145.704 72.412 C 145.446 72.198,144.548 72.004,143.708 71.981 C 142.868 71.958,142.180 71.835,142.179 71.708 C 142.178 71.581,141.297 71.371,140.221 71.241 C 139.145 71.111,138.089 70.864,137.873 70.692 C 137.657 70.520,137.083 70.479,136.597 70.600 C 136.003 70.749,135.714 70.684,135.714 70.402 C 135.714 70.101,135.325 70.043,134.354 70.199 C 133.430 70.346,132.993 70.291,132.993 70.026 C 132.993 69.759,132.509 69.702,131.463 69.845 C 130.435 69.986,129.932 69.930,129.932 69.674 C 129.932 69.410,129.260 69.363,127.721 69.520 C 126.287 69.667,125.510 69.624,125.510 69.397 C 125.510 69.059,121.056 69.001,117.772 69.297 M116.327 155.555 C 116.327 190.189,116.379 191.520,117.782 192.421 C 118.010 192.567,118.197 192.912,118.197 193.187 C 118.197 193.462,118.551 193.864,118.983 194.079 C 119.416 194.295,120.140 194.793,120.592 195.187 C 121.045 195.580,121.648 195.813,121.932 195.704 C 122.216 195.595,122.449 195.637,122.449 195.797 C 122.449 195.957,137.985 196.088,156.973 196.088 L 191.497 196.088 191.497 194.643 C 191.497 193.848,191.334 193.197,191.136 193.197 C 190.894 193.197,190.852 192.415,191.010 190.816 C 191.177 189.123,191.132 188.435,190.856 188.435 C 190.594 188.435,190.539 187.994,190.686 187.075 C 190.831 186.163,190.777 185.714,190.520 185.714 C 190.309 185.714,190.136 185.337,190.136 184.877 C 190.136 183.622,188.698 177.057,188.396 176.934 C 188.251 176.875,188.218 176.607,188.321 176.339 C 188.424 176.070,188.322 175.850,188.095 175.850 C 187.868 175.850,187.765 175.636,187.865 175.373 C 187.966 175.111,187.962 174.810,187.857 174.705 C 187.752 174.600,187.634 173.986,187.595 173.341 C 187.555 172.696,187.295 171.940,187.016 171.661 C 186.737 171.382,186.239 170.297,185.909 169.250 C 185.580 168.203,185.163 167.347,184.982 167.347 C 184.802 167.347,184.748 167.194,184.864 167.007 C 184.980 166.820,184.903 166.667,184.694 166.667 C 184.485 166.667,184.408 166.514,184.524 166.327 C 184.639 166.139,184.582 165.986,184.397 165.986 C 184.211 165.986,183.956 165.642,183.830 165.221 C 183.394 163.769,182.146 161.224,181.870 161.224 C 181.717 161.224,181.687 161.071,181.803 160.884 C 181.918 160.697,181.856 160.544,181.663 160.544 C 181.471 160.544,181.402 160.315,181.510 160.034 C 181.636 159.705,181.502 159.524,181.130 159.524 C 180.814 159.524,180.618 159.336,180.695 159.106 C 180.771 158.876,180.555 158.388,180.213 158.021 C 179.871 157.655,179.592 157.154,179.592 156.909 C 179.592 156.663,179.367 156.463,179.092 156.463 C 178.789 156.463,178.669 156.263,178.787 155.955 C 178.898 155.666,178.749 155.358,178.439 155.239 C 178.140 155.125,177.975 154.901,178.073 154.743 C 178.170 154.585,177.940 154.290,177.561 154.087 C 177.181 153.884,176.871 153.530,176.871 153.301 C 176.871 153.072,176.559 152.690,176.177 152.452 C 175.796 152.213,175.571 151.877,175.678 151.704 C 175.785 151.532,175.477 151.131,174.994 150.815 C 174.511 150.498,174.183 150.063,174.266 149.846 C 174.349 149.630,173.900 149.099,173.268 148.666 C 172.636 148.233,172.204 147.740,172.308 147.571 C 172.566 147.155,167.617 142.263,166.515 141.844 C 166.030 141.659,165.488 141.123,165.308 140.652 C 165.129 140.181,164.826 139.777,164.634 139.753 C 164.443 139.730,164.136 139.692,163.952 139.668 C 163.769 139.645,163.377 139.281,163.083 138.861 C 162.788 138.440,162.326 138.095,162.056 138.095 C 161.786 138.095,161.565 137.866,161.565 137.585 C 161.565 137.121,161.192 136.940,160.690 137.160 C 160.584 137.207,160.346 136.977,160.163 136.650 C 159.980 136.322,159.625 136.054,159.373 136.054 C 159.122 136.054,158.828 135.825,158.721 135.544 C 158.613 135.264,158.290 135.034,158.004 135.034 C 157.717 135.034,157.483 134.872,157.483 134.674 C 157.483 134.476,157.346 134.398,157.178 134.502 C 157.011 134.605,156.787 134.464,156.681 134.187 C 156.572 133.902,156.262 133.772,155.965 133.886 C 155.647 134.008,155.442 133.899,155.442 133.607 C 155.442 133.340,154.689 132.857,153.741 132.516 C 152.806 132.180,152.038 131.729,152.035 131.513 C 152.029 131.113,149.731 130.021,146.854 129.052 C 145.965 128.752,145.238 128.352,145.238 128.163 C 145.238 127.973,145.009 127.906,144.728 128.014 C 144.447 128.122,144.218 128.053,144.218 127.860 C 144.218 127.668,144.075 127.599,143.901 127.707 C 143.727 127.814,143.492 127.753,143.380 127.571 C 143.268 127.389,142.951 127.327,142.676 127.432 C 142.402 127.538,142.177 127.438,142.177 127.211 C 142.177 126.984,141.957 126.882,141.689 126.985 C 141.420 127.088,141.151 127.024,141.090 126.841 C 141.029 126.659,139.948 126.259,138.687 125.953 C 137.426 125.647,136.395 125.259,136.395 125.090 C 136.395 124.922,136.088 124.881,135.714 125.000 C 135.308 125.129,135.034 125.061,135.034 124.831 C 135.034 124.620,134.766 124.480,134.439 124.521 C 134.111 124.561,133.576 124.478,133.248 124.336 C 132.921 124.193,132.423 124.165,132.143 124.273 C 131.862 124.380,131.633 124.308,131.633 124.112 C 131.633 123.893,131.240 123.842,130.612 123.980 C 129.919 124.132,129.592 124.072,129.592 123.794 C 129.592 123.521,129.255 123.452,128.585 123.586 C 128.031 123.697,127.494 123.653,127.393 123.489 C 127.291 123.324,125.870 123.099,124.233 122.987 C 122.597 122.876,120.149 122.711,118.793 122.621 L 116.327 122.458 116.327 155.555 M172.789 222.316 C 171.199 222.579,169.668 222.894,169.388 223.016 C 169.107 223.137,168.686 223.206,168.452 223.168 C 168.219 223.130,168.027 223.254,168.027 223.444 C 168.027 223.633,167.798 223.700,167.517 223.592 C 167.236 223.485,167.007 223.569,167.007 223.780 C 167.007 224.012,166.692 224.084,166.205 223.961 C 165.703 223.835,165.205 223.960,164.869 224.295 C 164.575 224.589,164.103 224.830,163.820 224.830 C 163.537 224.830,163.218 224.971,163.111 225.144 C 163.005 225.317,162.422 225.567,161.816 225.700 C 161.210 225.833,160.455 226.241,160.137 226.607 C 159.820 226.974,159.399 227.174,159.202 227.052 C 159.005 226.930,158.844 227.002,158.844 227.211 C 158.844 227.420,158.690 227.497,158.503 227.381 C 158.316 227.265,158.163 227.349,158.163 227.567 C 158.163 227.785,157.934 227.876,157.653 227.768 C 157.342 227.649,157.143 227.768,157.143 228.072 C 157.143 228.347,156.936 228.571,156.682 228.571 C 156.429 228.571,155.841 228.924,155.376 229.355 C 154.911 229.786,154.343 230.076,154.114 229.999 C 153.884 229.923,153.611 230.189,153.506 230.590 C 153.399 230.998,152.809 231.531,152.168 231.799 C 151.537 232.062,151.020 232.507,151.020 232.786 C 151.020 233.065,150.092 234.008,148.957 234.881 C 147.629 235.903,146.961 236.642,147.081 236.955 C 147.184 237.222,147.029 237.532,146.737 237.644 C 146.445 237.756,146.069 238.210,145.901 238.652 C 145.733 239.094,145.366 239.456,145.087 239.456 C 144.797 239.456,144.656 239.655,144.758 239.922 C 144.857 240.179,144.689 240.484,144.386 240.600 C 144.083 240.716,143.930 240.966,144.046 241.154 C 144.163 241.342,144.087 241.497,143.878 241.497 C 143.668 241.497,143.593 241.651,143.709 241.839 C 143.825 242.028,143.689 242.271,143.405 242.379 C 143.122 242.488,142.718 243.099,142.507 243.738 C 142.296 244.376,141.974 244.898,141.790 244.898 C 141.607 244.898,141.557 245.061,141.681 245.261 C 141.804 245.460,141.635 245.821,141.305 246.062 C 140.944 246.326,140.791 246.722,140.920 247.060 C 141.039 247.367,140.994 247.619,140.822 247.619 C 140.447 247.619,139.745 249.983,139.999 250.393 C 140.096 250.551,140.028 250.680,139.846 250.680 C 139.664 250.680,139.412 251.293,139.286 252.041 C 139.159 252.789,138.898 253.401,138.706 253.401 C 138.513 253.401,138.436 253.707,138.534 254.082 C 138.632 254.456,138.554 254.762,138.361 254.762 C 138.153 254.762,138.093 255.176,138.214 255.782 C 138.342 256.423,138.279 256.803,138.043 256.803 C 137.796 256.803,137.742 257.267,137.886 258.163 C 138.005 258.912,137.971 259.524,137.810 259.524 C 137.450 259.524,137.483 270.590,137.844 270.951 C 137.987 271.093,138.008 271.718,137.891 272.340 C 137.748 273.105,137.810 273.469,138.084 273.469 C 138.357 273.469,138.416 273.802,138.265 274.490 C 138.114 275.177,138.173 275.510,138.445 275.510 C 138.706 275.510,138.774 275.811,138.636 276.361 C 138.518 276.828,138.561 277.211,138.731 277.211 C 138.901 277.211,139.143 277.785,139.268 278.486 C 139.578 280.218,140.216 281.973,140.534 281.973 C 140.677 281.973,140.698 282.225,140.580 282.532 C 140.451 282.870,140.603 283.265,140.965 283.530 C 141.295 283.771,141.464 284.132,141.341 284.331 C 141.217 284.531,141.287 284.694,141.497 284.694 C 141.706 284.694,141.782 284.847,141.667 285.034 C 141.551 285.221,141.619 285.374,141.817 285.374 C 142.015 285.374,142.177 285.680,142.177 286.054 C 142.177 286.429,142.305 286.735,142.463 286.735 C 142.620 286.735,142.950 287.347,143.197 288.095 C 143.446 288.849,143.866 289.456,144.138 289.456 C 144.430 289.456,144.553 289.658,144.440 289.952 C 144.330 290.240,144.672 290.847,145.254 291.397 C 145.807 291.918,146.259 292.528,146.259 292.752 C 146.259 292.976,146.603 293.400,147.024 293.695 C 147.445 293.990,147.789 294.365,147.789 294.530 C 147.789 295.018,151.731 299.001,152.031 298.816 C 152.182 298.722,152.556 299.027,152.862 299.493 C 153.167 299.959,153.643 300.340,153.919 300.340 C 154.196 300.340,154.422 300.493,154.422 300.680 C 154.422 300.867,154.656 301.020,154.943 301.020 C 155.229 301.020,155.548 301.240,155.651 301.509 C 155.754 301.778,156.056 301.915,156.321 301.813 C 156.621 301.698,156.803 301.848,156.803 302.211 C 156.803 302.589,156.982 302.725,157.313 302.598 C 157.602 302.487,157.823 302.590,157.823 302.835 C 157.823 303.072,158.588 303.542,159.524 303.879 C 160.459 304.215,161.224 304.603,161.224 304.741 C 161.224 305.142,162.870 305.782,163.387 305.584 C 163.646 305.484,163.953 305.651,164.069 305.955 C 164.186 306.258,164.550 306.465,164.879 306.415 C 165.207 306.364,165.782 306.487,166.156 306.688 C 166.531 306.889,167.870 307.255,169.133 307.501 C 170.395 307.747,171.429 308.092,171.429 308.268 C 171.429 308.444,171.888 308.497,172.449 308.384 C 173.083 308.258,173.469 308.321,173.469 308.551 C 173.469 308.797,173.983 308.844,175.000 308.691 C 175.892 308.557,176.531 308.595,176.531 308.782 C 176.531 308.968,178.730 309.098,181.803 309.094 C 184.767 309.089,187.075 308.949,187.075 308.774 C 187.075 308.597,187.737 308.561,188.605 308.691 C 189.540 308.831,190.136 308.790,190.136 308.585 C 190.136 307.587,194.198 308.644,194.230 309.650 C 194.248 310.205,195.645 311.763,196.351 312.014 C 196.683 312.133,197.055 312.501,197.179 312.832 C 197.554 313.841,198.742 315.306,199.184 315.306 C 199.414 315.306,200.072 316.071,200.648 317.007 C 201.223 317.942,201.922 318.707,202.201 318.707 C 202.479 318.707,203.022 319.325,203.407 320.080 C 203.793 320.835,204.239 321.372,204.399 321.272 C 204.559 321.173,204.784 321.337,204.899 321.636 C 205.021 321.953,205.324 322.096,205.628 321.980 C 205.919 321.868,206.231 321.996,206.336 322.269 C 206.552 322.832,209.634 323.810,211.192 323.810 C 211.771 323.810,212.245 323.963,212.245 324.150 C 212.245 324.368,215.590 324.490,221.599 324.490 C 232.427 324.490,232.466 324.475,229.082 321.584 C 228.053 320.705,227.211 319.797,227.211 319.567 C 227.211 319.337,226.143 318.188,224.837 317.013 C 223.532 315.839,222.539 314.755,222.631 314.606 C 222.724 314.457,221.878 313.524,220.753 312.534 C 219.628 311.543,218.703 310.576,218.698 310.384 C 218.684 309.909,217.023 308.124,215.938 307.419 C 215.452 307.103,214.753 306.262,214.384 305.548 C 214.016 304.835,213.374 304.080,212.958 303.869 C 211.712 303.240,210.243 301.656,210.436 301.151 C 210.544 300.870,210.396 300.680,210.070 300.680 C 209.770 300.680,209.524 300.532,209.524 300.351 C 209.524 300.170,209.731 300.101,209.984 300.198 C 210.238 300.296,210.700 299.983,211.019 299.496 C 211.336 299.013,211.708 298.688,211.846 298.773 C 212.168 298.972,216.383 294.727,216.122 294.467 C 216.015 294.360,216.329 294.009,216.820 293.687 C 217.311 293.366,217.660 292.946,217.596 292.755 C 217.532 292.563,217.958 291.928,218.543 291.344 C 219.128 290.759,219.544 290.095,219.469 289.868 C 219.393 289.641,219.535 289.454,219.785 289.452 C 220.034 289.449,220.671 288.378,221.200 287.071 C 221.729 285.763,222.312 284.694,222.496 284.694 C 222.679 284.694,222.728 284.531,222.605 284.331 C 222.482 284.132,222.651 283.771,222.980 283.530 C 223.342 283.265,223.495 282.870,223.365 282.532 C 223.247 282.225,223.306 281.973,223.495 281.973 C 223.684 281.973,223.808 281.781,223.770 281.548 C 223.732 281.314,223.875 280.699,224.089 280.180 C 224.614 278.909,225.510 274.985,225.510 273.958 C 225.510 273.502,225.683 273.129,225.894 273.129 C 226.151 273.129,226.206 272.680,226.060 271.769 C 225.933 270.973,225.978 270.408,226.170 270.408 C 226.364 270.408,226.502 268.337,226.510 265.306 C 226.519 261.958,226.401 260.204,226.166 260.204 C 225.935 260.204,225.890 259.662,226.038 258.673 C 226.180 257.727,226.138 257.143,225.928 257.143 C 225.741 257.143,225.481 256.416,225.351 255.527 C 225.014 253.228,224.087 250.000,223.764 250.000 C 223.614 250.000,223.573 249.786,223.673 249.524 C 223.774 249.263,223.699 248.951,223.507 248.833 C 223.316 248.715,223.238 248.413,223.334 248.162 C 223.430 247.912,223.266 247.465,222.970 247.169 C 222.674 246.873,221.964 245.514,221.391 244.149 C 220.818 242.784,220.158 241.514,219.924 241.327 C 219.690 241.139,219.563 240.795,219.641 240.561 C 219.720 240.327,219.542 240.136,219.246 240.136 C 218.950 240.136,218.707 239.912,218.707 239.638 C 218.707 239.364,218.397 238.973,218.018 238.770 C 217.638 238.567,217.413 238.264,217.517 238.095 C 217.621 237.927,217.391 237.620,217.005 237.414 C 216.620 237.208,216.345 236.856,216.394 236.632 C 216.512 236.096,212.417 231.973,211.766 231.973 C 211.489 231.973,211.060 231.552,210.813 231.037 C 210.567 230.523,210.137 230.102,209.859 230.102 C 209.581 230.102,209.231 229.911,209.082 229.677 C 208.932 229.443,208.588 229.252,208.316 229.252 C 208.045 229.252,207.823 229.099,207.823 228.912 C 207.823 228.724,207.649 228.571,207.435 228.571 C 207.222 228.571,206.874 228.333,206.661 228.042 C 206.307 227.559,205.630 227.306,204.507 227.237 C 204.273 227.223,204.082 226.963,204.082 226.661 C 204.082 226.279,203.874 226.165,203.401 226.289 C 203.027 226.387,202.721 226.357,202.721 226.222 C 202.721 225.907,200.474 224.830,199.818 224.830 C 199.544 224.830,199.320 224.667,199.320 224.467 C 199.320 224.259,199.030 224.196,198.639 224.320 C 198.258 224.441,197.959 224.381,197.959 224.183 C 197.959 223.989,197.730 223.919,197.449 224.027 C 197.168 224.134,196.939 224.037,196.939 223.810 C 196.939 223.582,196.709 223.485,196.429 223.592 C 196.148 223.700,195.918 223.624,195.918 223.422 C 195.918 223.221,195.694 223.143,195.419 223.248 C 195.144 223.353,194.821 223.280,194.700 223.085 C 194.580 222.890,194.200 222.803,193.855 222.893 C 193.511 222.983,193.184 222.935,193.129 222.786 C 192.763 221.807,177.938 221.464,172.789 222.316 M36.395 265.476 L 36.395 308.503 45.258 308.503 L 54.121 308.503 54.016 280.134 C 53.959 264.531,54.016 251.935,54.144 252.142 C 54.272 252.349,54.301 252.641,54.209 252.790 C 54.117 252.939,54.191 253.061,54.374 253.061 C 54.556 253.061,54.969 253.750,55.290 254.592 C 55.612 255.434,56.016 256.122,56.189 256.122 C 56.361 256.122,56.408 256.276,56.293 256.463 C 56.177 256.650,56.253 256.803,56.463 256.803 C 56.672 256.803,56.748 256.956,56.633 257.143 C 56.517 257.330,56.601 257.483,56.819 257.483 C 57.037 257.483,57.128 257.713,57.020 257.993 C 56.912 258.274,56.981 258.503,57.174 258.503 C 57.366 258.503,57.436 258.644,57.330 258.816 C 57.224 258.988,57.329 259.332,57.565 259.581 C 57.800 259.830,58.336 260.761,58.754 261.650 C 59.173 262.538,59.679 263.265,59.880 263.265 C 60.080 263.265,60.157 263.406,60.051 263.578 C 59.945 263.750,60.098 264.131,60.393 264.426 C 60.687 264.720,60.832 265.115,60.716 265.304 C 60.599 265.492,60.675 265.646,60.884 265.646 C 61.094 265.646,61.170 265.799,61.054 265.986 C 60.939 266.173,60.988 266.327,61.163 266.327 C 61.339 266.327,61.674 266.824,61.909 267.432 C 62.685 269.444,64.441 273.292,64.791 273.749 C 64.981 273.996,65.366 274.468,65.646 274.798 C 65.927 275.127,66.207 275.612,66.269 275.875 C 66.331 276.139,66.530 276.446,66.711 276.558 C 66.892 276.670,67.066 277.093,67.096 277.497 C 67.127 277.901,67.281 278.231,67.439 278.231 C 67.598 278.231,67.633 278.384,67.517 278.571 C 67.401 278.759,67.456 278.912,67.639 278.912 C 67.822 278.912,68.234 279.600,68.555 280.442 C 68.877 281.284,69.281 281.973,69.454 281.973 C 69.627 281.973,69.676 282.121,69.564 282.303 C 69.315 282.705,70.299 284.694,70.746 284.694 C 70.923 284.694,70.969 284.949,70.850 285.260 C 70.718 285.603,70.770 285.741,70.981 285.611 C 71.345 285.386,72.109 286.741,72.109 287.612 C 72.109 287.889,72.338 288.204,72.617 288.312 C 72.897 288.419,73.041 288.644,72.937 288.811 C 72.834 288.979,72.920 289.116,73.129 289.116 C 73.338 289.116,73.415 289.269,73.299 289.456 C 73.184 289.643,73.268 289.796,73.486 289.796 C 73.704 289.796,73.796 290.021,73.690 290.296 C 73.585 290.571,73.689 290.992,73.922 291.232 C 74.154 291.471,74.722 292.544,75.183 293.617 C 75.643 294.689,76.218 295.569,76.460 295.572 C 76.703 295.576,76.856 295.843,76.801 296.166 C 76.746 296.489,76.889 296.757,77.119 296.761 C 77.350 296.765,77.800 297.151,78.120 297.619 C 78.894 298.750,79.304 299.001,80.017 298.779 C 80.351 298.675,80.612 298.769,80.612 298.993 C 80.612 299.213,80.842 299.304,81.122 299.197 C 81.403 299.089,81.633 299.149,81.633 299.330 C 81.633 299.514,82.765 299.660,84.184 299.660 C 85.689 299.660,86.735 299.518,86.735 299.313 C 86.735 299.113,87.095 299.057,87.585 299.180 C 88.143 299.320,88.435 299.251,88.435 298.980 C 88.435 298.752,88.665 298.655,88.946 298.762 C 89.226 298.870,89.456 298.801,89.456 298.609 C 89.456 298.416,89.609 298.354,89.796 298.469 C 89.983 298.585,90.136 298.554,90.136 298.400 C 90.136 298.246,90.468 297.969,90.874 297.785 C 91.279 297.600,91.777 297.143,91.979 296.769 C 92.181 296.395,92.441 296.012,92.556 295.918 C 92.671 295.825,92.873 295.404,93.004 294.983 C 93.136 294.562,93.381 294.218,93.550 294.218 C 93.718 294.218,93.776 294.008,93.677 293.751 C 93.579 293.495,93.753 293.187,94.063 293.068 C 94.390 292.943,94.546 292.638,94.434 292.344 C 94.327 292.065,94.396 291.837,94.589 291.837 C 94.781 291.837,94.844 291.684,94.728 291.497 C 94.612 291.310,94.680 291.156,94.878 291.156 C 95.076 291.156,95.214 291.042,95.186 290.901 C 95.092 290.447,97.273 286.061,97.908 285.425 C 98.247 285.086,98.818 284.095,99.177 283.222 C 99.536 282.349,99.954 281.635,100.105 281.634 C 100.256 281.633,100.286 281.480,100.170 281.293 C 100.054 281.105,100.117 280.952,100.309 280.952 C 100.502 280.952,100.578 280.743,100.480 280.486 C 100.382 280.230,100.555 279.922,100.866 279.803 C 101.193 279.677,101.349 279.372,101.236 279.079 C 101.129 278.800,101.169 278.571,101.325 278.571 C 101.481 278.571,101.871 277.883,102.193 277.041 C 102.514 276.199,102.927 275.510,103.109 275.510 C 103.292 275.510,103.347 275.357,103.231 275.170 C 103.116 274.983,103.178 274.830,103.371 274.830 C 103.563 274.830,103.640 274.620,103.541 274.364 C 103.443 274.107,103.593 273.666,103.876 273.384 C 104.158 273.101,104.295 272.775,104.179 272.660 C 104.063 272.544,104.149 272.449,104.370 272.449 C 104.590 272.449,105.113 271.722,105.532 270.833 C 105.950 269.945,106.418 269.125,106.572 269.012 C 106.726 268.900,106.900 268.370,106.958 267.835 C 107.017 267.300,107.237 266.805,107.446 266.736 C 107.656 266.666,107.741 266.469,107.635 266.297 C 107.529 266.126,107.584 265.986,107.757 265.986 C 107.930 265.986,108.334 265.298,108.655 264.456 C 108.977 263.614,109.389 262.925,109.572 262.925 C 109.755 262.925,109.809 262.772,109.694 262.585 C 109.578 262.398,109.646 262.245,109.844 262.245 C 110.042 262.245,110.186 262.130,110.164 261.990 C 110.041 261.215,110.257 260.543,110.629 260.538 C 110.863 260.535,111.431 259.655,111.892 258.583 C 112.353 257.510,112.921 256.437,113.153 256.198 C 113.386 255.958,113.490 255.537,113.385 255.262 C 113.279 254.987,113.371 254.762,113.589 254.762 C 113.807 254.762,113.891 254.609,113.776 254.422 C 113.660 254.235,113.736 254.082,113.946 254.082 C 114.155 254.082,114.256 253.967,114.171 253.827 C 114.086 253.686,114.215 253.388,114.458 253.164 C 115.186 252.492,115.361 259.620,115.244 285.119 L 115.136 308.504 123.579 308.503 C 130.442 308.503,132.112 308.413,132.507 308.017 C 132.923 307.602,132.993 301.429,132.993 265.167 L 132.993 222.802 132.206 222.604 C 129.964 222.042,113.300 222.611,112.821 223.266 C 112.518 223.680,112.186 223.813,111.899 223.636 C 111.573 223.434,111.509 223.513,111.666 223.924 C 111.786 224.235,111.727 224.490,111.535 224.490 C 111.344 224.490,110.869 225.255,110.480 226.190 C 110.091 227.126,109.632 227.891,109.458 227.891 C 109.285 227.891,109.238 228.044,109.354 228.231 C 109.469 228.418,109.393 228.571,109.184 228.571 C 108.975 228.571,108.898 228.724,109.014 228.912 C 109.129 229.099,109.067 229.252,108.874 229.252 C 108.682 229.252,108.613 229.481,108.721 229.762 C 108.828 230.043,108.738 230.272,108.520 230.272 C 108.302 230.272,108.218 230.425,108.333 230.612 C 108.449 230.799,108.410 230.952,108.246 230.952 C 108.082 230.952,107.599 231.794,107.173 232.823 C 106.746 233.852,106.250 234.694,106.070 234.694 C 105.890 234.694,105.837 234.847,105.952 235.034 C 106.068 235.221,106.005 235.374,105.813 235.374 C 105.621 235.374,105.552 235.604,105.659 235.884 C 105.767 236.165,105.677 236.395,105.458 236.395 C 105.240 236.395,105.156 236.548,105.272 236.735 C 105.388 236.922,105.311 237.075,105.102 237.075 C 104.893 237.075,104.816 237.228,104.932 237.415 C 105.048 237.602,104.984 237.755,104.791 237.755 C 104.597 237.755,104.184 238.253,103.873 238.861 C 103.561 239.469,103.206 240.043,103.083 240.136 C 102.961 240.230,102.269 241.645,101.546 243.282 C 100.824 244.919,100.120 246.259,99.983 246.259 C 99.732 246.259,99.229 247.838,99.399 248.092 C 99.449 248.167,99.234 248.512,98.921 248.859 C 98.607 249.206,98.022 250.370,97.621 251.446 C 97.219 252.521,96.739 253.401,96.554 253.401 C 96.369 253.401,96.313 253.554,96.429 253.741 C 96.544 253.929,96.468 254.082,96.259 254.082 C 96.049 254.082,95.973 254.235,96.088 254.422 C 96.204 254.609,96.141 254.762,95.949 254.762 C 95.757 254.762,95.688 254.991,95.795 255.272 C 95.903 255.553,95.813 255.782,95.595 255.782 C 95.376 255.782,95.293 255.935,95.408 256.122 C 95.524 256.310,95.447 256.463,95.238 256.463 C 95.029 256.463,94.952 256.616,95.068 256.803 C 95.184 256.990,95.137 257.143,94.964 257.143 C 94.792 257.143,94.387 257.832,94.066 258.673 C 93.744 259.515,93.332 260.204,93.149 260.204 C 92.966 260.204,92.912 260.357,93.027 260.544 C 93.143 260.731,93.080 260.884,92.888 260.884 C 92.696 260.884,92.626 261.114,92.734 261.395 C 92.858 261.716,92.730 261.905,92.390 261.905 C 92.082 261.905,91.752 262.307,91.624 262.840 C 91.499 263.355,91.075 264.235,90.682 264.796 C 89.644 266.276,88.405 269.063,88.626 269.421 C 88.730 269.590,88.672 269.728,88.497 269.728 C 88.321 269.728,87.988 270.187,87.755 270.748 C 87.523 271.310,87.214 271.769,87.070 271.769 C 86.926 271.769,86.716 272.006,86.605 272.297 C 86.489 272.599,86.546 272.736,86.739 272.617 C 86.924 272.502,87.075 272.571,87.075 272.769 C 87.075 272.967,86.913 273.129,86.715 273.129 C 86.517 273.129,86.449 273.282,86.565 273.469 C 86.680 273.656,86.618 273.810,86.425 273.810 C 86.233 273.810,86.156 274.019,86.255 274.276 C 86.353 274.532,86.215 274.826,85.947 274.929 C 85.679 275.032,85.357 275.664,85.232 276.333 C 85.106 277.003,84.923 277.551,84.824 277.551 C 84.535 277.551,83.673 276.605,83.673 276.287 C 83.673 276.126,83.367 275.394,82.993 274.660 C 82.619 273.926,82.313 273.150,82.313 272.934 C 82.313 272.309,77.533 262.925,77.215 262.925 C 77.057 262.925,76.664 262.236,76.342 261.395 C 76.021 260.553,75.617 259.864,75.444 259.864 C 75.271 259.864,75.225 259.711,75.340 259.524 C 75.456 259.337,75.372 259.184,75.154 259.184 C 74.936 259.184,74.845 258.954,74.953 258.673 C 75.061 258.393,74.991 258.163,74.799 258.163 C 74.607 258.163,74.544 258.010,74.660 257.823 C 74.775 257.636,74.699 257.483,74.490 257.483 C 74.281 257.483,74.204 257.330,74.320 257.143 C 74.435 256.956,74.381 256.803,74.198 256.803 C 74.015 256.803,73.603 256.114,73.281 255.272 C 72.960 254.430,72.555 253.741,72.383 253.741 C 72.210 253.741,72.163 253.588,72.279 253.401 C 72.395 253.214,72.318 253.061,72.109 253.061 C 71.900 253.061,71.817 252.919,71.924 252.745 C 72.032 252.570,71.962 252.330,71.769 252.211 C 71.576 252.091,71.506 251.851,71.613 251.677 C 71.721 251.503,71.638 251.361,71.429 251.361 C 71.219 251.361,71.143 251.207,71.259 251.020 C 71.374 250.833,71.325 250.680,71.150 250.680 C 70.974 250.680,70.639 250.183,70.406 249.575 C 69.602 247.485,64.862 237.925,64.574 237.812 C 64.415 237.749,64.286 237.547,64.286 237.362 C 64.286 237.177,64.056 236.797,63.776 236.516 C 63.495 236.235,63.265 235.706,63.265 235.339 C 63.265 234.973,63.037 234.585,62.757 234.477 C 62.478 234.370,62.333 234.145,62.437 233.978 C 62.540 233.810,62.454 233.673,62.245 233.673 C 62.036 233.673,61.953 233.531,62.060 233.357 C 62.168 233.183,62.098 232.943,61.905 232.823 C 61.712 232.704,61.642 232.464,61.749 232.289 C 61.857 232.115,61.774 231.973,61.565 231.973 C 61.355 231.973,61.279 231.820,61.395 231.633 C 61.510 231.446,61.455 231.293,61.273 231.293 C 61.090 231.293,60.678 230.604,60.356 229.762 C 60.035 228.920,59.630 228.231,59.458 228.231 C 59.285 228.231,59.238 228.078,59.354 227.891 C 59.469 227.704,59.393 227.551,59.184 227.551 C 58.975 227.551,58.891 227.409,58.999 227.234 C 59.107 227.060,59.037 226.820,58.844 226.701 C 58.650 226.581,58.580 226.341,58.688 226.167 C 58.796 225.993,58.713 225.850,58.503 225.850 C 58.294 225.850,58.218 225.697,58.333 225.510 C 58.449 225.323,58.381 225.170,58.183 225.170 C 57.985 225.170,57.823 224.964,57.823 224.713 C 57.823 224.148,56.657 223.049,56.366 223.339 C 56.250 223.455,55.907 223.303,55.604 223.000 C 55.123 222.519,53.868 222.449,45.724 222.449 L 36.395 222.449 36.395 265.476 M223.810 230.417 L 223.810 238.385 235.256 238.422 C 241.551 238.443,246.832 238.540,246.991 238.637 C 247.334 238.850,247.385 305.903,247.042 306.246 C 246.607 306.681,246.640 307.573,247.108 308.041 C 247.853 308.786,266.513 308.714,266.800 307.965 C 266.914 307.669,267.007 291.866,267.007 272.846 L 267.007 238.265 278.401 238.334 L 289.796 238.402 289.796 230.426 L 289.796 222.449 256.803 222.449 L 223.810 222.449 223.810 230.417 M298.639 230.429 L 298.639 238.409 309.779 238.414 C 315.906 238.417,321.188 238.423,321.518 238.428 C 322.088 238.435,322.114 240.195,322.029 273.474 L 321.939 308.513 331.973 308.423 L 342.007 308.333 342.007 273.299 L 342.007 238.265 353.231 238.363 C 359.405 238.416,364.800 238.375,365.221 238.271 L 365.986 238.082 365.986 230.266 L 365.986 222.449 332.313 222.449 L 298.639 222.449 298.639 230.429 M186.735 238.563 C 186.735 238.727,187.194 238.769,187.755 238.656 C 188.390 238.529,188.776 238.593,188.776 238.824 C 188.776 239.028,189.074 239.117,189.439 239.021 C 189.805 238.926,190.149 238.946,190.205 239.067 C 190.349 239.379,192.791 240.476,193.342 240.476 C 193.597 240.476,193.897 240.715,194.009 241.008 C 194.121 241.300,194.367 241.444,194.555 241.328 C 194.744 241.212,194.898 241.274,194.898 241.466 C 194.898 241.658,195.128 241.727,195.408 241.620 C 195.738 241.493,195.918 241.627,195.918 241.999 C 195.918 242.315,196.108 242.510,196.340 242.433 C 196.572 242.356,197.268 242.955,197.886 243.765 C 198.505 244.575,199.215 245.238,199.464 245.238 C 199.713 245.238,200.108 245.697,200.340 246.259 C 200.573 246.820,200.897 247.279,201.062 247.279 C 201.226 247.279,201.361 247.509,201.361 247.789 C 201.361 248.070,201.667 248.605,202.041 248.980 C 202.415 249.354,202.606 249.662,202.466 249.665 C 202.326 249.668,202.388 249.783,202.604 249.921 C 203.052 250.205,204.762 254.898,204.762 255.842 C 204.762 256.183,204.905 256.463,205.081 256.463 C 205.256 256.463,205.312 256.998,205.206 257.653 C 205.100 258.308,205.155 258.844,205.329 258.844 C 205.503 258.844,205.583 259.379,205.507 260.034 C 205.430 260.689,205.504 261.224,205.670 261.224 C 205.836 261.224,205.967 262.985,205.962 265.136 C 205.957 267.287,205.817 269.048,205.652 269.048 C 205.488 269.048,205.435 269.660,205.535 270.408 C 205.636 271.157,205.565 271.863,205.378 271.979 C 205.191 272.094,205.108 272.553,205.193 272.999 C 205.278 273.445,205.233 273.810,205.093 273.810 C 204.952 273.810,204.732 274.384,204.603 275.085 C 204.268 276.911,203.365 279.592,203.085 279.592 C 202.734 279.592,201.660 281.972,201.863 282.301 C 201.959 282.455,201.808 282.670,201.529 282.777 C 201.249 282.884,201.020 283.196,201.020 283.470 C 201.020 283.744,200.722 284.062,200.357 284.178 C 199.993 284.294,199.767 284.576,199.854 284.805 C 200.004 285.195,197.428 288.026,197.092 287.840 C 196.657 287.599,196.259 287.816,196.259 288.294 C 196.259 288.590,196.077 288.772,195.855 288.698 C 195.632 288.624,195.184 288.802,194.859 289.094 C 193.909 289.947,193.375 290.298,192.847 290.418 C 192.576 290.480,192.263 290.677,192.153 290.855 C 192.043 291.034,191.697 291.081,191.384 290.962 C 191.071 290.841,190.816 290.907,190.816 291.109 C 190.816 291.311,190.587 291.387,190.306 291.279 C 190.026 291.172,189.796 291.263,189.796 291.483 C 189.796 291.736,189.530 291.798,189.073 291.653 C 188.619 291.509,188.245 291.595,188.065 291.885 C 187.645 292.565,176.635 292.556,176.215 291.876 C 176.022 291.563,175.625 291.480,175.037 291.627 C 174.474 291.768,174.150 291.710,174.150 291.467 C 174.150 291.256,173.920 291.172,173.639 291.279 C 173.359 291.387,173.129 291.317,173.129 291.123 C 173.129 290.925,172.830 290.865,172.449 290.986 C 172.044 291.115,171.769 291.048,171.769 290.819 C 171.769 290.608,171.616 290.531,171.429 290.646 C 171.241 290.762,171.088 290.685,171.088 290.476 C 171.088 290.267,170.935 290.191,170.748 290.306 C 170.561 290.422,170.408 290.357,170.408 290.163 C 170.408 289.968,170.026 289.713,169.558 289.595 C 169.090 289.478,168.707 289.160,168.707 288.889 C 168.707 288.617,168.544 288.496,168.345 288.619 C 168.145 288.743,167.801 288.613,167.579 288.332 C 167.358 288.050,166.414 287.170,165.483 286.377 C 163.779 284.926,163.285 284.293,162.514 282.568 C 162.284 282.054,161.906 281.633,161.674 281.633 C 161.442 281.633,161.066 280.982,160.838 280.187 C 160.611 279.392,160.317 278.588,160.184 278.401 C 160.051 278.214,159.836 277.564,159.706 276.956 C 159.576 276.348,159.320 275.850,159.137 275.850 C 158.953 275.850,158.903 275.690,159.024 275.494 C 159.145 275.298,159.131 274.877,158.993 274.559 C 158.855 274.240,158.776 273.635,158.817 273.214 C 158.859 272.793,158.731 272.449,158.534 272.449 C 158.306 272.449,158.252 271.896,158.386 270.918 C 158.528 269.879,158.472 269.388,158.209 269.388 C 157.942 269.388,157.823 268.083,157.823 265.136 C 157.823 262.327,157.947 260.884,158.189 260.884 C 158.391 260.884,158.523 260.387,158.482 259.779 C 158.442 259.171,158.523 258.406,158.663 258.078 C 158.802 257.751,158.828 257.253,158.721 256.973 C 158.613 256.692,158.691 256.463,158.894 256.463 C 159.097 256.463,159.183 256.157,159.085 255.783 C 158.987 255.409,159.057 255.011,159.239 254.898 C 159.421 254.785,159.488 254.479,159.388 254.217 C 159.287 253.956,159.335 253.741,159.494 253.741 C 159.653 253.741,159.954 253.064,160.162 252.237 C 160.370 251.409,160.764 250.509,161.037 250.236 C 161.309 249.964,161.437 249.646,161.322 249.530 C 161.206 249.414,161.299 249.320,161.528 249.320 C 161.757 249.320,161.850 249.166,161.733 248.977 C 161.617 248.789,161.770 248.539,162.073 248.423 C 162.376 248.307,162.544 248.002,162.445 247.745 C 162.344 247.481,162.482 247.279,162.766 247.279 C 163.041 247.279,163.265 246.988,163.265 246.632 C 163.265 246.258,163.750 245.700,164.416 245.307 C 165.049 244.933,165.847 244.153,166.190 243.572 C 166.533 242.992,167.086 242.517,167.420 242.517 C 167.754 242.517,168.027 242.278,168.027 241.987 C 168.027 241.695,168.190 241.557,168.390 241.681 C 168.589 241.804,168.967 241.622,169.230 241.276 C 169.492 240.929,169.711 240.772,169.717 240.926 C 169.723 241.079,169.968 240.965,170.262 240.671 C 170.556 240.377,171.083 240.136,171.433 240.136 C 171.783 240.136,172.163 239.983,172.279 239.796 C 172.395 239.609,172.786 239.456,173.149 239.456 C 173.512 239.456,173.810 239.317,173.810 239.147 C 173.810 238.978,174.116 238.919,174.490 239.017 C 174.864 239.115,175.170 239.028,175.170 238.824 C 175.170 238.593,175.555 238.529,176.190 238.656 C 176.752 238.769,177.211 238.727,177.211 238.563 C 177.211 238.399,179.354 238.265,181.973 238.265 C 184.592 238.265,186.735 238.399,186.735 238.563 " stroke="none" fill="#848484" fill-rule="evenodd"></path><path id="path1" d="M283.411 28.635 C 283.581 29.143,284.354 29.423,284.354 28.976 C 284.354 28.794,284.111 28.551,283.815 28.438 C 283.484 28.310,283.328 28.386,283.411 28.635 M196.599 34.034 C 196.599 34.232,196.739 34.307,196.910 34.202 C 197.081 34.096,197.289 34.202,197.373 34.437 C 197.457 34.672,197.657 34.741,197.818 34.590 C 197.978 34.440,197.884 34.174,197.609 34.000 C 196.947 33.581,196.599 33.593,196.599 34.034 M267.007 54.357 C 267.007 54.540,267.249 54.782,267.545 54.896 C 267.877 55.023,268.032 54.947,267.949 54.698 C 267.780 54.190,267.007 53.910,267.007 54.357 M270.748 58.439 C 270.748 58.621,270.991 58.864,271.287 58.977 C 271.618 59.105,271.774 59.029,271.691 58.780 C 271.521 58.272,270.748 57.992,270.748 58.439 M245.917 69.216 C 246.356 69.683,246.790 69.990,246.881 69.899 C 247.107 69.673,245.901 68.367,245.466 68.367 C 245.276 68.367,245.478 68.749,245.917 69.216 M254.968 79.053 C 255.082 79.349,255.324 79.592,255.507 79.592 C 255.954 79.592,255.674 78.819,255.166 78.649 C 254.917 78.566,254.841 78.722,254.968 79.053 M215.172 80.074 C 215.286 80.370,215.528 80.612,215.711 80.612 C 216.158 80.612,215.878 79.839,215.370 79.670 C 215.121 79.587,215.045 79.742,215.172 80.074 M218.027 82.483 C 218.260 82.764,218.604 82.993,218.791 82.993 C 218.981 82.993,218.944 82.768,218.707 82.483 C 218.475 82.202,218.131 81.973,217.944 81.973 C 217.754 81.973,217.791 82.198,218.027 82.483 M174.830 82.954 C 174.830 83.119,175.136 83.334,175.510 83.432 C 176.313 83.642,176.433 83.159,175.652 82.860 C 174.938 82.586,174.830 82.598,174.830 82.954 M222.789 86.584 C 222.789 86.771,223.784 87.910,225.000 89.116 C 226.216 90.321,227.211 91.154,227.211 90.967 C 227.211 90.780,226.216 89.641,225.000 88.435 C 223.784 87.230,222.789 86.397,222.789 86.584 M204.082 103.571 C 204.315 103.852,204.658 104.082,204.845 104.082 C 205.035 104.082,204.998 103.856,204.762 103.571 C 204.529 103.291,204.185 103.061,203.998 103.061 C 203.809 103.061,203.845 103.287,204.082 103.571 M157.355 106.054 C 157.216 106.279,157.176 106.463,157.265 106.463 C 157.354 106.463,157.669 106.555,157.965 106.669 C 158.266 106.785,158.503 106.701,158.503 106.479 C 158.503 106.261,158.363 106.169,158.192 106.275 C 158.021 106.380,157.820 106.282,157.744 106.056 C 157.638 105.737,157.551 105.737,157.355 106.054 M210.716 110.206 C 211.056 110.581,211.407 110.815,211.498 110.725 C 211.726 110.496,210.878 109.524,210.450 109.524 C 210.257 109.524,210.377 109.831,210.716 110.206 M183.082 123.364 C 183.399 123.680,183.753 123.844,183.869 123.727 C 184.204 123.392,183.690 122.789,183.070 122.789 C 182.551 122.789,182.552 122.834,183.082 123.364 M189.534 129.656 C 189.608 129.878,189.850 130.120,190.073 130.194 C 190.321 130.277,190.397 130.122,190.270 129.790 C 190.033 129.172,189.330 129.043,189.534 129.656 M206.122 154.276 C 206.122 154.383,206.352 154.700,206.633 154.981 C 207.186 155.534,207.256 155.452,206.936 154.620 C 206.742 154.114,206.122 153.852,206.122 154.276 M215.306 186.565 C 215.306 186.845,215.459 187.075,215.646 187.075 C 215.833 187.075,215.986 186.845,215.986 186.565 C 215.986 186.284,215.833 186.054,215.646 186.054 C 215.459 186.054,215.306 186.284,215.306 186.565 M215.646 190.986 C 215.646 191.267,215.799 191.497,215.986 191.497 C 216.173 191.497,216.327 191.267,216.327 190.986 C 216.327 190.706,216.173 190.476,215.986 190.476 C 215.799 190.476,215.646 190.706,215.646 190.986 M244.898 192.007 C 244.898 192.474,245.051 192.857,245.238 192.857 C 245.425 192.857,245.578 192.474,245.578 192.007 C 245.578 191.539,245.425 191.156,245.238 191.156 C 245.051 191.156,244.898 191.539,244.898 192.007 M269.728 193.197 C 269.728 193.946,269.880 194.558,270.066 194.558 C 270.251 194.558,270.379 193.946,270.350 193.197 C 270.321 192.449,270.169 191.837,270.012 191.837 C 269.856 191.837,269.728 192.449,269.728 193.197 M123.810 196.259 C 123.810 196.483,135.267 196.599,157.503 196.599 C 179.879 196.599,191.126 196.484,190.986 196.259 C 190.849 196.035,179.248 195.918,157.293 195.918 C 135.197 195.918,123.810 196.034,123.810 196.259 M216.327 196.259 C 216.327 196.480,221.315 196.599,230.612 196.599 C 239.909 196.599,244.898 196.480,244.898 196.259 C 244.898 196.037,239.909 195.918,230.612 195.918 C 221.315 195.918,216.327 196.037,216.327 196.259 M270.578 196.259 C 270.443 196.478,271.822 196.599,274.470 196.599 C 276.977 196.599,278.571 196.466,278.571 196.259 C 278.571 196.052,277.048 195.918,274.680 195.918 C 272.453 195.918,270.699 196.064,270.578 196.259 M178.571 221.429 C 178.571 221.616,178.801 221.769,179.082 221.769 C 179.362 221.769,179.592 221.616,179.592 221.429 C 179.592 221.241,179.362 221.088,179.082 221.088 C 178.801 221.088,178.571 221.241,178.571 221.429 M184.184 221.429 C 184.068 221.616,184.289 221.769,184.674 221.769 C 185.059 221.769,185.374 221.616,185.374 221.429 C 185.374 221.241,185.154 221.088,184.884 221.088 C 184.614 221.088,184.299 221.241,184.184 221.429 M149.770 233.418 C 148.506 234.822,148.490 235.216,149.738 234.184 C 150.416 233.622,150.982 233.048,150.996 232.908 C 151.043 232.415,150.451 232.661,149.770 233.418 M299.150 238.435 C 299.034 238.622,299.264 238.776,299.660 238.776 C 300.056 238.776,300.286 238.622,300.170 238.435 C 300.054 238.248,299.825 238.095,299.660 238.095 C 299.495 238.095,299.265 238.248,299.150 238.435 M321.429 273.299 C 321.429 296.088,321.544 307.823,321.769 307.823 C 321.993 307.823,322.109 296.088,322.109 273.299 C 322.109 250.510,321.993 238.776,321.769 238.776 C 321.544 238.776,321.429 250.510,321.429 273.299 M70.068 248.737 C 70.068 249.222,70.880 250.680,71.151 250.680 C 71.312 250.680,71.181 250.259,70.859 249.745 C 70.095 248.524,70.068 248.489,70.068 248.737 M225.510 256.633 C 225.510 256.913,225.663 257.143,225.850 257.143 C 226.037 257.143,226.190 256.913,226.190 256.633 C 226.190 256.352,226.037 256.122,225.850 256.122 C 225.663 256.122,225.510 256.352,225.510 256.633 M114.626 282.503 C 114.626 299.135,114.742 307.792,114.962 307.655 C 115.416 307.375,115.406 257.143,114.952 257.143 C 114.747 257.143,114.626 266.533,114.626 282.503 M157.823 262.075 C 157.823 262.355,157.976 262.585,158.163 262.585 C 158.350 262.585,158.503 262.355,158.503 262.075 C 158.503 261.794,158.350 261.565,158.163 261.565 C 157.976 261.565,157.823 261.794,157.823 262.075 M205.442 262.945 C 205.442 263.330,205.595 263.551,205.782 263.435 C 205.969 263.320,206.122 263.005,206.122 262.735 C 206.122 262.465,205.969 262.245,205.782 262.245 C 205.595 262.245,205.442 262.560,205.442 262.945 M137.075 265.306 C 137.075 266.491,137.180 267.355,137.310 267.226 C 137.551 266.985,137.468 263.548,137.216 263.294 C 137.138 263.216,137.075 264.121,137.075 265.306 M107.588 266.495 C 107.366 266.736,107.277 267.027,107.390 267.141 C 107.504 267.254,107.418 267.347,107.200 267.347 C 106.981 267.347,106.803 267.500,106.803 267.687 C 106.803 268.344,107.378 268.018,107.781 267.133 C 108.249 266.107,108.174 265.859,107.588 266.495 M205.442 267.857 C 205.442 268.138,205.595 268.367,205.782 268.367 C 205.969 268.367,206.122 268.138,206.122 267.857 C 206.122 267.577,205.969 267.347,205.782 267.347 C 205.595 267.347,205.442 267.577,205.442 267.857 M157.823 268.537 C 157.823 268.818,157.976 269.048,158.163 269.048 C 158.350 269.048,158.503 268.818,158.503 268.537 C 158.503 268.257,158.350 268.027,158.163 268.027 C 157.976 268.027,157.823 268.257,157.823 268.537 M158.163 271.939 C 158.163 272.219,158.316 272.449,158.503 272.449 C 158.690 272.449,158.844 272.219,158.844 271.939 C 158.844 271.658,158.690 271.429,158.503 271.429 C 158.316 271.429,158.163 271.658,158.163 271.939 M67.347 279.252 C 67.347 279.439,67.490 279.592,67.664 279.592 C 67.839 279.592,68.082 279.909,68.205 280.298 C 68.329 280.686,68.498 280.935,68.581 280.852 C 68.805 280.628,67.966 278.912,67.632 278.912 C 67.475 278.912,67.347 279.065,67.347 279.252 M198.322 286.097 C 197.638 287.021,197.626 287.095,198.211 286.782 C 199.120 286.295,199.753 285.472,199.390 285.248 C 199.224 285.145,198.743 285.527,198.322 286.097 M160.366 304.632 C 160.669 304.935,161.020 305.080,161.146 304.954 C 161.272 304.828,161.150 304.583,160.875 304.408 C 160.071 303.900,159.768 304.034,160.366 304.632 M215.520 306.964 C 215.618 307.220,215.909 307.511,216.165 307.609 C 216.460 307.722,216.566 307.616,216.453 307.322 C 216.355 307.065,216.064 306.775,215.807 306.676 C 215.513 306.563,215.407 306.669,215.520 306.964 M192.517 308.491 C 192.517 308.672,192.823 308.983,193.197 309.184 C 193.946 309.585,194.111 309.213,193.469 308.571 C 192.978 308.080,192.517 308.041,192.517 308.491 M180.442 309.184 C 180.314 309.391,180.835 309.524,181.783 309.524 C 182.636 309.524,183.333 309.371,183.333 309.184 C 183.333 308.997,182.730 308.844,181.993 308.844 C 181.256 308.844,180.558 308.997,180.442 309.184 " stroke="none" fill="#ba90bb" fill-rule="evenodd"></path><path id="path2" d="M234.418 26.552 C 234.499 26.797,234.767 27.065,235.013 27.147 C 235.268 27.232,235.395 27.105,235.310 26.849 C 235.229 26.604,234.961 26.336,234.715 26.254 C 234.460 26.169,234.332 26.297,234.418 26.552 M203.741 37.690 C 203.741 37.873,203.984 38.115,204.280 38.229 C 204.611 38.356,204.767 38.280,204.684 38.032 C 204.515 37.523,203.741 37.243,203.741 37.690 M255.102 42.505 C 255.102 42.686,255.446 43.014,255.867 43.235 C 256.629 43.634,256.629 43.632,255.985 42.907 C 255.265 42.096,255.102 42.022,255.102 42.505 M116.327 43.197 C 116.327 43.591,117.478 43.591,118.707 43.197 C 119.401 42.975,119.259 42.919,117.942 42.891 C 117.054 42.872,116.327 43.010,116.327 43.197 M258.514 45.493 C 258.520 45.634,258.941 46.042,259.449 46.401 L 260.374 47.054 259.550 46.146 C 258.683 45.192,258.497 45.074,258.514 45.493 M188.581 61.742 C 188.941 62.015,189.319 62.155,189.421 62.053 C 189.635 61.839,188.771 61.232,188.265 61.241 C 188.078 61.244,188.220 61.469,188.581 61.742 M239.651 63.562 C 240.011 63.912,240.444 64.118,240.613 64.020 C 240.781 63.922,240.637 63.636,240.293 63.383 C 239.359 62.701,238.898 62.829,239.651 63.562 M116.590 69.102 C 116.330 69.267,116.735 69.379,117.602 69.383 C 118.397 69.385,119.048 69.329,119.048 69.256 C 119.048 68.972,116.997 68.844,116.590 69.102 M118.027 96.731 C 118.027 96.805,118.563 96.927,119.218 97.003 C 119.872 97.080,120.408 97.020,120.408 96.870 C 120.408 96.721,119.872 96.599,119.218 96.599 C 118.563 96.599,118.027 96.658,118.027 96.731 M206.463 105.663 C 206.463 105.842,206.998 106.508,207.653 107.143 C 208.308 107.777,208.844 108.183,208.844 108.043 C 208.844 107.904,208.308 107.238,207.653 106.564 C 206.998 105.889,206.463 105.484,206.463 105.663 M280.298 117.439 C 280.531 117.949,280.850 118.367,281.007 118.367 C 281.508 118.367,281.315 117.813,280.584 117.151 C 279.877 116.511,279.876 116.512,280.298 117.439 M253.741 128.870 C 253.741 129.034,253.971 129.359,254.252 129.592 C 254.806 130.051,254.875 129.942,254.555 129.109 C 254.337 128.540,253.741 128.365,253.741 128.870 M229.488 136.375 C 229.589 136.760,229.806 137.075,229.972 137.075 C 230.430 137.075,230.330 136.526,229.789 136.077 C 229.392 135.747,229.338 135.801,229.488 136.375 M174.228 150.064 C 174.302 150.286,174.544 150.528,174.766 150.602 C 175.015 150.685,175.091 150.530,174.964 150.198 C 174.727 149.580,174.024 149.452,174.228 150.064 M183.913 164.854 C 183.669 165.248,184.237 166.216,184.536 165.917 C 184.657 165.796,184.610 165.437,184.432 165.118 C 184.254 164.799,184.020 164.680,183.913 164.854 M269.728 190.966 C 269.728 191.445,269.881 191.837,270.068 191.837 C 270.255 191.837,270.408 191.540,270.408 191.177 C 270.408 190.813,270.255 190.422,270.068 190.306 C 269.875 190.187,269.728 190.473,269.728 190.966 M244.898 194.558 C 244.898 194.932,245.051 195.238,245.238 195.238 C 245.425 195.238,245.578 194.932,245.578 194.558 C 245.578 194.184,245.425 193.878,245.238 193.878 C 245.051 193.878,244.898 194.184,244.898 194.558 M179.815 221.514 C 179.902 221.654,180.872 221.769,181.973 221.769 C 183.073 221.769,184.044 221.654,184.131 221.514 C 184.218 221.373,183.247 221.259,181.974 221.259 C 180.700 221.259,179.729 221.373,179.815 221.514 M105.164 236.128 C 104.665 236.628,104.645 237.075,105.122 237.075 C 105.320 237.075,105.396 236.935,105.290 236.764 C 105.184 236.593,105.290 236.384,105.525 236.300 C 105.760 236.216,105.866 236.053,105.760 235.937 C 105.654 235.821,105.386 235.907,105.164 236.128 M246.599 272.449 C 246.599 295.065,246.713 306.432,246.939 306.293 C 247.162 306.155,247.279 294.504,247.279 272.449 C 247.279 250.394,247.162 238.743,246.939 238.605 C 246.713 238.466,246.599 249.833,246.599 272.449 M110.106 261.224 C 110.008 261.599,110.049 261.905,110.196 261.905 C 110.344 261.905,110.545 261.599,110.643 261.224 C 110.741 260.850,110.700 260.544,110.552 260.544 C 110.404 260.544,110.203 260.850,110.106 261.224 M59.524 263.568 C 59.524 263.957,60.858 265.568,60.873 265.197 C 60.879 265.043,60.653 264.686,60.371 264.404 C 60.089 264.122,59.945 263.750,60.051 263.578 C 60.157 263.406,60.082 263.265,59.884 263.265 C 59.686 263.265,59.524 263.401,59.524 263.568 M137.517 264.966 C 137.517 265.995,137.581 266.416,137.659 265.901 C 137.737 265.387,137.737 264.545,137.659 264.031 C 137.581 263.516,137.517 263.937,137.517 264.966 M103.608 273.667 C 103.334 274.381,103.346 274.490,103.702 274.490 C 103.867 274.490,104.082 274.184,104.180 273.810 C 104.390 273.006,103.908 272.886,103.608 273.667 M66.102 276.197 C 66.225 276.474,66.421 276.969,66.536 277.296 C 66.652 277.623,66.876 277.891,67.036 277.891 C 67.418 277.891,67.006 276.834,66.376 276.197 C 65.935 275.751,65.903 275.751,66.102 276.197 M96.987 286.595 C 96.680 287.268,96.680 287.445,96.985 287.343 C 97.453 287.187,98.066 285.714,97.663 285.714 C 97.512 285.714,97.207 286.111,96.987 286.595 M210.449 301.240 C 210.327 301.436,210.720 302.041,211.320 302.584 C 212.196 303.376,212.270 303.403,211.692 302.721 C 211.295 302.253,210.903 301.649,210.820 301.377 C 210.726 301.069,210.586 301.018,210.449 301.240 M222.927 315.257 C 223.647 316.067,223.810 316.141,223.810 315.658 C 223.810 315.478,223.465 315.149,223.044 314.928 C 222.283 314.529,222.282 314.531,222.927 315.257 " stroke="none" fill="#a06f9e" fill-rule="evenodd"></path><path id="path3" d="" stroke="none" fill="#a162a2" fill-rule="evenodd"></path><path id="path4" d="M179.800 221.367 C 179.705 221.520,180.079 221.579,180.630 221.498 C 181.182 221.418,181.633 221.292,181.633 221.220 C 181.633 220.961,179.968 221.094,179.800 221.367 " stroke="none" fill="#ae69ac" fill-rule="evenodd"></path></g></svg>