<?xml version="1.0" encoding="UTF-8"?>
<svg id="Layer_2" data-name="Layer 2" xmlns="http://www.w3.org/2000/svg" width="84.322" height="23.094" viewBox="0 0 84.322 23.094">
  <defs>
    <style>
      .cls-1 {
        fill: #55ffdf;
      }

      .cls-1, .cls-2 {
        fill-rule: evenodd;
      }

      .cls-2 {
        fill: #375454;
      }
    </style>
  </defs>
  <g id="Layer_1-2" data-name="Layer 1">
    <g>
      <polygon class="cls-2" points="67.096 .117 67.096 10.117 63.442 10.117 63.442 .117 67.096 .117 67.096 .117"/>
      <polygon class="cls-2" points="58.633 .176 58.633 10.175 54.98 10.175 54.98 .176 58.633 .176 58.633 .176"/>
      <polygon class="cls-2" points="50.17 .235 50.17 10.234 46.517 10.234 46.517 .235 50.17 .235 50.17 .235"/>
      <polygon class="cls-1" points="75.558 12.918 75.558 22.918 71.904 22.918 71.904 12.918 75.558 12.918 75.558 12.918"/>
      <polygon class="cls-1" points="67.095 12.977 67.095 22.976 63.442 22.976 63.442 12.977 67.095 12.977 67.095 12.977"/>
      <polygon class="cls-1" points="58.633 13.036 58.633 23.035 54.98 23.035 54.98 13.036 58.633 13.036 58.633 13.036"/>
      <polygon class="cls-1" points="50.17 13.094 50.17 23.094 46.517 23.094 46.517 13.094 50.17 13.094 50.17 13.094"/>
      <polygon class="cls-2" points="62.876 .147 62.876 10.146 59.223 10.146 59.223 .147 62.876 .147 62.876 .147"/>
      <polygon class="cls-2" points="54.413 .205 54.413 10.205 50.76 10.205 50.76 .205 54.413 .205 54.413 .205"/>
      <polygon class="cls-2" points="45.951 .193 45.951 10.193 42.298 10.193 42.298 .193 45.951 .193 45.951 .193"/>
      <polygon class="cls-1" points="71.338 12.947 71.338 22.947 67.684 22.947 67.684 12.947 71.338 12.947 71.338 12.947"/>
      <polygon class="cls-1" points="62.875 13.006 62.875 23.006 59.222 23.006 59.222 13.006 62.875 13.006 62.875 13.006"/>
      <polygon class="cls-1" points="54.413 13.065 54.413 23.064 50.76 23.064 50.76 13.065 54.413 13.065 54.413 13.065"/>
      <polygon class="cls-1" points="45.95 13.052 45.95 23.052 42.297 23.052 42.297 13.052 45.95 13.052 45.95 13.052"/>
      <polygon class="cls-2" points="41.724 0 41.724 9.999 38.07 9.999 38.07 0 41.724 0 41.724 0"/>
      <polygon class="cls-1" points="41.723 12.859 41.723 22.859 38.07 22.859 38.07 12.859 41.723 12.859 41.723 12.859"/>
      <polygon class="cls-2" points="37.504 .029 37.504 10.029 33.851 10.029 33.851 .029 37.504 .029 37.504 .029"/>
      <polygon class="cls-1" points="37.503 12.889 37.503 22.888 33.85 22.888 33.85 12.889 37.503 12.889 37.503 12.889"/>
      <polygon class="cls-2" points="33.261 .059 33.261 10.058 29.608 10.058 29.608 .059 33.261 .059 33.261 .059"/>
      <polygon class="cls-2" points="24.798 .117 24.798 10.117 21.146 10.117 21.146 .117 24.798 .117 24.798 .117"/>
      <polygon class="cls-2" points="16.336 .176 16.336 10.175 12.683 10.175 12.683 .176 16.336 .176 16.336 .176"/>
      <polygon class="cls-1" points="7.873 .235 7.873 10.234 4.22 10.234 4.22 .235 7.873 .235 7.873 .235"/>
      <polygon class="cls-1" points="33.261 12.918 33.261 22.918 29.607 22.918 29.607 12.918 33.261 12.918 33.261 12.918"/>
      <polygon class="cls-1" points="24.798 12.977 24.798 22.976 21.145 22.976 21.145 12.977 24.798 12.977 24.798 12.977"/>
      <polygon class="cls-1" points="16.336 13.036 16.336 23.035 12.682 23.035 12.682 13.036 16.336 13.036 16.336 13.036"/>
      <polygon class="cls-1" points="7.873 13.094 7.873 23.094 4.22 23.094 4.22 13.094 7.873 13.094 7.873 13.094"/>
      <polygon class="cls-2" points="29.041 .088 29.041 10.088 25.388 10.088 25.388 .088 29.041 .088 29.041 .088"/>
      <polygon class="cls-2" points="20.579 .147 20.579 10.146 16.926 10.146 16.926 .147 20.579 .147 20.579 .147"/>
      <polygon class="cls-1" points="12.116 .205 12.116 10.205 8.463 10.205 8.463 .205 12.116 .205 12.116 .205"/>
      <polygon class="cls-1" points="3.654 .193 3.654 10.193 0 10.193 0 .193 3.654 .193 3.654 .193"/>
      <polygon class="cls-1" points="29.041 12.947 29.041 22.947 25.388 22.947 25.388 12.947 29.041 12.947 29.041 12.947"/>
      <polygon class="cls-1" points="20.578 13.006 20.578 23.006 16.925 23.006 16.925 13.006 20.578 13.006 20.578 13.006"/>
      <polygon class="cls-1" points="12.116 13.065 12.116 23.064 8.463 23.064 8.463 13.065 12.116 13.065 12.116 13.065"/>
      <polygon class="cls-1" points="3.653 13.052 3.653 23.052 0 23.052 0 13.052 3.653 13.052 3.653 13.052"/>
      <polygon class="cls-2" points="84.322 12.931 84.322 22.931 80.669 22.931 80.669 12.931 84.322 12.931 84.322 12.931"/>
      <polygon class="cls-1" points="79.949 12.915 79.949 22.914 76.296 22.914 76.296 12.915 79.949 12.915 79.949 12.915"/>
    </g>
  </g>
</svg>