<svg id="svg" version="1.1" xmlns="http://www.w3.org/2000/svg" xmlns:xlink="http://www.w3.org/1999/xlink" width="400" height="435.2941176470588" viewBox="0, 0, 400,435.2941176470588"><g id="svgg"><path id="path0" d="M209.200 1.556 L 209.200 3.112 206.436 3.056 C 203.050 2.987,203.000 3.035,203.000 6.325 L 203.000 8.983 200.200 8.991 L 197.400 9.000 197.352 11.400 C 197.325 12.720,197.280 14.092,197.252 14.449 C 197.209 14.987,196.708 15.089,194.300 15.049 L 191.400 15.000 191.400 17.559 C 191.400 20.519,191.162 20.726,187.700 20.772 C 186.335 20.790,185.579 20.975,185.541 21.300 C 185.509 21.575,185.464 22.730,185.441 23.867 C 185.390 26.432,185.360 26.460,182.524 26.600 C 181.246 26.663,180.065 26.734,179.900 26.757 C 179.735 26.781,179.600 28.060,179.600 29.600 C 179.600 32.723,179.896 32.480,176.000 32.557 L 173.800 32.600 173.837 35.484 L 173.874 38.369 170.837 38.484 L 167.800 38.600 167.770 41.400 L 167.740 44.200 165.107 44.200 C 161.894 44.200,162.014 44.084,161.729 47.480 L 161.496 50.255 158.848 50.227 L 156.200 50.200 156.194 52.873 C 156.187 56.161,156.161 56.187,152.873 56.194 L 150.200 56.200 150.227 58.848 L 150.255 61.496 147.462 61.730 C 144.143 62.009,143.902 62.275,144.229 65.300 L 144.479 67.600 142.939 67.675 C 142.093 67.716,140.773 67.761,140.007 67.775 L 138.613 67.800 138.607 70.800 L 138.600 73.800 135.600 73.800 L 132.600 73.800 132.557 76.000 C 132.481 79.841,132.722 79.552,129.500 79.682 L 126.600 79.800 126.553 82.314 C 126.496 85.387,126.496 85.387,123.600 85.400 C 120.721 85.413,120.894 85.220,120.733 88.614 L 120.600 91.428 117.800 91.414 L 115.000 91.400 115.000 94.400 L 115.000 97.400 112.000 97.405 L 109.000 97.410 109.033 100.353 L 109.066 103.297 106.633 103.054 C 103.271 102.719,102.988 102.980,103.055 106.358 L 103.110 109.141 100.260 109.071 L 97.411 109.000 97.392 111.680 C 97.368 114.977,97.358 114.987,94.073 114.994 L 91.400 115.000 91.437 117.800 L 91.474 120.600 88.696 120.643 C 85.408 120.694,85.264 120.847,85.382 124.157 L 85.470 126.619 82.635 126.610 L 79.800 126.600 79.684 129.637 L 79.569 132.674 76.684 132.637 L 73.800 132.600 73.837 135.484 L 73.874 138.369 70.837 138.484 L 67.800 138.600 67.810 141.435 L 67.819 144.270 65.357 144.182 C 62.047 144.064,61.894 144.208,61.843 147.496 L 61.800 150.274 59.000 150.237 L 56.200 150.200 56.200 152.866 C 56.200 156.146,56.178 156.168,52.880 156.192 L 50.200 156.211 50.271 159.060 L 50.341 161.910 47.558 161.855 C 44.180 161.788,43.919 162.071,44.254 165.433 L 44.497 167.866 41.553 167.833 L 38.610 167.800 38.605 170.800 L 38.600 173.800 35.600 173.800 L 32.600 173.800 32.600 176.600 L 32.600 179.400 29.809 179.533 C 26.288 179.700,26.488 179.506,26.552 182.697 L 26.606 185.406 23.897 185.352 C 20.704 185.288,20.900 185.084,20.733 188.635 L 20.600 191.452 17.800 191.428 L 15.000 191.404 15.048 194.286 L 15.097 197.168 12.048 197.284 L 9.000 197.400 9.033 200.348 L 9.066 203.297 6.633 203.054 C 3.284 202.720,2.989 202.987,3.053 206.293 L 3.105 209.012 1.553 208.864 L -0.000 208.716 -0.000 217.358 L 0.000 226.000 1.376 226.000 C 2.133 226.000,2.838 226.138,2.943 226.307 C 3.047 226.476,2.428 226.548,1.566 226.465 L -0.000 226.316 -0.000 229.358 L 0.000 232.400 1.600 232.400 L 3.200 232.400 3.200 234.156 C 3.200 236.740,4.098 237.631,7.020 237.944 L 9.400 238.200 9.264 239.915 C 9.060 242.489,9.867 243.441,12.534 243.774 L 14.714 244.047 14.982 246.195 C 15.305 248.780,15.877 249.324,18.554 249.594 L 20.600 249.800 20.862 251.948 C 21.174 254.502,21.729 255.156,23.828 255.439 C 27.127 255.885,27.038 255.823,26.869 257.591 C 26.632 260.081,27.498 261.080,30.190 261.416 C 32.080 261.652,32.404 261.816,32.428 262.546 C 32.456 263.378,32.465 263.380,32.803 262.600 C 33.028 262.081,33.069 262.469,32.919 263.707 C 32.600 266.358,33.392 267.200,36.206 267.200 L 38.288 267.200 38.522 269.463 C 38.811 272.268,39.440 272.921,42.104 273.189 L 44.200 273.400 44.411 275.496 C 44.674 278.114,45.305 278.755,47.924 279.066 C 49.066 279.201,50.000 279.477,50.000 279.679 C 50.000 279.882,50.158 279.950,50.350 279.831 C 50.543 279.712,50.609 280.426,50.497 281.417 C 50.248 283.625,51.101 284.797,52.962 284.805 C 55.540 284.817,55.896 285.104,56.184 287.408 C 56.505 289.980,57.079 290.525,59.754 290.794 L 61.800 291.000 62.062 293.148 C 62.396 295.881,62.984 296.440,65.856 296.749 L 68.186 297.000 68.061 298.721 C 67.873 301.305,68.673 302.242,71.352 302.577 L 73.549 302.851 73.822 305.036 C 74.152 307.676,74.974 308.400,77.639 308.400 L 79.501 308.400 79.685 310.620 C 79.913 313.375,80.518 314.004,83.252 314.338 L 85.400 314.600 85.606 316.646 C 85.876 319.328,86.419 319.895,89.028 320.221 C 90.657 320.424,91.202 320.656,91.206 321.146 C 91.211 321.676,91.279 321.695,91.563 321.246 C 91.778 320.906,91.833 321.412,91.704 322.556 C 91.428 325.003,92.252 325.997,94.562 326.006 C 96.759 326.014,97.033 326.268,97.343 328.590 C 97.683 331.127,98.313 331.729,100.904 331.989 L 103.000 332.200 103.211 334.296 C 103.479 336.966,104.083 337.538,107.018 337.909 L 109.400 338.210 109.264 339.920 C 109.098 342.009,110.004 343.600,111.359 343.600 C 114.213 343.600,114.702 343.953,114.984 346.214 C 115.305 348.780,115.880 349.325,118.554 349.594 L 120.600 349.800 120.862 351.948 C 121.174 354.502,121.729 355.156,123.828 355.439 C 127.127 355.885,127.038 355.823,126.869 357.591 C 126.633 360.074,127.478 361.043,130.177 361.380 C 132.096 361.620,132.404 361.777,132.428 362.529 C 132.455 363.370,132.468 363.373,132.796 362.600 C 133.012 362.093,133.057 362.548,132.919 363.843 C 132.652 366.361,133.530 367.200,136.433 367.200 L 138.288 367.200 138.522 369.463 C 138.811 372.268,139.440 372.921,142.104 373.189 L 144.200 373.400 144.406 375.446 C 144.676 378.128,145.219 378.695,147.828 379.021 C 149.023 379.170,150.000 379.462,150.000 379.670 C 150.000 379.877,150.158 379.950,150.350 379.831 C 150.543 379.712,150.609 380.426,150.497 381.417 C 150.229 383.798,151.073 384.798,153.362 384.806 C 155.584 384.814,155.859 385.074,156.186 387.480 C 156.529 389.999,157.098 390.527,159.754 390.794 L 161.800 391.000 162.062 393.148 C 162.395 395.871,162.888 396.340,165.811 396.705 L 168.184 397.001 168.060 398.722 C 167.908 400.820,168.810 402.400,170.159 402.400 C 173.046 402.400,173.537 402.755,173.824 405.056 C 174.151 407.674,174.980 408.400,177.639 408.400 L 179.501 408.400 179.685 410.620 C 179.913 413.375,180.518 414.004,183.252 414.338 L 185.400 414.600 185.606 416.646 C 185.876 419.328,186.419 419.895,189.028 420.221 C 190.657 420.424,191.202 420.656,191.206 421.146 C 191.211 421.657,191.286 421.683,191.551 421.266 C 191.749 420.954,191.810 421.553,191.699 422.711 C 191.464 425.158,192.368 426.000,195.233 426.000 L 197.088 426.000 197.322 428.263 C 197.611 431.063,198.133 431.606,200.852 431.938 C 202.991 432.199,203.000 432.206,203.124 433.700 L 203.248 435.200 207.224 435.200 L 211.200 435.200 211.200 433.800 C 211.200 433.030,211.380 432.400,211.600 432.400 C 211.820 432.400,212.000 433.030,212.000 433.800 L 212.000 435.200 213.976 435.200 L 215.952 435.200 216.109 433.700 L 216.266 432.200 216.333 433.700 L 216.400 435.200 218.400 435.200 L 220.400 435.200 220.400 217.600 L 220.400 0.000 214.800 0.000 L 209.200 0.000 209.200 1.556 M197.600 217.824 C 197.600 316.995,197.450 391.554,197.250 391.431 C 197.058 391.312,196.816 390.194,196.712 388.947 C 196.481 386.162,195.743 385.458,193.328 385.716 C 191.232 385.941,190.800 385.510,190.800 383.196 C 190.800 380.584,190.169 379.913,187.505 379.692 L 185.291 379.508 185.023 377.485 C 184.613 374.397,184.321 374.076,181.642 373.773 L 179.291 373.507 179.108 371.294 C 178.879 368.537,178.137 367.858,175.646 368.126 C 174.555 368.243,174.101 368.181,174.446 367.963 C 174.859 367.701,174.771 367.611,174.100 367.606 C 173.292 367.601,173.200 367.403,173.200 365.676 C 173.200 362.976,172.588 362.315,169.883 362.090 L 167.646 361.905 167.379 359.769 C 167.014 356.852,166.590 356.403,163.942 356.130 L 161.701 355.899 161.470 353.658 C 161.196 351.005,160.712 350.547,157.801 350.183 L 155.692 349.919 155.508 347.700 C 155.284 344.993,154.553 344.312,152.035 344.463 C 150.052 344.582,149.679 344.134,149.628 341.576 C 149.585 339.370,148.858 338.704,146.260 338.488 C 144.135 338.312,144.000 338.238,143.998 337.250 C 143.990 333.812,142.588 332.410,139.150 332.402 C 138.162 332.400,138.088 332.265,137.912 330.140 C 137.685 327.403,136.949 326.690,134.538 326.874 C 133.624 326.943,132.960 326.865,133.062 326.700 C 133.164 326.535,132.967 326.400,132.624 326.400 C 132.145 326.400,132.000 325.952,132.000 324.476 C 132.000 321.781,131.387 321.114,128.700 320.892 L 126.481 320.708 126.217 318.599 C 125.853 315.688,125.395 315.204,122.742 314.930 L 120.501 314.699 120.270 312.458 C 119.997 309.810,119.548 309.386,116.631 309.021 L 114.495 308.754 114.310 306.517 C 114.086 303.817,113.423 303.200,110.748 303.200 L 108.849 303.200 108.591 301.300 C 108.102 297.701,107.593 297.200,104.426 297.200 L 102.903 297.200 102.632 294.804 C 102.323 292.075,102.013 291.788,98.915 291.377 L 96.892 291.109 96.708 288.895 C 96.488 286.244,95.738 285.513,93.384 285.654 C 91.162 285.787,90.800 285.450,90.800 283.253 C 90.800 280.583,90.181 279.914,87.505 279.692 L 85.291 279.508 85.023 277.485 C 84.613 274.397,84.321 274.076,81.642 273.773 L 79.291 273.507 79.108 271.294 C 78.884 268.589,78.124 267.860,75.789 268.109 C 73.763 268.326,73.200 267.757,73.200 265.493 C 73.200 262.981,72.547 262.311,69.883 262.090 L 67.646 261.905 67.379 259.769 C 67.014 256.852,66.590 256.403,63.942 256.130 L 61.701 255.899 61.470 253.658 C 61.197 251.010,60.748 250.586,57.831 250.221 L 55.695 249.954 55.510 247.717 C 55.286 245.021,54.623 244.400,51.966 244.400 C 49.868 244.400,49.600 244.087,49.600 241.644 C 49.600 239.424,48.935 238.797,46.291 238.525 C 44.149 238.303,44.000 238.220,43.998 237.244 C 43.991 233.897,43.225 232.990,40.051 232.569 L 38.092 232.309 37.908 230.095 C 37.688 227.444,36.938 226.713,34.584 226.854 C 32.362 226.987,32.000 226.650,32.000 224.453 C 32.000 221.771,31.385 221.114,28.660 220.888 L 26.400 220.701 26.400 217.799 L 26.400 214.896 28.806 214.722 C 31.790 214.506,32.106 214.194,32.319 211.251 L 32.490 208.890 34.851 208.719 C 37.794 208.506,38.106 208.190,38.322 205.206 L 38.496 202.800 40.620 202.800 C 43.391 202.800,44.000 202.191,44.000 199.420 L 44.000 197.296 46.406 197.122 C 49.390 196.906,49.706 196.594,49.919 193.651 L 50.090 191.290 52.451 191.119 C 55.394 190.906,55.706 190.590,55.922 187.606 L 56.096 185.200 58.074 185.200 C 61.206 185.200,61.600 184.819,61.600 181.786 L 61.600 179.200 64.186 179.200 C 67.219 179.200,67.600 178.806,67.600 175.674 L 67.600 173.696 70.006 173.522 C 72.990 173.306,73.306 172.994,73.519 170.051 L 73.690 167.690 76.051 167.519 C 78.994 167.306,79.306 166.990,79.522 164.006 L 79.696 161.600 81.820 161.600 C 84.591 161.600,85.200 160.991,85.200 158.220 L 85.200 156.096 87.606 155.922 C 90.590 155.706,90.906 155.394,91.119 152.451 L 91.290 150.090 93.651 149.919 C 96.594 149.706,96.906 149.390,97.122 146.406 L 97.296 144.000 99.274 144.000 C 102.345 144.000,102.800 143.591,102.800 140.834 L 102.800 138.496 105.254 138.319 C 108.230 138.103,108.800 137.502,108.800 134.572 L 108.800 132.496 111.206 132.322 C 114.197 132.106,114.506 131.797,114.722 128.806 L 114.896 126.400 116.874 126.400 C 120.006 126.400,120.400 126.019,120.400 122.986 L 120.400 120.400 122.986 120.400 C 126.019 120.400,126.400 120.006,126.400 116.874 L 126.400 114.896 128.806 114.722 C 131.790 114.506,132.106 114.194,132.319 111.251 L 132.490 108.890 134.851 108.719 C 137.794 108.506,138.106 108.190,138.322 105.206 L 138.496 102.800 140.768 102.800 C 143.603 102.800,144.000 102.403,144.000 99.568 L 144.000 97.296 146.406 97.122 C 149.390 96.906,149.706 96.594,149.919 93.651 L 150.090 91.290 152.451 91.119 C 155.394 90.906,155.706 90.590,155.922 87.606 L 156.096 85.200 158.074 85.200 C 161.206 85.200,161.600 84.819,161.600 81.786 L 161.600 79.200 164.186 79.200 C 167.219 79.200,167.600 78.806,167.600 75.674 L 167.600 73.696 170.006 73.522 C 172.997 73.306,173.306 72.997,173.522 70.006 L 173.696 67.600 175.772 67.600 C 178.702 67.600,179.303 67.030,179.519 64.054 L 179.696 61.600 182.034 61.600 C 184.791 61.600,185.200 61.145,185.200 58.074 L 185.200 56.096 187.606 55.922 C 190.590 55.706,190.906 55.394,191.119 52.451 L 191.290 50.090 193.651 49.919 C 196.594 49.706,196.906 49.390,197.122 46.406 C 197.218 45.083,197.365 44.000,197.448 44.000 C 197.532 44.000,197.600 122.221,197.600 217.824 M350.462 74.316 C 349.920 75.379,350.005 102.136,350.551 102.494 C 350.798 102.656,354.825 102.791,359.501 102.794 L 368.001 102.800 367.901 217.700 L 367.800 332.600 359.600 332.606 C 355.090 332.610,351.147 332.773,350.838 332.968 C 350.429 333.227,350.364 333.181,350.600 332.800 C 350.788 332.495,350.766 332.374,350.546 332.510 C 350.320 332.650,350.174 338.495,350.184 347.072 L 350.200 361.400 375.100 361.493 L 400.000 361.587 400.000 359.617 L 400.000 357.648 398.500 357.491 L 397.000 357.334 398.500 357.267 L 400.000 357.200 400.000 215.430 L 400.000 73.661 375.405 73.647 C 352.601 73.634,350.785 73.683,350.462 74.316 M396.790 359.370 C 396.260 359.900,395.930 359.448,396.246 358.624 C 396.455 358.081,396.582 358.046,396.839 358.463 C 397.019 358.755,396.997 359.163,396.790 359.370 " stroke="none" fill="#5cfcd4" fill-rule="evenodd"></path><path id="path1" d="M202.832 7.867 C 202.814 8.343,202.575 8.824,202.300 8.935 C 201.908 9.093,201.911 9.144,202.313 9.168 C 202.920 9.206,203.361 8.240,203.069 7.513 C 202.956 7.231,202.849 7.390,202.832 7.867 M166.400 44.000 L 165.000 44.295 166.276 44.347 C 166.978 44.376,167.664 44.220,167.800 44.000 C 167.936 43.780,167.992 43.624,167.924 43.653 C 167.856 43.682,167.170 43.838,166.400 44.000 M197.398 217.800 C 197.398 313.500,197.444 352.590,197.500 304.667 C 197.556 256.744,197.556 178.444,197.500 130.667 C 197.444 82.890,197.398 122.100,197.398 217.800 M144.093 66.400 C 144.093 67.170,144.175 67.485,144.276 67.100 C 144.376 66.715,144.376 66.085,144.276 65.700 C 144.175 65.315,144.093 65.630,144.093 66.400 M393.100 73.882 C 393.595 73.978,394.405 73.978,394.900 73.882 C 395.395 73.787,394.990 73.709,394.000 73.709 C 393.010 73.709,392.605 73.787,393.100 73.882 M350.093 78.400 C 350.093 79.170,350.175 79.485,350.276 79.100 C 350.376 78.715,350.376 78.085,350.276 77.700 C 350.175 77.315,350.093 77.630,350.093 78.400 M108.800 102.376 C 108.800 102.583,108.125 102.822,107.300 102.909 L 105.800 103.066 107.500 103.133 C 108.774 103.183,109.200 103.050,109.200 102.600 C 109.200 102.270,109.110 102.000,109.000 102.000 C 108.890 102.000,108.800 102.169,108.800 102.376 M367.699 217.490 L 367.600 332.379 361.500 332.501 L 355.400 332.622 361.513 332.711 C 366.102 332.778,367.672 332.675,367.815 332.300 C 367.919 332.025,367.958 280.230,367.902 217.200 L 367.799 102.600 367.699 217.490 M102.800 107.972 C 102.800 108.455,102.463 108.809,101.900 108.918 C 101.128 109.066,101.157 109.099,102.100 109.146 C 103.021 109.191,103.200 109.037,103.200 108.200 C 103.200 107.650,103.110 107.200,103.000 107.200 C 102.890 107.200,102.800 107.547,102.800 107.972 M50.000 160.772 C 50.000 161.255,49.663 161.609,49.100 161.718 C 48.328 161.866,48.357 161.899,49.300 161.946 C 50.221 161.991,50.400 161.837,50.400 161.000 C 50.400 160.450,50.310 160.000,50.200 160.000 C 50.090 160.000,50.000 160.347,50.000 160.772 M44.000 166.167 C 44.000 166.918,43.775 167.624,43.500 167.735 C 43.201 167.856,43.282 167.950,43.700 167.968 C 44.255 167.993,44.400 167.669,44.400 166.400 C 44.400 165.520,44.310 164.800,44.200 164.800 C 44.090 164.800,44.000 165.415,44.000 166.167 M15.192 191.810 C 14.914 192.145,14.802 192.535,14.943 192.676 C 15.084 192.818,15.200 192.718,15.200 192.454 C 15.200 192.190,15.605 191.811,16.100 191.612 C 16.709 191.368,16.790 191.243,16.349 191.225 C 15.991 191.211,15.470 191.474,15.192 191.810 M8.800 202.376 C 8.800 202.583,8.125 202.822,7.300 202.909 L 5.800 203.066 7.500 203.133 C 8.774 203.183,9.200 203.050,9.200 202.600 C 9.200 202.270,9.110 202.000,9.000 202.000 C 8.890 202.000,8.800 202.169,8.800 202.376 M-0.000 226.158 C -0.000 226.245,0.705 226.383,1.566 226.465 C 2.428 226.548,3.047 226.476,2.943 226.307 C 2.753 226.000,0.000 225.860,-0.000 226.158 M350.120 340.800 C 350.120 342.010,350.195 342.505,350.287 341.900 C 350.378 341.295,350.378 340.305,350.287 339.700 C 350.195 339.095,350.120 339.590,350.120 340.800 M350.093 351.600 C 350.093 352.370,350.175 352.685,350.276 352.300 C 350.376 351.915,350.376 351.285,350.276 350.900 C 350.175 350.515,350.093 350.830,350.093 351.600 M397.905 357.483 C 398.402 357.579,399.122 357.575,399.505 357.475 C 399.887 357.375,399.480 357.296,398.600 357.301 C 397.720 357.305,397.407 357.387,397.905 357.483 M396.246 358.624 C 395.930 359.448,396.260 359.900,396.790 359.370 C 396.997 359.163,397.019 358.755,396.839 358.463 C 396.582 358.046,396.455 358.081,396.246 358.624 M211.200 433.800 C 211.200 434.570,211.380 435.200,211.600 435.200 C 211.820 435.200,212.000 434.570,212.000 433.800 C 212.000 433.030,211.820 432.400,211.600 432.400 C 211.380 432.400,211.200 433.030,211.200 433.800 M216.101 433.800 C 216.105 434.680,216.187 434.993,216.283 434.495 C 216.379 433.998,216.375 433.278,216.275 432.895 C 216.175 432.513,216.096 432.920,216.101 433.800 " stroke="none" fill="#60fcd4" fill-rule="evenodd"></path><path id="path2" d="M202.832 7.867 C 202.814 8.343,202.575 8.824,202.300 8.935 C 201.908 9.093,201.911 9.144,202.313 9.168 C 202.920 9.206,203.361 8.240,203.069 7.513 C 202.956 7.231,202.849 7.390,202.832 7.867 M166.400 44.000 L 165.000 44.295 166.276 44.347 C 166.978 44.376,167.664 44.220,167.800 44.000 C 167.936 43.780,167.992 43.624,167.924 43.653 C 167.856 43.682,167.170 43.838,166.400 44.000 M197.398 217.800 C 197.398 313.500,197.444 352.590,197.500 304.667 C 197.556 256.744,197.556 178.444,197.500 130.667 C 197.444 82.890,197.398 122.100,197.398 217.800 M144.093 66.400 C 144.093 67.170,144.175 67.485,144.276 67.100 C 144.376 66.715,144.376 66.085,144.276 65.700 C 144.175 65.315,144.093 65.630,144.093 66.400 M393.100 73.882 C 393.595 73.978,394.405 73.978,394.900 73.882 C 395.395 73.787,394.990 73.709,394.000 73.709 C 393.010 73.709,392.605 73.787,393.100 73.882 M350.093 78.400 C 350.093 79.170,350.175 79.485,350.276 79.100 C 350.376 78.715,350.376 78.085,350.276 77.700 C 350.175 77.315,350.093 77.630,350.093 78.400 M108.800 102.376 C 108.800 102.583,108.125 102.822,107.300 102.909 L 105.800 103.066 107.500 103.133 C 108.774 103.183,109.200 103.050,109.200 102.600 C 109.200 102.270,109.110 102.000,109.000 102.000 C 108.890 102.000,108.800 102.169,108.800 102.376 M367.699 217.490 L 367.600 332.379 361.500 332.501 L 355.400 332.622 361.513 332.711 C 366.102 332.778,367.672 332.675,367.815 332.300 C 367.919 332.025,367.958 280.230,367.902 217.200 L 367.799 102.600 367.699 217.490 M102.800 107.972 C 102.800 108.455,102.463 108.809,101.900 108.918 C 101.128 109.066,101.157 109.099,102.100 109.146 C 103.021 109.191,103.200 109.037,103.200 108.200 C 103.200 107.650,103.110 107.200,103.000 107.200 C 102.890 107.200,102.800 107.547,102.800 107.972 M50.000 160.772 C 50.000 161.255,49.663 161.609,49.100 161.718 C 48.328 161.866,48.357 161.899,49.300 161.946 C 50.221 161.991,50.400 161.837,50.400 161.000 C 50.400 160.450,50.310 160.000,50.200 160.000 C 50.090 160.000,50.000 160.347,50.000 160.772 M44.000 166.167 C 44.000 166.918,43.775 167.624,43.500 167.735 C 43.201 167.856,43.282 167.950,43.700 167.968 C 44.255 167.993,44.400 167.669,44.400 166.400 C 44.400 165.520,44.310 164.800,44.200 164.800 C 44.090 164.800,44.000 165.415,44.000 166.167 M15.192 191.810 C 14.914 192.145,14.802 192.535,14.943 192.676 C 15.084 192.818,15.200 192.718,15.200 192.454 C 15.200 192.190,15.605 191.811,16.100 191.612 C 16.709 191.368,16.790 191.243,16.349 191.225 C 15.991 191.211,15.470 191.474,15.192 191.810 M8.800 202.376 C 8.800 202.583,8.125 202.822,7.300 202.909 L 5.800 203.066 7.500 203.133 C 8.774 203.183,9.200 203.050,9.200 202.600 C 9.200 202.270,9.110 202.000,9.000 202.000 C 8.890 202.000,8.800 202.169,8.800 202.376 M-0.000 226.158 C -0.000 226.245,0.705 226.383,1.566 226.465 C 2.428 226.548,3.047 226.476,2.943 226.307 C 2.753 226.000,0.000 225.860,-0.000 226.158 M350.120 340.800 C 350.120 342.010,350.195 342.505,350.287 341.900 C 350.378 341.295,350.378 340.305,350.287 339.700 C 350.195 339.095,350.120 339.590,350.120 340.800 M350.093 351.600 C 350.093 352.370,350.175 352.685,350.276 352.300 C 350.376 351.915,350.376 351.285,350.276 350.900 C 350.175 350.515,350.093 350.830,350.093 351.600 M397.905 357.483 C 398.402 357.579,399.122 357.575,399.505 357.475 C 399.887 357.375,399.480 357.296,398.600 357.301 C 397.720 357.305,397.407 357.387,397.905 357.483 M396.246 358.624 C 395.930 359.448,396.260 359.900,396.790 359.370 C 396.997 359.163,397.019 358.755,396.839 358.463 C 396.582 358.046,396.455 358.081,396.246 358.624 M211.200 433.800 C 211.200 434.570,211.380 435.200,211.600 435.200 C 211.820 435.200,212.000 434.570,212.000 433.800 C 212.000 433.030,211.820 432.400,211.600 432.400 C 211.380 432.400,211.200 433.030,211.200 433.800 M216.101 433.800 C 216.105 434.680,216.187 434.993,216.283 434.495 C 216.379 433.998,216.375 433.278,216.275 432.895 C 216.175 432.513,216.096 432.920,216.101 433.800 " stroke="none" fill="#60fcd4" fill-rule="evenodd"></path><path id="path3" d="M202.832 7.867 C 202.814 8.343,202.575 8.824,202.300 8.935 C 201.908 9.093,201.911 9.144,202.313 9.168 C 202.920 9.206,203.361 8.240,203.069 7.513 C 202.956 7.231,202.849 7.390,202.832 7.867 M166.400 44.000 L 165.000 44.295 166.276 44.347 C 166.978 44.376,167.664 44.220,167.800 44.000 C 167.936 43.780,167.992 43.624,167.924 43.653 C 167.856 43.682,167.170 43.838,166.400 44.000 M197.398 217.800 C 197.398 313.500,197.444 352.590,197.500 304.667 C 197.556 256.744,197.556 178.444,197.500 130.667 C 197.444 82.890,197.398 122.100,197.398 217.800 M144.093 66.400 C 144.093 67.170,144.175 67.485,144.276 67.100 C 144.376 66.715,144.376 66.085,144.276 65.700 C 144.175 65.315,144.093 65.630,144.093 66.400 M393.100 73.882 C 393.595 73.978,394.405 73.978,394.900 73.882 C 395.395 73.787,394.990 73.709,394.000 73.709 C 393.010 73.709,392.605 73.787,393.100 73.882 M350.093 78.400 C 350.093 79.170,350.175 79.485,350.276 79.100 C 350.376 78.715,350.376 78.085,350.276 77.700 C 350.175 77.315,350.093 77.630,350.093 78.400 M108.800 102.376 C 108.800 102.583,108.125 102.822,107.300 102.909 L 105.800 103.066 107.500 103.133 C 108.774 103.183,109.200 103.050,109.200 102.600 C 109.200 102.270,109.110 102.000,109.000 102.000 C 108.890 102.000,108.800 102.169,108.800 102.376 M367.699 217.490 L 367.600 332.379 361.500 332.501 L 355.400 332.622 361.513 332.711 C 366.102 332.778,367.672 332.675,367.815 332.300 C 367.919 332.025,367.958 280.230,367.902 217.200 L 367.799 102.600 367.699 217.490 M102.800 107.972 C 102.800 108.455,102.463 108.809,101.900 108.918 C 101.128 109.066,101.157 109.099,102.100 109.146 C 103.021 109.191,103.200 109.037,103.200 108.200 C 103.200 107.650,103.110 107.200,103.000 107.200 C 102.890 107.200,102.800 107.547,102.800 107.972 M50.000 160.772 C 50.000 161.255,49.663 161.609,49.100 161.718 C 48.328 161.866,48.357 161.899,49.300 161.946 C 50.221 161.991,50.400 161.837,50.400 161.000 C 50.400 160.450,50.310 160.000,50.200 160.000 C 50.090 160.000,50.000 160.347,50.000 160.772 M44.000 166.167 C 44.000 166.918,43.775 167.624,43.500 167.735 C 43.201 167.856,43.282 167.950,43.700 167.968 C 44.255 167.993,44.400 167.669,44.400 166.400 C 44.400 165.520,44.310 164.800,44.200 164.800 C 44.090 164.800,44.000 165.415,44.000 166.167 M15.192 191.810 C 14.914 192.145,14.802 192.535,14.943 192.676 C 15.084 192.818,15.200 192.718,15.200 192.454 C 15.200 192.190,15.605 191.811,16.100 191.612 C 16.709 191.368,16.790 191.243,16.349 191.225 C 15.991 191.211,15.470 191.474,15.192 191.810 M8.800 202.376 C 8.800 202.583,8.125 202.822,7.300 202.909 L 5.800 203.066 7.500 203.133 C 8.774 203.183,9.200 203.050,9.200 202.600 C 9.200 202.270,9.110 202.000,9.000 202.000 C 8.890 202.000,8.800 202.169,8.800 202.376 M-0.000 226.158 C -0.000 226.245,0.705 226.383,1.566 226.465 C 2.428 226.548,3.047 226.476,2.943 226.307 C 2.753 226.000,0.000 225.860,-0.000 226.158 M350.120 340.800 C 350.120 342.010,350.195 342.505,350.287 341.900 C 350.378 341.295,350.378 340.305,350.287 339.700 C 350.195 339.095,350.120 339.590,350.120 340.800 M350.093 351.600 C 350.093 352.370,350.175 352.685,350.276 352.300 C 350.376 351.915,350.376 351.285,350.276 350.900 C 350.175 350.515,350.093 350.830,350.093 351.600 M397.905 357.483 C 398.402 357.579,399.122 357.575,399.505 357.475 C 399.887 357.375,399.480 357.296,398.600 357.301 C 397.720 357.305,397.407 357.387,397.905 357.483 M396.246 358.624 C 395.930 359.448,396.260 359.900,396.790 359.370 C 396.997 359.163,397.019 358.755,396.839 358.463 C 396.582 358.046,396.455 358.081,396.246 358.624 M211.200 433.800 C 211.200 434.570,211.380 435.200,211.600 435.200 C 211.820 435.200,212.000 434.570,212.000 433.800 C 212.000 433.030,211.820 432.400,211.600 432.400 C 211.380 432.400,211.200 433.030,211.200 433.800 M216.101 433.800 C 216.105 434.680,216.187 434.993,216.283 434.495 C 216.379 433.998,216.375 433.278,216.275 432.895 C 216.175 432.513,216.096 432.920,216.101 433.800 " stroke="none" fill="#60fcd4" fill-rule="evenodd"></path><path id="path4" d="M202.832 7.867 C 202.814 8.343,202.575 8.824,202.300 8.935 C 201.908 9.093,201.911 9.144,202.313 9.168 C 202.920 9.206,203.361 8.240,203.069 7.513 C 202.956 7.231,202.849 7.390,202.832 7.867 M166.400 44.000 L 165.000 44.295 166.276 44.347 C 166.978 44.376,167.664 44.220,167.800 44.000 C 167.936 43.780,167.992 43.624,167.924 43.653 C 167.856 43.682,167.170 43.838,166.400 44.000 M197.398 217.800 C 197.398 313.500,197.444 352.590,197.500 304.667 C 197.556 256.744,197.556 178.444,197.500 130.667 C 197.444 82.890,197.398 122.100,197.398 217.800 M144.093 66.400 C 144.093 67.170,144.175 67.485,144.276 67.100 C 144.376 66.715,144.376 66.085,144.276 65.700 C 144.175 65.315,144.093 65.630,144.093 66.400 M393.100 73.882 C 393.595 73.978,394.405 73.978,394.900 73.882 C 395.395 73.787,394.990 73.709,394.000 73.709 C 393.010 73.709,392.605 73.787,393.100 73.882 M350.093 78.400 C 350.093 79.170,350.175 79.485,350.276 79.100 C 350.376 78.715,350.376 78.085,350.276 77.700 C 350.175 77.315,350.093 77.630,350.093 78.400 M108.800 102.376 C 108.800 102.583,108.125 102.822,107.300 102.909 L 105.800 103.066 107.500 103.133 C 108.774 103.183,109.200 103.050,109.200 102.600 C 109.200 102.270,109.110 102.000,109.000 102.000 C 108.890 102.000,108.800 102.169,108.800 102.376 M367.699 217.490 L 367.600 332.379 361.500 332.501 L 355.400 332.622 361.513 332.711 C 366.102 332.778,367.672 332.675,367.815 332.300 C 367.919 332.025,367.958 280.230,367.902 217.200 L 367.799 102.600 367.699 217.490 M102.800 107.972 C 102.800 108.455,102.463 108.809,101.900 108.918 C 101.128 109.066,101.157 109.099,102.100 109.146 C 103.021 109.191,103.200 109.037,103.200 108.200 C 103.200 107.650,103.110 107.200,103.000 107.200 C 102.890 107.200,102.800 107.547,102.800 107.972 M50.000 160.772 C 50.000 161.255,49.663 161.609,49.100 161.718 C 48.328 161.866,48.357 161.899,49.300 161.946 C 50.221 161.991,50.400 161.837,50.400 161.000 C 50.400 160.450,50.310 160.000,50.200 160.000 C 50.090 160.000,50.000 160.347,50.000 160.772 M44.000 166.167 C 44.000 166.918,43.775 167.624,43.500 167.735 C 43.201 167.856,43.282 167.950,43.700 167.968 C 44.255 167.993,44.400 167.669,44.400 166.400 C 44.400 165.520,44.310 164.800,44.200 164.800 C 44.090 164.800,44.000 165.415,44.000 166.167 M15.192 191.810 C 14.914 192.145,14.802 192.535,14.943 192.676 C 15.084 192.818,15.200 192.718,15.200 192.454 C 15.200 192.190,15.605 191.811,16.100 191.612 C 16.709 191.368,16.790 191.243,16.349 191.225 C 15.991 191.211,15.470 191.474,15.192 191.810 M8.800 202.376 C 8.800 202.583,8.125 202.822,7.300 202.909 L 5.800 203.066 7.500 203.133 C 8.774 203.183,9.200 203.050,9.200 202.600 C 9.200 202.270,9.110 202.000,9.000 202.000 C 8.890 202.000,8.800 202.169,8.800 202.376 M-0.000 226.158 C -0.000 226.245,0.705 226.383,1.566 226.465 C 2.428 226.548,3.047 226.476,2.943 226.307 C 2.753 226.000,0.000 225.860,-0.000 226.158 M350.120 340.800 C 350.120 342.010,350.195 342.505,350.287 341.900 C 350.378 341.295,350.378 340.305,350.287 339.700 C 350.195 339.095,350.120 339.590,350.120 340.800 M350.093 351.600 C 350.093 352.370,350.175 352.685,350.276 352.300 C 350.376 351.915,350.376 351.285,350.276 350.900 C 350.175 350.515,350.093 350.830,350.093 351.600 M397.905 357.483 C 398.402 357.579,399.122 357.575,399.505 357.475 C 399.887 357.375,399.480 357.296,398.600 357.301 C 397.720 357.305,397.407 357.387,397.905 357.483 M396.246 358.624 C 395.930 359.448,396.260 359.900,396.790 359.370 C 396.997 359.163,397.019 358.755,396.839 358.463 C 396.582 358.046,396.455 358.081,396.246 358.624 M211.200 433.800 C 211.200 434.570,211.380 435.200,211.600 435.200 C 211.820 435.200,212.000 434.570,212.000 433.800 C 212.000 433.030,211.820 432.400,211.600 432.400 C 211.380 432.400,211.200 433.030,211.200 433.800 M216.101 433.800 C 216.105 434.680,216.187 434.993,216.283 434.495 C 216.379 433.998,216.375 433.278,216.275 432.895 C 216.175 432.513,216.096 432.920,216.101 433.800 " stroke="none" fill="#60fcd4" fill-rule="evenodd"></path></g></svg>