<svg id="svg" version="1.1" xmlns="http://www.w3.org/2000/svg" xmlns:xlink="http://www.w3.org/1999/xlink" width="400" height="435.2941176470588" viewBox="0, 0, 400,435.2941176470588"><g id="svgg"><path id="path0" d="M179.600 217.600 L 179.600 435.200 185.376 435.200 L 191.152 435.200 191.276 433.724 L 191.400 432.248 193.830 432.350 C 196.891 432.477,197.298 432.057,197.151 428.923 L 197.041 426.600 199.821 426.400 L 202.600 426.200 202.800 423.228 L 203.000 420.256 205.686 420.355 C 208.724 420.467,208.690 420.507,208.895 416.621 L 209.000 414.641 211.323 414.751 C 214.411 414.896,214.800 414.518,214.800 411.369 L 214.800 408.837 217.500 408.718 L 220.200 408.600 220.318 405.700 L 220.435 402.800 222.969 402.800 C 226.118 402.800,226.496 402.411,226.351 399.323 L 226.242 397.000 229.221 396.800 L 232.200 396.600 232.400 393.824 L 232.600 391.049 235.030 391.150 C 238.091 391.277,238.498 390.857,238.351 387.723 L 238.241 385.400 240.221 385.295 C 244.056 385.093,244.000 385.142,244.000 381.992 L 244.000 379.200 246.792 379.200 C 249.941 379.200,249.893 379.256,250.095 375.424 L 250.200 373.449 252.630 373.550 C 255.691 373.677,256.098 373.257,255.951 370.123 L 255.841 367.800 258.621 367.600 L 261.400 367.400 261.600 364.425 L 261.800 361.449 264.230 361.550 C 267.196 361.673,267.514 361.365,267.677 358.207 L 267.800 355.842 270.123 355.951 C 273.215 356.096,273.600 355.720,273.600 352.551 L 273.600 350.000 276.151 350.000 C 279.320 350.000,279.696 349.615,279.551 346.523 L 279.441 344.200 281.421 344.095 C 285.253 343.893,285.200 343.939,285.200 340.810 L 285.200 338.035 288.100 337.918 L 291.000 337.800 291.200 335.024 L 291.400 332.249 293.830 332.350 C 296.891 332.477,297.298 332.057,297.151 328.923 L 297.041 326.600 299.821 326.400 L 302.600 326.200 302.718 323.300 L 302.835 320.400 305.610 320.400 C 308.739 320.400,308.693 320.453,308.895 316.621 L 309.000 314.641 311.323 314.751 C 314.411 314.896,314.800 314.518,314.800 311.369 L 314.800 308.837 317.500 308.718 L 320.200 308.600 320.400 305.645 L 320.600 302.690 323.400 302.645 L 326.200 302.600 326.245 299.800 L 326.290 297.000 329.245 296.800 L 332.200 296.600 332.318 293.900 L 332.437 291.200 334.969 291.200 C 338.118 291.200,338.496 290.811,338.351 287.723 L 338.241 285.400 340.221 285.295 C 344.053 285.093,344.000 285.139,344.000 282.010 L 344.000 279.235 346.900 279.118 L 349.800 279.000 350.000 276.221 L 350.200 273.441 352.523 273.551 C 355.657 273.698,356.077 273.291,355.950 270.230 L 355.849 267.800 358.624 267.600 L 361.400 267.400 361.518 264.500 L 361.635 261.600 364.410 261.600 C 367.539 261.600,367.493 261.653,367.695 257.821 L 367.800 255.841 370.123 255.951 C 373.215 256.096,373.600 255.720,373.600 252.551 L 373.600 250.000 376.151 250.000 C 379.257 250.000,379.683 249.595,379.596 246.723 C 379.561 245.555,379.547 244.420,379.565 244.200 C 379.584 243.976,380.788 243.800,382.299 243.800 L 385.000 243.800 385.117 240.917 L 385.234 238.034 388.117 237.917 L 391.000 237.800 391.200 235.024 L 391.400 232.249 393.830 232.350 C 396.892 232.477,397.298 232.057,397.150 228.923 L 397.041 226.600 398.520 226.476 L 400.000 226.352 400.000 217.776 L 400.000 209.200 398.600 209.200 C 397.241 209.200,397.200 209.155,397.200 207.650 C 397.200 205.481,396.767 203.556,396.243 203.395 C 395.999 203.319,394.765 203.142,393.500 203.000 L 391.200 202.742 391.200 200.997 C 391.200 197.658,390.791 197.200,387.810 197.200 L 385.200 197.200 385.200 194.829 C 385.200 191.641,384.598 191.033,381.790 191.384 L 379.713 191.643 379.500 188.985 C 379.240 185.746,379.167 185.668,376.133 185.351 L 373.702 185.097 373.491 182.775 C 373.209 179.667,373.139 179.600,370.176 179.600 L 367.600 179.600 367.594 177.300 C 367.587 174.777,367.174 173.722,366.383 174.211 C 366.044 174.420,365.976 174.363,366.177 174.038 C 366.407 173.666,365.905 173.616,364.039 173.827 L 361.600 174.103 361.600 171.242 C 361.600 167.963,361.006 167.413,357.747 167.670 L 356.093 167.800 355.896 165.342 C 355.639 162.138,355.524 162.001,353.076 161.994 C 350.336 161.986,350.140 161.804,349.918 159.063 C 349.699 156.370,349.227 155.892,347.117 156.228 C 344.475 156.649,344.001 156.261,343.994 153.673 C 343.985 150.513,343.699 150.197,340.862 150.213 L 338.496 150.226 338.297 147.755 C 338.038 144.530,338.019 144.509,335.048 144.190 L 332.504 143.918 332.292 141.586 C 332.009 138.466,331.941 138.400,328.976 138.400 L 326.400 138.400 326.400 136.029 C 326.400 132.776,325.835 132.248,322.739 132.607 L 320.400 132.879 320.400 130.063 C 320.400 126.841,320.357 126.793,317.224 126.509 L 314.902 126.298 314.691 123.976 C 314.410 120.871,314.336 120.800,311.423 120.800 L 308.893 120.800 308.729 118.215 C 308.526 115.032,308.494 115.000,305.464 115.000 L 303.000 115.000 302.800 112.332 C 302.555 109.060,302.496 109.000,299.567 109.000 L 297.200 109.000 297.200 107.550 C 297.200 105.472,296.758 103.553,296.243 103.395 C 295.999 103.319,294.789 103.145,293.554 103.007 L 291.307 102.756 291.086 100.322 C 290.839 97.596,290.387 97.081,288.524 97.405 C 285.820 97.876,285.200 97.387,285.200 94.785 C 285.200 91.649,284.576 91.022,281.780 91.351 L 279.709 91.594 279.504 89.039 C 279.238 85.720,279.228 85.709,276.248 85.390 L 273.704 85.118 273.492 82.786 C 273.209 79.666,273.141 79.600,270.176 79.600 L 267.600 79.600 267.600 77.229 C 267.600 73.976,267.035 73.448,263.939 73.807 L 261.600 74.079 261.594 71.539 C 261.586 68.237,261.376 67.976,258.507 67.716 L 256.102 67.498 255.891 65.176 C 255.610 62.071,255.536 62.000,252.623 62.000 L 250.093 62.000 249.929 59.415 C 249.726 56.232,249.694 56.200,246.664 56.200 L 244.200 56.200 244.000 53.532 C 243.755 50.260,243.696 50.200,240.767 50.200 L 238.400 50.200 238.400 48.750 C 238.400 46.672,237.958 44.753,237.443 44.595 C 237.199 44.519,235.989 44.345,234.754 44.207 L 232.507 43.956 232.286 41.522 C 232.026 38.655,231.749 38.414,228.700 38.406 L 226.400 38.400 226.400 36.029 C 226.400 32.773,225.819 32.227,222.728 32.576 L 220.400 32.840 220.400 30.043 C 220.400 26.829,220.442 26.876,217.285 26.546 L 214.902 26.297 214.691 23.975 C 214.410 20.871,214.336 20.800,211.423 20.800 L 208.893 20.800 208.726 18.173 C 208.524 15.008,208.186 14.717,205.100 15.053 L 202.800 15.303 202.794 12.752 C 202.786 9.436,202.577 9.176,199.707 8.916 L 197.302 8.698 197.091 6.376 C 196.816 3.341,196.697 3.200,194.409 3.200 C 191.649 3.200,191.200 2.942,191.200 1.357 L 191.200 0.000 185.400 0.000 L 179.600 0.000 179.600 217.600 M206.336 50.000 L 209.097 50.000 209.013 52.604 C 208.919 55.504,209.289 56.109,211.080 55.990 C 211.696 55.949,212.845 55.934,213.633 55.958 L 215.066 56.000 215.033 58.700 L 215.000 61.400 217.685 61.518 C 220.680 61.649,220.627 61.578,220.897 65.800 L 221.000 67.400 223.652 67.517 L 226.303 67.634 226.540 69.117 C 226.671 69.933,226.671 71.006,226.542 71.502 C 226.140 73.037,227.028 73.600,229.849 73.600 C 232.676 73.600,232.476 73.350,232.565 77.000 L 232.614 79.000 235.607 79.200 L 238.600 79.400 238.610 82.200 L 238.619 85.000 241.563 85.119 L 244.506 85.237 244.247 87.435 C 243.857 90.758,244.249 91.200,247.586 91.200 L 250.343 91.200 250.216 93.788 C 250.063 96.911,250.340 97.219,253.243 97.159 C 254.429 97.135,255.600 97.134,255.844 97.157 C 256.125 97.184,256.271 98.186,256.244 99.900 L 256.200 102.600 258.844 102.717 L 261.487 102.834 261.730 105.433 C 262.048 108.833,262.015 108.800,265.124 108.800 L 267.800 108.800 267.765 111.405 C 267.726 114.297,268.108 114.908,269.880 114.790 C 270.496 114.749,271.630 114.734,272.400 114.758 L 273.800 114.800 273.811 117.500 L 273.822 120.200 276.694 120.317 L 279.566 120.434 279.683 123.317 L 279.800 126.200 282.343 126.277 C 285.438 126.370,285.386 126.321,285.404 129.128 C 285.423 132.217,285.601 132.400,288.581 132.400 C 291.467 132.400,291.540 132.479,291.382 135.481 C 291.246 138.073,291.642 138.430,294.521 138.313 C 297.298 138.201,297.390 138.298,297.399 141.329 L 297.406 143.800 300.314 143.918 L 303.223 144.036 302.978 145.918 C 302.538 149.300,303.108 150.000,306.305 150.000 L 309.030 150.000 308.988 152.612 C 308.938 155.737,309.195 156.018,312.043 155.959 C 313.229 155.935,314.395 155.934,314.633 155.957 C 314.900 155.984,315.053 157.033,315.033 158.700 L 315.000 161.400 317.685 161.518 C 320.680 161.649,320.627 161.578,320.897 165.800 L 321.000 167.400 323.652 167.517 L 326.303 167.634 326.540 169.117 C 326.671 169.933,326.671 171.006,326.542 171.502 C 326.150 173.000,327.004 173.559,329.666 173.546 C 332.614 173.532,332.554 173.471,332.579 176.513 L 332.600 179.000 335.600 179.200 L 338.600 179.400 338.613 182.200 L 338.625 185.000 340.213 185.068 C 341.086 185.105,342.410 185.150,343.155 185.168 L 344.510 185.200 344.250 187.416 C 343.857 190.760,344.244 191.200,347.586 191.200 L 350.343 191.200 350.216 193.788 C 350.063 196.911,350.340 197.219,353.243 197.159 C 354.429 197.135,355.600 197.134,355.844 197.157 C 356.125 197.184,356.271 198.186,356.244 199.900 L 356.200 202.600 358.844 202.717 L 361.487 202.834 361.730 205.433 C 362.048 208.833,362.015 208.800,365.124 208.800 L 367.800 208.800 367.765 211.405 C 367.726 214.297,368.108 214.908,369.880 214.790 C 370.496 214.749,371.630 214.734,372.400 214.758 L 373.800 214.800 373.846 217.548 L 373.893 220.295 371.063 220.558 C 367.758 220.865,367.513 221.117,367.838 223.864 C 368.131 226.332,367.338 227.052,364.778 226.643 C 362.725 226.315,362.000 226.665,362.000 227.987 C 362.000 228.593,361.891 229.883,361.758 230.854 L 361.516 232.620 358.858 232.610 L 356.200 232.600 356.200 235.400 L 356.200 238.200 353.322 238.317 C 350.424 238.435,349.405 239.114,350.199 240.398 C 350.336 240.620,350.329 241.603,350.182 242.583 L 349.915 244.363 347.393 244.281 C 344.290 244.181,344.240 244.230,344.218 247.413 C 344.198 250.305,344.455 250.128,340.200 250.180 L 338.600 250.200 338.556 252.600 C 338.532 253.920,338.487 255.217,338.456 255.482 C 338.420 255.797,337.392 256.006,335.500 256.082 L 332.600 256.200 332.575 257.600 C 332.561 258.370,332.515 259.630,332.472 260.400 L 332.396 261.800 329.813 261.818 C 326.630 261.840,326.581 261.890,326.681 264.988 L 326.762 267.504 325.174 267.758 C 324.301 267.897,323.139 267.900,322.593 267.762 C 321.960 267.604,321.600 267.683,321.600 267.980 C 321.600 268.237,321.428 268.341,321.218 268.211 C 320.992 268.071,320.787 269.166,320.718 270.887 L 320.600 273.800 317.800 273.800 L 315.000 273.800 315.010 276.458 L 315.020 279.116 313.254 279.358 C 312.283 279.491,310.993 279.600,310.387 279.600 C 309.065 279.600,308.715 280.325,309.043 282.378 C 309.452 284.938,308.732 285.731,306.264 285.438 C 303.522 285.113,303.265 285.360,302.962 288.617 L 302.704 291.400 300.052 291.400 L 297.400 291.400 297.400 294.200 L 297.400 297.000 294.400 297.200 L 291.400 297.400 291.373 299.000 C 291.359 299.880,291.314 301.157,291.273 301.837 L 291.200 303.074 288.635 303.037 C 285.472 302.991,285.391 303.072,285.437 306.235 L 285.474 308.800 284.037 308.875 C 283.247 308.916,281.970 308.961,281.200 308.975 L 279.800 309.000 279.682 311.900 C 279.606 313.792,279.397 314.820,279.082 314.856 C 278.817 314.887,277.520 314.932,276.200 314.956 L 273.800 315.000 273.773 317.725 L 273.746 320.449 271.045 320.547 C 267.829 320.663,267.499 321.003,267.837 323.852 C 268.128 326.309,267.899 326.520,264.816 326.631 C 263.597 326.676,262.465 326.732,262.300 326.756 C 262.135 326.780,262.000 327.315,262.000 327.944 C 262.000 328.573,261.889 329.897,261.754 330.886 L 261.507 332.683 258.854 332.642 L 256.200 332.600 256.242 335.254 L 256.283 337.907 254.486 338.154 C 253.497 338.289,252.173 338.400,251.544 338.400 C 250.915 338.400,250.380 338.535,250.356 338.700 C 250.332 338.865,250.276 339.997,250.231 341.216 C 250.120 344.299,249.909 344.528,247.452 344.237 C 244.603 343.899,244.263 344.229,244.147 347.445 L 244.049 350.146 241.325 350.173 L 238.600 350.200 238.556 352.600 C 238.532 353.920,238.487 355.217,238.456 355.482 C 238.420 355.797,237.392 356.006,235.500 356.082 L 232.600 356.200 232.575 357.600 C 232.561 358.370,232.516 359.647,232.475 360.437 L 232.400 361.874 229.787 361.837 C 226.597 361.792,226.286 362.132,226.629 365.300 L 226.879 367.600 225.539 367.673 C 224.803 367.714,223.480 367.759,222.600 367.773 L 221.000 367.800 220.800 370.800 L 220.600 373.800 217.800 373.800 L 215.000 373.800 215.010 376.500 C 215.021 379.153,215.003 379.200,213.966 379.200 C 211.930 379.200,209.221 379.710,209.433 380.053 C 209.551 380.244,209.450 380.400,209.210 380.400 C 208.918 380.400,208.858 381.044,209.028 382.329 C 209.384 385.009,208.609 385.784,205.929 385.428 C 204.644 385.258,204.000 385.318,204.000 385.610 C 204.000 385.850,203.832 385.943,203.626 385.816 C 203.420 385.689,203.179 386.173,203.090 386.892 C 203.001 387.612,202.911 311.700,202.889 218.200 C 202.866 116.494,202.996 48.562,203.212 49.100 C 203.539 49.911,203.846 50.000,206.336 50.000 M3.500 73.884 L 0.000 74.031 0.000 75.816 L 0.000 77.600 1.600 77.600 C 2.480 77.600,3.200 77.780,3.200 78.000 C 3.200 78.220,2.480 78.400,1.600 78.400 L 0.000 78.400 0.000 219.994 L 0.000 361.588 24.557 361.588 C 44.697 361.587,49.194 361.489,49.562 361.046 C 49.879 360.664,49.980 356.418,49.905 346.553 L 49.800 332.600 38.100 332.728 L 26.400 332.857 26.400 217.835 L 26.400 102.812 38.100 102.706 L 49.800 102.600 49.800 88.485 C 49.800 77.493,49.687 74.301,49.291 74.056 C 48.788 73.745,10.253 73.600,3.500 73.884 " stroke="none" fill="#5cfcd4" fill-rule="evenodd"></path><path id="path1" d="M203.505 15.083 C 204.002 15.179,204.722 15.175,205.105 15.075 C 205.487 14.975,205.080 14.896,204.200 14.901 C 203.320 14.905,203.007 14.987,203.505 15.083 M244.900 56.276 C 245.285 56.376,245.915 56.376,246.300 56.276 C 246.685 56.175,246.370 56.093,245.600 56.093 C 244.830 56.093,244.515 56.175,244.900 56.276 M1.712 73.895 C 2.764 73.977,4.384 73.976,5.312 73.892 C 6.240 73.808,5.380 73.741,3.400 73.742 C 1.420 73.743,0.660 73.812,1.712 73.895 M43.107 73.890 C 43.826 73.979,44.906 73.977,45.507 73.886 C 46.108 73.795,45.520 73.722,44.200 73.724 C 42.880 73.726,42.388 73.801,43.107 73.890 M262.100 73.876 C 262.485 73.976,263.115 73.976,263.500 73.876 C 263.885 73.775,263.570 73.693,262.800 73.693 C 262.030 73.693,261.715 73.775,262.100 73.876 M0.000 78.000 C 0.000 78.220,0.720 78.400,1.600 78.400 C 2.480 78.400,3.200 78.220,3.200 78.000 C 3.200 77.780,2.480 77.600,1.600 77.600 C 0.720 77.600,0.000 77.780,0.000 78.000 M244.101 86.600 C 244.105 87.480,244.187 87.793,244.283 87.295 C 244.379 86.798,244.375 86.078,244.275 85.695 C 244.175 85.313,244.096 85.720,244.101 86.600 M303.700 115.076 C 304.085 115.176,304.715 115.176,305.100 115.076 C 305.485 114.975,305.170 114.893,304.400 114.893 C 303.630 114.893,303.315 114.975,303.700 115.076 M320.900 132.676 C 321.285 132.776,321.915 132.776,322.300 132.676 C 322.685 132.575,322.370 132.493,321.600 132.493 C 320.830 132.493,320.515 132.575,320.900 132.676 M345.300 156.276 C 345.685 156.376,346.315 156.376,346.700 156.276 C 347.085 156.175,346.770 156.093,346.000 156.093 C 345.230 156.093,344.915 156.175,345.300 156.276 M362.305 173.883 C 362.802 173.979,363.522 173.975,363.905 173.875 C 364.287 173.775,363.880 173.696,363.000 173.701 C 362.120 173.705,361.807 173.787,362.305 173.883 M344.101 186.600 C 344.105 187.480,344.187 187.793,344.283 187.295 C 344.379 186.798,344.375 186.078,344.275 185.695 C 344.175 185.313,344.096 185.720,344.101 186.600 M397.905 209.083 C 398.402 209.179,399.122 209.175,399.505 209.075 C 399.887 208.975,399.480 208.896,398.600 208.901 C 397.720 208.905,397.407 208.987,397.905 209.083 M367.693 224.800 C 367.693 225.570,367.775 225.885,367.876 225.500 C 367.976 225.115,367.976 224.485,367.876 224.100 C 367.775 223.715,367.693 224.030,367.693 224.800 M364.900 226.676 C 365.285 226.776,365.915 226.776,366.300 226.676 C 366.685 226.575,366.370 226.493,365.600 226.493 C 364.830 226.493,364.515 226.575,364.900 226.676 M348.100 244.276 C 348.485 244.376,349.115 244.376,349.500 244.276 C 349.885 244.175,349.570 244.093,348.800 244.093 C 348.030 244.093,347.715 244.175,348.100 244.276 M326.493 266.400 C 326.493 267.170,326.575 267.485,326.676 267.100 C 326.776 266.715,326.776 266.085,326.676 265.700 C 326.575 265.315,326.493 265.630,326.493 266.400 M308.893 283.200 C 308.893 283.970,308.975 284.285,309.076 283.900 C 309.176 283.515,309.176 282.885,309.076 282.500 C 308.975 282.115,308.893 282.430,308.893 283.200 M306.500 285.476 C 306.885 285.576,307.515 285.576,307.900 285.476 C 308.285 285.375,307.970 285.293,307.200 285.293 C 306.430 285.293,306.115 285.375,306.500 285.476 M267.693 324.800 C 267.693 325.570,267.775 325.885,267.876 325.500 C 267.976 325.115,267.976 324.485,267.876 324.100 C 267.775 323.715,267.693 324.030,267.693 324.800 M29.700 332.698 C 31.625 332.771,34.775 332.771,36.700 332.698 C 38.625 332.625,37.050 332.565,33.200 332.565 C 29.350 332.565,27.775 332.625,29.700 332.698 M247.700 344.276 C 248.085 344.376,248.715 344.376,249.100 344.276 C 249.485 344.175,249.170 344.093,248.400 344.093 C 247.630 344.093,247.315 344.175,247.700 344.276 M226.493 366.400 C 226.493 367.170,226.575 367.485,226.676 367.100 C 226.776 366.715,226.776 366.085,226.676 365.700 C 226.575 365.315,226.493 365.630,226.493 366.400 M208.893 383.200 C 208.893 383.970,208.975 384.285,209.076 383.900 C 209.176 383.515,209.176 382.885,209.076 382.500 C 208.975 382.115,208.893 382.430,208.893 383.200 M206.100 385.476 C 206.485 385.576,207.115 385.576,207.500 385.476 C 207.885 385.375,207.570 385.293,206.800 385.293 C 206.030 385.293,205.715 385.375,206.100 385.476 " stroke="none" fill="#60fcd4" fill-rule="evenodd"></path><path id="path2" d="M203.505 15.083 C 204.002 15.179,204.722 15.175,205.105 15.075 C 205.487 14.975,205.080 14.896,204.200 14.901 C 203.320 14.905,203.007 14.987,203.505 15.083 M244.900 56.276 C 245.285 56.376,245.915 56.376,246.300 56.276 C 246.685 56.175,246.370 56.093,245.600 56.093 C 244.830 56.093,244.515 56.175,244.900 56.276 M1.712 73.895 C 2.764 73.977,4.384 73.976,5.312 73.892 C 6.240 73.808,5.380 73.741,3.400 73.742 C 1.420 73.743,0.660 73.812,1.712 73.895 M43.107 73.890 C 43.826 73.979,44.906 73.977,45.507 73.886 C 46.108 73.795,45.520 73.722,44.200 73.724 C 42.880 73.726,42.388 73.801,43.107 73.890 M262.100 73.876 C 262.485 73.976,263.115 73.976,263.500 73.876 C 263.885 73.775,263.570 73.693,262.800 73.693 C 262.030 73.693,261.715 73.775,262.100 73.876 M0.000 78.000 C 0.000 78.220,0.720 78.400,1.600 78.400 C 2.480 78.400,3.200 78.220,3.200 78.000 C 3.200 77.780,2.480 77.600,1.600 77.600 C 0.720 77.600,0.000 77.780,0.000 78.000 M244.101 86.600 C 244.105 87.480,244.187 87.793,244.283 87.295 C 244.379 86.798,244.375 86.078,244.275 85.695 C 244.175 85.313,244.096 85.720,244.101 86.600 M303.700 115.076 C 304.085 115.176,304.715 115.176,305.100 115.076 C 305.485 114.975,305.170 114.893,304.400 114.893 C 303.630 114.893,303.315 114.975,303.700 115.076 M320.900 132.676 C 321.285 132.776,321.915 132.776,322.300 132.676 C 322.685 132.575,322.370 132.493,321.600 132.493 C 320.830 132.493,320.515 132.575,320.900 132.676 M345.300 156.276 C 345.685 156.376,346.315 156.376,346.700 156.276 C 347.085 156.175,346.770 156.093,346.000 156.093 C 345.230 156.093,344.915 156.175,345.300 156.276 M362.305 173.883 C 362.802 173.979,363.522 173.975,363.905 173.875 C 364.287 173.775,363.880 173.696,363.000 173.701 C 362.120 173.705,361.807 173.787,362.305 173.883 M344.101 186.600 C 344.105 187.480,344.187 187.793,344.283 187.295 C 344.379 186.798,344.375 186.078,344.275 185.695 C 344.175 185.313,344.096 185.720,344.101 186.600 M397.905 209.083 C 398.402 209.179,399.122 209.175,399.505 209.075 C 399.887 208.975,399.480 208.896,398.600 208.901 C 397.720 208.905,397.407 208.987,397.905 209.083 M367.693 224.800 C 367.693 225.570,367.775 225.885,367.876 225.500 C 367.976 225.115,367.976 224.485,367.876 224.100 C 367.775 223.715,367.693 224.030,367.693 224.800 M364.900 226.676 C 365.285 226.776,365.915 226.776,366.300 226.676 C 366.685 226.575,366.370 226.493,365.600 226.493 C 364.830 226.493,364.515 226.575,364.900 226.676 M348.100 244.276 C 348.485 244.376,349.115 244.376,349.500 244.276 C 349.885 244.175,349.570 244.093,348.800 244.093 C 348.030 244.093,347.715 244.175,348.100 244.276 M326.493 266.400 C 326.493 267.170,326.575 267.485,326.676 267.100 C 326.776 266.715,326.776 266.085,326.676 265.700 C 326.575 265.315,326.493 265.630,326.493 266.400 M308.893 283.200 C 308.893 283.970,308.975 284.285,309.076 283.900 C 309.176 283.515,309.176 282.885,309.076 282.500 C 308.975 282.115,308.893 282.430,308.893 283.200 M306.500 285.476 C 306.885 285.576,307.515 285.576,307.900 285.476 C 308.285 285.375,307.970 285.293,307.200 285.293 C 306.430 285.293,306.115 285.375,306.500 285.476 M267.693 324.800 C 267.693 325.570,267.775 325.885,267.876 325.500 C 267.976 325.115,267.976 324.485,267.876 324.100 C 267.775 323.715,267.693 324.030,267.693 324.800 M29.700 332.698 C 31.625 332.771,34.775 332.771,36.700 332.698 C 38.625 332.625,37.050 332.565,33.200 332.565 C 29.350 332.565,27.775 332.625,29.700 332.698 M247.700 344.276 C 248.085 344.376,248.715 344.376,249.100 344.276 C 249.485 344.175,249.170 344.093,248.400 344.093 C 247.630 344.093,247.315 344.175,247.700 344.276 M226.493 366.400 C 226.493 367.170,226.575 367.485,226.676 367.100 C 226.776 366.715,226.776 366.085,226.676 365.700 C 226.575 365.315,226.493 365.630,226.493 366.400 M208.893 383.200 C 208.893 383.970,208.975 384.285,209.076 383.900 C 209.176 383.515,209.176 382.885,209.076 382.500 C 208.975 382.115,208.893 382.430,208.893 383.200 M206.100 385.476 C 206.485 385.576,207.115 385.576,207.500 385.476 C 207.885 385.375,207.570 385.293,206.800 385.293 C 206.030 385.293,205.715 385.375,206.100 385.476 " stroke="none" fill="#60fcd4" fill-rule="evenodd"></path><path id="path3" d="M203.505 15.083 C 204.002 15.179,204.722 15.175,205.105 15.075 C 205.487 14.975,205.080 14.896,204.200 14.901 C 203.320 14.905,203.007 14.987,203.505 15.083 M244.900 56.276 C 245.285 56.376,245.915 56.376,246.300 56.276 C 246.685 56.175,246.370 56.093,245.600 56.093 C 244.830 56.093,244.515 56.175,244.900 56.276 M1.712 73.895 C 2.764 73.977,4.384 73.976,5.312 73.892 C 6.240 73.808,5.380 73.741,3.400 73.742 C 1.420 73.743,0.660 73.812,1.712 73.895 M43.107 73.890 C 43.826 73.979,44.906 73.977,45.507 73.886 C 46.108 73.795,45.520 73.722,44.200 73.724 C 42.880 73.726,42.388 73.801,43.107 73.890 M262.100 73.876 C 262.485 73.976,263.115 73.976,263.500 73.876 C 263.885 73.775,263.570 73.693,262.800 73.693 C 262.030 73.693,261.715 73.775,262.100 73.876 M0.000 78.000 C 0.000 78.220,0.720 78.400,1.600 78.400 C 2.480 78.400,3.200 78.220,3.200 78.000 C 3.200 77.780,2.480 77.600,1.600 77.600 C 0.720 77.600,0.000 77.780,0.000 78.000 M244.101 86.600 C 244.105 87.480,244.187 87.793,244.283 87.295 C 244.379 86.798,244.375 86.078,244.275 85.695 C 244.175 85.313,244.096 85.720,244.101 86.600 M303.700 115.076 C 304.085 115.176,304.715 115.176,305.100 115.076 C 305.485 114.975,305.170 114.893,304.400 114.893 C 303.630 114.893,303.315 114.975,303.700 115.076 M320.900 132.676 C 321.285 132.776,321.915 132.776,322.300 132.676 C 322.685 132.575,322.370 132.493,321.600 132.493 C 320.830 132.493,320.515 132.575,320.900 132.676 M345.300 156.276 C 345.685 156.376,346.315 156.376,346.700 156.276 C 347.085 156.175,346.770 156.093,346.000 156.093 C 345.230 156.093,344.915 156.175,345.300 156.276 M362.305 173.883 C 362.802 173.979,363.522 173.975,363.905 173.875 C 364.287 173.775,363.880 173.696,363.000 173.701 C 362.120 173.705,361.807 173.787,362.305 173.883 M344.101 186.600 C 344.105 187.480,344.187 187.793,344.283 187.295 C 344.379 186.798,344.375 186.078,344.275 185.695 C 344.175 185.313,344.096 185.720,344.101 186.600 M397.905 209.083 C 398.402 209.179,399.122 209.175,399.505 209.075 C 399.887 208.975,399.480 208.896,398.600 208.901 C 397.720 208.905,397.407 208.987,397.905 209.083 M367.693 224.800 C 367.693 225.570,367.775 225.885,367.876 225.500 C 367.976 225.115,367.976 224.485,367.876 224.100 C 367.775 223.715,367.693 224.030,367.693 224.800 M364.900 226.676 C 365.285 226.776,365.915 226.776,366.300 226.676 C 366.685 226.575,366.370 226.493,365.600 226.493 C 364.830 226.493,364.515 226.575,364.900 226.676 M348.100 244.276 C 348.485 244.376,349.115 244.376,349.500 244.276 C 349.885 244.175,349.570 244.093,348.800 244.093 C 348.030 244.093,347.715 244.175,348.100 244.276 M326.493 266.400 C 326.493 267.170,326.575 267.485,326.676 267.100 C 326.776 266.715,326.776 266.085,326.676 265.700 C 326.575 265.315,326.493 265.630,326.493 266.400 M308.893 283.200 C 308.893 283.970,308.975 284.285,309.076 283.900 C 309.176 283.515,309.176 282.885,309.076 282.500 C 308.975 282.115,308.893 282.430,308.893 283.200 M306.500 285.476 C 306.885 285.576,307.515 285.576,307.900 285.476 C 308.285 285.375,307.970 285.293,307.200 285.293 C 306.430 285.293,306.115 285.375,306.500 285.476 M267.693 324.800 C 267.693 325.570,267.775 325.885,267.876 325.500 C 267.976 325.115,267.976 324.485,267.876 324.100 C 267.775 323.715,267.693 324.030,267.693 324.800 M29.700 332.698 C 31.625 332.771,34.775 332.771,36.700 332.698 C 38.625 332.625,37.050 332.565,33.200 332.565 C 29.350 332.565,27.775 332.625,29.700 332.698 M247.700 344.276 C 248.085 344.376,248.715 344.376,249.100 344.276 C 249.485 344.175,249.170 344.093,248.400 344.093 C 247.630 344.093,247.315 344.175,247.700 344.276 M226.493 366.400 C 226.493 367.170,226.575 367.485,226.676 367.100 C 226.776 366.715,226.776 366.085,226.676 365.700 C 226.575 365.315,226.493 365.630,226.493 366.400 M208.893 383.200 C 208.893 383.970,208.975 384.285,209.076 383.900 C 209.176 383.515,209.176 382.885,209.076 382.500 C 208.975 382.115,208.893 382.430,208.893 383.200 M206.100 385.476 C 206.485 385.576,207.115 385.576,207.500 385.476 C 207.885 385.375,207.570 385.293,206.800 385.293 C 206.030 385.293,205.715 385.375,206.100 385.476 " stroke="none" fill="#60fcd4" fill-rule="evenodd"></path><path id="path4" d="M203.505 15.083 C 204.002 15.179,204.722 15.175,205.105 15.075 C 205.487 14.975,205.080 14.896,204.200 14.901 C 203.320 14.905,203.007 14.987,203.505 15.083 M244.900 56.276 C 245.285 56.376,245.915 56.376,246.300 56.276 C 246.685 56.175,246.370 56.093,245.600 56.093 C 244.830 56.093,244.515 56.175,244.900 56.276 M1.712 73.895 C 2.764 73.977,4.384 73.976,5.312 73.892 C 6.240 73.808,5.380 73.741,3.400 73.742 C 1.420 73.743,0.660 73.812,1.712 73.895 M43.107 73.890 C 43.826 73.979,44.906 73.977,45.507 73.886 C 46.108 73.795,45.520 73.722,44.200 73.724 C 42.880 73.726,42.388 73.801,43.107 73.890 M262.100 73.876 C 262.485 73.976,263.115 73.976,263.500 73.876 C 263.885 73.775,263.570 73.693,262.800 73.693 C 262.030 73.693,261.715 73.775,262.100 73.876 M0.000 78.000 C 0.000 78.220,0.720 78.400,1.600 78.400 C 2.480 78.400,3.200 78.220,3.200 78.000 C 3.200 77.780,2.480 77.600,1.600 77.600 C 0.720 77.600,0.000 77.780,0.000 78.000 M244.101 86.600 C 244.105 87.480,244.187 87.793,244.283 87.295 C 244.379 86.798,244.375 86.078,244.275 85.695 C 244.175 85.313,244.096 85.720,244.101 86.600 M303.700 115.076 C 304.085 115.176,304.715 115.176,305.100 115.076 C 305.485 114.975,305.170 114.893,304.400 114.893 C 303.630 114.893,303.315 114.975,303.700 115.076 M320.900 132.676 C 321.285 132.776,321.915 132.776,322.300 132.676 C 322.685 132.575,322.370 132.493,321.600 132.493 C 320.830 132.493,320.515 132.575,320.900 132.676 M345.300 156.276 C 345.685 156.376,346.315 156.376,346.700 156.276 C 347.085 156.175,346.770 156.093,346.000 156.093 C 345.230 156.093,344.915 156.175,345.300 156.276 M362.305 173.883 C 362.802 173.979,363.522 173.975,363.905 173.875 C 364.287 173.775,363.880 173.696,363.000 173.701 C 362.120 173.705,361.807 173.787,362.305 173.883 M344.101 186.600 C 344.105 187.480,344.187 187.793,344.283 187.295 C 344.379 186.798,344.375 186.078,344.275 185.695 C 344.175 185.313,344.096 185.720,344.101 186.600 M397.905 209.083 C 398.402 209.179,399.122 209.175,399.505 209.075 C 399.887 208.975,399.480 208.896,398.600 208.901 C 397.720 208.905,397.407 208.987,397.905 209.083 M367.693 224.800 C 367.693 225.570,367.775 225.885,367.876 225.500 C 367.976 225.115,367.976 224.485,367.876 224.100 C 367.775 223.715,367.693 224.030,367.693 224.800 M364.900 226.676 C 365.285 226.776,365.915 226.776,366.300 226.676 C 366.685 226.575,366.370 226.493,365.600 226.493 C 364.830 226.493,364.515 226.575,364.900 226.676 M348.100 244.276 C 348.485 244.376,349.115 244.376,349.500 244.276 C 349.885 244.175,349.570 244.093,348.800 244.093 C 348.030 244.093,347.715 244.175,348.100 244.276 M326.493 266.400 C 326.493 267.170,326.575 267.485,326.676 267.100 C 326.776 266.715,326.776 266.085,326.676 265.700 C 326.575 265.315,326.493 265.630,326.493 266.400 M308.893 283.200 C 308.893 283.970,308.975 284.285,309.076 283.900 C 309.176 283.515,309.176 282.885,309.076 282.500 C 308.975 282.115,308.893 282.430,308.893 283.200 M306.500 285.476 C 306.885 285.576,307.515 285.576,307.900 285.476 C 308.285 285.375,307.970 285.293,307.200 285.293 C 306.430 285.293,306.115 285.375,306.500 285.476 M267.693 324.800 C 267.693 325.570,267.775 325.885,267.876 325.500 C 267.976 325.115,267.976 324.485,267.876 324.100 C 267.775 323.715,267.693 324.030,267.693 324.800 M29.700 332.698 C 31.625 332.771,34.775 332.771,36.700 332.698 C 38.625 332.625,37.050 332.565,33.200 332.565 C 29.350 332.565,27.775 332.625,29.700 332.698 M247.700 344.276 C 248.085 344.376,248.715 344.376,249.100 344.276 C 249.485 344.175,249.170 344.093,248.400 344.093 C 247.630 344.093,247.315 344.175,247.700 344.276 M226.493 366.400 C 226.493 367.170,226.575 367.485,226.676 367.100 C 226.776 366.715,226.776 366.085,226.676 365.700 C 226.575 365.315,226.493 365.630,226.493 366.400 M208.893 383.200 C 208.893 383.970,208.975 384.285,209.076 383.900 C 209.176 383.515,209.176 382.885,209.076 382.500 C 208.975 382.115,208.893 382.430,208.893 383.200 M206.100 385.476 C 206.485 385.576,207.115 385.576,207.500 385.476 C 207.885 385.375,207.570 385.293,206.800 385.293 C 206.030 385.293,205.715 385.375,206.100 385.476 " stroke="none" fill="#60fcd4" fill-rule="evenodd"></path></g></svg>