<?xml version="1.0" encoding="UTF-8" standalone="no"?>
<svg
   xmlns:dc="http://purl.org/dc/elements/1.1/"
   xmlns:cc="http://creativecommons.org/ns#"
   xmlns:rdf="http://www.w3.org/1999/02/22-rdf-syntax-ns#"
   xmlns:svg="http://www.w3.org/2000/svg"
   xmlns="http://www.w3.org/2000/svg"
   xmlns:sodipodi="http://sodipodi.sourceforge.net/DTD/sodipodi-0.dtd"
   xmlns:inkscape="http://www.inkscape.org/namespaces/inkscape"
   width="13.17625mm"
   height="13.308541mm"
   viewBox="0 0 13.17625 13.308541"
   version="1.1"
   id="svg8"
   inkscape:version="1.0.1 (3bc2e813f5, 2020-09-07)"
   sodipodi:docname="RA_TopCircle-06.svg">
  <defs
     id="defs2">
    <style
       id="style10">.cls-1,.cls-2{fill:#55ffdf;}.cls-2{fill-rule:evenodd;}</style>
  </defs>
  <sodipodi:namedview
     id="base"
     pagecolor="#ffffff"
     bordercolor="#666666"
     borderopacity="1.0"
     inkscape:pageopacity="0.0"
     inkscape:pageshadow="2"
     inkscape:zoom="7.9195959"
     inkscape:cx="28.959891"
     inkscape:cy="23.636363"
     inkscape:document-units="mm"
     inkscape:current-layer="layer1"
     inkscape:document-rotation="0"
     showgrid="false"
     fit-margin-top="0"
     fit-margin-left="0"
     fit-margin-right="0"
     fit-margin-bottom="0"
     inkscape:window-width="1267"
     inkscape:window-height="1198"
     inkscape:window-x="338"
     inkscape:window-y="163"
     inkscape:window-maximized="0" />
  <metadata
     id="metadata5">
    <rdf:RDF>
      <cc:Work
         rdf:about="">
        <dc:format>image/svg+xml</dc:format>
        <dc:type
           rdf:resource="http://purl.org/dc/dcmitype/StillImage" />
        <dc:title></dc:title>
      </cc:Work>
    </rdf:RDF>
  </metadata>
  <g
     inkscape:label="Layer 1"
     inkscape:groupmode="layer"
     id="layer1"
     transform="translate(-100.00116,-126.39335)">
    <g
       id="g41"
       transform="matrix(0.26458333,0,0,0.26458333,81.321578,108.89116)">
      <path
         class="cls-2"
         d="m 103.6,68.65 c -11.6,-4.3 -26.1,2 -29.8,13.8 l 0.4,0.2 c -0.8,2.1 -1.4,4.1 -1.5,6.2 l -1.9,0.1 c -0.3,5.7 1.6,13.3 5.8,17.8 0,0 1.5,-1.4 1.7,-1.2 2.5,2.5 4.8,4.2 8,5.5 0.2,0.1 -0.2,0.8 0,0.9 1.6,0.7 4.2,1.5 5.7,1.5 l -0.1,1.5 c 6.8,1 13.1,-0.4 18.4,-4.8 0,0 -0.9,-1.2 -0.7,-1.3 3,-1.9 6.1,-5.7 7.8,-10.7 l -0.7,-0.3 c 0.7,-1.6 1.1,-4 1.2,-5.8 0,-0.1 2.2,-0.2 2.2,-0.2 0.9,-5.1 -1.9,-13.9 -6.2,-17.5 l -1.5,1.1 c -2.1,-2.2 -5.1,-4.8 -8.1,-5.8 l 0.2,-0.7 z m -20.2,7.7 c -4.1,3.3 -6.4,7.8 -6.9,12.6 -0.5,4.8 0.8,9.8 4,13.8 3.3,4.1 7.8,6.4 12.6,6.9 4.8,0.5 9.8,-0.8 13.8,-4 4.1,-3.3 6.4,-7.8 6.9,-12.6 0.5,-4.8 -0.8,-9.8 -4,-13.8 -3.3,-4.1 -7.8,-6.4 -12.6,-6.9 -4.7,-0.5 -9.7,0.8 -13.8,4 z m -1.7,13.2 v -0.3 l 14.6,-11.7 h 0.5 l -15.1,12.2 z m 0.1,-0.5 c 0,-0.2 0.1,-0.4 0.1,-0.6 l 13.7,-10.9 h 0.6 z m 0.1,-0.8 c 0,-0.2 0.1,-0.4 0.1,-0.6 l 12.6,-10.1 h 0.6 z m 0.2,-0.9 c 0.1,-0.2 0.1,-0.4 0.2,-0.6 l 11.4,-9.1 c 0.2,0 0.4,0 0.7,-0.1 z m 0.3,-0.9 c 0.1,-0.2 0.2,-0.5 0.3,-0.7 l 10,-8 c 0.2,0 0.5,-0.1 0.7,-0.1 z m 0.5,-1.1 c 0.1,-0.2 0.2,-0.5 0.3,-0.7 l 8.4,-6.7 c 0.2,-0.1 0.5,-0.1 0.7,-0.2 z m 0.5,-1.1 c 0.2,-0.3 0.3,-0.5 0.5,-0.8 l 6.3,-5 c 0.3,-0.1 0.6,-0.2 0.9,-0.3 z m 0.9,-1.3 c 0.3,-0.5 0.7,-0.9 1.1,-1.3 l 2.7,-2.2 c 0.5,-0.3 1,-0.6 1.6,-0.8 z m 12.8,-5.3 c 0.2,0 0.3,0.1 0.5,0.1 l -6.2,4.9 c -0.7,0.3 -1.4,0.7 -2,1.2 -0.6,0.5 -1.2,1.1 -1.6,1.7 l -6.1,4.9 v -0.5 z m 0.7,0.1 c 0.2,0 0.3,0.1 0.5,0.1 l -5.3,4.3 c -0.3,0.1 -0.6,0.2 -1,0.3 z m 0.7,0.2 c 0.1,0 0.3,0.1 0.4,0.1 l -4.9,3.9 c -0.2,0 -0.5,0.1 -0.7,0.1 z m 0.6,0.1 c 0.1,0 0.3,0.1 0.4,0.1 l -4.5,3.6 h -0.6 z m 0.6,0.2 c 0.1,0 0.3,0.1 0.4,0.1 l -4.3,3.4 h -0.6 z m 0.6,0.3 c 0.1,0.1 0.3,0.1 0.4,0.2 l -4.1,3.3 c -0.1,0 -0.3,0 -0.4,-0.1 h -0.1 z m 0.5,0.2 c 0.1,0.1 0.2,0.1 0.4,0.2 l -4,3.2 c -0.2,0 -0.3,-0.1 -0.5,-0.1 z m 0.6,0.3 c 0.1,0.1 0.2,0.1 0.4,0.2 l -3.8,3.1 c -0.1,0 -0.3,-0.1 -0.4,-0.1 z m 0.5,0.2 c 0.1,0.1 0.2,0.1 0.3,0.2 l -3.7,3 c -0.1,-0.1 -0.3,-0.1 -0.4,-0.1 z m 0.5,0.3 c 0.1,0.1 0.2,0.1 0.3,0.2 l -3.6,2.9 c -0.1,-0.1 -0.3,-0.1 -0.4,-0.2 z m 0.4,0.3 c 0.1,0.1 0.2,0.1 0.3,0.2 l -3.6,2.9 c -0.1,-0.1 -0.2,-0.1 -0.4,-0.2 z m 0.5,0.4 c 0.1,0.1 0.2,0.2 0.3,0.2 l -3.5,2.8 c -0.1,-0.1 -0.2,-0.1 -0.3,-0.2 z m 0.4,0.3 c 0.1,0.1 0.2,0.2 0.3,0.2 l -3.5,2.8 c -0.1,-0.1 -0.2,-0.1 -0.3,-0.2 z m 0.4,0.3 c 0.1,0.1 0.2,0.2 0.3,0.2 l -3.4,2.8 c -0.1,-0.1 -0.2,-0.2 -0.3,-0.2 z m 0.4,0.4 0.3,0.3 -3.4,2.7 c -0.1,-0.1 -0.2,-0.2 -0.3,-0.2 z m 0.4,0.4 0.3,0.3 -3.4,2.7 -0.3,-0.3 z m 0.4,0.4 0.3,0.3 -3.4,2.7 -0.3,-0.3 z m 0.3,0.4 v 0 c 0.1,0.2 0.2,0.2 0.2,0.3 l -3.4,2.7 c 0,-0.1 -0.1,-0.1 -0.1,-0.2 l -0.1,-0.1 z m 0.4,0.4 c 0.1,0.1 0.2,0.2 0.2,0.3 l -3.4,2.7 c -0.1,-0.1 -0.1,-0.2 -0.2,-0.3 z m 0.3,0.5 c 0.1,0.1 0.1,0.2 0.2,0.3 l -3.4,2.7 c -0.1,-0.1 -0.1,-0.2 -0.2,-0.3 z m 0.3,0.5 c 0.1,0.1 0.1,0.2 0.2,0.3 l -3.4,2.8 c -0.1,-0.1 -0.1,-0.2 -0.2,-0.4 z m 0.3,0.4 c 0.1,0.1 0.1,0.2 0.2,0.3 l -3.5,2.8 c -0.1,-0.1 -0.1,-0.2 -0.2,-0.4 z m 0.3,0.5 c 0.1,0.1 0.1,0.2 0.2,0.4 l -3.5,2.8 c 0,-0.1 -0.1,-0.3 -0.1,-0.4 z m 0.3,0.6 c 0.1,0.1 0.1,0.2 0.2,0.4 l -3.6,2.9 c 0,-0.1 -0.1,-0.3 -0.1,-0.4 z m 0.2,0.5 c 0.1,0.1 0.1,0.2 0.1,0.4 l -3.6,2.9 c 0,-0.1 -0.1,-0.3 -0.1,-0.4 z m 0.2,0.5 c 0,0.1 0.1,0.2 0.1,0.4 l -3.7,3 c 0,-0.1 0,-0.3 -0.1,-0.4 z m 0.2,0.5 c 0,0.1 0.1,0.3 0.1,0.4 l -3.8,3.1 v -0.4 z m 0.1,0.6 c 0,0.1 0.1,0.3 0.1,0.4 l -4,3.2 v -0.5 z m 0.2,0.6 c 0,0.1 0.1,0.3 0.1,0.4 l -4.1,3.3 v -0.5 z m 0.1,0.5 c 0,0.1 0,0.3 0.1,0.4 l -4.3,3.4 v -0.6 z m 0.1,0.6 c 0,0.1 0,0.3 0.1,0.4 l -4.5,3.6 c 0,-0.2 0.1,-0.4 0.1,-0.6 z m 0.1,0.7 v 0.4 l -4.9,3.9 c 0.1,-0.2 0.1,-0.4 0.2,-0.6 z m 0,0.6 v 0.5 l -5.3,4.3 c 0.1,-0.2 0.2,-0.5 0.3,-0.7 z m 0,0.7 v 0.5 l -6.1,4.9 c 0.2,-0.3 0.4,-0.6 0.6,-1 z m 0,0.7 v 0.5 l -15.2,12.2 c -0.2,0 -0.3,0 -0.5,-0.1 l 6.6,-5.3 c 0.5,-0.3 0.9,-0.6 1.3,-0.9 0.4,-0.3 0.8,-0.7 1.2,-1.1 z m 0,0.7 c 0,0.2 0,0.4 -0.1,0.5 l -14.3,11.5 h -0.5 z m -0.2,0.8 c 0,0.2 -0.1,0.4 -0.1,0.6 L 95,104.65 h -0.6 z m -0.1,0.8 c 0,0.2 -0.1,0.4 -0.2,0.6 l -12.3,9.8 h -0.6 z m -0.3,0.9 c -0.1,0.2 -0.1,0.4 -0.2,0.7 l -11,8.8 c -0.2,0 -0.5,0.1 -0.7,0.1 z m -0.3,1 c -0.1,0.2 -0.2,0.4 -0.3,0.6 l -9.6,7.7 c -0.2,0 -0.4,0.1 -0.7,0.1 z m -0.4,0.9 c -0.1,0.3 -0.3,0.5 -0.4,0.8 l -7.9,6.4 c -0.3,0.1 -0.5,0.2 -0.8,0.2 z m -0.6,1.2 c -0.2,0.3 -0.4,0.6 -0.6,0.9 l -5.6,4.5 c -0.3,0.1 -0.7,0.3 -1,0.4 z m -1,1.4 c -0.6,0.8 -1.3,1.5 -2.1,2.1 -0.8,0.6 -1.6,1.2 -2.5,1.6 z m -13,4.9 c -0.2,0 -0.3,-0.1 -0.5,-0.1 l 5.5,-4.4 c 0.4,-0.1 0.7,-0.2 1.1,-0.4 z m -0.7,-0.2 c -0.2,0 -0.3,-0.1 -0.4,-0.1 l 5,-4 c 0.3,0 0.5,-0.1 0.8,-0.2 z m -0.7,-0.1 c -0.1,0 -0.3,-0.1 -0.4,-0.1 l 4.6,-3.7 c 0.2,0 0.4,0 0.7,-0.1 z m -0.6,-0.2 c -0.1,0 -0.3,-0.1 -0.4,-0.1 l 4.4,-3.5 h 0.6 z m -0.6,-0.2 c -0.1,-0.1 -0.3,-0.1 -0.4,-0.2 l 4.2,-3.3 h 0.6 z m -0.5,-0.3 c -0.1,-0.1 -0.3,-0.1 -0.4,-0.2 l 4,-3.2 c 0.2,0 0.3,0.1 0.5,0.1 z m -0.6,-0.2 c -0.1,-0.1 -0.2,-0.1 -0.4,-0.2 l 3.9,-3.1 c 0.1,0 0.3,0.1 0.4,0.1 z m -0.5,-0.3 c -0.1,-0.1 -0.2,-0.1 -0.3,-0.2 l 3.8,-3 c 0.1,0.1 0.3,0.1 0.4,0.1 z m -0.5,-0.3 c -0.1,-0.1 -0.2,-0.1 -0.3,-0.2 l 3.7,-2.9 c 0.1,0.1 0.3,0.1 0.4,0.2 z m -0.5,-0.3 c -0.1,-0.1 -0.2,-0.1 -0.3,-0.2 l 3.6,-2.9 c 0.1,0.1 0.2,0.1 0.4,0.2 z m -0.4,-0.3 c -0.1,-0.1 -0.2,-0.2 -0.3,-0.2 l 3.5,-2.8 c 0.1,0.1 0.2,0.1 0.4,0.2 z m -0.5,-0.4 -0.3,-0.3 3.5,-2.8 c 0.1,0.1 0.2,0.2 0.3,0.2 z m -0.4,-0.3 -0.3,-0.3 3.4,-2.8 c 0.1,0.1 0.2,0.2 0.3,0.2 z m -0.4,-0.4 -0.3,-0.3 3.4,-2.7 0.3,0.3 z m -0.4,-0.4 -0.3,-0.3 3.4,-2.7 0.3,0.3 z m -0.4,-0.4 -0.3,-0.3 3.4,-2.7 0.3,0.3 z m -0.4,-0.4 c 0,-0.1 -0.1,-0.1 -0.1,-0.2 l -0.1,-0.1 3.4,-2.7 0.1,0.1 c 0,0.1 0.1,0.1 0.1,0.2 z m -0.3,-0.5 c -0.1,-0.1 -0.2,-0.2 -0.2,-0.3 l 3.4,-2.7 c 0.1,0.1 0.2,0.2 0.2,0.3 z M 84,98.85 c -0.1,-0.1 -0.1,-0.2 -0.2,-0.3 l 3.4,-2.7 c 0.1,0.1 0.1,0.2 0.2,0.3 z m -0.3,-0.5 c -0.1,-0.1 -0.1,-0.2 -0.2,-0.3 l 3.4,-2.8 c 0.1,0.1 0.1,0.2 0.2,0.3 z m -0.2,-0.4 c -0.1,-0.1 -0.1,-0.2 -0.2,-0.3 l 3.5,-2.8 c 0.1,0.1 0.1,0.2 0.2,0.3 z m -0.3,-0.5 c -0.1,-0.1 -0.1,-0.2 -0.2,-0.3 l 3.5,-2.8 c 0,0.1 0.1,0.2 0.1,0.4 z M 83,96.95 c -0.1,-0.1 -0.1,-0.2 -0.2,-0.3 l 3.6,-2.9 c 0,0.1 0.1,0.2 0.1,0.4 z m -0.3,-0.5 c -0.1,-0.1 -0.1,-0.2 -0.1,-0.4 l 3.6,-2.9 c 0,0.1 0.1,0.3 0.1,0.4 z m -0.2,-0.5 c 0,-0.1 -0.1,-0.2 -0.1,-0.4 l 3.7,-3 c 0,0.1 0.1,0.3 0.1,0.4 z m -0.2,-0.5 c 0,-0.1 -0.1,-0.3 -0.1,-0.4 l 3.8,-3 c 0,0.1 0,0.3 0.1,0.4 z m -0.2,-0.6 c 0,-0.1 -0.1,-0.3 -0.1,-0.4 l 3.9,-3.1 v 0.5 z M 82,94.35 c 0,-0.1 -0.1,-0.3 -0.1,-0.4 l 4.1,-3.2 v 0.5 z m -0.1,-0.6 c 0,-0.1 -0.1,-0.3 -0.1,-0.4 l 4.2,-3.4 v 0.5 z m -0.1,-0.6 c 0,-0.1 0,-0.3 -0.1,-0.4 l 4.5,-3.6 c 0,0.2 -0.1,0.4 -0.1,0.5 z m -0.1,-0.6 v -0.4 l 4.7,-3.8 c -0.1,0.2 -0.1,0.4 -0.2,0.6 z m -0.1,-0.7 v -0.5 l 5.2,-4.1 c -0.1,0.2 -0.2,0.5 -0.3,0.7 z m 0,-0.7 v -0.5 l 5.8,-4.7 c -0.2,0.3 -0.4,0.6 -0.5,0.9 z m 7,-0.8 c 0,-0.2 0,-0.3 0.1,-0.4 l 6.8,-5.5 h 0.6 l -7.5,5.9 c 0,0.1 0,0 0,0 z m 0.1,-0.7 c 0,-0.2 0.1,-0.4 0.2,-0.6 l 5.7,-4.6 h 0.6 z m 0.2,-0.9 c 0.1,-0.3 0.2,-0.5 0.3,-0.7 l 4.2,-3.4 c 0.3,-0.1 0.5,-0.1 0.8,-0.2 z m 0.6,-1.1 c 0.3,-0.5 0.7,-0.9 1.1,-1.3 l 0.9,-0.7 c 0.5,-0.3 1,-0.6 1.5,-0.8 z m 6.7,-3.1 c 0.2,0 0.3,0.1 0.5,0.1 l -8.2,6.5 v -0.5 z m 0.7,0.1 c 0.1,0 0.3,0.1 0.4,0.1 l -8.7,7 v -0.4 z m 0.6,0.2 c 0.1,0 0.3,0.1 0.4,0.2 l -9.2,7.4 c 0,-0.1 -0.1,-0.3 -0.1,-0.4 z m 0.6,0.2 c 0.1,0.1 0.2,0.1 0.4,0.2 l -9.7,7.7 c 0,-0.1 -0.1,-0.3 -0.1,-0.4 z m 0.5,0.3 c 0.1,0.1 0.2,0.1 0.3,0.2 l -9.9,7.9 c 0,-0.1 -0.1,-0.2 -0.1,-0.4 z m 0.4,0.3 c 0.1,0.1 0.2,0.1 0.3,0.2 l -10.1,8.2 c -0.1,-0.1 -0.1,-0.2 -0.2,-0.3 z m 0.5,0.4 c 0.1,0.1 0.2,0.2 0.3,0.2 l -10.3,8.2 c -0.1,-0.1 -0.1,-0.2 -0.2,-0.3 z m 0.4,0.3 0.3,0.3 -10.4,8.3 c -0.1,-0.1 -0.2,-0.2 -0.2,-0.3 z m 0.3,0.4 v 0 c 0.1,0.2 0.2,0.2 0.2,0.3 L 90,95.35 c 0,-0.1 -0.1,-0.1 -0.1,-0.2 l -0.1,-0.1 z m 0.4,0.5 c 0.1,0.1 0.2,0.2 0.2,0.3 l -10.3,8.3 -0.3,-0.3 z m 0.3,0.4 c 0.1,0.1 0.1,0.2 0.2,0.3 l -10.2,8.1 -0.3,-0.3 z m 0.3,0.5 c 0.1,0.1 0.1,0.2 0.2,0.4 l -9.9,8 c -0.1,-0.1 -0.2,-0.2 -0.3,-0.2 z m 0.2,0.6 c 0.1,0.1 0.1,0.3 0.1,0.4 l -9.6,7.7 c -0.1,-0.1 -0.2,-0.1 -0.4,-0.2 z m 0.2,0.5 c 0,0.1 0.1,0.3 0.1,0.4 l -9.2,7.4 c -0.1,-0.1 -0.3,-0.1 -0.4,-0.2 z m 0.1,0.7 c 0,0.1 0,0.3 0.1,0.4 l -8.8,7 c -0.1,0 -0.3,-0.1 -0.4,-0.2 z m 0.1,0.6 v 0.5 l -8.2,6.5 c -0.1,0 -0.3,-0.1 -0.4,-0.1 z m 0,0.7 v 0.5 l -7.4,6 c -0.2,0 -0.3,0 -0.5,-0.1 z m 0,0.7 c 0,0.2 -0.1,0.4 -0.1,0.6 l -6.5,5.2 h -0.6 z m -0.2,0.8 c -0.1,0.2 -0.1,0.4 -0.2,0.6 l -5.3,4.3 c -0.2,0 -0.4,0 -0.7,0.1 z m -0.3,1 c -0.1,0.3 -0.3,0.6 -0.4,0.8 l -3.6,2.9 c -0.3,0.1 -0.6,0.2 -0.9,0.2 z m -0.7,1.2 c -0.3,0.5 -0.8,0.9 -1.2,1.3 -0.5,0.4 -1,0.7 -1.5,0.9 z m -13.2,15.8 c 11,4.3 23.5,-1.1 27.8,-12.1 4.3,-11 -1.1,-23.5 -12.1,-27.8 -11,-4.3 -23.5,1.1 -27.8,12.1 -4.3,11 1.1,23.5 12.1,27.8 z"
         id="path14" />
      <path
         class="cls-1"
         d="m 98.5,74.65 c 4.6,0.8 8.4,3.4 10.9,7 2.5,3.6 3.6,8 2.7,12.6 -0.8,4.6 -3.4,8.4 -7,10.9 -3.6,2.5 -8,3.6 -12.6,2.7 -4.6,-0.8 -8.4,-3.4 -10.9,-7 -2.5,-3.6 -3.6,-8 -2.7,-12.6 0.9,-4.6 3.4,-8.4 7,-10.9 3.6,-2.4 8,-3.5 12.6,-2.7 z m 10.5,7.3 c -2.4,-3.5 -6.1,-6 -10.6,-6.8 -4.5,-0.8 -8.8,0.3 -12.3,2.7 -3.5,2.4 -6,6.1 -6.8,10.6 -0.8,4.5 0.3,8.8 2.7,12.3 2.4,3.5 6.1,6 10.6,6.8 4.5,0.8 8.8,-0.3 12.3,-2.7 3.5,-2.4 6,-6.1 6.8,-10.6 0.8,-4.5 -0.3,-8.9 -2.7,-12.3 z"
         id="path16" />
      <g
         id="g26">
        <polygon
           class="cls-2"
           points="82.3,88.85 80.5,90.25 71.8,88.65 70.6,86.75 72.5,85.25 81.1,86.85 "
           id="polygon18" />
        <polygon
           class="cls-2"
           points="120.4,95.75 118.6,97.15 109.9,95.55 108.7,93.65 110.6,92.15 119.2,93.75 "
           id="polygon20" />
        <polygon
           class="cls-2"
           points="93.1,104.75 94.5,106.55 93,115.25 91,116.45 89.5,114.65 91.1,105.95 "
           id="polygon22" />
        <polygon
           class="cls-2"
           points="100.1,66.15 101.5,67.95 100,76.65 98,77.85 96.5,76.05 98.1,67.35 "
           id="polygon24" />
      </g>
    </g>
  </g>
</svg>
