<?xml version="1.0" encoding="UTF-8" standalone="no"?>
<svg
   xmlns:dc="http://purl.org/dc/elements/1.1/"
   xmlns:cc="http://creativecommons.org/ns#"
   xmlns:rdf="http://www.w3.org/1999/02/22-rdf-syntax-ns#"
   xmlns:svg="http://www.w3.org/2000/svg"
   xmlns="http://www.w3.org/2000/svg"
   xmlns:sodipodi="http://sodipodi.sourceforge.net/DTD/sodipodi-0.dtd"
   xmlns:inkscape="http://www.inkscape.org/namespaces/inkscape"
   width="24.18297mm"
   height="24.215214mm"
   viewBox="0 0 24.18297 24.215214"
   version="1.1"
   id="svg49"
   inkscape:version="1.0.1 (3bc2e813f5, 2020-09-07)"
   sodipodi:docname="RA_TopCircle-05.svg">
  <defs
     id="defs43">
    <style
       id="style51">.cls-1{fill:#55ffdf;fill-rule:evenodd;}</style>
  </defs>
  <sodipodi:namedview
     id="base"
     pagecolor="#ffffff"
     bordercolor="#666666"
     borderopacity="1.0"
     inkscape:pageopacity="0.0"
     inkscape:pageshadow="2"
     inkscape:zoom="2.8"
     inkscape:cx="81.17597"
     inkscape:cy="18.043203"
     inkscape:document-units="mm"
     inkscape:current-layer="layer1"
     inkscape:document-rotation="0"
     showgrid="false"
     fit-margin-top="0"
     fit-margin-left="0"
     fit-margin-right="0"
     fit-margin-bottom="0"
     inkscape:window-width="1267"
     inkscape:window-height="1198"
     inkscape:window-x="338"
     inkscape:window-y="163"
     inkscape:window-maximized="0" />
  <metadata
     id="metadata46">
    <rdf:RDF>
      <cc:Work
         rdf:about="">
        <dc:format>image/svg+xml</dc:format>
        <dc:type
           rdf:resource="http://purl.org/dc/dcmitype/StillImage" />
        <dc:title></dc:title>
      </cc:Work>
    </rdf:RDF>
  </metadata>
  <g
     inkscape:label="Layer 1"
     inkscape:groupmode="layer"
     id="layer1"
     transform="translate(-130.02757,-151.93407)">
    <path
       class="cls-1"
       d="m 135.00175,154.23886 0.18521,-0.1323 c 2.32833,-1.64041 5.08,-2.32833 7.77875,-2.14312 3.09563,0.21167 6.11188,1.61396 8.30792,4.15396 1.71979,2.01083 2.69875,4.39208 2.91041,6.85271 l 0.0265,0.23812 h -0.21166 l -3.6248,-0.0529 v -0.10583 c -0.1852,-1.5875 -0.84666,-3.12208 -1.95791,-4.41854 -1.50813,-1.74625 -3.57188,-2.69875 -5.68854,-2.8575 -1.74625,-0.13229 -3.51896,0.29104 -5.05355,1.27 l -0.13229,0.10583 -0.0265,-0.0265 -0.13229,-0.15875 -2.2225,-2.56646 -0.15875,-0.15875 z m 18.97063,8.70479 c -0.21167,-2.40771 -1.16417,-4.7625 -2.8575,-6.72042 -2.14313,-2.48708 -5.10646,-3.86292 -8.14917,-4.07458 -2.64583,-0.18521 -5.34458,0.50271 -7.62,2.09021 l 2.24896,2.59291 c 1.56104,-0.97896 3.38667,-1.40229 5.13292,-1.29646 2.16958,0.15875 4.28625,1.13771 5.82083,2.91042 1.13771,1.29646 1.79917,2.8575 2.01083,4.445 l 3.41313,0.0529 z m -20.08188,2.01083 v 0.23813 c 0.21167,1.53458 0.84667,3.0427 1.95792,4.28625 1.50812,1.74625 3.57187,2.69875 5.68854,2.8575 1.77271,0.13229 3.59833,-0.3175 5.13292,-1.34938 l 0.0529,-0.0529 2.51354,2.91042 -0.18521,0.13229 c -2.32833,1.64042 -5.10646,2.32833 -7.77875,2.14312 -3.09562,-0.21166 -6.11187,-1.61395 -8.30791,-4.15395 -1.56105,-1.82563 -2.93688,-4.92125 -2.93688,-7.09084 l 3.86292,0.0794 z m -0.21166,0.23813 -3.41313,-0.0265 c 0.21167,2.4077 1.16417,4.73604 2.8575,6.69395 2.14313,2.48709 5.10646,3.86292 8.14917,4.07459 2.64583,0.18521 5.34458,-0.50271 7.64646,-2.09021 l -2.24896,-2.59292 c -1.56104,1.00542 -3.38667,1.42875 -5.15938,1.29646 -2.16958,-0.15875 -4.28625,-1.13771 -5.82083,-2.91041 -1.13771,-1.32292 -1.79917,-2.8575 -2.01083,-4.445 z"
       id="path55"
       style="stroke-width:0.264583" />
  </g>
</svg>
