<?xml version="1.0" encoding="UTF-8"?><svg id="Layer_2" xmlns="http://www.w3.org/2000/svg" viewBox="0 0 194.8 182.7"><defs><style>.cls-1,.cls-2{fill:#55ffdf;}.cls-2{fill-rule:evenodd;}</style></defs><path class="cls-2" d="M74.5,17.8l.6-.2,2.3,8.2-.6,.2-2.3-8.2h0Zm17.9,149.8l-.7-.1,.8-8.2h.7l-.8,8.3h0Zm2.6-2.2h-.7l.3-6h.7l-.3,6h0Zm2.4-.1h-.7v-6h.7v6h0Zm2.4-.1h-.7l-.2-6.1h.7l.2,6.1h0Zm2.3-.1l-.7,.1-.4-6,.7-.1,.4,6h0Zm2.4,2l-.7,.1-.8-8.2,.7-.1,.8,8.2h0Zm2.2-2.6l-.6,.1-.9-6,.6-.1,.9,6h0Zm2.4-.4l-.6,.1-1.1-6,.6-.1,1.1,6h0Zm2.2-.5l-.6,.1-1.3-5.9,.6-.1,1.3,5.9h0Zm2.4-.5l-.6,.2-1.5-5.9,.6-.2,1.5,5.9h0Zm53.7-89.2l-.1-.6-5.8,1.6,.1,.6,5.8-1.6h0Zm.6,2.4l-.1-.6-5.9,1.4,.1,.6,5.9-1.4h0Zm.4,2.4l-.1-.6-5.9,1.3,.1,.6,5.9-1.3h0Zm2.5,2.1l-.1-.6-8,1.7,.1,.7,8-1.8h0Zm-1.8,2.9l-.1-.7-6,1,.1,.7,6-1h0Zm.2,2.4l-.1-.7-6,.7v.7l6.1-.7h0Zm.2,2.3v-.7l-6,.5v.7l6-.5h0Zm0,2.4v-.7l-6,.3v.7l6-.3h0Zm2.4,1.7v-.7l-8.4,.4v.7l8.4-.4h0Zm-2.5,2.5v-.7h-6v.7h6Zm-.1,2.4l.1-.7-6-.3-.1,.7,6,.3h0Zm-.3,2.3l.1-.7-6-.5-.1,.7,6,.5h0Zm-.3,2.4l.1-.6-6-.7-.1,.6,6,.7h0Zm2,2.5l.1-.6-8.3-1-.1,.6,8.3,1h0Zm-2.8,2.1l.1-.6-5.9-1-.1,.6,5.9,1h0Zm-.5,2.4l.1-.6-5.9-1.3-.2,.6,6,1.3h0Zm-.6,2.2l.2-.6-5.9-1.5-.2,.6,5.9,1.5h0Zm-.7,2.3l.2-.6-5.8-1.7-.2,.6,5.8,1.7h0Zm1.6,2.6l.2-.6-8-2.3-.2,.6,8,2.3h0Zm-3.1,1.7l.2-.6-5.7-1.9-.2,.6,5.7,1.9h0Zm-.9,2.3l.3-.6-5.6-2.2-.3,.6,5.6,2.2h0Zm-1,2.1l.3-.6-5.5-2.4-.3,.6,5.5,2.4h0Zm-1,2.1l.3-.6-5.5-2.6-.3,.6,5.5,2.6h0Zm1.2,3.2l.3-.6-7.7-3.6-.3,.6,7.7,3.6h0Zm-3.5,1l.3-.6-5.3-2.8-.3,.6,5.3,2.8h0Zm-1.2,2.1l.3-.6-5.2-3.1-.3,.6,5.2,3.1h0Zm-1.3,1.9l.4-.5-5.1-3.2-.4,.5,5.1,3.2h0Zm-1.3,2l.4-.5-5-3.4-.4,.5,5,3.4h0Zm.5,3l.4-.5-6.9-4.6-.4,.5,6.9,4.6h0Zm-3.4,.6l.4-.5-4.9-3.6-.4,.5,4.9,3.6h0Zm-1.5,1.9l.4-.5-4.7-3.8-.4,.5,4.7,3.8h0Zm-1.6,1.7l.4-.5-4.6-4-.4,.5,4.6,4h0Zm-1.6,1.7l.5-.5-4.4-4.1-.5,.5,4.4,4.1h0Zm-.1,3.3l.5-.5-6-5.8-.5,.5,6,5.8h0Zm-3.5,.1l.5-.4-4.1-4.4-.5,.4,4.1,4.4h0Zm-1.8,1.6l.5-.4-3.9-4.6-.5,.4,3.9,4.6h0Zm-1.8,1.4l.5-.4-3.8-4.7-.5,.4,3.8,4.7h0Zm-2,1.4l.5-.4-3.6-4.8-.5,.4,3.6,4.8h0Zm-.6,3.3l.5-.4-5-6.6-.5,.4,5,6.6h0Zm-3.5-.5l.6-.3-3.4-5-.6,.3,3.4,5h0Zm-2,1.2l.6-.3-3.2-5.1-.6,.3,3.2,5.1h0Zm-2.1,1.2l.6-.3-3-5.3-.6,.3,3,5.3h0Zm-2.1,1.1l.6-.3-2.8-5.4-.6,.3,2.8,5.4h0Zm-1,2.9l.6-.3-3.6-7.4-.6,.3,3.6,7.4h0Zm-3.2-1l.6-.3-2.4-5.6-.6,.3,2.4,5.6h0Zm-2.2,.9l.6-.2-2.2-5.7-.6,.2,2.2,5.7h0Zm-2.2,.8l.6-.2-1.9-5.7-.6,.2,1.9,5.7h0Zm-2.2,.7l.6-.2-1.8-5.8-.6,.2,1.8,5.8h0Zm-1.6,3.1l.6-.2-2.3-8.2-.6,.2,2.3,8.2h0ZM19.1,90.2v.7l8.4-.4v-.7l-8.4,.4h0Zm2.5-2.6v.7h6v-.7h-6Zm.2-2.4l-.1,.7,6,.3,.1-.7-6-.3h0Zm.2-2.3l-.1,.7,6,.5,.1-.7-6-.5h0Zm.3-2.3l-.1,.6,6,.7,.1-.6-6-.7h0Zm-2-2.5l-.1,.6,8.3,1,.1-.6-8.3-1h0Zm2.8-2.2l-.1,.6,5.9,1,.1-.6-5.9-1h0Zm.6-2.3l-.1,.6,5.9,1.3,.2-.6-6-1.3h0Zm.5-2.2l-.1,.6,5.9,1.5,.2-.6-6-1.5h0Zm.8-2.3l-.2,.6,5.8,1.7,.2-.6-5.8-1.7h0Zm-1.6-2.7l-.2,.6,8,2.3,.2-.6-8-2.3h0Zm3.1-1.6l-.3,.6,5.7,1.9,.2-.6-5.6-1.9h0Zm.9-2.3l-.3,.6,5.6,2.2,.3-.6-5.6-2.2h0Zm.9-2.1l-.3,.6,5.5,2.4,.3-.6-5.5-2.4h0Zm1-2.1l-.3,.6,5.5,2.6,.3-.6-5.5-2.6h0Zm-1.2-3.2l-.3,.6,7.7,3.6,.3-.6-7.7-3.6h0Zm3.5-1.1l-.3,.6,5.3,2.8,.3-.6-5.3-2.8h0Zm1.3-2l-.3,.6,5.2,3.1,.3-.6-5.2-3.1h0Zm1.2-1.9l-.4,.5,5.1,3.2,.4-.5-5.1-3.2h0Zm1.4-2l-.4,.5,5,3.4,.4-.5-5-3.4h0Zm-.6-3l-.4,.5,6.9,4.6,.4-.5-6.9-4.6h0Zm3.4-.7l-.4,.5,4.9,3.6,.4-.5-4.9-3.6h0Zm1.6-1.8l-.4,.5,4.7,3.8,.4-.5-4.7-3.8h0Zm1.5-1.7l-.4,.5,4.5,4,.4-.5-4.5-4h0Zm1.7-1.8l-.5,.5,4.4,4.1,.5-.5-4.4-4.1h0Zm.1-3.3l-.5,.5,6,5.8,.5-.5-6-5.8h0Zm3.4,0l-.5,.4,4.1,4.4,.5-.4-4.1-4.4h0Zm1.9-1.6l-.5,.4,3.9,4.6,.5-.4-3.9-4.6h0Zm1.8-1.4l-.5,.4,3.8,4.7,.5-.4-3.8-4.7h0Zm1.9-1.5l-.5,.4,3.6,4.8,.5-.4-3.6-4.8h0Zm.7-3.2l-.5,.4,5,6.6,.5-.4-5-6.6h0Zm3.4,.5l-.6,.4,3.4,5,.6-.3-3.4-5.1h0Zm2.1-1.3l-.6,.3,3.2,5.1,.6-.3-3.2-5.1h0Zm2-1.1l-.6,.3,3,5.3,.6-.3-3-5.3h0Zm2.1-1.1l-.6,.3,2.8,5.4,.6-.3-2.8-5.4h0Zm1-3l-.6,.3,3.6,7.4,.6-.3-3.6-7.4h0Zm3.2,1.1l-.6,.3,2.4,5.6,.6-.3-2.4-5.6h0Zm2.2-.9l-.6,.2,2.2,5.7,.6-.2-2.2-5.7h0Zm2.2-.8l-.6,.2,1.9,5.7,.6-.2-1.9-5.7h0Zm2.3-.8l-.6,.2,1.8,5.8,.6-.2-1.8-5.8h0Zm87.6,52.5l-.2-.6,8.2-2.3,.2,.6-8.2,2.3h0Zm4.9-4.7l.2,.6-5.8,1.7-.2-.6,5.8-1.7h0Zm-.8-2.4l.2,.6-5.7,1.9-.2-.6,5.7-1.9h0Zm-.9-2.3l.2,.6-5.7,2-.2-.6,5.7-2h0Zm1.1-3l.2,.6-7.7,2.8-.3-.6,7.8-2.8h0Zm-3.1-1.5l.3,.6-5.6,2.3-.3-.6,5.6-2.3h0Zm-1.1-2.2l.3,.6-5.5,2.6-.3-.6,5.5-2.6h0Zm-1.1-2l.3,.6-5.4,2.7-.3-.6,5.4-2.7h0Zm-1.2-2.1l.3,.6-5.3,2.9-.3-.6,5.3-2.9h0Zm1.2-2.7l.3,.6-7.4,4.1-.4-.6,7.5-4.1h0Zm-3.5-.8l.4,.5-5.1,3.2-.4-.5,5.1-3.2h0Zm-1.4-2l.4,.5-5,3.4-.4-.5,5-3.4h0Zm-1.4-1.8l.4,.5-4.9,3.6-.4-.5,4.9-3.6h0Zm-1.5-1.9l.4,.5-4.7,3.7-.4-.5,4.7-3.7h0Zm.4-3.2l.4,.5-6.5,5.2-.4-.5,6.5-5.2h0Zm-3.5-.3l.4,.5-4.5,4-.5-.5,4.6-4h0Zm-1.7-1.7l.5,.5-4.3,4.2-.5-.5,4.3-4.2h0Zm-1.6-1.6l.5,.5-4.2,4.4-.5-.4,4.2-4.5h0Zm-1.8-1.6l.5,.4-4,4.5-.5-.4,4-4.5h0Zm-.1-3.1l.5,.4-5.7,6.2-.5-.4,5.7-6.2h0Zm-3.5,.2l.5,.4-3.9,4.6-.5-.4,3.9-4.6h0Zm-1.9-1.4l.5,.4-3.7,4.8-.5-.4,3.7-4.8h0Zm-1.9-1.3l.5,.4-3.5,4.9-.5-.4,3.5-4.9h0Zm-2-1.3l.6,.4-3.3,5-.6-.3,3.3-5.1h0Zm-.7-3.3l.5,.4-4.7,7.1-.6-.3,4.8-7.2h0Zm-3.5,.9l.6,.3-3.1,5.2-.6-.3,3.1-5.2h0Zm-2.1-1.1l.6,.3-2.8,5.3-.6-.3,2.8-5.3h0Zm-2.1-1l.6,.3-2.6,5.4-.6-.3,2.6-5.4h0Zm-2.2-.9l.6,.3-2.4,5.5-.6-.3,2.4-5.5h0Zm-1.1-2.9l.6,.3-3.4,7.5-.6-.2,3.4-7.6h0Zm-3.2,1.2l.6,.2-2.3,5.6-.6-.2,2.3-5.6h0Zm-2.3-.7l.6,.2-2,5.7-.6-.2,2-5.7h0Zm-2.2-.7l.6,.2-1.8,5.8-.6-.2,1.8-5.8h0Zm-2.4-.6l.6,.2-1.6,5.8-.6-.2,1.6-5.8h0Zm-1.8-2.8l.6,.2-2.1,8.1-.6-.1,2.1-8.2h0Zm-3,1.8l.6,.1-1.2,5.9-.6-.1,1.2-5.9h0Zm-2.4-.3l.6,.1-1,5.9-.6-.1,1-5.9h0Zm-2.2-.3l.7,.1-.7,6-.7-.1,.7-6h0Zm-2.4-.2l.7,.1-.5,6-.7-.1,.5-6h0Zm-2.3-2.5l.7,.1-.8,8.2h-.7l.8-8.3h0Zm-2.7,2.3h.7l-.3,6h-.7l.3-6h0Zm-2.4,0h.7v6h-.7v-6h0Zm-2.3,.1h.7l.2,6.1h-.7l-.2-6.1h0Zm-2.4,.2l.7-.1,.4,6h-.7l-.4-5.9h0Zm-2.4-2l.7-.1,.8,8.2-.7,.1-.8-8.2h0Zm-2.2,2.5l.6-.1,.9,6-.6,.1-.9-6h0Zm-2.3,.4l.6-.1,1.1,6-.6,.1-1.1-6h0Zm-2.3,.5l.6-.1,1.3,5.9-.5,.1-1.4-5.9h0Zm-2.3,.5l.6-.2,1.5,5.9-.6,.2-1.5-5.9h0Z"/><path class="cls-1" d="M117.5,47.5c12.1,6.1,20.6,16.5,24.5,28.4s3.4,25.3-2.7,37.4-16.5,20.6-28.4,24.5c-11.9,3.9-25.3,3.4-37.4-2.7-12.1-6.1-20.6-16.5-24.5-28.4-3.9-11.9-3.4-25.3,2.7-37.4,6.1-12,16.5-20.5,28.4-24.5s25.3-3.3,37.4,2.7h0ZM48.1,84.1l-.3-.1c-.2,1-.3,2.1-.4,3.1h.3c0,.5-.1,.9-.1,1.4h-.3c-.1,1.2-.1,2.3-.1,3.5h.3v1.4h-.3c0,1.2,.1,2.4,.3,3.5h.3c.1,.4,.1,.9,.2,1.3h-.3c.2,1.1,.4,2.3,.6,3.4l.3-.1c.1,.4,.2,.9,.3,1.3l-.3,.1c.2,1,.5,2,.8,3l.3-.1c.1,.4,.3,.9,.4,1.3l-.3,.1c.4,1.1,.8,2.2,1.2,3.2l.3-.1,.6,1.2-.3,.1c.5,1.1,1,2.1,1.6,3.2l.3-.2c.2,.4,.4,.8,.7,1.2l-.3,.2c.6,1,1.2,2,1.9,2.9l.3-.2c.3,.4,.5,.7,.8,1.1l-.3,.2c.6,.8,1.3,1.7,1.9,2.4l.3-.2c.3,.3,.6,.7,.9,1l-.3,.2c.8,.9,1.6,1.7,2.4,2.5l.2-.3c.3,.3,.7,.6,1,.9l-.2,.3c.9,.8,1.8,1.6,2.7,2.3l.2-.3c.4,.3,.7,.6,1.1,.8l-.2,.3c.9,.7,1.9,1.3,2.8,2l.2-.3c.4,.2,.8,.5,1.2,.7l-.2,.3c.9,.5,1.8,1,2.7,1.5l.2-.3c.2,.1,.4,.2,.6,.3s.4,.2,.6,.3l-.2,.3c1,.5,2.1,1,3.2,1.4l.1-.3c.4,.2,.8,.3,1.3,.5l-.1,.3c1.1,.4,2.2,.8,3.4,1.1l.1-.3c.4,.1,.9,.2,1.3,.4l-.1,.3c1.1,.3,2.2,.5,3.4,.7l.1-.3c.4,.1,.9,.2,1.3,.2l-.1,.3c1,.2,2.1,.3,3.1,.4v-.3c.5,0,.9,.1,1.4,.1v.3c1.2,.1,2.3,.1,3.4,.1v-.3h1.4v.3c1.2-.1,2.4-.1,3.5-.3v-.3c.5-.1,.9-.1,1.3-.2v.3c1.1-.2,2.3-.4,3.4-.6l-.1-.3c.4-.1,.9-.2,1.3-.3l.1,.3c1-.2,2-.5,3-.8l-.1-.3c.4-.1,.9-.3,1.3-.4l.1,.3c1.1-.4,2.2-.8,3.2-1.2l-.1-.3c.4-.2,.8-.4,1.2-.6l.1,.3c1.1-.5,2.1-1,3.1-1.6l-.2-.3c.4-.2,.8-.4,1.2-.7l.2,.3c1-.6,2-1.2,2.9-1.9l-.2-.3c.4-.3,.7-.5,1.1-.8l.2,.3c.8-.6,1.6-1.3,2.4-1.9l-.2-.3c.3-.3,.7-.6,1-.9l.2,.2c.9-.8,1.7-1.6,2.5-2.4l-.2-.2c.3-.3,.6-.7,.9-1l.2,.2c.8-.9,1.6-1.8,2.3-2.7l-.3-.2c.3-.4,.6-.7,.8-1.1l.3,.2c.7-.9,1.3-1.9,2-2.8l-.3-.2c.2-.4,.5-.8,.7-1.2l.3,.2c.5-.9,1-1.8,1.5-2.7l-.3-.1c.1-.2,.2-.4,.3-.6s.2-.4,.3-.6l.3,.1c.5-1,1-2.1,1.4-3.2l-.3-.1c.2-.4,.3-.8,.5-1.3l.3,.1c.4-1.1,.8-2.2,1.1-3.4l-.3-.1c.1-.4,.2-.9,.4-1.3l.3,.1c.3-1.1,.5-2.2,.7-3.4l-.3-.1c.1-.4,.2-.9,.2-1.3l.3,.1c.2-1,.3-2.1,.4-3.1h-.3c0-.5,.1-.9,.1-1.4h.3c.1-1.2,.1-2.3,.1-3.4h-.3v-1.4h.3c0-1.2-.1-2.4-.3-3.5h-.3c-.1-.5-.1-.9-.2-1.3h.3c-.2-1.1-.4-2.3-.6-3.4l-.3,.1c-.1-.4-.2-.9-.3-1.3l.3-.1c-.2-1-.5-2-.8-3l-.3,.1c-.1-.4-.3-.9-.4-1.3l.3-.1c-.4-1.1-.8-2.2-1.2-3.2l-.3,.1c-.2-.4-.4-.8-.6-1.2l.3-.1c-.5-1.1-1-2.1-1.6-3.2l-.3,.2c-.2-.4-.4-.8-.7-1.2l.3-.2c-.6-1-1.2-2-1.9-2.9l-.3,.2c-.3-.4-.5-.7-.8-1.1l.3-.2c-.6-.8-1.3-1.7-1.9-2.4l-.3,.2c-.3-.3-.6-.7-.9-1l.3-.2c-.8-.9-1.6-1.7-2.4-2.5l-.3,.3c-.3-.3-.7-.6-1-.9l.3-.3c-.9-.8-1.8-1.6-2.7-2.3l-.2,.3c-.4-.3-.7-.6-1.1-.8l.2-.3c-.9-.7-1.9-1.3-2.8-2l-.2,.3c-.4-.2-.8-.5-1.2-.7l.2-.3c-.9-.5-1.8-1-2.7-1.5l-.2,.3-.6-.3-.6-.3,.2-.3c-1-.5-2.1-1-3.2-1.4l-.1,.3c-.4-.2-.8-.3-1.3-.5l.3-.1c-1.1-.4-2.2-.8-3.4-1.1l-.1,.4c-.4-.1-.9-.2-1.3-.4l.1-.4c-2.6-.7-5.2-1.1-7.8-1.3v.4c-.5,0-.9-.1-1.4-.1v-.4c-1.2-.1-2.3-.1-3.4-.1v.4h-1.4v-.4c-1.2,0-2.4,.1-3.5,.3v.4c-.5,.1-.9,.1-1.3,.2v-.4c-1.1,.2-2.3,.4-3.4,.6l.1,.3c-.4,.1-.9,.2-1.3,.3l-.1-.3c-1,.2-2,.5-3,.8l.1,.3c-.4,.1-.9,.3-1.3,.4l-.1-.3c-1.1,.4-2.2,.8-3.2,1.2l.1,.3-1.2,.6-.2-.2c-1.1,.5-2.1,1-3.1,1.6l.2,.3c-.4,.2-.8,.4-1.2,.7l-.2-.3c-1,.6-2,1.2-2.9,1.9l.2,.3c-.4,.3-.7,.5-1.1,.8l-.2-.3c-.8,.6-1.6,1.3-2.4,1.9l.2,.3c-.3,.3-.7,.6-1,.9l-.2-.3c-.9,.8-1.7,1.6-2.5,2.4l.2,.2c-.3,.3-.6,.7-.9,1l-.2-.2c-.8,.9-1.6,1.8-2.3,2.7l.3,.2c-.3,.4-.6,.7-.8,1.1l-.3-.2c-.7,.9-1.3,1.9-2,2.8l.3,.2c-.2,.4-.5,.8-.7,1.2l-.3-.2c-.5,.9-1,1.8-1.5,2.7l.3,.2-.3,.6-.3,.6-.3-.2c-.5,1-1,2.1-1.4,3.2l.3,.1c-.2,.4-.3,.8-.5,1.3l-.3-.1c-.4,1.1-.8,2.2-1.1,3.4l.3,.1c-.1,.4-.2,.9-.4,1.3l-.3-.1c-.3,1.1-.5,2.2-.7,3.4l.3,.1c-.2,.1-.3,.6-.3,1h0Zm50.4-41l1.1,.1c-.4,0-.7-.1-1.1-.1h0Zm4.2,.8l.1-.4,1.3,.2-.1,.4c-.4,0-.8-.1-1.3-.2h0Zm4.8,.6l1.2,.3c-.4-.1-.8-.2-1.2-.3h0Zm17.2,8.4l.8,.6c-.3-.3-.5-.5-.8-.6h0Zm3.6,2.9l.9,.9c-.3-.3-.6-.6-.9-.9h0Zm3.5,3.6l.5,.6c-.1-.2-.3-.4-.5-.6h0Z"/></svg>