<?xml version="1.0" encoding="UTF-8"?><svg id="Layer_2" xmlns="http://www.w3.org/2000/svg" viewBox="0 0 194.8 182.7"><defs><style>.cls-1{fill:#55ffdf;}</style></defs><path class="cls-1" d="M97.5,182.9c-13.7,0-26.8-2.9-39.1-8.7l1.3-2.7c11.9,5.6,24.6,8.4,37.8,8.4,37.9,0,71.6-24.1,83.8-59.9l2.8,1c-12.6,37-47.4,61.9-86.6,61.9Z"/><path class="cls-1" d="M32.8,156.1C15.5,138.8,6,115.8,6,91.4,6,40.9,47.1-.1,97.5-.1c27.4,0,53.2,12.1,70.6,33.3l-2.3,1.9C148.9,14.6,124,2.9,97.5,2.9,48.7,2.9,9,42.6,9,91.4c0,23.6,9.2,45.9,25.9,62.6l-2.1,2.1Z"/></svg>